<svg xmlns="http://www.w3.org/2000/svg" xmlns:xlink="http://www.w3.org/1999/xlink" width="110" height="110" viewBox="0 0 110 110">
  <defs>
    <filter id="Trazado_982547" x="0" y="0" width="110" height="110" filterUnits="userSpaceOnUse">
      <feOffset dy="3" input="SourceAlpha"/>
      <feGaussianBlur stdDeviation="3" result="blur"/>
      <feFlood flood-opacity="0.161"/>
      <feComposite operator="in" in2="blur"/>
      <feComposite in="SourceGraphic"/>
    </filter>
  </defs>
  <g id="Grupo_1172090" data-name="Grupo 1172090" transform="translate(734 -1995.129)">
    <g id="Grupo_1172088" data-name="Grupo 1172088">
      <g id="Grupo_1171909" data-name="Grupo 1171909" transform="translate(-1846 35.129)">
        <g id="Grupo_1164700" data-name="Grupo 1164700" transform="translate(1121 1966)">
          <g id="Grupo_1160931" data-name="Grupo 1160931" transform="translate(0)">
            <g id="Grupo_1160749" data-name="Grupo 1160749" transform="translate(0)">
              <g id="Grupo_1158891" data-name="Grupo 1158891" transform="translate(0 0)">
                <g id="Grupo_1157406" data-name="Grupo 1157406" transform="translate(0)">
                  <g id="Grupo_1155793" data-name="Grupo 1155793" transform="translate(0)">
                    <g id="Grupo_1154704" data-name="Grupo 1154704" transform="translate(0)">
                      <g id="Grupo_1150790" data-name="Grupo 1150790" transform="translate(0)">
                        <g id="Grupo_1154214" data-name="Grupo 1154214" transform="translate(0)">
                          <g id="Grupo_1152583" data-name="Grupo 1152583" transform="translate(0 0)">
                            <g id="Grupo_1146973" data-name="Grupo 1146973" transform="translate(0 0)">
                              <g id="Grupo_1146954" data-name="Grupo 1146954">
                                <g transform="matrix(1, 0, 0, 1, -9, -6)" filter="url(#Trazado_982547)">
                                  <g id="Trazado_982547-2" data-name="Trazado 982547" transform="translate(9 6)" fill="#e9f9fd">
                                    <path d="M 46.00000381469727 90.49988555908203 C 39.99188232421875 90.49988555908203 34.16427230834961 89.32352447509766 28.67905807495117 87.00347137451172 C 23.38020324707031 84.76226043701172 18.62104415893555 81.55342864990234 14.53375053405762 77.46615600585938 C 10.44647026062012 73.37887573242188 7.237643718719482 68.61971282958984 4.996417045593262 63.32085800170898 C 2.676363706588745 57.83565902709961 1.500003814697266 52.00806045532227 1.500003814697266 45.99993896484375 C 1.500003814697266 39.99181747436523 2.676363706588745 34.16421890258789 4.996417045593262 28.67901802062988 C 7.237643718719482 23.38017845153809 10.44647026062012 18.62101936340332 14.53375053405762 14.53373908996582 C 18.62104415893555 10.44645881652832 23.38020324707031 7.237632274627686 28.67905807495117 4.996418952941895 C 34.16427230834961 2.676365613937378 39.99188232421875 1.500005602836609 46.00000381469727 1.500005602836609 C 52.00812530517578 1.500005602836609 57.83573532104492 2.676365613937378 63.32094955444336 4.996418952941895 C 68.61980438232422 7.237632274627686 73.37897491455078 10.44645881652832 77.46625518798828 14.53373908996582 C 81.55355072021484 18.62101936340332 84.76236724853516 23.38017845153809 87.00359344482422 28.67901802062988 C 89.32364654541016 34.16421890258789 90.5 39.99181747436523 90.5 45.99993896484375 C 90.5 52.00806045532227 89.32364654541016 57.83565902709961 87.00359344482422 63.32085800170898 C 84.76236724853516 68.61971282958984 81.55355072021484 73.37887573242188 77.46625518798828 77.46615600585938 C 73.37897491455078 81.55342864990234 68.61980438232422 84.76226043701172 63.32094955444336 87.00347137451172 C 57.83573532104492 89.32352447509766 52.00812530517578 90.49988555908203 46.00000381469727 90.49988555908203 Z" stroke="none"/>
                                    <path d="M 46.00000381469727 2.999992370605469 C 40.19371795654297 2.999992370605469 34.56270217895508 4.136497497558594 29.26338958740234 6.377906799316406 C 24.14333343505859 8.543510437011719 19.54441833496094 11.64437866210938 15.59440612792969 15.59439849853516 C 11.64440155029297 19.54439544677734 8.54351806640625 24.14329528808594 6.377914428710938 29.26335144042969 C 4.136505126953125 34.56266784667969 3.000007629394531 40.19366836547852 3.000007629394531 45.99993896484375 C 3.000007629394531 51.80620956420898 4.136505126953125 57.43722534179688 6.377914428710938 62.73654174804688 C 8.54351806640625 67.85658264160156 11.64440155029297 72.45548248291016 15.59440612792969 76.40549468994141 C 19.54441833496094 80.35549926757812 24.14333343505859 83.45636749267578 29.26337432861328 85.62196350097656 C 34.56270217895508 87.86338043212891 40.19371795654297 88.9998779296875 46.00000381469727 88.9998779296875 C 51.80628967285156 88.9998779296875 57.43730545043945 87.86338043212891 62.73663330078125 85.62196350097656 C 67.85667419433594 83.45636749267578 72.45558929443359 80.35549926757812 76.40560150146484 76.40549468994141 C 80.35560607910156 72.45548248291016 83.45648956298828 67.85658264160156 85.62208557128906 62.73654174804688 C 87.86350250244141 57.43722534179688 89 51.80620956420898 89 45.99993896484375 C 89 40.19366836547852 87.86350250244141 34.56266784667969 85.62208557128906 29.26335144042969 C 83.45648956298828 24.14329528808594 80.35560607910156 19.54439544677734 76.40560150146484 15.59439849853516 C 72.45558929443359 11.64437866210938 67.85667419433594 8.543510437011719 62.73661804199219 6.377906799316406 C 57.43730545043945 4.136497497558594 51.80628967285156 2.999992370605469 46.00000381469727 2.999992370605469 M 46.00000381469727 -7.62939453125e-06 C 71.40510559082031 -7.62939453125e-06 92 20.59487915039062 92 45.99993896484375 C 92 71.40501403808594 71.40510559082031 91.99988555908203 46.00000381469727 91.99988555908203 C 20.59490203857422 91.99988555908203 7.62939453125e-06 71.40501403808594 7.62939453125e-06 45.99993896484375 C 7.62939453125e-06 20.59487915039062 20.59490203857422 -7.62939453125e-06 46.00000381469727 -7.62939453125e-06 Z" stroke="none" fill="#36ceef"/>
                                  </g>
                                </g>
                              </g>
                            </g>
                          </g>
                        </g>
                      </g>
                    </g>
                  </g>
                </g>
              </g>
            </g>
          </g>
        </g>
      </g>
    </g>
    <g id="travel_16054744" transform="translate(-703.174 2018.477)">
      <path id="Trazado_1026033" data-name="Trazado 1026033" d="M41.354,42.874l-.9.9-3.537,1,.833-2.946.17-.591.9-.9Z" transform="translate(-3.841 -4.221)" fill="#ccd1d9"/>
      <path id="Trazado_1026034" data-name="Trazado 1026034" d="M45.584,6.372H40.212V1Z" transform="translate(-4.185 -0.105)" fill="#f5f7fa"/>
      <path id="Trazado_1026035" data-name="Trazado 1026035" d="M0,0H10V3.581H0Z" transform="translate(45.511 25.615) rotate(-44.96)" fill="#656d78"/>
      <path id="Trazado_1026036" data-name="Trazado 1026036" d="M59.308,19.949a1.789,1.789,0,1,1,2.525,2.534l-.627.636-2.534-2.534Z" transform="translate(-6.117 -2.033)" fill="#656d78"/>
      <path id="Trazado_1026037" data-name="Trazado 1026037" d="M15.9,24H27.531a8.936,8.936,0,0,1-14.308,0Z" transform="translate(-1.361 -2.511)" fill="#5d9cec"/>
      <path id="Trazado_1026038" data-name="Trazado 1026038" d="M34.5,37.119l.9-.9,6.42-6.42V6.372H36.446V1H4.213V53.827H41.818V34.872l-3.886,3.886-.9.9-3.537,1,.833-2.946ZM26.6,21.594h-.009a8.936,8.936,0,0,1-14.308,0h-.009a8.954,8.954,0,1,1,14.326,0Z" transform="translate(-0.419 -0.105)" fill="#f5f7fa"/>
      <path id="Trazado_1026039" data-name="Trazado 1026039" d="M20.166,19.64H17.48a1.79,1.79,0,0,0-1.791,1.791v.9H13a8.954,8.954,0,1,1,14.326,0H24.643v-.9a1.785,1.785,0,0,0-1.791-1.791Z" transform="translate(-1.151 -0.837)" fill="#87bcf4"/>
      <path id="Trazado_1026040" data-name="Trazado 1026040" d="M52.079,31.145l-6.617,6.617-3.886,3.886-2.534-2.534,6.42-6.42,4.083-4.074Z" transform="translate(-4.063 -2.994)" fill="#656d78"/>
      <path id="Trazado_1026041" data-name="Trazado 1026041" d="M18,21h5.372a1.785,1.785,0,0,1,1.791,1.791v.9H16.212v-.9A1.79,1.79,0,0,1,18,21Z" transform="translate(-1.674 -2.197)" fill="#ffce54"/>
      <path id="Trazado_1026042" data-name="Trazado 1026042" d="M3.9,4V54.141h34.92v2.686H1.212V4Z" transform="translate(-0.105 -0.419)" fill="#ccd1d9"/>
      <path id="Trazado_1026043" data-name="Trazado 1026043" d="M36.106,46.717a.9.9,0,0,1-.633-1.528l.633-.633a.9.9,0,1,1,1.266,1.266l-.633.633a.892.892,0,0,1-.633.262Z" transform="translate(-3.662 -4.634)"/>
      <path id="Trazado_1026044" data-name="Trazado 1026044" d="M36.814,45.671a.886.886,0,0,1-.246-.034.9.9,0,0,1-.616-1.106l1.006-3.536a.9.9,0,1,1,1.723.49L37.675,45.02A.9.9,0,0,1,36.814,45.671Z" transform="translate(-3.736 -4.221)"/>
      <path id="Trazado_1026045" data-name="Trazado 1026045" d="M36.812,45.966a.9.9,0,0,1-.244-1.757l3.538-1a.9.9,0,0,1,.49,1.723l-3.538,1a.886.886,0,0,1-.246.034Z" transform="translate(-3.736 -4.517)"/>
      <path id="Trazado_1026046" data-name="Trazado 1026046" d="M41.469,43.667a.892.892,0,0,1-.633-.262L38.3,40.872a.9.9,0,0,1,1.266-1.266L42.1,42.138a.9.9,0,0,1-.633,1.528Z" transform="translate(-3.958 -4.116)"/>
      <path id="Trazado_1026047" data-name="Trazado 1026047" d="M53.2,31.939a.892.892,0,0,1-.633-.262L50.03,29.144A.9.9,0,0,1,51.3,27.877l2.532,2.533a.9.9,0,0,1-.633,1.528Z" transform="translate(-5.185 -2.889)"/>
      <path id="Trazado_1026048" data-name="Trazado 1026048" d="M37.936,39.9a.9.9,0,0,1-.633-1.528l19.1-19.1a.9.9,0,1,1,1.266,1.266l-19.1,19.1a.893.893,0,0,1-.633.262Z" transform="translate(-3.853 -1.989)"/>
      <path id="Trazado_1026049" data-name="Trazado 1026049" d="M40.764,42.731a.9.9,0,0,1-.633-1.528l19.1-19.1A.9.9,0,1,1,60.5,23.366l-19.1,19.1a.892.892,0,0,1-.633.262Z" transform="translate(-4.149 -2.285)"/>
      <path id="Trazado_1026050" data-name="Trazado 1026050" d="M61.8,23.271a.9.9,0,0,1-.633-1.528A.9.9,0,0,0,59.9,20.477a.9.9,0,1,1-1.266-1.268,2.686,2.686,0,0,1,3.8,3.8.892.892,0,0,1-.633.262Z" transform="translate(-6.085 -1.927)"/>
      <path id="Trazado_1026051" data-name="Trazado 1026051" d="M62.1,27.575a.9.9,0,0,1-.633-1.528.894.894,0,0,0,0-1.265.9.9,0,0,1,1.266-1.268,2.686,2.686,0,0,1,0,3.8.892.892,0,0,1-.633.262Z" transform="translate(-6.381 -2.433)"/>
      <path id="Trazado_1026052" data-name="Trazado 1026052" d="M55.321,33.94a.9.9,0,0,1-.633-1.528l6.068-6.069a.9.9,0,0,1,1.266,1.266l-6.068,6.069a.892.892,0,0,1-.633.262Z" transform="translate(-5.672 -2.729)"/>
      <path id="Trazado_1026053" data-name="Trazado 1026053" d="M61.729,24.673a.892.892,0,0,1-.633-.262L57.93,21.244A.9.9,0,0,1,59.2,19.978l3.165,3.166a.9.9,0,0,1-.633,1.528Z" transform="translate(-6.011 -2.063)"/>
      <path id="Trazado_1026054" data-name="Trazado 1026054" d="M41.712,54.618H4.106a.895.895,0,0,1-.9-.9V.9a.895.895,0,0,1,.9-.9H36.34a.9.9,0,0,1,.633.262l5.372,5.372a.9.9,0,0,1,.262.633V29.7a.9.9,0,0,1-1.791,0V6.638L35.969,1.791H5V52.827H40.817V34.767a.9.9,0,1,1,1.791,0V53.722a.895.895,0,0,1-.9.9Z" transform="translate(-0.314)"/>
      <path id="Trazado_1026055" data-name="Trazado 1026055" d="M40.106,7.163a.895.895,0,0,1-.9-.9V.9A.9.9,0,1,1,41,.9V6.268a.895.895,0,0,1-.9.9Z" transform="translate(-4.08 0)"/>
      <path id="Trazado_1026056" data-name="Trazado 1026056" d="M45.479,7.791H40.106a.9.9,0,0,1,0-1.791h5.372a.9.9,0,0,1,0,1.791Z" transform="translate(-4.08 -0.628)"/>
      <path id="Trazado_1026057" data-name="Trazado 1026057" d="M35.386,34.791H12.106a.9.9,0,0,1,0-1.791h23.28a.9.9,0,0,1,0,1.791Z" transform="translate(-1.151 -3.453)"/>
      <path id="Trazado_1026058" data-name="Trazado 1026058" d="M35.386,38.791H12.106a.9.9,0,0,1,0-1.791h23.28a.9.9,0,0,1,0,1.791Z" transform="translate(-1.151 -3.871)"/>
      <path id="Trazado_1026059" data-name="Trazado 1026059" d="M35.067,42.791H12.106a.9.9,0,0,1,0-1.791H35.067a.9.9,0,0,1,0,1.791Z" transform="translate(-1.151 -4.29)"/>
      <path id="Trazado_1026060" data-name="Trazado 1026060" d="M23.746,46.791H12.106a.9.9,0,0,1,0-1.791h11.64a.9.9,0,0,1,0,1.791Z" transform="translate(-1.151 -4.708)"/>
      <path id="Trazado_1026061" data-name="Trazado 1026061" d="M37.374,51.791H31.106a.9.9,0,0,1,0-1.791h6.268a.9.9,0,0,1,0,1.791Z" transform="translate(-3.139 -5.231)"/>
      <path id="Trazado_1026062" data-name="Trazado 1026062" d="M36.106,53.372a.895.895,0,0,1-.9-.9V48.9A.9.9,0,1,1,37,48.9v3.581a.895.895,0,0,1-.9.9Z" transform="translate(-3.662 -5.022)"/>
      <path id="Trazado_1026063" data-name="Trazado 1026063" d="M35.793,53.372a.891.891,0,0,1-.717-.358L32.39,49.432a.9.9,0,0,1,1.432-1.074l2.686,3.581a.9.9,0,0,1-.715,1.432Z" transform="translate(-3.348 -5.022)"/>
      <path id="Trazado_1026064" data-name="Trazado 1026064" d="M33.106,53.372a.895.895,0,0,1-.9-.9V48.9A.9.9,0,1,1,34,48.9v3.581a.895.895,0,0,1-.9.9Z" transform="translate(-3.348 -5.022)"/>
      <path id="Trazado_1026065" data-name="Trazado 1026065" d="M43.106,63.477a.895.895,0,0,1-.9-.9V59.9A.9.9,0,1,1,44,59.9v2.686a.895.895,0,0,1-.9.9Z" transform="translate(-4.394 -6.173)"/>
      <path id="Trazado_1026066" data-name="Trazado 1026066" d="M38.712,63.791H1.106a.9.9,0,0,1,0-1.791H38.712a.9.9,0,0,1,0,1.791Z" transform="translate(0 -6.487)"/>
      <path id="Trazado_1026067" data-name="Trazado 1026067" d="M1.106,57.618a.895.895,0,0,1-.9-.9V3.9A.9.9,0,1,1,2,3.9V56.722a.895.895,0,0,1-.9.9Z" transform="translate(0 -0.314)"/>
      <path id="Trazado_1026068" data-name="Trazado 1026068" d="M3.792,4.791H1.106A.9.9,0,0,1,1.106,3H3.792a.9.9,0,0,1,0,1.791Z" transform="translate(0 -0.314)"/>
      <path id="Trazado_1026069" data-name="Trazado 1026069" d="M20.06,26.7a9.849,9.849,0,1,1,9.849-9.849A9.849,9.849,0,0,1,20.06,26.7Zm0-17.907a8.058,8.058,0,1,0,8.058,8.058A8.058,8.058,0,0,0,20.06,8.791Z" transform="translate(-1.046 -0.732)"/>
      <path id="Trazado_1026070" data-name="Trazado 1026070" d="M27.432,24.791H13.106a.9.9,0,1,1,0-1.791H27.432a.9.9,0,0,1,0,1.791Z" transform="translate(-1.256 -2.406)"/>
      <path id="Trazado_1026071" data-name="Trazado 1026071" d="M16.106,23.581a.895.895,0,0,1-.9-.9A2.689,2.689,0,0,1,17.9,20a.9.9,0,0,1,0,1.791.9.9,0,0,0-.9.9.895.895,0,0,1-.9.9Z" transform="translate(-1.569 -2.093)"/>
      <path id="Trazado_1026072" data-name="Trazado 1026072" d="M25.9,23.581a.895.895,0,0,1-.9-.9.9.9,0,0,0-.9-.9.9.9,0,1,1,0-1.791,2.689,2.689,0,0,1,2.686,2.686.895.895,0,0,1-.9.9Z" transform="translate(-2.406 -2.093)"/>
      <path id="Trazado_1026073" data-name="Trazado 1026073" d="M23.479,21.791H18.106a.9.9,0,1,1,0-1.791h5.372a.9.9,0,0,1,0,1.791Z" transform="translate(-1.779 -2.093)"/>
      <path id="Trazado_1026074" data-name="Trazado 1026074" d="M26.106,24.686a.895.895,0,0,1-.9-.9v-.9A.9.9,0,0,1,27,22.9v.9a.895.895,0,0,1-.9.9Z" transform="translate(-2.616 -2.302)"/>
      <path id="Trazado_1026075" data-name="Trazado 1026075" d="M16.106,24.686a.895.895,0,0,1-.9-.9v-.9A.9.9,0,0,1,17,22.9v.9a.895.895,0,0,1-.9.9Z" transform="translate(-1.569 -2.302)"/>
      <path id="Trazado_1026076" data-name="Trazado 1026076" d="M21.106,21.27a.895.895,0,0,1-.9-.9V15.917a.9.9,0,1,1,1.791,0v4.458a.895.895,0,0,1-.9.9Z" transform="translate(-2.093 -1.572)"/>
      <path id="Trazado_1026077" data-name="Trazado 1026077" d="M26.479,16.5a.895.895,0,0,1-.9-.9A1.791,1.791,0,0,0,22,15.6a.9.9,0,1,1-1.791,0,3.581,3.581,0,1,1,7.163,0,.895.895,0,0,1-.9.9Z" transform="translate(-2.093 -1.258)"/>
      <path id="Trazado_1026078" data-name="Trazado 1026078" d="M23.792,17.655a.895.895,0,0,1-.9-.9.448.448,0,1,0-.9,0,.9.9,0,0,1-1.791,0,2.238,2.238,0,1,1,4.477,0,.895.895,0,0,1-.9.9Z" transform="translate(-2.093 -1.519)"/>
      <path id="Trazado_1026079" data-name="Trazado 1026079" d="M20.479,16.5a.895.895,0,0,1-.9-.9A1.791,1.791,0,1,0,16,15.6a.9.9,0,0,1-1.791,0,3.581,3.581,0,1,1,7.163,0,.895.895,0,0,1-.9.9Z" transform="translate(-1.465 -1.258)"/>
      <path id="Trazado_1026080" data-name="Trazado 1026080" d="M20.792,17.655a.895.895,0,0,1-.9-.9.448.448,0,1,0-.9,0,.9.9,0,0,1-1.791,0,2.238,2.238,0,0,1,4.477,0,.895.895,0,0,1-.9.9Z" transform="translate(-1.779 -1.519)"/>
    </g>
  </g>
</svg>
