<svg xmlns="http://www.w3.org/2000/svg" xmlns:xlink="http://www.w3.org/1999/xlink" width="110" height="110" viewBox="0 0 110 110">
  <defs>
    <filter id="Trazado_982547" x="0" y="0" width="110" height="110" filterUnits="userSpaceOnUse">
      <feOffset dy="3" input="SourceAlpha"/>
      <feGaussianBlur stdDeviation="3" result="blur"/>
      <feFlood flood-opacity="0.161"/>
      <feComposite operator="in" in2="blur"/>
      <feComposite in="SourceGraphic"/>
    </filter>
  </defs>
  <g id="Grupo_1172061" data-name="Grupo 1172061" transform="translate(-1113 -1190.662)">
    <g id="Grupo_1171901" data-name="Grupo 1171901" transform="translate(1 -769.338)">
      <g id="Grupo_1164700" data-name="Grupo 1164700" transform="translate(1121 1966)">
        <g id="Grupo_1160931" data-name="Grupo 1160931" transform="translate(0)">
          <g id="Grupo_1160749" data-name="Grupo 1160749" transform="translate(0)">
            <g id="Grupo_1158891" data-name="Grupo 1158891" transform="translate(0 0)">
              <g id="Grupo_1157406" data-name="Grupo 1157406" transform="translate(0)">
                <g id="Grupo_1155793" data-name="Grupo 1155793" transform="translate(0)">
                  <g id="Grupo_1154704" data-name="Grupo 1154704" transform="translate(0)">
                    <g id="Grupo_1150790" data-name="Grupo 1150790" transform="translate(0)">
                      <g id="Grupo_1154214" data-name="Grupo 1154214" transform="translate(0)">
                        <g id="Grupo_1152583" data-name="Grupo 1152583" transform="translate(0 0)">
                          <g id="Grupo_1146973" data-name="Grupo 1146973" transform="translate(0 0)">
                            <g id="Grupo_1146954" data-name="Grupo 1146954">
                              <g transform="matrix(1, 0, 0, 1, -9, -6)" filter="url(#Trazado_982547)">
                                <g id="Trazado_982547-2" data-name="Trazado 982547" transform="translate(9 6)" fill="#e9f9fd">
                                  <path d="M 46.00000381469727 90.49988555908203 C 39.99188232421875 90.49988555908203 34.16427230834961 89.32352447509766 28.67905807495117 87.00347137451172 C 23.38020324707031 84.76226043701172 18.62104415893555 81.55342864990234 14.53375053405762 77.46615600585938 C 10.44647026062012 73.37887573242188 7.237643718719482 68.61971282958984 4.996417045593262 63.32085800170898 C 2.676363706588745 57.83565902709961 1.500003814697266 52.00806045532227 1.500003814697266 45.99993896484375 C 1.500003814697266 39.99181747436523 2.676363706588745 34.16421890258789 4.996417045593262 28.67901802062988 C 7.237643718719482 23.38017845153809 10.44647026062012 18.62101936340332 14.53375053405762 14.53373908996582 C 18.62104415893555 10.44645881652832 23.38020324707031 7.237632274627686 28.67905807495117 4.996418952941895 C 34.16427230834961 2.676365613937378 39.99188232421875 1.500005602836609 46.00000381469727 1.500005602836609 C 52.00812530517578 1.500005602836609 57.83573532104492 2.676365613937378 63.32094955444336 4.996418952941895 C 68.61980438232422 7.237632274627686 73.37897491455078 10.44645881652832 77.46625518798828 14.53373908996582 C 81.55355072021484 18.62101936340332 84.76236724853516 23.38017845153809 87.00359344482422 28.67901802062988 C 89.32364654541016 34.16421890258789 90.5 39.99181747436523 90.5 45.99993896484375 C 90.5 52.00806045532227 89.32364654541016 57.83565902709961 87.00359344482422 63.32085800170898 C 84.76236724853516 68.61971282958984 81.55355072021484 73.37887573242188 77.46625518798828 77.46615600585938 C 73.37897491455078 81.55342864990234 68.61980438232422 84.76226043701172 63.32094955444336 87.00347137451172 C 57.83573532104492 89.32352447509766 52.00812530517578 90.49988555908203 46.00000381469727 90.49988555908203 Z" stroke="none"/>
                                  <path d="M 46.00000381469727 2.999992370605469 C 40.19371795654297 2.999992370605469 34.56270217895508 4.136497497558594 29.26338958740234 6.377906799316406 C 24.14333343505859 8.543510437011719 19.54441833496094 11.64437866210938 15.59440612792969 15.59439849853516 C 11.64440155029297 19.54439544677734 8.54351806640625 24.14329528808594 6.377914428710938 29.26335144042969 C 4.136505126953125 34.56266784667969 3.000007629394531 40.19366836547852 3.000007629394531 45.99993896484375 C 3.000007629394531 51.80620956420898 4.136505126953125 57.43722534179688 6.377914428710938 62.73654174804688 C 8.54351806640625 67.85658264160156 11.64440155029297 72.45548248291016 15.59440612792969 76.40549468994141 C 19.54441833496094 80.35549926757812 24.14333343505859 83.45636749267578 29.26337432861328 85.62196350097656 C 34.56270217895508 87.86338043212891 40.19371795654297 88.9998779296875 46.00000381469727 88.9998779296875 C 51.80628967285156 88.9998779296875 57.43730545043945 87.86338043212891 62.73663330078125 85.62196350097656 C 67.85667419433594 83.45636749267578 72.45558929443359 80.35549926757812 76.40560150146484 76.40549468994141 C 80.35560607910156 72.45548248291016 83.45648956298828 67.85658264160156 85.62208557128906 62.73654174804688 C 87.86350250244141 57.43722534179688 89 51.80620956420898 89 45.99993896484375 C 89 40.19366836547852 87.86350250244141 34.56266784667969 85.62208557128906 29.26335144042969 C 83.45648956298828 24.14329528808594 80.35560607910156 19.54439544677734 76.40560150146484 15.59439849853516 C 72.45558929443359 11.64437866210938 67.85667419433594 8.543510437011719 62.73661804199219 6.377906799316406 C 57.43730545043945 4.136497497558594 51.80628967285156 2.999992370605469 46.00000381469727 2.999992370605469 M 46.00000381469727 -7.62939453125e-06 C 71.40510559082031 -7.62939453125e-06 92 20.59487915039062 92 45.99993896484375 C 92 71.40501403808594 71.40510559082031 91.99988555908203 46.00000381469727 91.99988555908203 C 20.59490203857422 91.99988555908203 7.62939453125e-06 71.40501403808594 7.62939453125e-06 45.99993896484375 C 7.62939453125e-06 20.59487915039062 20.59490203857422 -7.62939453125e-06 46.00000381469727 -7.62939453125e-06 Z" stroke="none" fill="#36ceef"/>
                                </g>
                              </g>
                            </g>
                          </g>
                        </g>
                      </g>
                    </g>
                  </g>
                </g>
              </g>
            </g>
          </g>
        </g>
      </g>
    </g>
    <g id="sign_14215561" transform="translate(1135.5 1210.659)">
      <path id="Trazado_1025910" data-name="Trazado 1025910" d="M52,62l-4-8-3.99,8-4-8-4,8-4-8-4,8-4-8-4,8-4-8L12,62V2H52Z" fill="#d0ecf4"/>
      <circle id="Elipse_11780" data-name="Elipse 11780" cx="9" cy="9" r="9" transform="translate(23 18)" fill="#ffec5f"/>
      <circle id="Elipse_11781" data-name="Elipse 11781" cx="3" cy="3" r="3" transform="translate(8 22)" fill="#efc7b0"/>
      <path id="Trazado_1025911" data-name="Trazado 1025911" d="M8,31a2,2,0,0,0-2,2v6H7L8,51h6l1-12h1V33a2,2,0,0,0-2-2Z" fill="#8c959d"/>
      <circle id="Elipse_11782" data-name="Elipse 11782" cx="3" cy="3" r="3" transform="translate(50 22)" fill="#efc7b0"/>
      <path id="Trazado_1025912" data-name="Trazado 1025912" d="M50,31a2,2,0,0,0-2,2v6h1l1,12h6l1-12h1V33a2,2,0,0,0-2-2Z" fill="#8c959d"/>
      <path id="Trazado_1025913" data-name="Trazado 1025913" d="M32,37A10,10,0,1,0,22,27,10,10,0,0,0,32,37Zm0-18a8,8,0,1,1-8,8A8,8,0,0,1,32,19Z"/>
      <path id="Trazado_1025914" data-name="Trazado 1025914" d="M7,25a4,4,0,1,0,4-4A4,4,0,0,0,7,25Zm6,0a2,2,0,1,1-2-2A2,2,0,0,1,13,25Z"/>
      <path id="Trazado_1025915" data-name="Trazado 1025915" d="M53,29a4,4,0,1,0-4-4A4,4,0,0,0,53,29Zm0-6a2,2,0,1,1-2,2A2,2,0,0,1,53,23Z"/>
      <path id="Trazado_1025916" data-name="Trazado 1025916" d="M15,51.08,15.92,40H16a1,1,0,0,0,1-1V33a3,3,0,0,0-3-3H8a3,3,0,0,0-3,3v6a1,1,0,0,0,1,1h.08L7,51.08A1,1,0,0,0,8,52h6A1,1,0,0,0,15,51.08ZM8.92,50,8,38.92A1,1,0,0,0,7,38V33a1,1,0,0,1,1-1h6a1,1,0,0,1,1,1v5a1,1,0,0,0-1,.92L13.08,50Z"/>
      <path id="Trazado_1025917" data-name="Trazado 1025917" d="M56,30H50a3,3,0,0,0-3,3v6a1,1,0,0,0,1,1h.08L49,51.08A1,1,0,0,0,50,52h6a1,1,0,0,0,1-.92L57.92,40H58a1,1,0,0,0,1-1V33a3,3,0,0,0-3-3Zm1,8a1,1,0,0,0-1,.92L55.08,50H50.92L50,38.92A1,1,0,0,0,49,38V33a1,1,0,0,1,1-1h6a1,1,0,0,1,1,1Z"/>
      <path id="Trazado_1025918" data-name="Trazado 1025918" d="M51,57.76l-2.11-4.21a1,1,0,0,0-1.78,0L44,59.76l-3.1-6.21a1,1,0,0,0-1.78,0L36,59.76l-3.1-6.21a1,1,0,0,0-1.78,0L28,59.76l-3.1-6.21a1,1,0,0,0-1.78,0L20,59.76l-3.1-6.21a1,1,0,0,0-1.79,0L13,57.77V54H11v8a1,1,0,0,0,.77,1A.91.91,0,0,0,12,63a1,1,0,0,0,.89-.55L16,56.23l3.11,6.22a1,1,0,0,0,1.78,0L24,56.24l3.11,6.21a1,1,0,0,0,1.78,0L32,56.24l3.11,6.21a1,1,0,0,0,1.78,0L40,56.24l3.11,6.21a1,1,0,0,0,1.78,0L48,56.24l3.11,6.21A1,1,0,0,0,53,62V54H51Z"/>
      <path id="Trazado_1025919" data-name="Trazado 1025919" d="M52,1H12a1,1,0,0,0-1,1V19h2V3H51V19h2V2A1,1,0,0,0,52,1Z"/>
      <path id="Trazado_1025920" data-name="Trazado 1025920" d="M32,30a1,1,0,0,1-1-1H29a3,3,0,0,0,2,2.82V33h2V31.82A3,3,0,0,0,32,26a1,1,0,1,1,1-1h2a3,3,0,0,0-2-2.82V21H31v1.18A3,3,0,0,0,32,28a1,1,0,1,1,0,2Z"/>
      <path id="Trazado_1025921" data-name="Trazado 1025921" d="M15,5h4V7H15Z"/>
      <path id="Trazado_1025922" data-name="Trazado 1025922" d="M21,5H49V7H21Z"/>
      <path id="Trazado_1025923" data-name="Trazado 1025923" d="M45,9h4v2H45Z"/>
      <path id="Trazado_1025924" data-name="Trazado 1025924" d="M15,9H43v2H15Z"/>
      <path id="Trazado_1025925" data-name="Trazado 1025925" d="M15,13h4v2H15Z"/>
      <path id="Trazado_1025926" data-name="Trazado 1025926" d="M21,13H49v2H21Z"/>
      <path id="Trazado_1025927" data-name="Trazado 1025927" d="M19,39h4v2H19Z"/>
      <path id="Trazado_1025928" data-name="Trazado 1025928" d="M25,39H45v2H25Z"/>
      <path id="Trazado_1025929" data-name="Trazado 1025929" d="M19,47h4v2H19Z"/>
      <path id="Trazado_1025930" data-name="Trazado 1025930" d="M25,47H45v2H25Z"/>
      <path id="Trazado_1025931" data-name="Trazado 1025931" d="M41,43h4v2H41Z"/>
      <path id="Trazado_1025932" data-name="Trazado 1025932" d="M19,43H39v2H19Z"/>
    </g>
  </g>
</svg>
