<svg xmlns="http://www.w3.org/2000/svg" xmlns:xlink="http://www.w3.org/1999/xlink" width="106" height="106" viewBox="0 0 106 106">
  <defs>
    <filter id="Trazado_982547" x="0" y="0" width="106" height="106" filterUnits="userSpaceOnUse">
      <feOffset dy="3" input="SourceAlpha"/>
      <feGaussianBlur stdDeviation="3" result="blur"/>
      <feFlood flood-opacity="0.161"/>
      <feComposite operator="in" in2="blur"/>
      <feComposite in="SourceGraphic"/>
    </filter>
  </defs>
  <g id="Grupo_1172953" data-name="Grupo 1172953" transform="translate(-172 -8581)">
    <g id="Grupo_1171960" data-name="Grupo 1171960" transform="translate(1 7524)">
      <g id="Grupo_1167337" data-name="Grupo 1167337" transform="translate(180 1063)">
        <g id="Grupo_1166720" data-name="Grupo 1166720" transform="translate(0)">
          <g id="Grupo_1164305" data-name="Grupo 1164305">
            <g id="Grupo_1163948" data-name="Grupo 1163948">
              <g id="Grupo_1158168" data-name="Grupo 1158168">
                <g id="Grupo_1152576" data-name="Grupo 1152576">
                  <g id="Grupo_1148633" data-name="Grupo 1148633">
                    <g id="Grupo_1148525" data-name="Grupo 1148525">
                      <g transform="matrix(1, 0, 0, 1, -9, -6)" filter="url(#Trazado_982547)">
                        <g id="Trazado_982547-2" data-name="Trazado 982547" transform="translate(9 6)" fill="#e9f9fd">
                          <path d="M 44 86.5 C 38.26187515258789 86.5 32.69618606567383 85.37651062011719 27.45755004882812 83.16075897216797 C 22.3968505859375 81.020263671875 17.85157585144043 77.95565032958984 13.94796276092529 74.05204010009766 C 10.04434967041016 70.1484375 6.979737281799316 65.6031494140625 4.839250087738037 60.54246139526367 C 2.62348747253418 55.30381393432617 1.5 49.73812484741211 1.5 44 C 1.5 38.26187515258789 2.62348747253418 32.69618606567383 4.839250087738037 27.45755004882812 C 6.979737281799316 22.3968505859375 10.04434967041016 17.85157585144043 13.94796276092529 13.94796276092529 C 17.85157585144043 10.04434967041016 22.3968505859375 6.979737281799316 27.45755004882812 4.839250087738037 C 32.69618606567383 2.62348747253418 38.26187515258789 1.5 44 1.5 C 49.73812484741211 1.5 55.30381393432617 2.62348747253418 60.54246139526367 4.839250087738037 C 65.6031494140625 6.979737281799316 70.1484375 10.04434967041016 74.05204010009766 13.94796276092529 C 77.95565032958984 17.85157585144043 81.020263671875 22.3968505859375 83.16075897216797 27.45755004882812 C 85.37651062011719 32.69618606567383 86.5 38.26187515258789 86.5 44 C 86.5 49.73812484741211 85.37651062011719 55.30381393432617 83.16075897216797 60.54246139526367 C 81.020263671875 65.6031494140625 77.95565032958984 70.1484375 74.05204010009766 74.05204010009766 C 70.1484375 77.95565032958984 65.6031494140625 81.020263671875 60.54246139526367 83.16075897216797 C 55.30381393432617 85.37651062011719 49.73812484741211 86.5 44 86.5 Z" stroke="none"/>
                          <path d="M 44 3 C 38.46371459960938 3 33.09462738037109 4.083610534667969 28.0418701171875 6.220756530761719 C 23.15997314453125 8.285614013671875 18.77495574951172 11.24228668212891 15.00862884521484 15.00862884521484 C 11.24228668212891 18.77495574951172 8.285614013671875 23.15997314453125 6.220756530761719 28.0418701171875 C 4.083610534667969 33.09462738037109 3 38.46371459960938 3 44 C 3 49.53628540039062 4.083610534667969 54.9053840637207 6.220756530761719 59.9581298828125 C 8.285614013671875 64.84002685546875 11.24228668212891 69.22504425048828 15.00862884521484 72.99138641357422 C 18.77495574951172 76.75771331787109 23.15997314453125 79.71438598632812 28.0418701171875 81.77925872802734 C 33.09462738037109 83.9163818359375 38.46371459960938 85 44 85 C 49.53628540039062 85 54.9053840637207 83.9163818359375 59.95814514160156 81.77925872802734 C 64.84002685546875 79.71438598632812 69.22504425048828 76.75771331787109 72.99138641357422 72.99138641357422 C 76.75771331787109 69.22504425048828 79.71438598632812 64.84002685546875 81.77925872802734 59.95814514160156 C 83.9163818359375 54.9053840637207 85 49.53628540039062 85 44 C 85 38.46371459960938 83.9163818359375 33.09462738037109 81.77925872802734 28.0418701171875 C 79.71438598632812 23.15997314453125 76.75771331787109 18.77495574951172 72.99138641357422 15.00862884521484 C 69.22504425048828 11.24228668212891 64.84002685546875 8.285614013671875 59.9581298828125 6.220756530761719 C 54.9053840637207 4.083610534667969 49.53628540039062 3 44 3 M 44 0 C 68.30054473876953 0 88 19.69947052001953 88 44 C 88 68.30054473876953 68.30054473876953 88 44 88 C 19.69947052001953 88 0 68.30054473876953 0 44 C 0 19.69947052001953 19.69947052001953 0 44 0 Z" stroke="none" fill="#1d7083"/>
                        </g>
                      </g>
                    </g>
                  </g>
                </g>
              </g>
            </g>
          </g>
        </g>
      </g>
    </g>
    <g id="minivan_450874" transform="translate(198.373 8592.1)">
      <path id="Trazado_1026700" data-name="Trazado 1026700" d="M59.115,61.712,57.129,56.5,52.6,44.6A5.3,5.3,0,0,0,48,41.423H19.9A5.336,5.336,0,0,0,15.281,44.6L10.752,56.5,8.771,61.708A11.146,11.146,0,0,0,8.17,65v1.654l25.777,3.4,25.777-3.4V65A10.976,10.976,0,0,0,59.115,61.712Z" transform="translate(-7.32 -26.841)" fill="#db412c"/>
      <path id="Trazado_1026701" data-name="Trazado 1026701" d="M105.713,77.044a1.731,1.731,0,0,0,1.617-2.347l-3.189-8.371a3.435,3.435,0,0,0-2.856-1.974H74.628a3.467,3.467,0,0,0-2.874,1.972L68.565,74.7a1.731,1.731,0,0,0,1.618,2.347h35.531Z" transform="translate(-61.33 -47.385)" fill="#fff"/>
      <g id="Grupo_1172949" data-name="Grupo 1172949" transform="translate(1.983 53.299)">
        <rect id="Rectángulo_414738" data-name="Rectángulo 414738" width="7.808" height="8.186" transform="translate(0 0)" fill="#1f1a78"/>
        <rect id="Rectángulo_414739" data-name="Rectángulo 414739" width="7.808" height="8.186" transform="translate(41.481 0)" fill="#1f1a78"/>
      </g>
      <path id="Trazado_1026702" data-name="Trazado 1026702" d="M75.961,283.98h37.453l-5.557,5.557H81.518Z" transform="translate(-68.06 -244.169)" fill="#c92810"/>
      <g id="Grupo_1172950" data-name="Grupo 1172950" transform="translate(0.85 39.811)">
        <path id="Trazado_1026703" data-name="Trazado 1026703" d="M20.778,289.537l-6.3,2.266-6.3-2.266V283.98h7.051A5.557,5.557,0,0,1,20.778,289.537Z" transform="translate(-8.17 -283.98)" fill="#ff7945"/>
        <path id="Trazado_1026704" data-name="Trazado 1026704" d="M395.224,283.98v5.557l-6.3,2.266-6.3-2.266a5.557,5.557,0,0,1,5.557-5.557Z" transform="translate(-343.669 -283.98)" fill="#ff7945"/>
      </g>
      <rect id="Rectángulo_414740" data-name="Rectángulo 414740" width="51.555" height="10.198" transform="translate(0.85 45.368)" fill="#5d8ae1"/>
      <g id="Grupo_1172951" data-name="Grupo 1172951" transform="translate(5.382 48.767)">
        <path id="Trazado_1026705" data-name="Trazado 1026705" d="M53.445,370.083a1.7,1.7,0,1,1-1.7,1.7A1.7,1.7,0,0,1,53.445,370.083Z" transform="translate(-51.745 -370.083)" fill="#fff"/>
        <path id="Trazado_1026706" data-name="Trazado 1026706" d="M429.275,370.083a1.7,1.7,0,1,1-1.7,1.7A1.7,1.7,0,0,1,429.275,370.083Z" transform="translate(-388.484 -370.083)" fill="#fff"/>
      </g>
      <path id="Trazado_1026707" data-name="Trazado 1026707" d="M176.908,379.954H158.056a.85.85,0,0,1,0-1.7h18.852a.85.85,0,1,1,0,1.7Z" transform="translate(-140.855 -328.637)" fill="#495dd9"/>
      <path id="Trazado_1026708" data-name="Trazado 1026708" d="M61.2,179.906h39a.85.85,0,0,0,0-1.7h-39a.85.85,0,0,0,0,1.7Z" transform="translate(-54.076 -149.397)"/>
      <path id="Trazado_1026709" data-name="Trazado 1026709" d="M52.59,34.568l-2.842-7.459H51.5a.85.85,0,1,0,0-1.7H49.1l-3.028-7.948a6.117,6.117,0,0,0-5.4-3.729H38.74V12.316a.85.85,0,0,0-1.7,0v1.416H16.214V12.316a.85.85,0,1,0-1.7,0v1.416H12.578a6.152,6.152,0,0,0-5.411,3.721L4.139,25.41H1.756a.85.85,0,0,0,0,1.7H3.493L.655,34.567A11.957,11.957,0,0,0,0,38.157V55.565a.85.85,0,0,0,.85.85h.283v5.071a.85.85,0,0,0,.85.85H9.791a.85.85,0,0,0,.85-.85V58.964a.85.85,0,1,0-1.7,0v1.671H2.833V56.415H50.422v4.221H44.313V58.964a.85.85,0,1,0-1.7,0v2.521a.85.85,0,0,0,.85.85h7.808a.85.85,0,0,0,.85-.85V56.415H52.4a.85.85,0,0,0,.85-.85V38.157A11.783,11.783,0,0,0,52.59,34.568ZM1.7,38.157a10.293,10.293,0,0,1,.545-2.987l3.225-8.476a.847.847,0,0,0,.1-.275l3.18-8.358a4.475,4.475,0,0,1,3.823-2.628h28.1a4.441,4.441,0,0,1,3.806,2.633L51,35.173v0a10.115,10.115,0,0,1,.553,2.982V54.715H1.7Z" transform="translate(0 0)"/>
      <path id="Trazado_1026710" data-name="Trazado 1026710" d="M176.911,378.254H158.06a.85.85,0,1,0,0,1.7h18.851a.85.85,0,0,0,0-1.7Z" transform="translate(-140.858 -328.637)"/>
      <path id="Trazado_1026711" data-name="Trazado 1026711" d="M46.123,361.913a2.549,2.549,0,1,0,2.549,2.549A2.552,2.552,0,0,0,46.123,361.913Zm0,3.4a.85.85,0,1,1,.85-.85A.851.851,0,0,1,46.123,365.312Z" transform="translate(-39.042 -313.996)"/>
      <path id="Trazado_1026712" data-name="Trazado 1026712" d="M421.954,361.913a2.549,2.549,0,1,0,2.549,2.549A2.552,2.552,0,0,0,421.954,361.913Zm0,3.4a.85.85,0,1,1,.85-.85A.851.851,0,0,1,421.954,365.312Z" transform="translate(-375.781 -313.996)"/>
      <path id="Trazado_1026713" data-name="Trazado 1026713" d="M32.681,282.218a.85.85,0,0,0,.85.85H78.287a.85.85,0,0,0,0-1.7h-8.28a4.713,4.713,0,0,1,4.628-3.857h3.648a.85.85,0,1,0,0-1.7H74.635a6.415,6.415,0,0,0-6.348,5.556H43.531a6.415,6.415,0,0,0-6.348-5.556H33.534a.85.85,0,1,0,0,1.7h3.648a4.713,4.713,0,0,1,4.628,3.857h-8.28A.85.85,0,0,0,32.681,282.218Z" transform="translate(-29.282 -236.851)"/>
      <path id="Trazado_1026714" data-name="Trazado 1026714" d="M136.115,275.811a.85.85,0,0,0,0,1.7h23.416a.85.85,0,1,0,0-1.7Z" transform="translate(-121.196 -236.85)"/>
    </g>
  </g>
</svg>
