<svg xmlns="http://www.w3.org/2000/svg" xmlns:xlink="http://www.w3.org/1999/xlink" width="93.934" height="93.934" viewBox="0 0 93.934 93.934">
  <defs>
    <filter id="Trazado_982547" x="0" y="0" width="93.934" height="93.934" filterUnits="userSpaceOnUse">
      <feOffset dy="3" input="SourceAlpha"/>
      <feGaussianBlur stdDeviation="3" result="blur"/>
      <feFlood flood-opacity="0.161"/>
      <feComposite operator="in" in2="blur"/>
      <feComposite in="SourceGraphic"/>
    </filter>
    <clipPath id="clip-path">
      <path id="path1884" d="M0-682.665H48.544v48.544H0Z" transform="translate(0 682.665)"/>
    </clipPath>
  </defs>
  <g id="Grupo_1172970" data-name="Grupo 1172970" transform="translate(-190.033 -11028)">
    <g id="Grupo_1171971" data-name="Grupo 1171971" transform="translate(199.033 11034)">
      <g id="Grupo_1167337" data-name="Grupo 1167337" transform="translate(0)">
        <g id="Grupo_1166720" data-name="Grupo 1166720">
          <g id="Grupo_1164305" data-name="Grupo 1164305">
            <g id="Grupo_1163948" data-name="Grupo 1163948">
              <g id="Grupo_1158168" data-name="Grupo 1158168">
                <g id="Grupo_1152576" data-name="Grupo 1152576">
                  <g id="Grupo_1148633" data-name="Grupo 1148633">
                    <g id="Grupo_1148525" data-name="Grupo 1148525">
                      <g transform="matrix(1, 0, 0, 1, -9, -6)" filter="url(#Trazado_982547)">
                        <g id="Trazado_982547-2" data-name="Trazado 982547" transform="translate(9 6)" fill="#e9f9fd">
                          <path d="M 37.966796875 74.43359375 C 33.04315185546875 74.43359375 28.26757431030273 73.46962738037109 23.77274131774902 71.56847381591797 C 19.43047523498535 69.73184967041016 15.53040790557861 67.10224914550781 12.18087482452393 63.75271987915039 C 8.831341743469238 60.4031867980957 6.201741218566895 56.50312042236328 4.365118980407715 52.16086196899414 C 2.463963508605957 47.66601943969727 1.499996900558472 42.89044189453125 1.499996900558472 37.966796875 C 1.499996900558472 33.04315185546875 2.463963508605957 28.26757431030273 4.365118980407715 23.77274131774902 C 6.201741218566895 19.43047523498535 8.831341743469238 15.53040790557861 12.18087482452393 12.18087482452393 C 15.53040790557861 8.831341743469238 19.43047523498535 6.201741218566895 23.77274131774902 4.365118980407715 C 28.26757431030273 2.463963508605957 33.04315185546875 1.499996900558472 37.966796875 1.499996900558472 C 42.89044189453125 1.499996900558472 47.66601943969727 2.463963508605957 52.16086196899414 4.365118980407715 C 56.50312042236328 6.201741218566895 60.4031867980957 8.831341743469238 63.75271987915039 12.18087482452393 C 67.10224914550781 15.53040790557861 69.73184967041016 19.43047523498535 71.56847381591797 23.77274131774902 C 73.46962738037109 28.26757431030273 74.43359375 33.04315185546875 74.43359375 37.966796875 C 74.43359375 42.89044189453125 73.46962738037109 47.66601943969727 71.56847381591797 52.16086196899414 C 69.73184967041016 56.50313186645508 67.10224914550781 60.4031867980957 63.75271987915039 63.75271987915039 C 60.4031867980957 67.10224914550781 56.50313186645508 69.73184967041016 52.16086196899414 71.56847381591797 C 47.66601943969727 73.46962738037109 42.89044189453125 74.43359375 37.966796875 74.43359375 Z" stroke="none"/>
                          <path d="M 37.966796875 3 C 33.2449836730957 3 28.66600799560547 3.924095153808594 24.35705947875977 5.746635437011719 C 20.19359588623047 7.507637023925781 16.45379638671875 10.02928161621094 13.24153518676758 13.24153518676758 C 10.02927398681641 16.45379638671875 7.507621765136719 20.19359588623047 5.746635437011719 24.35705947875977 C 3.924095153808594 28.66600799560547 3 33.2449836730957 3 37.966796875 C 3 42.6886100769043 3.924095153808594 47.26758575439453 5.746635437011719 51.57653427124023 C 7.507621765136719 55.73999786376953 10.02927398681641 59.47979736328125 13.24153518676758 62.69205856323242 C 16.45379638671875 65.90431976318359 20.19359588623047 68.42597198486328 24.35705947875977 70.18695831298828 C 28.66600799560547 72.00949859619141 33.2449836730957 72.93359375 37.966796875 72.93359375 C 42.6886100769043 72.93359375 47.26758575439453 72.00949859619141 51.57653427124023 70.18695831298828 C 55.73999786376953 68.42597198486328 59.47979736328125 65.90431976318359 62.69205856323242 62.69205856323242 C 65.90431976318359 59.47979736328125 68.42597198486328 55.73999786376953 70.18695831298828 51.57653427124023 C 72.00949859619141 47.26758575439453 72.93359375 42.6886100769043 72.93359375 37.966796875 C 72.93359375 33.2449836730957 72.00949859619141 28.66600799560547 70.18695831298828 24.35705947875977 C 68.42597198486328 20.19359588623047 65.90431976318359 16.45379638671875 62.69205856323242 13.24153518676758 C 59.47979736328125 10.02928161621094 55.73999786376953 7.507637023925781 51.57653427124023 5.746635437011719 C 47.26758575439453 3.924095153808594 42.6886100769043 3 37.966796875 3 M 37.966796875 0 C 58.93528366088867 0 75.93359375 16.99832153320312 75.93359375 37.966796875 C 75.93359375 58.93528366088867 58.93528366088867 75.93359375 37.966796875 75.93359375 C 16.99831008911133 75.93359375 0 58.93528366088867 0 37.966796875 C 0 16.99832153320312 16.99831008911133 0 37.966796875 0 Z" stroke="none" fill="#1d7083"/>
                        </g>
                      </g>
                    </g>
                  </g>
                </g>
              </g>
            </g>
          </g>
        </g>
      </g>
    </g>
    <g id="g1878" transform="translate(214.395 11728.359)">
      <g id="g1880" transform="translate(0 -682.665)">
        <g id="g1882" clip-path="url(#clip-path)">
          <g id="g1888" transform="translate(0.711 32.492)">
            <path id="path1890" d="M-294.178,0l-4.267,4.409L-302.711,0-308.4,1.95l-2.61.895c-2.96,1.014-5.689,2.56-5.689,5.689V15.34h36.455A10.666,10.666,0,0,1-290.909,4.674a10.649,10.649,0,0,1,.564-3.431ZM-308.4,6.808a2.844,2.844,0,0,1,2.844,2.844A2.844,2.844,0,0,1-308.4,12.5a2.844,2.844,0,0,1-2.844-2.844A2.844,2.844,0,0,1-308.4,6.808" transform="translate(316.698)" fill="#98eeb9" fill-rule="evenodd"/>
          </g>
          <g id="g1892" transform="translate(6.165 39.3)">
            <path id="path1894" d="M-74.311-37.156A2.844,2.844,0,0,0-77.155-40,2.844,2.844,0,0,0-80-37.156a2.844,2.844,0,0,0,2.844,2.844,2.844,2.844,0,0,0,2.844-2.844" transform="translate(80 40)" fill="#9c9b9f" fill-rule="evenodd"/>
          </g>
          <g id="g1896" transform="translate(7.587 0.712)">
            <path id="path1898" d="M0-95.757V-89.8a1.427,1.427,0,0,1,1.422-1.422h19.91A1.427,1.427,0,0,1,22.755-89.8v-5.961c0-4.176-6.723-7.331-11.377-7.331S0-99.934,0-95.757" transform="translate(0 103.088)" fill="#98eeb9" fill-rule="evenodd"/>
          </g>
          <g id="g1900" transform="translate(7.587 12.581)">
            <path id="path1902" d="M-260.089,0V3.556h2.845V1.42A1.427,1.427,0,0,0-258.667,0Zm-17.066,3.556V0h-1.422A1.427,1.427,0,0,0-280,1.422V3.556Z" transform="translate(279.999)" fill="#79787d" fill-rule="evenodd"/>
          </g>
          <g id="g1904" transform="translate(14.698 29.208)">
            <path id="path1906" d="M-111.467,0a8.462,8.462,0,0,1-4.267,1.151A8.462,8.462,0,0,1-120,0V3.284l4.267,4.409,4.254-4.4.013-.013Z" transform="translate(120)" fill="#fef3e2" fill-rule="evenodd"/>
          </g>
          <g id="g1908" transform="translate(6.165 16.137)">
            <path id="path1910" d="M-55.733-74.311V-80h-2.844A1.426,1.426,0,0,0-60-78.578v1.422a2.853,2.853,0,0,0,2.844,2.844ZM-38.667-80v5.689h1.422A2.853,2.853,0,0,0-34.4-77.155v-1.422A1.426,1.426,0,0,0-35.823-80Z" transform="translate(60 80)" fill="#ffe1ba" fill-rule="evenodd"/>
          </g>
          <g id="g1912" transform="translate(7.587 3.472)">
            <path id="path1914" d="M0-59.694v5.961a1.427,1.427,0,0,1,1.422-1.422h.711v-6.672a4.423,4.423,0,0,1,.783-2.436C1.19-63.027,0-61.451,0-59.694" transform="translate(0 64.264)" fill="#00e4be" fill-rule="evenodd"/>
          </g>
          <g id="g1916" transform="translate(13.276 18.27)">
            <path id="path1918" d="M0-18.578v8.48A8.5,8.5,0,0,0,5.689-7.911,8.5,8.5,0,0,0,11.377-10.1v-8.48L5.689-20Z" transform="translate(0 20)" fill="#98eeb9" fill-rule="evenodd"/>
          </g>
          <g id="g1920" transform="translate(10.432 12.581)">
            <path id="path1922" d="M-185.775-92.89v8.48a8.518,8.518,0,0,0,2.844-6.347V-100H-200v9.244a8.518,8.518,0,0,0,2.844,6.346v-8.48l5.689-1.422Z" transform="translate(199.997 100.001)" fill="#fef3e2" fill-rule="evenodd"/>
          </g>
          <g id="g1924" transform="translate(13.276 19.159)">
            <path id="path1926" d="M0-6.967v8.48A8.575,8.575,0,0,0,2.133,2.919V-7.5Z" transform="translate(0 7.5)" fill="#00e4be" fill-rule="evenodd"/>
          </g>
          <g id="g1928" transform="translate(10.432 12.581)">
            <path id="path1930" d="M-27.867,0H-30V9.244a8.494,8.494,0,0,0,2.133,5.628Z" transform="translate(30)" fill="#ffe1ba" fill-rule="evenodd"/>
          </g>
          <g id="g1932" transform="translate(14.698 29.208)">
            <path id="path1934" d="M-27.867-11.482A8.488,8.488,0,0,1-30-12.361v3.284l2.133,2.2Z" transform="translate(30 12.361)" fill="#ffe1ba" fill-rule="evenodd"/>
          </g>
          <g id="g1936" transform="translate(0.711 36.775)">
            <path id="path1938" d="M-33.45,0a4.917,4.917,0,0,0-2.561,4.25v6.807h2.133V2.117A5.368,5.368,0,0,1-33.45,0" transform="translate(36.011)" fill="#00e4be" fill-rule="evenodd"/>
          </g>
          <g id="g1940" transform="translate(6.165 39.3)">
            <path id="path1942" d="M-51.089-2.7A2.845,2.845,0,0,0-52.867-.066a2.845,2.845,0,0,0,1.778,2.637,2.835,2.835,0,0,1-1.067.207A2.844,2.844,0,0,1-55-.066a2.844,2.844,0,0,1,2.844-2.844,2.835,2.835,0,0,1,1.067.207" transform="translate(55 2.911)" fill="#79787d" fill-rule="evenodd"/>
          </g>
          <g id="g1944" transform="translate(26.5 26.499)">
            <path id="path1946" d="M0-139.333a10.666,10.666,0,0,0,10.666,10.666,10.666,10.666,0,0,0,10.666-10.666A10.666,10.666,0,0,0,10.666-150,10.666,10.666,0,0,0,0-139.333" transform="translate(0 150)" fill="#94b8f7" fill-rule="evenodd"/>
          </g>
          <g id="g1948" transform="translate(26.5 26.499)">
            <path id="path1950" d="M0-139.337a10.669,10.669,0,0,0,11.733,10.613,10.667,10.667,0,0,1-9.6-10.613,10.668,10.668,0,0,1,9.6-10.614A10.668,10.668,0,0,0,0-139.337" transform="translate(0 150.004)" fill="#5b92f3" fill-rule="evenodd"/>
          </g>
          <g id="g1952" transform="translate(22.73 3.726)">
            <path id="path1954" d="M-37.156-37.156v-1.422m-2.844,0V-40" transform="translate(40 40)" fill="none" stroke="#fff" stroke-miterlimit="2.613" stroke-width="1.5"/>
          </g>
          <g id="g1956" transform="translate(10.432 12.581)">
            <path id="path1958" d="M0,0V9.244a8.533,8.533,0,0,0,17.066,0V0" fill="none" stroke="#000" stroke-miterlimit="22.926" stroke-width="1.5"/>
          </g>
          <g id="g1960" transform="translate(7.587 12.581)">
            <path id="path1962" d="M-297.24-18.578A1.426,1.426,0,0,0-298.663-20h-19.91A1.427,1.427,0,0,0-320-18.578" transform="translate(319.995 20)" fill="none" stroke="#000" stroke-miterlimit="22.926" stroke-width="1.5"/>
          </g>
          <g id="g1964" transform="translate(6.165 16.137)">
            <path id="path1966" d="M-278.664-74.311h1.422a2.853,2.853,0,0,0,2.844-2.844v-1.422A1.426,1.426,0,0,0-275.82-80h-2.844m-17.066,5.689h-1.422A2.853,2.853,0,0,1-300-77.155v-1.422A1.426,1.426,0,0,1-298.574-80h2.844" transform="translate(299.997 80)" fill="none" stroke="#000" stroke-miterlimit="22.926" stroke-width="1.5"/>
          </g>
          <g id="g1968" transform="translate(7.587 0.712)">
            <path id="path1970" d="M-48.609-29.142c-2.149,1.3-3.721,3.08-3.721,5.1v8.095m22.755,0v-8.095c0-4.176-6.723-7.331-11.377-7.331a15.577,15.577,0,0,0-6.361,1.537" transform="translate(52.331 31.373)" fill="none" stroke="#000" stroke-miterlimit="22.926" stroke-width="1.5"/>
          </g>
          <g id="g1972" transform="translate(0.711 32.492)">
            <path id="path1974" d="M-344.241-16.241l-3.833-1.243m-8.533,0-8.3,2.844c-2.96,1.014-5.689,2.56-5.689,5.689v6.807h36.455" transform="translate(370.594 17.484)" fill="none" stroke="#000" stroke-miterlimit="22.926" stroke-width="1.5"/>
          </g>
          <g id="g1976" transform="translate(14.698 29.208)">
            <path id="path1978" d="M0,0V3.284L4.267,7.694,8.533,3.284V0" fill="none" stroke="#000" stroke-miterlimit="22.926" stroke-width="1.5"/>
          </g>
          <g id="g1980" transform="translate(6.165 39.3)">
            <path id="path1982" d="M-37.156,0a2.844,2.844,0,0,1,2.844,2.844,2.844,2.844,0,0,1-2.844,2.844A2.844,2.844,0,0,1-40,2.844,2.844,2.844,0,0,1-37.156,0Z" transform="translate(40)" fill="none" stroke="#000" stroke-miterlimit="22.926" stroke-width="1.5"/>
          </g>
          <g id="g1984" transform="translate(9.01 34.439)">
            <path id="path1986" d="M0-63.491v-4.86" transform="translate(0 68.352)" fill="none" stroke="#000" stroke-miterlimit="22.926" stroke-width="1.5"/>
          </g>
          <g id="g1988" transform="translate(13.129 18.086)">
            <path id="path1990" d="M0-129.346v-8.48l5.689-1.422,5.689,1.422v8.48" transform="translate(0 139.248)" fill="none" stroke="#000" stroke-miterlimit="22.926" stroke-width="1.5"/>
          </g>
          <g id="g1992" transform="translate(10.284 15.953)">
            <path id="path1994" d="M-222.931,0l-2.844,3.555M-240,0l2.844,3.555" transform="translate(239.997)" fill="none" stroke="#000" stroke-miterlimit="22.926" stroke-width="1.5"/>
          </g>
          <g id="g1996" transform="translate(34.63 31.351)">
            <path id="path1998" d="M-99.688-2.474a1.426,1.426,0,0,0-1.943.521L-107.32,7.9" transform="translate(107.32 2.663)" fill="none" stroke="#000" stroke-miterlimit="22.926" stroke-width="1.5"/>
          </g>
          <g id="g2000" transform="translate(30.649 38.713)">
            <path id="path2002" d="M-41.8-3.738a2.133,2.133,0,0,1,.781,2.914,2.133,2.133,0,0,1-2.914.781,2.133,2.133,0,0,1-.781-2.914A2.133,2.133,0,0,1-41.8-3.738Zm6.634,0a2.133,2.133,0,0,0-.781,2.914,2.133,2.133,0,0,0,2.914.781,2.133,2.133,0,0,0,.781-2.914A2.133,2.133,0,0,0-35.171-3.738Z" transform="translate(45.005 4.024)" fill="none" stroke="#000" stroke-miterlimit="22.926" stroke-width="1.5"/>
          </g>
          <g id="g2004" transform="translate(32.071 31.351)">
            <path id="path2006" d="M0-2.474a1.426,1.426,0,0,1,1.943.521L7.631,7.9" transform="translate(0 2.663)" fill="none" stroke="#000" stroke-miterlimit="22.926" stroke-width="1.5"/>
          </g>
          <g id="g2008" transform="translate(26.5 26.499)">
            <path id="path2010" d="M-231.314-244.45l1-1.01m-2.161,1.862a10.615,10.615,0,0,1-5.882,1.768A10.666,10.666,0,0,1-249.022-252.5a10.666,10.666,0,0,1,10.666-10.666A10.666,10.666,0,0,1-227.689-252.5a10.616,10.616,0,0,1-1.768,5.882" transform="translate(249.022 263.163)" fill="none" stroke="#000" stroke-miterlimit="22.926" stroke-width="1.5"/>
          </g>
        </g>
      </g>
    </g>
  </g>
</svg>
