<svg xmlns="http://www.w3.org/2000/svg" xmlns:xlink="http://www.w3.org/1999/xlink" width="93.934" height="93.934" viewBox="0 0 93.934 93.934">
  <defs>
    <filter id="Trazado_982547" x="0" y="0" width="93.934" height="93.934" filterUnits="userSpaceOnUse">
      <feOffset dy="3" input="SourceAlpha"/>
      <feGaussianBlur stdDeviation="3" result="blur"/>
      <feFlood flood-opacity="0.161"/>
      <feComposite operator="in" in2="blur"/>
      <feComposite in="SourceGraphic"/>
    </filter>
  </defs>
  <g id="Grupo_1173171" data-name="Grupo 1173171" transform="translate(-1030.033 -11028)">
    <g id="Grupo_1171977" data-name="Grupo 1171977" transform="translate(1039.033 11034)">
      <g id="Grupo_1167337" data-name="Grupo 1167337" transform="translate(0)">
        <g id="Grupo_1166720" data-name="Grupo 1166720">
          <g id="Grupo_1164305" data-name="Grupo 1164305">
            <g id="Grupo_1163948" data-name="Grupo 1163948">
              <g id="Grupo_1158168" data-name="Grupo 1158168">
                <g id="Grupo_1152576" data-name="Grupo 1152576">
                  <g id="Grupo_1148633" data-name="Grupo 1148633">
                    <g id="Grupo_1148525" data-name="Grupo 1148525">
                      <g transform="matrix(1, 0, 0, 1, -9, -6)" filter="url(#Trazado_982547)">
                        <g id="Trazado_982547-2" data-name="Trazado 982547" transform="translate(9 6)" fill="#e9f9fd">
                          <path d="M 37.966796875 74.43359375 C 33.04315185546875 74.43359375 28.26757431030273 73.46962738037109 23.77274131774902 71.56847381591797 C 19.43047523498535 69.73184967041016 15.53040790557861 67.10224914550781 12.18087482452393 63.75271987915039 C 8.831341743469238 60.4031867980957 6.201741218566895 56.50312042236328 4.365118980407715 52.16086196899414 C 2.463963508605957 47.66601943969727 1.499996900558472 42.89044189453125 1.499996900558472 37.966796875 C 1.499996900558472 33.04315185546875 2.463963508605957 28.26757431030273 4.365118980407715 23.77274131774902 C 6.201741218566895 19.43047523498535 8.831341743469238 15.53040790557861 12.18087482452393 12.18087482452393 C 15.53040790557861 8.831341743469238 19.43047523498535 6.201741218566895 23.77274131774902 4.365118980407715 C 28.26757431030273 2.463963508605957 33.04315185546875 1.499996900558472 37.966796875 1.499996900558472 C 42.89044189453125 1.499996900558472 47.66601943969727 2.463963508605957 52.16086196899414 4.365118980407715 C 56.50312042236328 6.201741218566895 60.4031867980957 8.831341743469238 63.75271987915039 12.18087482452393 C 67.10224914550781 15.53040790557861 69.73184967041016 19.43047523498535 71.56847381591797 23.77274131774902 C 73.46962738037109 28.26757431030273 74.43359375 33.04315185546875 74.43359375 37.966796875 C 74.43359375 42.89044189453125 73.46962738037109 47.66601943969727 71.56847381591797 52.16086196899414 C 69.73184967041016 56.50313186645508 67.10224914550781 60.4031867980957 63.75271987915039 63.75271987915039 C 60.4031867980957 67.10224914550781 56.50313186645508 69.73184967041016 52.16086196899414 71.56847381591797 C 47.66601943969727 73.46962738037109 42.89044189453125 74.43359375 37.966796875 74.43359375 Z" stroke="none"/>
                          <path d="M 37.966796875 3 C 33.2449836730957 3 28.66600799560547 3.924095153808594 24.35705947875977 5.746635437011719 C 20.19359588623047 7.507637023925781 16.45379638671875 10.02928161621094 13.24153518676758 13.24153518676758 C 10.02927398681641 16.45379638671875 7.507621765136719 20.19359588623047 5.746635437011719 24.35705947875977 C 3.924095153808594 28.66600799560547 3 33.2449836730957 3 37.966796875 C 3 42.6886100769043 3.924095153808594 47.26758575439453 5.746635437011719 51.57653427124023 C 7.507621765136719 55.73999786376953 10.02927398681641 59.47979736328125 13.24153518676758 62.69205856323242 C 16.45379638671875 65.90431976318359 20.19359588623047 68.42597198486328 24.35705947875977 70.18695831298828 C 28.66600799560547 72.00949859619141 33.2449836730957 72.93359375 37.966796875 72.93359375 C 42.6886100769043 72.93359375 47.26758575439453 72.00949859619141 51.57653427124023 70.18695831298828 C 55.73999786376953 68.42597198486328 59.47979736328125 65.90431976318359 62.69205856323242 62.69205856323242 C 65.90431976318359 59.47979736328125 68.42597198486328 55.73999786376953 70.18695831298828 51.57653427124023 C 72.00949859619141 47.26758575439453 72.93359375 42.6886100769043 72.93359375 37.966796875 C 72.93359375 33.2449836730957 72.00949859619141 28.66600799560547 70.18695831298828 24.35705947875977 C 68.42597198486328 20.19359588623047 65.90431976318359 16.45379638671875 62.69205856323242 13.24153518676758 C 59.47979736328125 10.02928161621094 55.73999786376953 7.507637023925781 51.57653427124023 5.746635437011719 C 47.26758575439453 3.924095153808594 42.6886100769043 3 37.966796875 3 M 37.966796875 0 C 58.93528366088867 0 75.93359375 16.99832153320312 75.93359375 37.966796875 C 75.93359375 58.93528366088867 58.93528366088867 75.93359375 37.966796875 75.93359375 C 16.99831008911133 75.93359375 0 58.93528366088867 0 37.966796875 C 0 16.99832153320312 16.99831008911133 0 37.966796875 0 Z" stroke="none" fill="#1d7083"/>
                        </g>
                      </g>
                    </g>
                  </g>
                </g>
              </g>
            </g>
          </g>
        </g>
      </g>
    </g>
    <g id="wage_18071670" transform="translate(1050.872 11045.954)">
      <path id="Trazado_1026789" data-name="Trazado 1026789" d="M24.8,8H16.633A1.633,1.633,0,0,0,15,9.633v4.9H26.431v-4.9A1.633,1.633,0,0,0,24.8,8Z" transform="translate(-2.752 -0.55)" fill="#b77972"/>
      <path id="Trazado_1026790" data-name="Trazado 1026790" d="M9,15.266V13.633A1.635,1.635,0,0,1,10.633,12H13.9v3.266Z" transform="translate(-1.651 -1.284)" fill="#a86562"/>
      <path id="Trazado_1026791" data-name="Trazado 1026791" d="M29,15.266V12h3.266A1.635,1.635,0,0,1,33.9,13.633v1.633Z" transform="translate(-5.321 -1.284)" fill="#a86562"/>
      <path id="Trazado_1026792" data-name="Trazado 1026792" d="M5.266,45.229A3.27,3.27,0,0,1,2,41.963V24H34.661V41.963a3.269,3.269,0,0,1-3.266,3.266Z" transform="translate(-0.367 -3.486)" fill="#b77972"/>
      <path id="Trazado_1026793" data-name="Trazado 1026793" d="M18.147,32.114a2.449,2.449,0,0,1-.966-.2l-14.7-6.3A2.447,2.447,0,0,1,1,23.367V18.45A2.452,2.452,0,0,1,3.45,16H32.844a2.452,2.452,0,0,1,2.45,2.45v4.917a2.446,2.446,0,0,1-1.485,2.251l-14.7,6.3a2.471,2.471,0,0,1-.964.2Z" transform="translate(-0.183 -2.018)" fill="#ce978d"/>
      <path id="Trazado_1026794" data-name="Trazado 1026794" d="M31,46.881V45.248a12.248,12.248,0,1,1,24.5,0v1.633Z" transform="translate(-5.688 -5.138)" fill="#ffd899"/>
      <g id="Grupo_1172978" data-name="Grupo 1172978" transform="translate(24.535 26.233)">
        <path id="Trazado_1026795" data-name="Trazado 1026795" d="M42.633,42.432,41,31.817a10.663,10.663,0,0,1,8.165,0L47.532,42.432Z" transform="translate(-32.058 -31.005)" fill="#fcbf7c"/>
        <path id="Trazado_1026796" data-name="Trazado 1026796" d="M34.643,43.329a.805.805,0,0,1-.517-.187l-3.78-3.115a.816.816,0,0,1-.111-1.149l1.039-1.261a.81.81,0,0,1,.551-.293c.036,0,.064,0,.091,0a.791.791,0,0,1,.508.187L36.2,40.622a.814.814,0,0,1,.112,1.147l-1.039,1.262a.811.811,0,0,1-.551.293l-.082,0Z" transform="translate(-30.048 -32.163)" fill="#fcbf7c"/>
        <path id="Trazado_1026797" data-name="Trazado 1026797" d="M55.83,43.325a.815.815,0,0,1-.557-.293l-1.037-1.261a.813.813,0,0,1,.109-1.148l3.782-3.116a.805.805,0,0,1,.6-.183.815.815,0,0,1,.554.293l1.037,1.261a.813.813,0,0,1-.109,1.148l-3.782,3.116a.8.8,0,0,1-.516.187Z" transform="translate(-34.452 -32.164)" fill="#fcbf7c"/>
      </g>
      <rect id="Rectángulo_414741" data-name="Rectángulo 414741" width="5" height="9" rx="2" transform="translate(15.128 25.046)" fill="#a86562"/>
      <path id="Trazado_1026798" data-name="Trazado 1026798" d="M52.377,21.176a1.647,1.647,0,0,0-1.155-.478H49.45A2.452,2.452,0,0,1,47,18.248V8.45A2.452,2.452,0,0,1,49.45,6h8.165a2.452,2.452,0,0,1,2.45,2.45v9.8a2.452,2.452,0,0,1-2.45,2.45H55.841a1.647,1.647,0,0,0-1.154.478L53.532,22.33Z" transform="translate(-8.624 -0.183)" fill="#73cdff"/>
      <path id="Trazado_1026799" data-name="Trazado 1026799" d="M29,54.083V50H56.761v4.083l-13.881,2.45Z" transform="translate(-5.321 -8.257)" fill="#fcbf7c"/>
      <path id="Trazado_1026800" data-name="Trazado 1026800" d="M51.44,41.294h-.817v-.817a13,13,0,0,0-.828-4.55l1.01-.832a1.632,1.632,0,0,0,.222-2.3l-1.038-1.261a1.635,1.635,0,0,0-2.3-.222l-.466.384a13.062,13.062,0,0,0-4.9-3.378l.12-.782a.815.815,0,0,0-.493-.878,11.473,11.473,0,0,0-6.846-.6V23.938c0-.014-.007-.026-.008-.041a3.26,3.26,0,0,0,.825-2.168l0-4.917a3.266,3.266,0,0,0-3.263-3.269l-3.273,0v-.826a2.452,2.452,0,0,0-2.45-2.45H24.5V9.45A2.452,2.452,0,0,0,22.046,7H13.881a2.452,2.452,0,0,0-2.45,2.45v.817H8.982a2.452,2.452,0,0,0-2.45,2.45v.807l-3.259,0h0A3.271,3.271,0,0,0,0,16.783L0,21.7a3.263,3.263,0,0,0,.82,2.168c0,.006,0,.012,0,.018V38.844A4.087,4.087,0,0,0,4.9,42.927H22.862v3.266a.817.817,0,0,0,.675.8l13.881,2.45a.821.821,0,0,0,.284,0L51.582,47a.817.817,0,0,0,.675-.8V42.11a.816.816,0,0,0-.817-.817Zm-2.711-8.72,1.038,1.26-3.781,3.116-1.038-1.26Zm-2.765.162L43.91,34.428a1.632,1.632,0,0,0-.222,2.3l1.038,1.26a1.634,1.634,0,0,0,2.3.222l1.43-1.178a11.382,11.382,0,0,1,.536,3.445v.817H43.275v-.817a.817.817,0,0,0-1.633,0v.817H33.477v-.817a.817.817,0,0,0-1.633,0v.817H26.128v-.817a11.375,11.375,0,0,1,.536-3.446l1.43,1.178a1.634,1.634,0,0,0,2.3-.222l1.038-1.26a1.632,1.632,0,0,0-.222-2.3l-2.055-1.693a11.438,11.438,0,0,1,3.891-2.762L34.3,38.152a.817.817,0,0,0,.807.693h4.9a.817.817,0,0,0,.807-.693l1.258-8.18a11.444,11.444,0,0,1,3.89,2.764ZM30.172,35.688h0l-1.038,1.26-3.781-3.115,1.038-1.26,3.782,3.114Zm10.563-7.747-1.427,9.27h-3.5l-1.427-9.269a9.836,9.836,0,0,1,6.35,0ZM26.945,11.9a.817.817,0,0,1,.817.817v.817H24.5V11.9ZM13.064,9.45a.817.817,0,0,1,.817-.817h8.165a.817.817,0,0,1,.817.817v4.083H17.97l-4.906,0Zm-4.9,3.266a.817.817,0,0,1,.817-.817h2.45v1.628l-3.266,0ZM1.637,16.785A1.635,1.635,0,0,1,3.27,15.153h0l29.395.024A1.632,1.632,0,0,1,34.3,16.811l0,4.917a1.631,1.631,0,0,1-.991,1.5L21.229,28.391v-.978a2.452,2.452,0,0,0-2.45-2.45H17.147a2.452,2.452,0,0,0-2.45,2.45v.978L2.622,23.2a1.631,1.631,0,0,1-.989-1.5l0-4.917ZM19.6,27.413v4.9a.817.817,0,0,1-.817.817H17.147a.817.817,0,0,1-.817-.817v-4.9a.817.817,0,0,1,.817-.817H18.78a.817.817,0,0,1,.817.817ZM2.449,38.844V24.907L14.7,30.168v2.144a2.452,2.452,0,0,0,2.45,2.45H18.78a2.452,2.452,0,0,0,2.45-2.45V30.167L33.477,24.93v1.616c-.1.04-.211.07-.314.113a.816.816,0,0,0-.493.878l.12.782a13.062,13.062,0,0,0-4.9,3.378l-.465-.383a1.633,1.633,0,0,0-2.3.222L24.092,32.8a1.632,1.632,0,0,0,.222,2.3l1.01.832a12.99,12.99,0,0,0-.828,4.551v.817H4.9a2.452,2.452,0,0,1-2.45-2.45Zm48.174,6.664L37.56,47.813,24.5,45.508V42.927H50.624Z" transform="translate(0 -0.367)" fill="#0b0a0a"/>
      <path id="Trazado_1026801" data-name="Trazado 1026801" d="M57.431,5H49.266A3.27,3.27,0,0,0,46,8.266v9.8a3.27,3.27,0,0,0,3.266,3.266h1.773a.824.824,0,0,1,.577.239l1.155,1.155a.816.816,0,0,0,1.155,0l1.155-1.155a.824.824,0,0,1,.577-.239h1.773A3.27,3.27,0,0,0,60.7,18.064v-9.8A3.27,3.27,0,0,0,57.431,5Zm1.633,13.064A1.635,1.635,0,0,1,57.431,19.7H55.658a2.433,2.433,0,0,0-1.732.718l-.577.577-.577-.577a2.433,2.433,0,0,0-1.732-.718H49.266a1.635,1.635,0,0,1-1.633-1.633v-9.8a1.635,1.635,0,0,1,1.633-1.633h8.165a1.635,1.635,0,0,1,1.633,1.633Z" transform="translate(-8.44)" fill="#0b0a0a"/>
      <path id="Trazado_1026802" data-name="Trazado 1026802" d="M54.45,11.45h1.633a.817.817,0,1,0,0-1.633h-.817a.817.817,0,0,0-1.633,0v.15a2.443,2.443,0,0,0,.817,4.749.817.817,0,1,1,0,1.633H52.817a.817.817,0,1,0,0,1.633h.817a.817.817,0,0,0,1.633,0v-.15a2.443,2.443,0,0,0-.817-4.749.817.817,0,0,1,0-1.633Z" transform="translate(-9.541 -0.734)" fill="#0b0a0a"/>
    </g>
  </g>
</svg>
