<svg xmlns="http://www.w3.org/2000/svg" xmlns:xlink="http://www.w3.org/1999/xlink" width="93.934" height="93.934" viewBox="0 0 93.934 93.934">
  <defs>
    <filter id="Trazado_982547" x="0" y="0" width="93.934" height="93.934" filterUnits="userSpaceOnUse">
      <feOffset dy="3" input="SourceAlpha"/>
      <feGaussianBlur stdDeviation="3" result="blur"/>
      <feFlood flood-opacity="0.161"/>
      <feComposite operator="in" in2="blur"/>
      <feComposite in="SourceGraphic"/>
    </filter>
  </defs>
  <g id="Grupo_1172985" data-name="Grupo 1172985" transform="translate(-190.033 -11153)">
    <g id="Grupo_1171978" data-name="Grupo 1171978" transform="translate(199.033 11159)">
      <g id="Grupo_1167337" data-name="Grupo 1167337" transform="translate(0)">
        <g id="Grupo_1166720" data-name="Grupo 1166720">
          <g id="Grupo_1164305" data-name="Grupo 1164305">
            <g id="Grupo_1163948" data-name="Grupo 1163948">
              <g id="Grupo_1158168" data-name="Grupo 1158168">
                <g id="Grupo_1152576" data-name="Grupo 1152576">
                  <g id="Grupo_1148633" data-name="Grupo 1148633">
                    <g id="Grupo_1148525" data-name="Grupo 1148525">
                      <g transform="matrix(1, 0, 0, 1, -9, -6)" filter="url(#Trazado_982547)">
                        <g id="Trazado_982547-2" data-name="Trazado 982547" transform="translate(9 6)" fill="#e9f9fd">
                          <path d="M 37.966796875 74.43359375 C 33.04315185546875 74.43359375 28.26757431030273 73.46962738037109 23.77274131774902 71.56847381591797 C 19.43047523498535 69.73184967041016 15.53040790557861 67.10224914550781 12.18087482452393 63.75271987915039 C 8.831341743469238 60.4031867980957 6.201741218566895 56.50312042236328 4.365118980407715 52.16086196899414 C 2.463963508605957 47.66601943969727 1.499996900558472 42.89044189453125 1.499996900558472 37.966796875 C 1.499996900558472 33.04315185546875 2.463963508605957 28.26757431030273 4.365118980407715 23.77274131774902 C 6.201741218566895 19.43047523498535 8.831341743469238 15.53040790557861 12.18087482452393 12.18087482452393 C 15.53040790557861 8.831341743469238 19.43047523498535 6.201741218566895 23.77274131774902 4.365118980407715 C 28.26757431030273 2.463963508605957 33.04315185546875 1.499996900558472 37.966796875 1.499996900558472 C 42.89044189453125 1.499996900558472 47.66601943969727 2.463963508605957 52.16086196899414 4.365118980407715 C 56.50312042236328 6.201741218566895 60.4031867980957 8.831341743469238 63.75271987915039 12.18087482452393 C 67.10224914550781 15.53040790557861 69.73184967041016 19.43047523498535 71.56847381591797 23.77274131774902 C 73.46962738037109 28.26757431030273 74.43359375 33.04315185546875 74.43359375 37.966796875 C 74.43359375 42.89044189453125 73.46962738037109 47.66601943969727 71.56847381591797 52.16086196899414 C 69.73184967041016 56.50313186645508 67.10224914550781 60.4031867980957 63.75271987915039 63.75271987915039 C 60.4031867980957 67.10224914550781 56.50313186645508 69.73184967041016 52.16086196899414 71.56847381591797 C 47.66601943969727 73.46962738037109 42.89044189453125 74.43359375 37.966796875 74.43359375 Z" stroke="none"/>
                          <path d="M 37.966796875 3 C 33.2449836730957 3 28.66600799560547 3.924095153808594 24.35705947875977 5.746635437011719 C 20.19359588623047 7.507637023925781 16.45379638671875 10.02928161621094 13.24153518676758 13.24153518676758 C 10.02927398681641 16.45379638671875 7.507621765136719 20.19359588623047 5.746635437011719 24.35705947875977 C 3.924095153808594 28.66600799560547 3 33.2449836730957 3 37.966796875 C 3 42.6886100769043 3.924095153808594 47.26758575439453 5.746635437011719 51.57653427124023 C 7.507621765136719 55.73999786376953 10.02927398681641 59.47979736328125 13.24153518676758 62.69205856323242 C 16.45379638671875 65.90431976318359 20.19359588623047 68.42597198486328 24.35705947875977 70.18695831298828 C 28.66600799560547 72.00949859619141 33.2449836730957 72.93359375 37.966796875 72.93359375 C 42.6886100769043 72.93359375 47.26758575439453 72.00949859619141 51.57653427124023 70.18695831298828 C 55.73999786376953 68.42597198486328 59.47979736328125 65.90431976318359 62.69205856323242 62.69205856323242 C 65.90431976318359 59.47979736328125 68.42597198486328 55.73999786376953 70.18695831298828 51.57653427124023 C 72.00949859619141 47.26758575439453 72.93359375 42.6886100769043 72.93359375 37.966796875 C 72.93359375 33.2449836730957 72.00949859619141 28.66600799560547 70.18695831298828 24.35705947875977 C 68.42597198486328 20.19359588623047 65.90431976318359 16.45379638671875 62.69205856323242 13.24153518676758 C 59.47979736328125 10.02928161621094 55.73999786376953 7.507637023925781 51.57653427124023 5.746635437011719 C 47.26758575439453 3.924095153808594 42.6886100769043 3 37.966796875 3 M 37.966796875 0 C 58.93528366088867 0 75.93359375 16.99832153320312 75.93359375 37.966796875 C 75.93359375 58.93528366088867 58.93528366088867 75.93359375 37.966796875 75.93359375 C 16.99831008911133 75.93359375 0 58.93528366088867 0 37.966796875 C 0 16.99832153320312 16.99831008911133 0 37.966796875 0 Z" stroke="none" fill="#1d7083"/>
                        </g>
                      </g>
                    </g>
                  </g>
                </g>
              </g>
            </g>
          </g>
        </g>
      </g>
    </g>
    <g id="retirement_11442983" transform="translate(173.437 11168.553)">
      <g id="Grupo_1172984" data-name="Grupo 1172984" transform="translate(41.667 1.843)">
        <g id="Grupo_1172979" data-name="Grupo 1172979" transform="translate(0 23.682)">
          <path id="Trazado_1026803" data-name="Trazado 1026803" d="M73.249,237.442v9.788a10.605,10.605,0,0,1-4.541,8.857L61.04,261.6l-7.668-5.511a10.606,10.606,0,0,1-4.541-8.857v-9.788C58.085,231.613,63.994,231.613,73.249,237.442Z" transform="translate(-48.83 -233.07)" fill="#3cbe52" fill-rule="evenodd"/>
          <path id="Trazado_1026804" data-name="Trazado 1026804" d="M93.752,262.283c-7.158-4.215-11.765-4.215-18.923,0v8.246a7.862,7.862,0,0,0,3.4,6.626l6.065,4.359,6.064-4.359a7.862,7.862,0,0,0,3.4-6.626Z" transform="translate(-72.081 -256.369)" fill="#72d561" fill-rule="evenodd"/>
        </g>
        <g id="Grupo_1172980" data-name="Grupo 1172980" transform="translate(5.636 29.72)">
          <circle id="Elipse_11820" data-name="Elipse 11820" cx="6.574" cy="6.574" r="6.574" fill="#ffda2d"/>
        </g>
        <g id="Grupo_1172983" data-name="Grupo 1172983" transform="translate(4.225 0)">
          <g id="Grupo_1172981" data-name="Grupo 1172981" transform="translate(14.042 9.681)">
            <path id="Trazado_1026805" data-name="Trazado 1026805" d="M226.341,111.551a2.335,2.335,0,0,1-4.67,0V109.9a9.306,9.306,0,0,1,18.612,0v29.737a2.335,2.335,0,1,1-4.67,0V109.9a4.636,4.636,0,0,0-9.271,0v1.65Z" transform="translate(-221.671 -100.595)" fill="#da8c36" fill-rule="evenodd"/>
            <path id="Trazado_1026806" data-name="Trazado 1026806" d="M335.36,459.36h6.192a.347.347,0,0,1,.341.268l.951,3.911a.351.351,0,0,1-.341.434h-8.094a.351.351,0,0,1-.341-.434l.951-3.911A.347.347,0,0,1,335.36,459.36Z" transform="translate(-322.179 -421.442)" fill="#c97629" fill-rule="evenodd"/>
          </g>
          <g id="Grupo_1172982" data-name="Grupo 1172982">
            <path id="Trazado_1026807" data-name="Trazado 1026807" d="M117.31,35.334l3.014-11.248a18.773,18.773,0,0,0,1.986,1.475,6.2,6.2,0,0,0,2.207.96,5.705,5.705,0,0,0,2.557-.066h0l6.117-1.4a5.231,5.231,0,0,1,3.94.519l15.3,8.832a2.866,2.866,0,0,1-2.866,4.964l-10.654-6.151q.012.04.023.081a3.183,3.183,0,0,1-2.226,3.892L126.03,40.1a5.016,5.016,0,0,1-3.84-1.025Z" transform="translate(-114.298 -22.492)" fill="#ffd6bd" fill-rule="evenodd"/>
            <path id="Trazado_1026808" data-name="Trazado 1026808" d="M228.088,90.637a3.184,3.184,0,0,1,3.625,1.558,3.146,3.146,0,0,0-.109-.735,3.179,3.179,0,0,0-3.892-2.226c-2.079.567-4.161,1.115-6.243,1.673a.729.729,0,1,0,.378,1.409C223.924,91.758,226,91.2,228.088,90.637Z" transform="translate(-206.965 -80.653)" fill="#f9c6aa" fill-rule="evenodd"/>
            <path id="Trazado_1026809" data-name="Trazado 1026809" d="M92.592,24.225l3.684-13.749A.633.633,0,0,0,95.83,9.7l-2.541-.681a.633.633,0,0,0-.773.446L88.832,23.218a.633.633,0,0,0,.446.773l2.541.681A.633.633,0,0,0,92.592,24.225Z" transform="translate(-88.81 -9)" fill="#64b5f6" fill-rule="evenodd"/>
          </g>
        </g>
      </g>
      <path id="Trazado_1026810" data-name="Trazado 1026810" d="M51.509,36.767a2.218,2.218,0,0,1,1.522-2.1v-.435a.846.846,0,0,1,1.691,0v.4a2.226,2.226,0,0,1,1.227.844.846.846,0,0,1-1.37.991.529.529,0,0,0-.425-.22h-.431a.523.523,0,1,0,0,1.047h.306a2.215,2.215,0,0,1,.693,4.318v.434a.846.846,0,0,1-1.691,0v-.4A2.231,2.231,0,0,1,51.8,40.8a.846.846,0,1,1,1.371-.99.527.527,0,0,0,.425.22h.431a.524.524,0,1,0,0-1.047h-.306a2.216,2.216,0,0,1-2.214-2.214Zm2.367-4.36A5.728,5.728,0,1,0,59.6,38.136,5.735,5.735,0,0,0,53.877,32.407Zm0,13.148a7.419,7.419,0,1,0-7.419-7.419A7.427,7.427,0,0,0,53.877,45.555ZM45.26,31.925v7.76a7.054,7.054,0,0,0,3.045,5.939l5.572,4,5.571-4a7.051,7.051,0,0,0,3.045-5.939v-7.76c-6.54-3.753-10.693-3.753-17.232,0Zm-1.691-.486v8.246A8.682,8.682,0,0,0,47.319,47l6.065,4.359a.843.843,0,0,0,.987,0L60.435,47a8.683,8.683,0,0,0,3.749-7.312V31.439a.846.846,0,0,0-.417-.729c-3.85-2.267-6.9-3.277-9.89-3.277s-6.041,1.01-9.891,3.277A.847.847,0,0,0,43.569,31.439Zm21.672,8.246v-9.32c-8.648-5.347-14.081-5.347-22.729,0v9.32a9.7,9.7,0,0,0,4.19,8.17l7.175,5.157,7.174-5.157a9.7,9.7,0,0,0,4.19-8.17Zm1.3-10.5c-4.943-3.115-8.847-4.5-12.659-4.5s-7.717,1.388-12.66,4.5a.844.844,0,0,0-.4.715v9.789a11.48,11.48,0,0,0,4.893,9.544l7.669,5.511a.842.842,0,0,0,.987,0l7.668-5.511a11.476,11.476,0,0,0,4.893-9.544V29.9A.844.844,0,0,0,66.536,29.182ZM84.344,17.246a2.028,2.028,0,0,1-2.76.74L71.2,11.991a4.02,4.02,0,0,0-4.783-2.386l-5.705,1.554a.845.845,0,1,0,.444,1.631l5.7-1.553a2.329,2.329,0,0,1,2.855,1.633,2.339,2.339,0,0,1-1.633,2.854L57.459,18.616a4.149,4.149,0,0,1-3.16-.866l-3.263-2.5,2.556-9.536a6.5,6.5,0,0,0,5.269.913l6.118-1.4a4.409,4.409,0,0,1,3.328.427l15.3,8.832A2.023,2.023,0,0,1,84.344,17.246ZM77.7,20.829a8.343,8.343,0,0,0-.806-3.6L71.44,14.083a4.025,4.025,0,0,1-.487,1.39c-.024.042-.05.083-.076.125a5.492,5.492,0,0,1,3.844,5.232V48.595H77.7Zm1.929,32.379H72.793l.71-2.922h5.414ZM63.759,20.829a5.441,5.441,0,0,1,.519-2.317l-3.382.921a8.434,8.434,0,0,0-.117,1.4v1.65a1.49,1.49,0,1,0,2.98,0ZM48.913,16.642,52.486,3.306l-2.127-.57L46.786,16.072Zm35.538-3.62L69.152,4.19a6.106,6.106,0,0,0-4.552-.61l-6.117,1.4a5.019,5.019,0,0,1-4.427-1l.119-.446a1.48,1.48,0,0,0-1.044-1.809L50.59,1.047a1.478,1.478,0,0,0-1.808,1.044L45.1,15.842a1.479,1.479,0,0,0,1.044,1.808l2.541.681a1.492,1.492,0,0,0,.384.051,1.479,1.479,0,0,0,1.424-1.095l.072-.266,2.708,2.074a5.816,5.816,0,0,0,3.608,1.249,6.625,6.625,0,0,0,.857-.057.866.866,0,0,0,.111-.023l1.284-.349c-.027.3-.042.61-.042.915v1.65a3.181,3.181,0,1,0,6.362,0v-1.65a3.791,3.791,0,0,1,1.574-3.064l1.5-.409a3.976,3.976,0,0,0,.8-.315,3.793,3.793,0,0,1,3.7,3.788V48.595h-.19a.846.846,0,0,0-.822.646L70.9,53.853a.846.846,0,0,0,.821,1.046h8.988a.847.847,0,0,0,.821-1.046L80.4,49.241a.847.847,0,0,0-.822-.646h-.191V20.829a10.125,10.125,0,0,0-.264-2.309l1.612.931a3.675,3.675,0,0,0,1.843.5,3.737,3.737,0,0,0,.973-.129,3.708,3.708,0,0,0,.9-6.8Z" transform="translate(0 0)" fill-rule="evenodd"/>
    </g>
  </g>
</svg>
