<svg xmlns="http://www.w3.org/2000/svg" xmlns:xlink="http://www.w3.org/1999/xlink" width="108" height="108" viewBox="0 0 108 108">
  <defs>
    <filter id="Trazado_904820" x="0" y="0" width="108" height="108" filterUnits="userSpaceOnUse">
      <feOffset dy="3" input="SourceAlpha"/>
      <feGaussianBlur stdDeviation="3" result="blur"/>
      <feFlood flood-opacity="0.161"/>
      <feComposite operator="in" in2="blur"/>
      <feComposite in="SourceGraphic"/>
    </filter>
  </defs>
  <g id="Grupo_1173000" data-name="Grupo 1173000" transform="translate(-201 -13186.24)">
    <g id="Grupo_1171985" data-name="Grupo 1171985" transform="translate(210 13192.24)">
      <g id="Grupo_1167341" data-name="Grupo 1167341" transform="translate(0 0)">
        <g id="Grupo_1166792" data-name="Grupo 1166792">
          <g transform="matrix(1, 0, 0, 1, -9, -6)" filter="url(#Trazado_904820)">
            <g id="Trazado_904820-2" data-name="Trazado 904820" transform="translate(9 6)" fill="#f2f7e5">
              <path d="M 44.99999618530273 88.49999237060547 C 39.12687301635742 88.49999237060547 33.43022155761719 87.35006713867188 28.06829643249512 85.08216857910156 C 22.88852119445801 82.89130401611328 18.23629570007324 79.75457763671875 14.24084663391113 75.75914001464844 C 10.24540901184082 71.76369476318359 7.108683586120605 67.11146545410156 4.917821407318115 61.93169403076172 C 2.649921178817749 56.56976699829102 1.499996185302734 50.87311553955078 1.499996185302734 44.99999237060547 C 1.499996185302734 39.12686920166016 2.649921178817749 33.43021774291992 4.917821407318115 28.06829261779785 C 7.108683586120605 22.88851737976074 10.24540901184082 18.23630523681641 14.24084663391113 14.24085521697998 C 18.23629570007324 10.24540519714355 22.88852119445801 7.108692169189453 28.06829643249512 4.917829990386963 C 33.43022155761719 2.649929761886597 39.12687301635742 1.500004887580872 44.99999618530273 1.500004887580872 C 50.87311935424805 1.500004887580872 56.56977081298828 2.649929761886597 61.93169784545898 4.917829990386963 C 67.11147308349609 7.108692169189453 71.76369476318359 10.24540519714355 75.75914764404297 14.24085521697998 C 79.75458526611328 18.23630523681641 82.89131164550781 22.88851737976074 85.08216857910156 28.06829261779785 C 87.35007476806641 33.43021774291992 88.5 39.12686920166016 88.5 44.99999237060547 C 88.5 50.87311553955078 87.35007476806641 56.56976699829102 85.08216857910156 61.93169403076172 C 82.89131164550781 67.11146545410156 79.75458526611328 71.76369476318359 75.75914764404297 75.75914001464844 C 71.76369476318359 79.75457763671875 67.11147308349609 82.89130401611328 61.93169784545898 85.08216857910156 C 56.56977081298828 87.35006713867188 50.87311935424805 88.49999237060547 44.99999618530273 88.49999237060547 Z" stroke="none"/>
              <path d="M 44.99999618530273 2.999992370605469 C 39.32870864868164 2.999992370605469 33.82865142822266 4.11004638671875 28.65262603759766 6.299331665039062 C 23.65165710449219 8.414566040039062 19.15968322753906 11.44333648681641 15.301513671875 15.30150604248047 C 11.44333648681641 19.15967559814453 8.414566040039062 23.65164947509766 6.299339294433594 28.65262222290039 C 4.110054016113281 33.82864761352539 2.999992370605469 39.32870483398438 2.999992370605469 44.99999237060547 C 2.999992370605469 50.67127990722656 4.110054016113281 56.17132186889648 6.299339294433594 61.34736633300781 C 8.414566040039062 66.34833526611328 11.44333648681641 70.84029388427734 15.301513671875 74.69846343994141 C 19.15968322753906 78.55663299560547 23.65165710449219 81.58540344238281 28.65262603759766 83.70063781738281 C 33.82865142822266 85.88992309570312 39.32870864868164 86.99997711181641 44.99999618530273 86.99997711181641 C 50.67128372192383 86.99997711181641 56.17134094238281 85.88992309570312 61.34736633300781 83.70063781738281 C 66.34834289550781 81.58540344238281 70.84030914306641 78.55663299560547 74.69847869873047 74.69846343994141 C 78.55665588378906 70.84029388427734 81.58542633056641 66.34833526611328 83.70065307617188 61.34736633300781 C 85.88993835449219 56.17132186889648 87 50.67127990722656 87 44.99999237060547 C 87 39.32870483398438 85.88993835449219 33.82864761352539 83.70065307617188 28.65262222290039 C 81.58542633056641 23.65164947509766 78.55665588378906 19.15967559814453 74.69847869873047 15.30150604248047 C 70.84030914306641 11.44333648681641 66.34834289550781 8.414566040039062 61.34736633300781 6.299331665039062 C 56.17134094238281 4.11004638671875 50.67128372192383 2.999992370605469 44.99999618530273 2.999992370605469 M 44.99999618530273 -7.62939453125e-06 C 69.85281372070312 -7.62939453125e-06 90 20.14717864990234 90 44.99999237060547 C 90 69.85279083251953 69.85281372070312 89.99997711181641 44.99999618530273 89.99997711181641 C 20.14717864990234 89.99997711181641 -7.62939453125e-06 69.85279083251953 -7.62939453125e-06 44.99999237060547 C -7.62939453125e-06 20.14717864990234 20.14717864990234 -7.62939453125e-06 44.99999618530273 -7.62939453125e-06 Z" stroke="none" fill="#86b60c"/>
            </g>
          </g>
        </g>
      </g>
    </g>
    <g id="money-laundering_3882378" transform="translate(227.936 13210.176)">
      <g id="Grupo_1172998" data-name="Grupo 1172998" transform="translate(0.873 0.802)">
        <g id="Grupo_1172987" data-name="Grupo 1172987" transform="translate(0 8.802)">
          <path id="Trazado_1026811" data-name="Trazado 1026811" d="M30.684,11H2.746A1.751,1.751,0,0,0,1,12.746v40.16a1.751,1.751,0,0,0,1.746,1.746H30.684a1.751,1.751,0,0,0,1.746-1.746V12.746A1.751,1.751,0,0,0,30.684,11Z" transform="translate(-1 -11)" fill="#cf9e76"/>
        </g>
        <g id="Grupo_1172988" data-name="Grupo 1172988" transform="translate(7.857 7.056)">
          <path id="Trazado_1026812" data-name="Trazado 1026812" d="M25.715,10.746v3.492H10V9H25.715Z" transform="translate(-10 -9)" fill="#b4dd7f"/>
        </g>
        <g id="Grupo_1172989" data-name="Grupo 1172989" transform="translate(3.492 12.294)">
          <path id="Trazado_1026813" data-name="Trazado 1026813" d="M5,51.668V15H29.445V51.668Z" transform="translate(-5 -15)" fill="#e6e9ed"/>
        </g>
        <g id="Grupo_1172990" data-name="Grupo 1172990" transform="translate(32.757 0)">
          <circle id="Elipse_11821" data-name="Elipse 11821" cx="2.814" cy="2.814" r="2.814" transform="translate(0)" fill="#fcd770"/>
        </g>
        <g id="Grupo_1172991" data-name="Grupo 1172991" transform="translate(44.013 0)">
          <circle id="Elipse_11822" data-name="Elipse 11822" cx="4.221" cy="4.221" r="4.221" transform="translate(0)" fill="#fcd770"/>
        </g>
        <g id="Grupo_1172992" data-name="Grupo 1172992" transform="translate(33.176 14.04)">
          <path id="Trazado_1026814" data-name="Trazado 1026814" d="M46.857,29.223h-.489a1.754,1.754,0,0,0-1.659,1.2l-.471,1.423-1.746-2.619a3.484,3.484,0,0,0-2.322.882,8.735,8.735,0,1,1,15.112,0,3.478,3.478,0,0,0-2.314-.882l-1.746,2.619-.471-1.423a1.754,1.754,0,0,0-1.659-1.2H46.857Z" transform="translate(-39 -17)" fill="#fcd770"/>
        </g>
        <g id="Grupo_1172993" data-name="Grupo 1172993" transform="translate(31.43 33.247)">
          <path id="Trazado_1026815" data-name="Trazado 1026815" d="M48.35,39h2.619l3.256,2.445a9.187,9.187,0,0,1,2.741,3.283,9.309,9.309,0,0,1-8.329,13.48H46.315a9.311,9.311,0,0,1-5.588-16.763L43.984,39H48.35Z" transform="translate(-37 -39)" fill="#b4dd7f"/>
        </g>
        <g id="Grupo_1172994" data-name="Grupo 1172994" transform="translate(42.779 26.263)">
          <path id="Trazado_1026816" data-name="Trazado 1026816" d="M57.857,34.492l-5.238,3.492H50l2.619-4.365L54.365,31a3.478,3.478,0,0,1,2.314.882c.052.044.1.087.157.14A3.514,3.514,0,0,1,57.857,34.492Z" transform="translate(-50 -31)" fill="#b4dd7f"/>
        </g>
        <g id="Grupo_1172995" data-name="Grupo 1172995" transform="translate(33.176 26.263)">
          <path id="Trazado_1026817" data-name="Trazado 1026817" d="M44.238,33.619l2.619,4.365H44.238L39,34.492a3.514,3.514,0,0,1,1.021-2.471c.052-.044.1-.1.148-.14A3.484,3.484,0,0,1,42.492,31Z" transform="translate(-39 -31)" fill="#b4dd7f"/>
        </g>
        <g id="Grupo_1172996" data-name="Grupo 1172996" transform="translate(38.414 26.263)">
          <path id="Trazado_1026818" data-name="Trazado 1026818" d="M51.513,32.2l.471,1.423-2.619,4.365H47.619L45,33.619l.471-1.423A1.754,1.754,0,0,1,47.13,31h2.724a1.754,1.754,0,0,1,1.659,1.2Z" transform="translate(-45 -31)" fill="#a0d468"/>
        </g>
        <g id="Grupo_1172997" data-name="Grupo 1172997" transform="translate(5.238 15.786)">
          <path id="Trazado_1026819" data-name="Trazado 1026819" d="M25.692,24.753a1.707,1.707,0,0,0-1.231-.515,1.751,1.751,0,0,0-1.746,1.746V24.238a1.759,1.759,0,0,0-1.746-1.746,1.751,1.751,0,0,0-1.746,1.746V20.746A1.759,1.759,0,0,0,17.477,19a1.751,1.751,0,0,0-1.746,1.746v3.492a1.759,1.759,0,0,0-1.746-1.746,1.751,1.751,0,0,0-1.746,1.746V30.35h-.017a3.808,3.808,0,0,0-3.806-3.492A1.413,1.413,0,0,0,7.148,28.9L8.2,30.987a5.333,5.333,0,0,1,.55,2.348A8.365,8.365,0,0,0,17.11,41.7h.733a8.365,8.365,0,0,0,8.364-8.364V25.984a1.707,1.707,0,0,0-.515-1.231Z" transform="translate(-7 -19)" fill="#f0d0b4"/>
        </g>
      </g>
      <g id="Grupo_1172999" data-name="Grupo 1172999">
        <path id="Trazado_1026820" data-name="Trazado 1026820" d="M7.285,31.253a4.4,4.4,0,0,1,.461,1.953,9.25,9.25,0,0,0,9.239,9.239h.727a9.251,9.251,0,0,0,9.24-9.239V25.857A2.611,2.611,0,0,0,23.36,23.43a2.575,2.575,0,0,0-3.391-1.778V20.619a2.619,2.619,0,0,0-5.238,0v1.034a2.59,2.59,0,0,0-.873-.161,2.622,2.622,0,0,0-2.619,2.619v2.82a4.65,4.65,0,0,0-2.953-1.074,2.286,2.286,0,0,0-2.045,3.308Zm13.557-8.015a.874.874,0,0,1,.873.873V29.35H19.969V24.111A.874.874,0,0,1,20.842,23.238Zm-4.365-2.619a.873.873,0,0,1,1.746,0v8.73H16.477v-8.73ZM8.286,27.6a2.956,2.956,0,0,1,2.953,2.953V32.6l.6.2A2.954,2.954,0,0,1,13.857,35.6v.732H15.6V35.6a4.7,4.7,0,0,0-2.619-4.217v-.829c0-.114-.025-.221-.034-.334h.034V24.111a.873.873,0,0,1,1.746,0v5.352a2.584,2.584,0,0,0-1.129.654l-.361.361,1.234,1.234.361-.361a.869.869,0,0,1,.618-.256h7.284a.869.869,0,0,1,.618.256l.361.361,1.234-1.234-.361-.361a2.584,2.584,0,0,0-1.129-.654V25.857a.873.873,0,0,1,1.746,0v7.348A7.5,7.5,0,0,1,17.714,40.7h-.727a7.5,7.5,0,0,1-7.494-7.493,6.138,6.138,0,0,0-.645-2.734L7.8,28.385a.54.54,0,0,1,.483-.781Z" transform="translate(-0.762 -2.285)"/>
        <path id="Trazado_1026821" data-name="Trazado 1026821" d="M8,48H9.746v1.746H8Z" transform="translate(-1.016 -6.094)"/>
        <path id="Trazado_1026822" data-name="Trazado 1026822" d="M8,52H9.746v1.746H8Z" transform="translate(-1.016 -6.602)"/>
        <path id="Trazado_1026823" data-name="Trazado 1026823" d="M12,48H27.715v1.746H12Z" transform="translate(-1.523 -6.094)"/>
        <path id="Trazado_1026824" data-name="Trazado 1026824" d="M12,52H27.715v1.746H12Z" transform="translate(-1.523 -6.602)"/>
        <path id="Trazado_1026825" data-name="Trazado 1026825" d="M55.238,10.477A5.238,5.238,0,1,0,50,5.238,5.244,5.244,0,0,0,55.238,10.477Zm0-8.73a3.492,3.492,0,1,1-3.492,3.492A3.5,3.5,0,0,1,55.238,1.746Z" transform="translate(-6.348)"/>
        <path id="Trazado_1026826" data-name="Trazado 1026826" d="M41.492,6.984A3.492,3.492,0,1,0,38,3.492,3.5,3.5,0,0,0,41.492,6.984Zm0-5.238a1.746,1.746,0,1,1-1.746,1.746A1.748,1.748,0,0,1,41.492,1.746Z" transform="translate(-4.824)"/>
        <path id="Trazado_1026827" data-name="Trazado 1026827" d="M50.054,36.811l-2.273-1.7,4.6-3.067v-.467a4.324,4.324,0,0,0-1-2.752,9.6,9.6,0,1,0-17.2,0,4.326,4.326,0,0,0-1,2.751V12.365a2.622,2.622,0,0,0-2.619-2.619H25.318V8H7.857V9.746H2.619A2.622,2.622,0,0,0,0,12.365v40.16a2.622,2.622,0,0,0,2.619,2.619H30.557a2.622,2.622,0,0,0,2.619-2.619v-1.87a10.184,10.184,0,0,0,8.44,4.489h2.328a10.185,10.185,0,0,0,6.11-18.334Zm-4.047-2.619h-.813l1.813-3.022,1.452-2.178A2.624,2.624,0,0,1,50.6,31.13Zm-6.455,0L34.959,31.13A2.624,2.624,0,0,1,37.1,28.991l1.452,2.178,1.814,3.022Zm2.849,0-2.158-3.6.347-1.044a.873.873,0,0,1,.829-.6H44.14a.872.872,0,0,1,.829.6l.348,1.044-2.159,3.6Zm.379-17.461A7.847,7.847,0,0,1,49.989,27.7a4.313,4.313,0,0,0-1.971-.492H47.55l-1.025,1.537a2.62,2.62,0,0,0-.715-.932,2.615,2.615,0,0,0-2.158-4.1H41.906a.873.873,0,0,1,0-1.746h1.746a.874.874,0,0,1,.873.873h1.746a2.622,2.622,0,0,0-2.619-2.619V18.477H41.906v1.746a2.619,2.619,0,1,0,0,5.238h1.746a.873.873,0,1,1,0,1.746H41.906a.874.874,0,0,1-.873-.873H39.287a2.6,2.6,0,0,0,.461,1.479,2.62,2.62,0,0,0-.715.932l-1.025-1.537h-.467a4.3,4.3,0,0,0-1.971.492,7.847,7.847,0,0,1,7.21-10.969Zm-5,18.376-2.272,1.7a10.153,10.153,0,0,0-2.328,2.466V32.039ZM9.6,9.746H23.572v3.492H9.6Zm15.715,5.238h2.619V49.906H5.238V14.984h20.08ZM31.43,52.525a.874.874,0,0,1-.873.873H2.619a.874.874,0,0,1-.873-.873V12.365a.874.874,0,0,1,.873-.873H7.857v1.746H3.492V51.652H29.684V13.238H25.318V11.492h5.238a.874.874,0,0,1,.873.873Zm12.513.873H41.615a8.44,8.44,0,0,1-5.063-15.192l3.027-2.27h.581v11.35h1.746V35.938h1.746v6.111H45.4V35.938h.582l3.027,2.27A8.44,8.44,0,0,1,43.943,53.4Z" transform="translate(0 -1.016)"/>
        <path id="Trazado_1026828" data-name="Trazado 1026828" d="M50,49h1.746v1.746H50Z" transform="translate(-6.348 -6.221)"/>
        <path id="Trazado_1026829" data-name="Trazado 1026829" d="M46,55h1.746v1.746H46Z" transform="translate(-5.84 -6.982)"/>
      </g>
    </g>
  </g>
</svg>
