<svg xmlns="http://www.w3.org/2000/svg" xmlns:xlink="http://www.w3.org/1999/xlink" width="93.934" height="93.934" viewBox="0 0 93.934 93.934">
  <defs>
    <filter id="Trazado_982547" x="0" y="0" width="93.934" height="93.934" filterUnits="userSpaceOnUse">
      <feOffset dy="3" input="SourceAlpha"/>
      <feGaussianBlur stdDeviation="3" result="blur"/>
      <feFlood flood-opacity="0.161"/>
      <feComposite operator="in" in2="blur"/>
      <feComposite in="SourceGraphic"/>
    </filter>
  </defs>
  <g id="Grupo_1173052" data-name="Grupo 1173052" transform="translate(-1135.033 -13916)">
    <g id="Grupo_1171992" data-name="Grupo 1171992" transform="translate(1144.033 13922)">
      <g id="Grupo_1167337" data-name="Grupo 1167337" transform="translate(0)">
        <g id="Grupo_1166720" data-name="Grupo 1166720">
          <g id="Grupo_1164305" data-name="Grupo 1164305">
            <g id="Grupo_1163948" data-name="Grupo 1163948">
              <g id="Grupo_1158168" data-name="Grupo 1158168">
                <g id="Grupo_1152576" data-name="Grupo 1152576">
                  <g id="Grupo_1148633" data-name="Grupo 1148633">
                    <g id="Grupo_1148525" data-name="Grupo 1148525">
                      <g transform="matrix(1, 0, 0, 1, -9, -6)" filter="url(#Trazado_982547)">
                        <g id="Trazado_982547-2" data-name="Trazado 982547" transform="translate(9 6)" fill="#e9f9fd">
                          <path d="M 37.966796875 74.43359375 C 33.04315185546875 74.43359375 28.26757431030273 73.46962738037109 23.77274131774902 71.56847381591797 C 19.43047523498535 69.73184967041016 15.53040790557861 67.10224914550781 12.18087482452393 63.75271987915039 C 8.831341743469238 60.4031867980957 6.201741218566895 56.50312042236328 4.365118980407715 52.16086196899414 C 2.463963508605957 47.66601943969727 1.499996900558472 42.89044189453125 1.499996900558472 37.966796875 C 1.499996900558472 33.04315185546875 2.463963508605957 28.26757431030273 4.365118980407715 23.77274131774902 C 6.201741218566895 19.43047523498535 8.831341743469238 15.53040790557861 12.18087482452393 12.18087482452393 C 15.53040790557861 8.831341743469238 19.43047523498535 6.201741218566895 23.77274131774902 4.365118980407715 C 28.26757431030273 2.463963508605957 33.04315185546875 1.499996900558472 37.966796875 1.499996900558472 C 42.89044189453125 1.499996900558472 47.66601943969727 2.463963508605957 52.16086196899414 4.365118980407715 C 56.50312042236328 6.201741218566895 60.4031867980957 8.831341743469238 63.75271987915039 12.18087482452393 C 67.10224914550781 15.53040790557861 69.73184967041016 19.43047523498535 71.56847381591797 23.77274131774902 C 73.46962738037109 28.26757431030273 74.43359375 33.04315185546875 74.43359375 37.966796875 C 74.43359375 42.89044189453125 73.46962738037109 47.66601943969727 71.56847381591797 52.16086196899414 C 69.73184967041016 56.50313186645508 67.10224914550781 60.4031867980957 63.75271987915039 63.75271987915039 C 60.4031867980957 67.10224914550781 56.50313186645508 69.73184967041016 52.16086196899414 71.56847381591797 C 47.66601943969727 73.46962738037109 42.89044189453125 74.43359375 37.966796875 74.43359375 Z" stroke="none"/>
                          <path d="M 37.966796875 3 C 33.2449836730957 3 28.66600799560547 3.924095153808594 24.35705947875977 5.746635437011719 C 20.19359588623047 7.507637023925781 16.45379638671875 10.02928161621094 13.24153518676758 13.24153518676758 C 10.02927398681641 16.45379638671875 7.507621765136719 20.19359588623047 5.746635437011719 24.35705947875977 C 3.924095153808594 28.66600799560547 3 33.2449836730957 3 37.966796875 C 3 42.6886100769043 3.924095153808594 47.26758575439453 5.746635437011719 51.57653427124023 C 7.507621765136719 55.73999786376953 10.02927398681641 59.47979736328125 13.24153518676758 62.69205856323242 C 16.45379638671875 65.90431976318359 20.19359588623047 68.42597198486328 24.35705947875977 70.18695831298828 C 28.66600799560547 72.00949859619141 33.2449836730957 72.93359375 37.966796875 72.93359375 C 42.6886100769043 72.93359375 47.26758575439453 72.00949859619141 51.57653427124023 70.18695831298828 C 55.73999786376953 68.42597198486328 59.47979736328125 65.90431976318359 62.69205856323242 62.69205856323242 C 65.90431976318359 59.47979736328125 68.42597198486328 55.73999786376953 70.18695831298828 51.57653427124023 C 72.00949859619141 47.26758575439453 72.93359375 42.6886100769043 72.93359375 37.966796875 C 72.93359375 33.2449836730957 72.00949859619141 28.66600799560547 70.18695831298828 24.35705947875977 C 68.42597198486328 20.19359588623047 65.90431976318359 16.45379638671875 62.69205856323242 13.24153518676758 C 59.47979736328125 10.02928161621094 55.73999786376953 7.507637023925781 51.57653427124023 5.746635437011719 C 47.26758575439453 3.924095153808594 42.6886100769043 3 37.966796875 3 M 37.966796875 0 C 58.93528366088867 0 75.93359375 16.99832153320312 75.93359375 37.966796875 C 75.93359375 58.93528366088867 58.93528366088867 75.93359375 37.966796875 75.93359375 C 16.99831008911133 75.93359375 0 58.93528366088867 0 37.966796875 C 0 16.99832153320312 16.99831008911133 0 37.966796875 0 Z" stroke="none" fill="#1d7083"/>
                        </g>
                      </g>
                    </g>
                  </g>
                </g>
              </g>
            </g>
          </g>
        </g>
      </g>
    </g>
    <g id="funds_2494905" transform="translate(1157.995 13935.995)">
      <g id="Grupo_1173008" data-name="Grupo 1173008" transform="translate(9.905 13.616)">
        <path id="Trazado_1026844" data-name="Trazado 1026844" d="M13.187,25.421a5.937,5.937,0,1,1,11.5,0Z" transform="translate(-13 -18)" fill="#f7d881"/>
      </g>
      <g id="Grupo_1173009" data-name="Grupo 1173009" transform="translate(4.71 25.489)">
        <path id="Trazado_1026845" data-name="Trazado 1026845" d="M26.779,54.779H7.484A1.484,1.484,0,0,1,6,53.294V34H28.263V53.294A1.484,1.484,0,0,1,26.779,54.779Z" transform="translate(-6 -34)" fill="#8892a0"/>
      </g>
      <g id="Grupo_1173010" data-name="Grupo 1173010" transform="translate(4.71 25.489)">
        <path id="Trazado_1026846" data-name="Trazado 1026846" d="M6,34V50.233a12.4,12.4,0,0,0,4.453.835c7.822,0,14.3-7.411,15.413-17.068Z" transform="translate(-6 -34)" fill="#cfd3d9"/>
      </g>
      <g id="Grupo_1173011" data-name="Grupo 1173011" transform="translate(3.226 21.037)">
        <path id="Trazado_1026847" data-name="Trazado 1026847" d="M29.231,32.453H4V29.484A1.484,1.484,0,0,1,5.484,28H27.747a1.484,1.484,0,0,1,1.484,1.484Z" transform="translate(-4 -28)" fill="#444950"/>
      </g>
      <g id="Grupo_1173012" data-name="Grupo 1173012" transform="translate(35.878 31.426)">
        <path id="Trazado_1026848" data-name="Trazado 1026848" d="M48,42h8.905v2.968H48Z" transform="translate(-48 -42)" fill="#f7d881"/>
      </g>
      <g id="Grupo_1173013" data-name="Grupo 1173013" transform="translate(37.363 34.394)">
        <path id="Trazado_1026849" data-name="Trazado 1026849" d="M50,46h8.905v2.968H50Z" transform="translate(-50 -46)" fill="#f7d881"/>
      </g>
      <g id="Grupo_1173014" data-name="Grupo 1173014" transform="translate(35.878 37.363)">
        <path id="Trazado_1026850" data-name="Trazado 1026850" d="M48,50h8.905v2.968H48Z" transform="translate(-48 -50)" fill="#f7d881"/>
      </g>
      <g id="Grupo_1173015" data-name="Grupo 1173015" transform="translate(35.878 40.331)">
        <path id="Trazado_1026851" data-name="Trazado 1026851" d="M48,54h8.905v2.968H48Z" transform="translate(-48 -54)" fill="#f7d881"/>
      </g>
      <g id="Grupo_1173016" data-name="Grupo 1173016" transform="translate(37.363 43.299)">
        <path id="Trazado_1026852" data-name="Trazado 1026852" d="M50,58h8.905v2.968H50Z" transform="translate(-50 -58)" fill="#f7d881"/>
      </g>
      <g id="Grupo_1173017" data-name="Grupo 1173017" transform="translate(24.005 43.299)">
        <path id="Trazado_1026853" data-name="Trazado 1026853" d="M32,58h8.905v2.968H32Z" transform="translate(-32 -58)" fill="#f7d881"/>
      </g>
      <g id="Grupo_1173018" data-name="Grupo 1173018" transform="translate(22.521 40.331)">
        <path id="Trazado_1026854" data-name="Trazado 1026854" d="M30,54h8.905v2.968H30Z" transform="translate(-30 -54)" fill="#f7d881"/>
      </g>
      <g id="Grupo_1173019" data-name="Grupo 1173019" transform="translate(22.521 37.363)">
        <path id="Trazado_1026855" data-name="Trazado 1026855" d="M30,50h8.905v2.968H30Z" transform="translate(-30 -50)" fill="#f7d881"/>
      </g>
      <g id="Grupo_1173020" data-name="Grupo 1173020" transform="translate(24.005 34.394)">
        <path id="Trazado_1026856" data-name="Trazado 1026856" d="M32,46h8.905v2.968H32Z" transform="translate(-32 -46)" fill="#f7d881"/>
      </g>
      <g id="Grupo_1173021" data-name="Grupo 1173021" transform="translate(32.91 20.294)">
        <path id="Trazado_1026857" data-name="Trazado 1026857" d="M46.968,27v2.226H44l4.453,4.453,4.453-4.453H49.937V27Z" transform="translate(-44 -27)" fill="#8892a0"/>
      </g>
      <g id="Grupo_1173022" data-name="Grupo 1173022" transform="translate(1.742 1.742)">
        <path id="Trazado_1026858" data-name="Trazado 1026858" d="M0,0H4.453V10.389H0Z" transform="translate(4.453 10.389) rotate(180)" fill="#66acd7"/>
      </g>
      <g id="Grupo_1173023" data-name="Grupo 1173023" transform="translate(6.195 3.226)">
        <path id="Trazado_1026859" data-name="Trazado 1026859" d="M8,6.968h2.968v4.453L13.5,13.954a1.485,1.485,0,0,0,1.049.435h.128a1.484,1.484,0,0,0,1.484-1.484v-.128a1.485,1.485,0,0,0-.435-1.049L13.937,9.937V8.453a1.484,1.484,0,0,1,1.484-1.484h4.453a1.484,1.484,0,0,1,1.484,1.484V9.937l-1.791,1.791a1.485,1.485,0,0,0-.435,1.049v.128a1.484,1.484,0,0,0,1.484,1.484h.128a1.485,1.485,0,0,0,1.049-.435l2.534-2.534V6.968h5.937a1.484,1.484,0,1,0,0-2.968H8Z" transform="translate(-8 -4)" fill="#fadfb2"/>
      </g>
      <g id="Grupo_1173024" data-name="Grupo 1173024" transform="translate(3.968 25.489)">
        <path id="Trazado_1026860" data-name="Trazado 1026860" d="M22.81,55.521H7.226A2.229,2.229,0,0,1,5,53.294V34H6.484V53.294a.743.743,0,0,0,.742.742H22.81Z" transform="translate(-5 -34)"/>
      </g>
      <g id="Grupo_1173025" data-name="Grupo 1173025" transform="translate(26.231 25.489)">
        <path id="Trazado_1026861" data-name="Trazado 1026861" d="M35,34h1.484v8.905H35Z" transform="translate(-35 -34)"/>
      </g>
      <g id="Grupo_1173026" data-name="Grupo 1173026" transform="translate(2.484 20.294)">
        <path id="Trazado_1026862" data-name="Trazado 1026862" d="M28.973,32.937H3.742A.742.742,0,0,1,3,32.195V29.226A2.229,2.229,0,0,1,5.226,27H27.489a2.229,2.229,0,0,1,2.226,2.226v2.968A.742.742,0,0,1,28.973,32.937ZM4.484,31.453H28.231V29.226a.743.743,0,0,0-.742-.742H5.226a.743.743,0,0,0-.742.742Z" transform="translate(-3 -27)"/>
      </g>
      <g id="Grupo_1173030" data-name="Grupo 1173030" transform="translate(12.873 29.2)">
        <g id="Grupo_1173027" data-name="Grupo 1173027" transform="translate(0 1.484)">
          <path id="Trazado_1026863" data-name="Trazado 1026863" d="M19.968,51.389A2.971,2.971,0,0,1,17,48.421h1.484a1.484,1.484,0,1,0,1.484-1.484,2.968,2.968,0,1,1,2.968-2.968H21.453a1.484,1.484,0,1,0-1.484,1.484,2.968,2.968,0,1,1,0,5.937Z" transform="translate(-17 -41)"/>
        </g>
        <g id="Grupo_1173028" data-name="Grupo 1173028" transform="translate(2.226)">
          <path id="Trazado_1026864" data-name="Trazado 1026864" d="M20,39h1.484v2.226H20Z" transform="translate(-20 -39)"/>
        </g>
        <g id="Grupo_1173029" data-name="Grupo 1173029" transform="translate(2.226 11.131)">
          <path id="Trazado_1026865" data-name="Trazado 1026865" d="M20,54h1.484v2.226H20Z" transform="translate(-20 -54)"/>
        </g>
      </g>
      <g id="Grupo_1173031" data-name="Grupo 1173031" transform="translate(6.195 2.484)">
        <path id="Trazado_1026866" data-name="Trazado 1026866" d="M20.742,14.873h-.127a2.229,2.229,0,0,1-2.226-2.226V12.52a2.213,2.213,0,0,1,.652-1.575l1.574-1.574V8.195a.743.743,0,0,0-.742-.742H15.421a.743.743,0,0,0-.742.742V9.372l1.574,1.574a2.21,2.21,0,0,1,.652,1.575v.127a2.229,2.229,0,0,1-2.226,2.226h-.127a2.213,2.213,0,0,1-1.575-.652l-2.534-2.534a.74.74,0,0,1-.217-.525V7.453H8V5.968h2.968a.742.742,0,0,1,.742.742v4.145l2.316,2.316a.739.739,0,0,0,.525.217h.127a.743.743,0,0,0,.742-.742V12.52a.739.739,0,0,0-.217-.525L13.412,10.2a.74.74,0,0,1-.217-.525V8.195a2.229,2.229,0,0,1,2.226-2.226h4.453A2.229,2.229,0,0,1,22.1,8.195V9.679a.74.74,0,0,1-.217.525l-1.791,1.791a.739.739,0,0,0-.217.525v.127a.743.743,0,0,0,.742.742h.127a.739.739,0,0,0,.525-.217l2.316-2.316V6.71a.742.742,0,0,1,.742-.742h5.937a.742.742,0,1,0,0-1.484H8V3H30.263a2.226,2.226,0,0,1,0,4.453H25.068v3.71a.74.74,0,0,1-.217.525l-2.534,2.534a2.21,2.21,0,0,1-1.575.652Z" transform="translate(-8 -3)"/>
      </g>
      <g id="Grupo_1173032" data-name="Grupo 1173032" transform="translate(1 1)">
        <path id="Trazado_1026867" data-name="Trazado 1026867" d="M6.195,12.873H1.742A.742.742,0,0,1,1,12.131V1.742A.742.742,0,0,1,1.742,1H6.195a.742.742,0,0,1,.742.742V12.131A.742.742,0,0,1,6.195,12.873Zm-3.71-1.484H5.453V2.484H2.484Z" transform="translate(-1 -1)"/>
      </g>
      <g id="Grupo_1173033" data-name="Grupo 1173033" transform="translate(13.615 17.326)">
        <path id="Trazado_1026868" data-name="Trazado 1026868" d="M21.186,27.235l-2.968-2.968A.742.742,0,0,1,18.742,23h3.71v1.484H20.533l1.7,1.7Z" transform="translate(-18 -23)"/>
      </g>
      <g id="Grupo_1173034" data-name="Grupo 1173034" transform="translate(15.1 15.842)">
        <path id="Trazado_1026869" data-name="Trazado 1026869" d="M20,21h1.484v2.226H20Z" transform="translate(-20 -21)"/>
      </g>
      <g id="Grupo_1173035" data-name="Grupo 1173035" transform="translate(9.163 12.873)">
        <path id="Trazado_1026870" data-name="Trazado 1026870" d="M12.211,25.349a6.679,6.679,0,1,1,12.936,0l-1.437-.37a5.194,5.194,0,1,0-10.062,0Z" transform="translate(-12 -17)"/>
      </g>
      <g id="Grupo_1173036" data-name="Grupo 1173036" transform="translate(36.62 42.557)">
        <path id="Trazado_1026871" data-name="Trazado 1026871" d="M58.647,61.453H49.742A.742.742,0,0,1,49,60.71V57.742A.742.742,0,0,1,49.742,57h8.905a.742.742,0,0,1,.742.742V60.71A.742.742,0,0,1,58.647,61.453Zm-8.163-1.484h7.421V58.484H50.484Z" transform="translate(-49 -57)"/>
      </g>
      <g id="Grupo_1173037" data-name="Grupo 1173037" transform="translate(35.136 39.589)">
        <path id="Trazado_1026872" data-name="Trazado 1026872" d="M56.647,57.453H47.742A.742.742,0,0,1,47,56.71V53.742A.742.742,0,0,1,47.742,53h8.905a.742.742,0,0,1,.742.742V56.71A.742.742,0,0,1,56.647,57.453Zm-8.163-1.484h7.421V54.484H48.484Z" transform="translate(-47 -53)"/>
      </g>
      <g id="Grupo_1173038" data-name="Grupo 1173038" transform="translate(23.263 42.557)">
        <path id="Trazado_1026873" data-name="Trazado 1026873" d="M40.647,61.453H31.742A.742.742,0,0,1,31,60.71V57.742A.742.742,0,0,1,31.742,57h8.905a.742.742,0,0,1,.742.742V60.71A.742.742,0,0,1,40.647,61.453Zm-8.163-1.484h7.421V58.484H32.484Z" transform="translate(-31 -57)"/>
      </g>
      <g id="Grupo_1173039" data-name="Grupo 1173039" transform="translate(21.779 39.589)">
        <path id="Trazado_1026874" data-name="Trazado 1026874" d="M38.647,57.453H29.742A.742.742,0,0,1,29,56.71V53.742A.742.742,0,0,1,29.742,53h8.905a.742.742,0,0,1,.742.742V56.71A.742.742,0,0,1,38.647,57.453Zm-8.163-1.484h7.421V54.484H30.484Z" transform="translate(-29 -53)"/>
      </g>
      <g id="Grupo_1173040" data-name="Grupo 1173040" transform="translate(21.779 36.62)">
        <path id="Trazado_1026875" data-name="Trazado 1026875" d="M38.647,53.453H29.742A.742.742,0,0,1,29,52.71V49.742A.742.742,0,0,1,29.742,49h8.905a.742.742,0,0,1,.742.742V52.71A.742.742,0,0,1,38.647,53.453Zm-8.163-1.484h7.421V50.484H30.484Z" transform="translate(-29 -49)"/>
      </g>
      <g id="Grupo_1173041" data-name="Grupo 1173041" transform="translate(23.263 33.652)">
        <path id="Trazado_1026876" data-name="Trazado 1026876" d="M40.647,49.453H31.742A.742.742,0,0,1,31,48.71V45.742A.742.742,0,0,1,31.742,45h8.905a.742.742,0,0,1,.742.742V48.71A.742.742,0,0,1,40.647,49.453Zm-8.163-1.484h7.421V46.484H32.484Z" transform="translate(-31 -45)"/>
      </g>
      <g id="Grupo_1173042" data-name="Grupo 1173042" transform="translate(35.136 36.62)">
        <path id="Trazado_1026877" data-name="Trazado 1026877" d="M56.647,53.453H47.742A.742.742,0,0,1,47,52.71V49.742A.742.742,0,0,1,47.742,49h8.905a.742.742,0,0,1,.742.742V52.71A.742.742,0,0,1,56.647,53.453Zm-8.163-1.484h7.421V50.484H48.484Z" transform="translate(-47 -49)"/>
      </g>
      <g id="Grupo_1173043" data-name="Grupo 1173043" transform="translate(36.62 33.652)">
        <path id="Trazado_1026878" data-name="Trazado 1026878" d="M58.647,49.453H49.742A.742.742,0,0,1,49,48.71V45.742A.742.742,0,0,1,49.742,45h8.905a.742.742,0,0,1,.742.742V48.71A.742.742,0,0,1,58.647,49.453Zm-8.163-1.484h7.421V46.484H50.484Z" transform="translate(-49 -45)"/>
      </g>
      <g id="Grupo_1173044" data-name="Grupo 1173044" transform="translate(35.136 30.684)">
        <path id="Trazado_1026879" data-name="Trazado 1026879" d="M56.647,45.453H47.742A.742.742,0,0,1,47,44.71V41.742A.742.742,0,0,1,47.742,41h8.905a.742.742,0,0,1,.742.742V44.71A.742.742,0,0,1,56.647,45.453Zm-8.163-1.484h7.421V42.484H48.484Z" transform="translate(-47 -41)"/>
      </g>
      <g id="Grupo_1173045" data-name="Grupo 1173045" transform="translate(32.168 20.294)">
        <path id="Trazado_1026880" data-name="Trazado 1026880" d="M48.195,34.421a.74.74,0,0,1-.525-.217l-4.453-4.453a.742.742,0,0,1,.525-1.267h2.226V27h1.484v2.226a.742.742,0,0,1-.742.742H45.533l2.661,2.661,2.661-2.661H49.679a.742.742,0,0,1-.742-.742V27h1.484v1.484h2.226a.742.742,0,0,1,.525,1.267L48.719,34.2A.74.74,0,0,1,48.195,34.421Z" transform="translate(-43 -27)"/>
      </g>
      <g id="Grupo_1173046" data-name="Grupo 1173046" transform="translate(38.105 17.326)">
        <path id="Trazado_1026881" data-name="Trazado 1026881" d="M51,23h1.484v1.484H51Z" transform="translate(-51 -23)"/>
      </g>
      <g id="Grupo_1173047" data-name="Grupo 1173047" transform="translate(38.105 14.358)">
        <path id="Trazado_1026882" data-name="Trazado 1026882" d="M51,19h1.484v1.484H51Z" transform="translate(-51 -19)"/>
      </g>
      <g id="Grupo_1173048" data-name="Grupo 1173048" transform="translate(38.105 11.389)">
        <path id="Trazado_1026883" data-name="Trazado 1026883" d="M51,15h1.484v1.484H51Z" transform="translate(-51 -15)"/>
      </g>
      <g id="Grupo_1173049" data-name="Grupo 1173049" transform="translate(35.136 17.326)">
        <path id="Trazado_1026884" data-name="Trazado 1026884" d="M47,23h1.484v1.484H47Z" transform="translate(-47 -23)"/>
      </g>
      <g id="Grupo_1173050" data-name="Grupo 1173050" transform="translate(35.136 14.358)">
        <path id="Trazado_1026885" data-name="Trazado 1026885" d="M47,19h1.484v1.484H47Z" transform="translate(-47 -19)"/>
      </g>
      <g id="Grupo_1173051" data-name="Grupo 1173051" transform="translate(35.136 11.389)">
        <path id="Trazado_1026886" data-name="Trazado 1026886" d="M47,15h1.484v1.484H47Z" transform="translate(-47 -15)"/>
      </g>
    </g>
  </g>
</svg>
