<svg xmlns="http://www.w3.org/2000/svg" xmlns:xlink="http://www.w3.org/1999/xlink" width="113" height="113" viewBox="0 0 113 113">
  <defs>
    <filter id="Trazado_982547" x="0" y="0" width="113" height="113" filterUnits="userSpaceOnUse">
      <feOffset dy="3" input="SourceAlpha"/>
      <feGaussianBlur stdDeviation="3" result="blur"/>
      <feFlood flood-opacity="0.161"/>
      <feComposite operator="in" in2="blur"/>
      <feComposite in="SourceGraphic"/>
    </filter>
  </defs>
  <g id="Grupo_1172014" data-name="Grupo 1172014" transform="translate(-325 -4575)">
    <g id="Grupo_1167343" data-name="Grupo 1167343" transform="translate(0 2228)">
      <g id="Grupo_1166777" data-name="Grupo 1166777" transform="translate(0.105 -910)">
        <g id="Grupo_1164305" data-name="Grupo 1164305" transform="translate(333.895 3263)">
          <g id="Grupo_1163948" data-name="Grupo 1163948" transform="translate(0)">
            <g id="Grupo_1158168" data-name="Grupo 1158168" transform="translate(0)">
              <g id="Grupo_1152576" data-name="Grupo 1152576">
                <g id="Grupo_1148633" data-name="Grupo 1148633">
                  <g id="Grupo_1148525" data-name="Grupo 1148525">
                    <g transform="matrix(1, 0, 0, 1, -9, -6)" filter="url(#Trazado_982547)">
                      <g id="Trazado_982547-2" data-name="Trazado 982547" transform="translate(9 6)" fill="#f2f7e5">
                        <path d="M 47.5 93.5 C 41.28937149047852 93.5 35.26533508300781 92.28397369384766 29.59518623352051 89.88570404052734 C 24.11771965026855 87.56893157958984 19.19813346862793 84.25196075439453 14.97309303283691 80.02691650390625 C 10.74804019927979 75.80186462402344 7.431066513061523 70.88229370117188 5.114293098449707 65.40481567382812 C 2.716026782989502 59.73468017578125 1.5 53.71062850952148 1.5 47.5 C 1.5 41.28937149047852 2.716026782989502 35.26533508300781 5.114293098449707 29.59518623352051 C 7.431066513061523 24.11771965026855 10.74804019927979 19.19813346862793 14.97309303283691 14.97309303283691 C 19.19813346862793 10.74804019927979 24.11771965026855 7.431066513061523 29.59518623352051 5.114293098449707 C 35.26533508300781 2.716026782989502 41.28937149047852 1.5 47.5 1.5 C 53.71062850952148 1.5 59.73468017578125 2.716026782989502 65.40481567382812 5.114293098449707 C 70.88229370117188 7.431066513061523 75.80186462402344 10.74804019927979 80.02691650390625 14.97309303283691 C 84.25196075439453 19.19813346862793 87.56893157958984 24.11771965026855 89.88570404052734 29.59518623352051 C 92.28397369384766 35.26533508300781 93.5 41.28937149047852 93.5 47.5 C 93.5 53.71062850952148 92.28397369384766 59.73468017578125 89.88570404052734 65.40481567382812 C 87.56893157958984 70.88229370117188 84.25196075439453 75.80186462402344 80.02691650390625 80.02691650390625 C 75.80186462402344 84.25196075439453 70.88229370117188 87.56893157958984 65.40481567382812 89.88570404052734 C 59.73468017578125 92.28397369384766 53.71062850952148 93.5 47.5 93.5 Z" stroke="none"/>
                        <path d="M 47.5 3 C 41.49121475219727 3 35.66376876831055 4.176155090332031 30.17950439453125 6.495796203613281 C 24.88084411621094 8.736953735351562 20.12152099609375 11.94598388671875 16.03375244140625 16.03375244140625 C 11.94598388671875 20.12152099609375 8.736953735351562 24.88084411621094 6.495796203613281 30.17950439453125 C 4.176155090332031 35.66376876831055 3 41.49121475219727 3 47.5 C 3 53.50878524780273 4.176155090332031 59.33623123168945 6.495796203613281 64.82049560546875 C 8.736953735351562 70.11915588378906 11.94598388671875 74.87847900390625 16.03375244140625 78.96624755859375 C 20.12152099609375 83.05401611328125 24.88084411621094 86.26304626464844 30.17950439453125 88.50419616699219 C 35.66376876831055 90.82384490966797 41.49121475219727 92 47.5 92 C 53.50878524780273 92 59.33623123168945 90.82384490966797 64.82049560546875 88.50419616699219 C 70.11915588378906 86.26304626464844 74.87847900390625 83.05401611328125 78.96624755859375 78.96624755859375 C 83.05401611328125 74.87847900390625 86.26304626464844 70.11915588378906 88.50419616699219 64.82049560546875 C 90.82384490966797 59.33623123168945 92 53.50878524780273 92 47.5 C 92 41.49121475219727 90.82384490966797 35.66376876831055 88.50419616699219 30.17950439453125 C 86.26304626464844 24.88084411621094 83.05401611328125 20.12152099609375 78.96624755859375 16.03375244140625 C 74.87847900390625 11.94598388671875 70.11915588378906 8.736953735351562 64.82049560546875 6.495796203613281 C 59.33623123168945 4.176155090332031 53.50878524780273 3 47.5 3 M 47.5 0 C 73.7335205078125 0 95 21.2664794921875 95 47.5 C 95 73.7335205078125 73.7335205078125 95 47.5 95 C 21.2664794921875 95 0 73.7335205078125 0 47.5 C 0 21.2664794921875 21.2664794921875 0 47.5 0 Z" stroke="none" fill="#86b60c"/>
                      </g>
                    </g>
                  </g>
                </g>
              </g>
            </g>
          </g>
        </g>
      </g>
    </g>
    <g id="scholarship_18251165" transform="translate(345.67 4591.875)">
      <path id="Trazado_1026899" data-name="Trazado 1026899" d="M134.775,150.478a16.2,16.2,0,1,0-16.2-16.2A16.228,16.228,0,0,0,134.775,150.478Z" transform="translate(-98.042 -97.813)" fill="#837683" fill-rule="evenodd"/>
      <path id="Trazado_1026900" data-name="Trazado 1026900" d="M256.889,134.282a16.194,16.194,0,0,1-14.757,16.132q.712.063,1.441.063a16.275,16.275,0,0,0,2.319-.165c.1-.013.2-.029.291-.044a16.2,16.2,0,0,0-2.609-32.184q-.729,0-1.441.063A16.2,16.2,0,0,1,256.889,134.282Z" transform="translate(-206.839 -97.813)" fill="#685e68" fill-rule="evenodd"/>
      <path id="Trazado_1026901" data-name="Trazado 1026901" d="M171.276,266.77a11.316,11.316,0,0,0-11.246,10.095,16.193,16.193,0,0,0,22.491,0A11.311,11.311,0,0,0,171.276,266.77Z" transform="translate(-134.543 -228.739)" fill="#8ac9fe" fill-rule="evenodd"/>
      <path id="Trazado_1026902" data-name="Trazado 1026902" d="M242.148,266.862c6.732.855,9.445,5.949,10.068,12.054a16.1,16.1,0,0,0,2.615-2.051,11.311,11.311,0,0,0-11.245-10.095A11.161,11.161,0,0,0,242.148,266.862Z" transform="translate(-206.853 -228.739)" fill="#60b7ff" fill-rule="evenodd"/>
      <path id="Trazado_1026903" data-name="Trazado 1026903" d="M214.391,182.652a5.718,5.718,0,1,0-5.718-5.718A5.73,5.73,0,0,0,214.391,182.652Z" transform="translate(-177.377 -144.598)" fill="#f6dccd" fill-rule="evenodd"/>
      <path id="Trazado_1026904" data-name="Trazado 1026904" d="M255.524,176.934a5.72,5.72,0,0,1-5,5.674,5.957,5.957,0,0,0,.719.044,5.718,5.718,0,0,0,0-11.436,5.96,5.96,0,0,0-.719.044,5.72,5.72,0,0,1,5,5.674Z" transform="translate(-214.23 -144.598)" fill="#f1cbbc" fill-rule="evenodd"/>
      <path id="Trazado_1026905" data-name="Trazado 1026905" d="M38.628,345.067l8.419-4.877c1.581-.916,3.187-1.566,4.925-1a58.931,58.931,0,0,0,8.322,2.557,2.339,2.339,0,0,1,1.619,2.8,2.267,2.267,0,0,1-2.8,1.619l1.129.18a5.233,5.233,0,0,0,3.608-.629L71.939,341c6.292-3.664,7.216,1.974,5.125,3.263L62.374,353.31a5.392,5.392,0,0,1-4.362.614L47.358,351.07l-3.948,2.278a1.6,1.6,0,0,1-2.172-.584l-3.192-5.526A1.6,1.6,0,0,1,38.628,345.067Z" transform="translate(-26.943 -292.323)" fill="#f6dccd" fill-rule="evenodd"/>
      <path id="Trazado_1026906" data-name="Trazado 1026906" d="M175.2,375.02a2.31,2.31,0,0,1-2.611,1.114c-1.743-.462-3.489-.934-5.232-1.4a.876.876,0,1,1,.454-1.692Z" transform="translate(-140.426 -322.291)" fill="#f1cbbc" fill-rule="evenodd"/>
      <path id="Trazado_1026907" data-name="Trazado 1026907" d="M38.628,345.067l8.419-4.877c1.581-.916,3.187-1.566,4.925-1,1.035.335,2.423.878,3.981,1.4L39.643,350l-1.6-2.766A1.6,1.6,0,0,1,38.628,345.067Z" transform="translate(-26.943 -292.323)" fill="#f1cbbc" fill-rule="evenodd"/>
      <path id="Trazado_1026908" data-name="Trazado 1026908" d="M19.482,365.19l6.678,11.8a1.2,1.2,0,0,1-.449,1.624L23.437,379.9a1.2,1.2,0,0,1-1.624-.452l-6.676-11.8a1.192,1.192,0,0,1,.449-1.624l2.271-1.286a1.2,1.2,0,0,1,1.624.452Z" transform="translate(-6.82 -314.872)" fill="#d1d1d6" fill-rule="evenodd"/>
      <path id="Trazado_1026909" data-name="Trazado 1026909" d="M45.931,373.3l1.18,2.088,1.17,2.065a1.194,1.194,0,0,1-.447,1.621l.812-.459a1.2,1.2,0,0,0,.449-1.624l-1.172-2.073-2.355-4.161-2.357-4.164-.794-1.4a1.2,1.2,0,0,0-1.388-.553l1.373,2.426,2.355,4.161,1.172,2.07Z" transform="translate(-29.755 -314.872)" fill="#b1b1b5" fill-rule="evenodd"/>
      <path id="Trazado_1026910" data-name="Trazado 1026910" d="M173.68,50.979l-8.419,4.877c-1.581.916-3.187,1.565-4.925,1a58.909,58.909,0,0,0-8.322-2.558,2.339,2.339,0,0,1-1.619-2.8,2.267,2.267,0,0,1,2.8-1.619l-1.129-.18a5.233,5.233,0,0,0-3.608.629l-8.094,4.714c-6.292,3.664-7.216-1.974-5.125-3.263l14.691-9.045a5.391,5.391,0,0,1,4.362-.614l10.654,2.854L168.9,42.7a1.6,1.6,0,0,1,2.172.584l3.192,5.526a1.6,1.6,0,0,1-.581,2.172Z" transform="translate(-111.832 -30.738)" fill="#f6dccd" fill-rule="evenodd"/>
      <path id="Trazado_1026911" data-name="Trazado 1026911" d="M271.135,109.4a2.31,2.31,0,0,1,2.611-1.114c1.743.462,3.489.934,5.232,1.4a.876.876,0,1,1-.454,1.692Z" transform="translate(-232.378 -89.144)" fill="#f1cbbc" fill-rule="evenodd"/>
      <path id="Trazado_1026912" data-name="Trazado 1026912" d="M336.746,81.412l-8.419,4.877c-1.581.916-3.187,1.565-4.925,1-1.035-.335-2.423-.878-3.981-1.4l16.309-9.418,1.6,2.766A1.6,1.6,0,0,1,336.746,81.412Z" transform="translate(-274.898 -61.172)" fill="#f1cbbc" fill-rule="evenodd"/>
      <path id="Trazado_1026913" data-name="Trazado 1026913" d="M405.929,28.554l-6.678-11.8a1.2,1.2,0,0,1,.449-1.624l2.273-1.286a1.2,1.2,0,0,1,1.624.452l6.675,11.8a1.192,1.192,0,0,1-.449,1.624l-2.271,1.286A1.2,1.2,0,0,1,405.929,28.554Z" transform="translate(-345.058 -5.888)" fill="#d1d1d6" fill-rule="evenodd"/>
      <path id="Trazado_1026914" data-name="Trazado 1026914" d="M402.415,27.675l-1.18-2.088-1.17-2.065a1.194,1.194,0,0,1,.447-1.621l-.812.459a1.2,1.2,0,0,0-.449,1.624l1.172,2.073,2.355,4.161,2.357,4.164.794,1.4a1.2,1.2,0,0,0,1.388.553l-1.373-2.426-2.355-4.161-1.172-2.07Z" transform="translate(-345.058 -13.116)" fill="#b1b1b5" fill-rule="evenodd"/>
      <path id="Trazado_1026915" data-name="Trazado 1026915" d="M45.466,205.3a7.356,7.356,0,1,1,7.358-7.356A7.37,7.37,0,0,1,45.466,205.3Z" transform="translate(-27.185 -161.655)" fill="#ffc338" fill-rule="evenodd"/>
      <path id="Trazado_1026916" data-name="Trazado 1026916" d="M102.952,197.943a7.357,7.357,0,0,0-6.917-7.344c.145-.008.291-.013.438-.013a7.356,7.356,0,1,1,0,14.713c-.147,0-.294,0-.438-.013A7.357,7.357,0,0,0,102.952,197.943Z" transform="translate(-78.192 -161.655)" fill="#f5b829" fill-rule="evenodd"/>
      <path id="Trazado_1026917" data-name="Trazado 1026917" d="M19.734,60.693l.583,1.03v0a2.167,2.167,0,0,1-.817,2.941l-2.294,1.3,0,0a2.167,2.167,0,0,1-2.941-.818L7.518,53.231a2.164,2.164,0,0,1,.813-2.944l2.3-1.3h0a2.169,2.169,0,0,1,2.941.815v0l.459.811,5.883-3.406a10.536,10.536,0,0,1,2.756-1.181,17.128,17.128,0,0,1-1.149-1.976,8.233,8.233,0,1,1,0-15.215,17.138,17.138,0,0,1,1.523-2.507A3.155,3.155,0,0,1,22.4,26a3.536,3.536,0,0,1,.032-5.718l14.842-9.138a6.369,6.369,0,0,1,5.155-.734h0L52.818,13.2l1.107-.639-.583-1.03v0a2.167,2.167,0,0,1,.817-2.941l2.294-1.3,0,0A2.167,2.167,0,0,1,59.4,8.1l6.746,11.919a2.164,2.164,0,0,1-.813,2.944l-2.3,1.3h0a2.169,2.169,0,0,1-2.941-.815v0l-.459-.811-5.883,3.406a11.188,11.188,0,0,1-2.438,1.1,17.163,17.163,0,0,1-.8,19.745,3.178,3.178,0,0,1,.744.366,3.536,3.536,0,0,1-.032,5.718L36.381,62.1a6.369,6.369,0,0,1-5.155.734h0L20.841,60.054Zm-4.763-8.415,3.821,6.752,1.435-.829a.955.955,0,0,1,.725-.1l10.765,2.885a4.519,4.519,0,0,0,3.658-.513h0L50.22,51.339a1.423,1.423,0,0,0,.562-1.2c.038-1.425-1.4-2.415-4.757-.458l-8.179,4.764a6.229,6.229,0,0,1-4.279.755h0l-1.015-.165-.039-.007h0c-1.849-.38-3.563-.938-5.466-1.449a.955.955,0,0,1,.5-1.846c1.85.5,3.519,1.043,5.315,1.414a1.364,1.364,0,0,0,1.632-.955h0a1.4,1.4,0,0,0-.952-1.657,61.81,61.81,0,0,1-8.462-2.6h0c-1.488-.483-2.848.147-4.2.931ZM26.92,46.551a44.12,44.12,0,0,0,7.027,2.116.95.95,0,0,1,.124.031,3.313,3.313,0,0,1,2.262,3.989,3.9,3.9,0,0,1-.145.436,4.394,4.394,0,0,0,.7-.329l8.179-4.764a11.849,11.849,0,0,1,1.948-.927,10.354,10.354,0,0,0-20.092-.553Zm-3.73-3.434a15.254,15.254,0,0,0,1.785,2.823l.125.024a12.3,12.3,0,0,1,7.887-8.275,6.676,6.676,0,1,1,7.822,0,12.3,12.3,0,0,1,7.914,8.372,15.248,15.248,0,0,0,.424-18.69A5.217,5.217,0,0,1,48,27.135a58.932,58.932,0,0,0-8.283-2.553.948.948,0,0,1-.124-.031,3.313,3.313,0,0,1-2.262-3.989,3.9,3.9,0,0,1,.145-.436,4.393,4.393,0,0,0-.7.329L28.6,25.219a9.78,9.78,0,0,1-3.243,1.273,15.264,15.264,0,0,0-2.163,3.279,8.218,8.218,0,0,1,0,13.346Zm31.677-28.9-1.435.829a.955.955,0,0,1-.725.1L41.941,12.259a4.519,4.519,0,0,0-3.658.513h0L23.439,21.911a1.423,1.423,0,0,0-.562,1.2c-.038,1.425,1.4,2.415,4.757.458L35.813,18.8a6.229,6.229,0,0,1,4.279-.755h0l1.015.165.039.007h0c1.849.38,3.563.938,5.466,1.449a.955.955,0,1,1-.5,1.846c-1.85-.5-3.519-1.043-5.315-1.414a1.364,1.364,0,0,0-1.632.955h0a1.4,1.4,0,0,0,.952,1.657,61.812,61.812,0,0,1,8.462,2.6h0c1.488.483,2.848-.147,4.2-.931l5.9-3.415ZM36.9,37.053a4.765,4.765,0,1,0-4.765-4.765A4.778,4.778,0,0,0,36.9,37.053ZM11.909,50.747h0a.252.252,0,0,0-.34-.095l-2.3,1.3h0a.248.248,0,0,0-.091.338h0l6.746,11.92h0a.251.251,0,0,0,.34.093L18.559,63h0a.251.251,0,0,0,.093-.341Zm-.737,1.183a.952.952,0,1,1-.806,1.078A.952.952,0,0,1,11.172,51.93ZM61.75,22.5h0a.252.252,0,0,0,.34.095l2.3-1.3h0a.248.248,0,0,0,.091-.338h0L57.733,9.041h0a.251.251,0,0,0-.34-.093l-2.292,1.3h0a.251.251,0,0,0-.093.341Zm.737-1.183a.952.952,0,1,1,.806-1.078A.952.952,0,0,1,62.487,21.32ZM18.378,42.766a6.322,6.322,0,1,0-6.322-6.322A6.335,6.335,0,0,0,18.378,42.766Zm-.955-10.717v-.211a.955.955,0,1,1,1.911,0v.2A3.1,3.1,0,0,1,21.4,33.863a.955.955,0,0,1-1.762.741,1.382,1.382,0,0,0-1.819-.673.792.792,0,0,0-.579.756.639.639,0,0,0,.429.54,3.186,3.186,0,0,0,.869.25c1.4.228,2.907.895,3.11,2.556h0a2.639,2.639,0,0,1-2.316,2.835v.182a.955.955,0,1,1-1.911,0v-.2a3.066,3.066,0,0,1-2.306-2.221.956.956,0,0,1,1.854-.462,1.368,1.368,0,0,0,1.479.893,2.2,2.2,0,0,0,.9-.2.589.589,0,0,0,.406-.6.817.817,0,0,0-.555-.638,3.88,3.88,0,0,0-.966-.263h0c-1.376-.227-2.817-.947-2.9-2.583h0a2.642,2.642,0,0,1,1.788-2.626q.148-.058.3-.1Z" transform="translate(0 0)" fill-rule="evenodd"/>
    </g>
  </g>
</svg>
