<svg xmlns="http://www.w3.org/2000/svg" xmlns:xlink="http://www.w3.org/1999/xlink" width="113" height="113" viewBox="0 0 113 113">
  <defs>
    <filter id="Trazado_982547" x="0" y="0" width="113" height="113" filterUnits="userSpaceOnUse">
      <feOffset dy="3" input="SourceAlpha"/>
      <feGaussianBlur stdDeviation="3" result="blur"/>
      <feFlood flood-opacity="0.161"/>
      <feComposite operator="in" in2="blur"/>
      <feComposite in="SourceGraphic"/>
    </filter>
  </defs>
  <g id="Grupo_1172016" data-name="Grupo 1172016" transform="translate(-325 -4575)">
    <g id="Grupo_1167343" data-name="Grupo 1167343" transform="translate(0 2228)">
      <g id="Grupo_1166777" data-name="Grupo 1166777" transform="translate(0.105 -910)">
        <g id="Grupo_1164305" data-name="Grupo 1164305" transform="translate(333.895 3263)">
          <g id="Grupo_1163948" data-name="Grupo 1163948" transform="translate(0)">
            <g id="Grupo_1158168" data-name="Grupo 1158168" transform="translate(0)">
              <g id="Grupo_1152576" data-name="Grupo 1152576">
                <g id="Grupo_1148633" data-name="Grupo 1148633">
                  <g id="Grupo_1148525" data-name="Grupo 1148525">
                    <g transform="matrix(1, 0, 0, 1, -9, -6)" filter="url(#Trazado_982547)">
                      <g id="Trazado_982547-2" data-name="Trazado 982547" transform="translate(9 6)" fill="#f2f7e5">
                        <path d="M 47.5 93.5 C 41.28937149047852 93.5 35.26533508300781 92.28397369384766 29.59518623352051 89.88570404052734 C 24.11771965026855 87.56893157958984 19.19813346862793 84.25196075439453 14.97309303283691 80.02691650390625 C 10.74804019927979 75.80186462402344 7.431066513061523 70.88229370117188 5.114293098449707 65.40481567382812 C 2.716026782989502 59.73468017578125 1.5 53.71062850952148 1.5 47.5 C 1.5 41.28937149047852 2.716026782989502 35.26533508300781 5.114293098449707 29.59518623352051 C 7.431066513061523 24.11771965026855 10.74804019927979 19.19813346862793 14.97309303283691 14.97309303283691 C 19.19813346862793 10.74804019927979 24.11771965026855 7.431066513061523 29.59518623352051 5.114293098449707 C 35.26533508300781 2.716026782989502 41.28937149047852 1.5 47.5 1.5 C 53.71062850952148 1.5 59.73468017578125 2.716026782989502 65.40481567382812 5.114293098449707 C 70.88229370117188 7.431066513061523 75.80186462402344 10.74804019927979 80.02691650390625 14.97309303283691 C 84.25196075439453 19.19813346862793 87.56893157958984 24.11771965026855 89.88570404052734 29.59518623352051 C 92.28397369384766 35.26533508300781 93.5 41.28937149047852 93.5 47.5 C 93.5 53.71062850952148 92.28397369384766 59.73468017578125 89.88570404052734 65.40481567382812 C 87.56893157958984 70.88229370117188 84.25196075439453 75.80186462402344 80.02691650390625 80.02691650390625 C 75.80186462402344 84.25196075439453 70.88229370117188 87.56893157958984 65.40481567382812 89.88570404052734 C 59.73468017578125 92.28397369384766 53.71062850952148 93.5 47.5 93.5 Z" stroke="none"/>
                        <path d="M 47.5 3 C 41.49121475219727 3 35.66376876831055 4.176155090332031 30.17950439453125 6.495796203613281 C 24.88084411621094 8.736953735351562 20.12152099609375 11.94598388671875 16.03375244140625 16.03375244140625 C 11.94598388671875 20.12152099609375 8.736953735351562 24.88084411621094 6.495796203613281 30.17950439453125 C 4.176155090332031 35.66376876831055 3 41.49121475219727 3 47.5 C 3 53.50878524780273 4.176155090332031 59.33623123168945 6.495796203613281 64.82049560546875 C 8.736953735351562 70.11915588378906 11.94598388671875 74.87847900390625 16.03375244140625 78.96624755859375 C 20.12152099609375 83.05401611328125 24.88084411621094 86.26304626464844 30.17950439453125 88.50419616699219 C 35.66376876831055 90.82384490966797 41.49121475219727 92 47.5 92 C 53.50878524780273 92 59.33623123168945 90.82384490966797 64.82049560546875 88.50419616699219 C 70.11915588378906 86.26304626464844 74.87847900390625 83.05401611328125 78.96624755859375 78.96624755859375 C 83.05401611328125 74.87847900390625 86.26304626464844 70.11915588378906 88.50419616699219 64.82049560546875 C 90.82384490966797 59.33623123168945 92 53.50878524780273 92 47.5 C 92 41.49121475219727 90.82384490966797 35.66376876831055 88.50419616699219 30.17950439453125 C 86.26304626464844 24.88084411621094 83.05401611328125 20.12152099609375 78.96624755859375 16.03375244140625 C 74.87847900390625 11.94598388671875 70.11915588378906 8.736953735351562 64.82049560546875 6.495796203613281 C 59.33623123168945 4.176155090332031 53.50878524780273 3 47.5 3 M 47.5 0 C 73.7335205078125 0 95 21.2664794921875 95 47.5 C 95 73.7335205078125 73.7335205078125 95 47.5 95 C 21.2664794921875 95 0 73.7335205078125 0 47.5 C 0 21.2664794921875 21.2664794921875 0 47.5 0 Z" stroke="none" fill="#86b60c"/>
                      </g>
                    </g>
                  </g>
                </g>
              </g>
            </g>
          </g>
        </g>
      </g>
    </g>
    <g id="economy_3051396" transform="translate(349.437 4596.177)">
      <g id="Grupo_1173073" data-name="Grupo 1173073" transform="translate(2.018 2.018)">
        <g id="Grupo_1173064" data-name="Grupo 1173064" transform="translate(38.691 35.636)">
          <path id="Trazado_1026939" data-name="Trazado 1026939" d="M60.364,39.036v2.036a10.182,10.182,0,1,1-20.364,0V39.036A2.042,2.042,0,0,1,42.036,37H58.327A2.042,2.042,0,0,1,60.364,39.036Z" transform="translate(-40 -37)" fill="#ccd1d9"/>
        </g>
        <g id="Grupo_1173065" data-name="Grupo 1173065" transform="translate(2.036 41.745)">
          <path id="Trazado_1026940" data-name="Trazado 1026940" d="M24.364,45.036v2.036A10.182,10.182,0,0,1,4,47.073V45.036A2.042,2.042,0,0,1,6.036,43H22.327A2.042,2.042,0,0,1,24.364,45.036Z" transform="translate(-4 -43)" fill="#ccd1d9"/>
        </g>
        <g id="Grupo_1173066" data-name="Grupo 1173066" transform="translate(20.364 54.982)">
          <path id="Trazado_1026941" data-name="Trazado 1026941" d="M42.364,62.109H22A6.118,6.118,0,0,1,28.109,56h8.145a6.114,6.114,0,0,1,6.109,6.109Z" transform="translate(-22 -56)" fill="#b27946"/>
        </g>
        <g id="Grupo_1173067" data-name="Grupo 1173067" transform="translate(26.473 43.782)">
          <path id="Trazado_1026942" data-name="Trazado 1026942" d="M36.145,46.018V56.2H28V46.018A1.021,1.021,0,0,1,29.018,45h6.109A1.021,1.021,0,0,1,36.145,46.018Z" transform="translate(-28 -45)" fill="#d3a06c"/>
        </g>
        <g id="Grupo_1173068" data-name="Grupo 1173068" transform="translate(28.509 24.436)">
          <path id="Trazado_1026943" data-name="Trazado 1026943" d="M30,26h4.073V45.345H30Z" transform="translate(-30 -26)" fill="#cf9e76"/>
        </g>
        <g id="Grupo_1173069" data-name="Grupo 1173069" transform="translate(42.763 10.182)">
          <path id="Trazado_1026944" data-name="Trazado 1026944" d="M61.136,13.191a4.073,4.073,0,0,1-2.881,6.954,2.051,2.051,0,0,1-2.036-2.036,2.042,2.042,0,0,1,2.036-2.036H44V12H58.254A4.1,4.1,0,0,1,61.136,13.191Z" transform="translate(-44 -12)" fill="#cf9e76"/>
        </g>
        <g id="Grupo_1173070" data-name="Grupo 1173070" transform="translate(0 10.182)">
          <path id="Trazado_1026945" data-name="Trazado 1026945" d="M6.073,16.073a2.036,2.036,0,0,1,0,4.073,4.073,4.073,0,1,1,0-8.145H20.327v4.073H6.073Z" transform="translate(-2 -12)" fill="#cf9e76"/>
        </g>
        <g id="Grupo_1173071" data-name="Grupo 1173071" transform="translate(18.327)">
          <path id="Trazado_1026946" data-name="Trazado 1026946" d="M44.436,12.182v4.073h-.031A3.011,3.011,0,0,0,42.278,21.4l.02.02L39.417,24.3l-.02-.02a2.982,2.982,0,0,0-2.128-.886,3.108,3.108,0,0,0-1.161.234,3.02,3.02,0,0,0-1.853,2.78v.031H30.182v-.031a3.02,3.02,0,0,0-1.853-2.78,3.108,3.108,0,0,0-1.161-.234,2.982,2.982,0,0,0-2.128.886l-.02.02-2.881-2.881.02-.02a3.011,3.011,0,0,0-2.128-5.142H20V12.182h.031A3.011,3.011,0,0,0,22.159,7.04l-.02-.02L25.02,4.138l.02.02a2.982,2.982,0,0,0,2.128.886,3.108,3.108,0,0,0,1.161-.234,3.02,3.02,0,0,0,1.853-2.78V2h4.073v.031A3.011,3.011,0,0,0,39.4,4.159l.02-.02L42.3,7.02l-.02.02a2.982,2.982,0,0,0-.886,2.128,3.108,3.108,0,0,0,.234,1.161,3.02,3.02,0,0,0,2.78,1.853Zm-6.109,2.036a6.109,6.109,0,1,0-6.109,6.109A6.114,6.114,0,0,0,38.327,14.218Z" transform="translate(-20 -2)" fill="#ffc729"/>
        </g>
        <g id="Grupo_1173072" data-name="Grupo 1173072" transform="translate(24.436 6.109)">
          <path id="Trazado_1026947" data-name="Trazado 1026947" d="M32.109,8A6.109,6.109,0,1,1,26,14.109,6.114,6.114,0,0,1,32.109,8Zm2.036,6.109a2.036,2.036,0,1,0-2.036,2.036A2.042,2.042,0,0,0,34.145,14.109Z" transform="translate(-26 -8)" fill="#fcd770"/>
        </g>
      </g>
      <g id="Grupo_1173074" data-name="Grupo 1173074" transform="translate(1 1)">
        <path id="Trazado_1026948" data-name="Trazado 1026948" d="M32.127,7a7.127,7.127,0,1,0,7.127,7.127A7.136,7.136,0,0,0,32.127,7Zm0,12.218a5.091,5.091,0,1,1,5.091-5.091A5.1,5.1,0,0,1,32.127,19.218Z" transform="translate(-0.564 -0.891)"/>
        <path id="Trazado_1026949" data-name="Trazado 1026949" d="M32.055,11a3.055,3.055,0,1,0,3.055,3.055A3.058,3.058,0,0,0,32.055,11Zm0,4.073a1.018,1.018,0,1,1,1.018-1.018A1.019,1.019,0,0,1,32.055,15.073Z" transform="translate(-0.491 -0.818)"/>
        <path id="Trazado_1026950" data-name="Trazado 1026950" d="M59.036,11.182H44.755a2,2,0,0,1-1.384-3.434l.7-.72-3.59-3.59-.74-.7-.72.72a1.995,1.995,0,0,1-3.4-1.439V1H30.527l-1.018.027V2.046a2,2,0,0,1-3.434,1.383l-.72-.7-3.59,3.59-.7.739.72.721a2,2,0,0,1-1.412,3.406H6.091a5.091,5.091,0,0,0,0,10.182,3.058,3.058,0,0,0,3.055-3.055,3.02,3.02,0,0,0-.187-1.018h4.26V28.714l-3.3.826.493,1.975,8.145-2.036L18.063,27.5l-2.808.7V17.291h5.117a2,2,0,0,1,1.393,3.424l-.72.72,3.6,3.6.74.7.72-.72a1.995,1.995,0,0,1,3.4,1.411V44.782a2.038,2.038,0,0,0-2.036,2.036v9.245a7.133,7.133,0,0,0-6.109,7.046v1.018h22.4V63.109a7.133,7.133,0,0,0-6.109-7.046V46.818a2.038,2.038,0,0,0-2.036-2.036V26.427a2,2,0,0,1,3.434-1.383l.72.7,3.59-3.591.7-.739-.72-.72a1.994,1.994,0,0,1,1.412-3.4h5.117V22.6l-3.3.826.493,1.975,8.145-2.036-.493-1.975-2.808.7v-4.8h4.26a3.02,3.02,0,0,0-.187,1.018,3.058,3.058,0,0,0,3.055,3.055,5.091,5.091,0,1,0,0-10.182ZM7.109,18.309a1.019,1.019,0,0,1-1.018,1.018,3.055,3.055,0,1,1,0-6.109H19.327v2.036H5.073v2.036H6.091A1.019,1.019,0,0,1,7.109,18.309ZM35.618,46.818v9.164H29.509V46.818Zm6.006,15.273H23.5a5.1,5.1,0,0,1,4.988-4.073h8.145A5.1,5.1,0,0,1,41.624,62.091ZM31.545,44.782V27.473h2.036V44.782ZM41.031,17.74a4.013,4.013,0,0,0,.261,3.607l-1.615,1.615a4.022,4.022,0,0,0-5.962,2.474h-2.3a4.02,4.02,0,0,0-5.961-2.473l-1.614-1.614a4.023,4.023,0,0,0-2.474-5.962v-2.3a4.02,4.02,0,0,0,2.473-5.961L25.45,5.511a4.029,4.029,0,0,0,5.969-2.474H33.7A4.033,4.033,0,0,0,39.675,5.51l1.614,1.614a4.023,4.023,0,0,0,2.474,5.962v2.3a4.013,4.013,0,0,0-2.733,2.353Zm18.005,1.587a1.018,1.018,0,1,1,0-2.036h1.018V15.254H45.8V13.218H59.036a3.055,3.055,0,0,1,0,6.109Z" transform="translate(-1 -1)"/>
        <path id="Trazado_1026951" data-name="Trazado 1026951" d="M58.988,36.274,52.753,24.843l-5.246,1.311L41.441,36.266A3.058,3.058,0,0,0,39,39.257v2.036a11.2,11.2,0,0,0,22.4,0V39.257a3.057,3.057,0,0,0-2.412-2.983ZM48.82,27.925l2.9-.725,4.911,9H43.853ZM59.364,41.294a9.164,9.164,0,1,1-18.327,0V39.257a1.019,1.019,0,0,1,1.018-1.018H58.345a1.019,1.019,0,0,1,1.018,1.018Z" transform="translate(-0.309 -0.567)"/>
        <path id="Trazado_1026952" data-name="Trazado 1026952" d="M25.4,47.294V45.257a3.057,3.057,0,0,0-2.412-2.983L16.753,30.843l-5.246,1.311L5.441,42.266A3.058,3.058,0,0,0,3,45.257v2.036a11.2,11.2,0,0,0,22.4,0ZM12.82,33.925l2.9-.726,4.911,9H7.853ZM14.2,56.457a9.173,9.173,0,0,1-9.164-9.164V45.257a1.019,1.019,0,0,1,1.018-1.018H22.345a1.019,1.019,0,0,1,1.018,1.018v2.036A9.173,9.173,0,0,1,14.2,56.457Z" transform="translate(-0.964 -0.458)"/>
      </g>
    </g>
  </g>
</svg>
