<svg xmlns="http://www.w3.org/2000/svg" xmlns:xlink="http://www.w3.org/1999/xlink" width="110" height="110" viewBox="0 0 110 110">
  <defs>
    <filter id="Trazado_982547" x="0" y="0" width="110" height="110" filterUnits="userSpaceOnUse">
      <feOffset dy="3" input="SourceAlpha"/>
      <feGaussianBlur stdDeviation="3" result="blur"/>
      <feFlood flood-opacity="0.161"/>
      <feComposite operator="in" in2="blur"/>
      <feComposite in="SourceGraphic"/>
    </filter>
  </defs>
  <g id="Grupo_1172079" data-name="Grupo 1172079" transform="translate(733.5 -1598.129)">
    <g id="Grupo_1171906" data-name="Grupo 1171906" transform="translate(-1845.5 -361.871)">
      <g id="Grupo_1164700" data-name="Grupo 1164700" transform="translate(1121 1966)">
        <g id="Grupo_1160931" data-name="Grupo 1160931" transform="translate(0)">
          <g id="Grupo_1160749" data-name="Grupo 1160749" transform="translate(0)">
            <g id="Grupo_1158891" data-name="Grupo 1158891" transform="translate(0 0)">
              <g id="Grupo_1157406" data-name="Grupo 1157406" transform="translate(0)">
                <g id="Grupo_1155793" data-name="Grupo 1155793" transform="translate(0)">
                  <g id="Grupo_1154704" data-name="Grupo 1154704" transform="translate(0)">
                    <g id="Grupo_1150790" data-name="Grupo 1150790" transform="translate(0)">
                      <g id="Grupo_1154214" data-name="Grupo 1154214" transform="translate(0)">
                        <g id="Grupo_1152583" data-name="Grupo 1152583" transform="translate(0 0)">
                          <g id="Grupo_1146973" data-name="Grupo 1146973" transform="translate(0 0)">
                            <g id="Grupo_1146954" data-name="Grupo 1146954">
                              <g transform="matrix(1, 0, 0, 1, -9, -6)" filter="url(#Trazado_982547)">
                                <g id="Trazado_982547-2" data-name="Trazado 982547" transform="translate(9 6)" fill="#e9f9fd">
                                  <path d="M 46.00000381469727 90.49988555908203 C 39.99188232421875 90.49988555908203 34.16427230834961 89.32352447509766 28.67905807495117 87.00347137451172 C 23.38020324707031 84.76226043701172 18.62104415893555 81.55342864990234 14.53375053405762 77.46615600585938 C 10.44647026062012 73.37887573242188 7.237643718719482 68.61971282958984 4.996417045593262 63.32085800170898 C 2.676363706588745 57.83565902709961 1.500003814697266 52.00806045532227 1.500003814697266 45.99993896484375 C 1.500003814697266 39.99181747436523 2.676363706588745 34.16421890258789 4.996417045593262 28.67901802062988 C 7.237643718719482 23.38017845153809 10.44647026062012 18.62101936340332 14.53375053405762 14.53373908996582 C 18.62104415893555 10.44645881652832 23.38020324707031 7.237632274627686 28.67905807495117 4.996418952941895 C 34.16427230834961 2.676365613937378 39.99188232421875 1.500005602836609 46.00000381469727 1.500005602836609 C 52.00812530517578 1.500005602836609 57.83573532104492 2.676365613937378 63.32094955444336 4.996418952941895 C 68.61980438232422 7.237632274627686 73.37897491455078 10.44645881652832 77.46625518798828 14.53373908996582 C 81.55355072021484 18.62101936340332 84.76236724853516 23.38017845153809 87.00359344482422 28.67901802062988 C 89.32364654541016 34.16421890258789 90.5 39.99181747436523 90.5 45.99993896484375 C 90.5 52.00806045532227 89.32364654541016 57.83565902709961 87.00359344482422 63.32085800170898 C 84.76236724853516 68.61971282958984 81.55355072021484 73.37887573242188 77.46625518798828 77.46615600585938 C 73.37897491455078 81.55342864990234 68.61980438232422 84.76226043701172 63.32094955444336 87.00347137451172 C 57.83573532104492 89.32352447509766 52.00812530517578 90.49988555908203 46.00000381469727 90.49988555908203 Z" stroke="none"/>
                                  <path d="M 46.00000381469727 2.999992370605469 C 40.19371795654297 2.999992370605469 34.56270217895508 4.136497497558594 29.26338958740234 6.377906799316406 C 24.14333343505859 8.543510437011719 19.54441833496094 11.64437866210938 15.59440612792969 15.59439849853516 C 11.64440155029297 19.54439544677734 8.54351806640625 24.14329528808594 6.377914428710938 29.26335144042969 C 4.136505126953125 34.56266784667969 3.000007629394531 40.19366836547852 3.000007629394531 45.99993896484375 C 3.000007629394531 51.80620956420898 4.136505126953125 57.43722534179688 6.377914428710938 62.73654174804688 C 8.54351806640625 67.85658264160156 11.64440155029297 72.45548248291016 15.59440612792969 76.40549468994141 C 19.54441833496094 80.35549926757812 24.14333343505859 83.45636749267578 29.26337432861328 85.62196350097656 C 34.56270217895508 87.86338043212891 40.19371795654297 88.9998779296875 46.00000381469727 88.9998779296875 C 51.80628967285156 88.9998779296875 57.43730545043945 87.86338043212891 62.73663330078125 85.62196350097656 C 67.85667419433594 83.45636749267578 72.45558929443359 80.35549926757812 76.40560150146484 76.40549468994141 C 80.35560607910156 72.45548248291016 83.45648956298828 67.85658264160156 85.62208557128906 62.73654174804688 C 87.86350250244141 57.43722534179688 89 51.80620956420898 89 45.99993896484375 C 89 40.19366836547852 87.86350250244141 34.56266784667969 85.62208557128906 29.26335144042969 C 83.45648956298828 24.14329528808594 80.35560607910156 19.54439544677734 76.40560150146484 15.59439849853516 C 72.45558929443359 11.64437866210938 67.85667419433594 8.543510437011719 62.73661804199219 6.377906799316406 C 57.43730545043945 4.136497497558594 51.80628967285156 2.999992370605469 46.00000381469727 2.999992370605469 M 46.00000381469727 -7.62939453125e-06 C 71.40510559082031 -7.62939453125e-06 92 20.59487915039062 92 45.99993896484375 C 92 71.40501403808594 71.40510559082031 91.99988555908203 46.00000381469727 91.99988555908203 C 20.59490203857422 91.99988555908203 7.62939453125e-06 71.40501403808594 7.62939453125e-06 45.99993896484375 C 7.62939453125e-06 20.59487915039062 20.59490203857422 -7.62939453125e-06 46.00000381469727 -7.62939453125e-06 Z" stroke="none" fill="#36ceef"/>
                                </g>
                              </g>
                            </g>
                          </g>
                        </g>
                      </g>
                    </g>
                  </g>
                </g>
              </g>
            </g>
          </g>
        </g>
      </g>
    </g>
    <g id="loan_14147459" transform="translate(-708.978 1619.657)">
      <path id="Trazado_1025970" data-name="Trazado 1025970" d="M8,44.49l2.581-7.905A1.9,1.9,0,0,1,12.479,35H24.294a3.8,3.8,0,0,1,3.8,3.416l.788,6.073" transform="translate(-0.306 -1.684)" fill="#eaeaea"/>
      <path id="Trazado_1025971" data-name="Trazado 1025971" d="M5.847,56.388H4.9A1.9,1.9,0,0,1,3,54.49V46.9A1.9,1.9,0,0,1,4.9,45H29.571a1.9,1.9,0,0,1,1.9,1.9V54.49a1.9,1.9,0,0,1-1.9,1.9Z" transform="translate(-0.051 -2.194)" fill="#a04d15"/>
      <circle id="Elipse_11785" data-name="Elipse 11785" cx="3.796" cy="3.796" r="3.796" transform="translate(5.796 50.398)" fill="#7f7f7f"/>
      <circle id="Elipse_11786" data-name="Elipse 11786" cx="3.796" cy="3.796" r="3.796" transform="translate(20.98 50.398)" fill="#7f7f7f"/>
      <path id="Trazado_1025972" data-name="Trazado 1025972" d="M50.337,53.031V35h-9.49V53.031H38l7.592,6.643,7.592-6.643Z" transform="translate(-1.837 -1.684)" fill="#cecece"/>
      <path id="Trazado_1025973" data-name="Trazado 1025973" d="M12.847,9.643V30.52h9.49V9.643h2.847L17.592,3,10,9.643Z" transform="translate(-0.408 -0.051)" fill="#cecece"/>
      <circle id="Elipse_11787" data-name="Elipse 11787" cx="14.235" cy="14.235" r="14.235" transform="translate(29.52 2.949)" fill="#f9bb23"/>
      <path id="Trazado_1025974" data-name="Trazado 1025974" d="M45.9,3a13.959,13.959,0,0,0-1.9.142,14.235,14.235,0,0,1,0,28.185,13.96,13.96,0,0,0,1.9.142A14.235,14.235,0,1,0,45.9,3Z" transform="translate(-2.143 -0.051)" fill="#e09e0b"/>
      <path id="Trazado_1025975" data-name="Trazado 1025975" d="M7.745,45v1.9a1.9,1.9,0,0,1-1.9,1.9H3V46.9A1.9,1.9,0,0,1,4.9,45Z" transform="translate(-0.051 -2.194)" fill="#f2bc51"/>
      <path id="Trazado_1025976" data-name="Trazado 1025976" d="M32.745,48.8H29.9A1.9,1.9,0,0,1,28,46.9V45h2.847a1.9,1.9,0,0,1,1.9,1.9Z" transform="translate(-1.326 -2.194)" fill="#f2bc51"/>
      <path id="Trazado_1025977" data-name="Trazado 1025977" d="M21.337,9.592V30.47h1.9V10.541h1.9a.949.949,0,0,0,.626-1.661L18.167,2.237a.949.949,0,0,0-1.253,0L9.323,8.88a.949.949,0,0,0,.626,1.661h1.9v4.745h1.9V9.592a.949.949,0,0,0-.949-.949h-.323l5.068-4.432,5.068,4.432h-.323A.949.949,0,0,0,21.337,9.592Z" transform="translate(-0.357 0)"/>
      <path id="Trazado_1025978" data-name="Trazado 1025978" d="M12,18h1.9v1.9H12Z" transform="translate(-0.51 -0.816)"/>
      <path id="Trazado_1025979" data-name="Trazado 1025979" d="M12,22h1.9v1.9H12Z" transform="translate(-0.51 -1.02)"/>
      <path id="Trazado_1025980" data-name="Trazado 1025980" d="M12,26h1.9v1.9H12Z" transform="translate(-0.51 -1.224)"/>
      <path id="Trazado_1025981" data-name="Trazado 1025981" d="M12,30h1.9v1.9H12Z" transform="translate(-0.51 -1.429)"/>
      <path id="Trazado_1025982" data-name="Trazado 1025982" d="M41.745,53.031V35h-1.9V52.082h-1.9a.949.949,0,0,0-.626,1.661l7.592,6.643a.949.949,0,0,0,1.253,0l7.592-6.643a.949.949,0,0,0-.626-1.661h-1.9v-1.9h-1.9v2.847a.949.949,0,0,0,.949.949h.323l-5.068,4.432L40.473,53.98H40.8A.949.949,0,0,0,41.745,53.031Z" transform="translate(-1.786 -1.684)"/>
      <path id="Trazado_1025983" data-name="Trazado 1025983" d="M50,47h1.9v1.9H50Z" transform="translate(-2.449 -2.296)"/>
      <path id="Trazado_1025984" data-name="Trazado 1025984" d="M50,43h1.9v1.9H50Z" transform="translate(-2.449 -2.092)"/>
      <path id="Trazado_1025985" data-name="Trazado 1025985" d="M50,39h1.9v1.9H50Z" transform="translate(-2.449 -1.888)"/>
      <path id="Trazado_1025986" data-name="Trazado 1025986" d="M50,35h1.9v1.9H50Z" transform="translate(-2.449 -1.684)"/>
      <path id="Trazado_1025987" data-name="Trazado 1025987" d="M46.694,22.286H41v1.9h3.8v1.9h1.9v-1.9a3.8,3.8,0,0,0,0-7.592H44.8a1.9,1.9,0,1,1,0-3.8H50.49V10.9h-3.8V9H44.8v1.9a3.8,3.8,0,1,0,0,7.592h1.9a1.9,1.9,0,0,1,0,3.8Z" transform="translate(-1.99 -0.357)"/>
      <path id="Trazado_1025988" data-name="Trazado 1025988" d="M45.184,2A15.176,15.176,0,0,0,32.7,25.81l1.556-1.034a13.362,13.362,0,1,1,2.391,2.572L35.409,28.79A15.184,15.184,0,1,0,45.184,2Z" transform="translate(-1.429 0)"/>
      <path id="Trazado_1025989" data-name="Trazado 1025989" d="M4.847,56.776h.095a4.745,4.745,0,0,0,9.3,0h5.884a4.745,4.745,0,0,0,9.3,0h.095a2.847,2.847,0,0,0,2.847-2.847V46.337A2.847,2.847,0,0,0,29.52,43.49h-.114l-.693-5.219A4.745,4.745,0,0,0,23.969,34H12.145a2.847,2.847,0,0,0-2.79,2.306L7.011,43.49H4.847A2.847,2.847,0,0,0,2,46.337v7.592A2.847,2.847,0,0,0,4.847,56.776Zm4.745,1.9a2.847,2.847,0,1,1,2.847-2.847A2.847,2.847,0,0,1,9.592,58.674Zm15.184,0a2.847,2.847,0,1,1,2.847-2.847A2.847,2.847,0,0,1,24.776,58.674Zm4.745-3.8h-.095a4.745,4.745,0,0,0-9.3,0H14.242a4.745,4.745,0,0,0-9.3,0H4.847a.949.949,0,0,1-.949-.949V49.184H5.8a2.847,2.847,0,0,0,2.847-2.847v-.949H25.725v.949a2.847,2.847,0,0,0,2.847,2.847h1.9v4.745A.949.949,0,0,1,29.52,54.878Zm.949-8.541v.949h-1.9a.949.949,0,0,1-.949-.949v-.949h1.9A.949.949,0,0,1,30.469,46.337Zm-3.644-7.848.664,5H21.929V35.9h2.059a2.847,2.847,0,0,1,2.837,2.591ZM11.177,36.847a.949.949,0,0,0,0-.133.949.949,0,0,1,.949-.8h7.905v7.592H14.337V38.745h-1.9V41L9.3,42.541Zm1.262,6.282v.361h-.721ZM4.847,45.388h1.9v.949a.949.949,0,0,1-.949.949H3.9v-.949A.949.949,0,0,1,4.847,45.388Z" transform="translate(0 -1.633)"/>
      <path id="Trazado_1025990" data-name="Trazado 1025990" d="M9,56h1.9v1.9H9Z" transform="translate(-0.357 -2.755)"/>
      <path id="Trazado_1025991" data-name="Trazado 1025991" d="M25,56h1.9v1.9H25Z" transform="translate(-1.173 -2.755)"/>
    </g>
  </g>
</svg>
