<svg xmlns="http://www.w3.org/2000/svg" xmlns:xlink="http://www.w3.org/1999/xlink" width="110" height="110" viewBox="0 0 110 110">
  <defs>
    <filter id="Trazado_982547" x="0" y="0" width="110" height="110" filterUnits="userSpaceOnUse">
      <feOffset dy="3" input="SourceAlpha"/>
      <feGaussianBlur stdDeviation="3" result="blur"/>
      <feFlood flood-opacity="0.161"/>
      <feComposite operator="in" in2="blur"/>
      <feComposite in="SourceGraphic"/>
    </filter>
  </defs>
  <g id="Grupo_1172081" data-name="Grupo 1172081" transform="translate(418 -1593.871)">
    <g id="Grupo_1171907" data-name="Grupo 1171907" transform="translate(-1530 -366.129)">
      <g id="Grupo_1164700" data-name="Grupo 1164700" transform="translate(1121 1966)">
        <g id="Grupo_1160931" data-name="Grupo 1160931" transform="translate(0)">
          <g id="Grupo_1160749" data-name="Grupo 1160749" transform="translate(0)">
            <g id="Grupo_1158891" data-name="Grupo 1158891" transform="translate(0 0)">
              <g id="Grupo_1157406" data-name="Grupo 1157406" transform="translate(0)">
                <g id="Grupo_1155793" data-name="Grupo 1155793" transform="translate(0)">
                  <g id="Grupo_1154704" data-name="Grupo 1154704" transform="translate(0)">
                    <g id="Grupo_1150790" data-name="Grupo 1150790" transform="translate(0)">
                      <g id="Grupo_1154214" data-name="Grupo 1154214" transform="translate(0)">
                        <g id="Grupo_1152583" data-name="Grupo 1152583" transform="translate(0 0)">
                          <g id="Grupo_1146973" data-name="Grupo 1146973" transform="translate(0 0)">
                            <g id="Grupo_1146954" data-name="Grupo 1146954">
                              <g transform="matrix(1, 0, 0, 1, -9, -6)" filter="url(#Trazado_982547)">
                                <g id="Trazado_982547-2" data-name="Trazado 982547" transform="translate(9 6)" fill="#e9f9fd">
                                  <path d="M 46.00000381469727 90.49988555908203 C 39.99188232421875 90.49988555908203 34.16427230834961 89.32352447509766 28.67905807495117 87.00347137451172 C 23.38020324707031 84.76226043701172 18.62104415893555 81.55342864990234 14.53375053405762 77.46615600585938 C 10.44647026062012 73.37887573242188 7.237643718719482 68.61971282958984 4.996417045593262 63.32085800170898 C 2.676363706588745 57.83565902709961 1.500003814697266 52.00806045532227 1.500003814697266 45.99993896484375 C 1.500003814697266 39.99181747436523 2.676363706588745 34.16421890258789 4.996417045593262 28.67901802062988 C 7.237643718719482 23.38017845153809 10.44647026062012 18.62101936340332 14.53375053405762 14.53373908996582 C 18.62104415893555 10.44645881652832 23.38020324707031 7.237632274627686 28.67905807495117 4.996418952941895 C 34.16427230834961 2.676365613937378 39.99188232421875 1.500005602836609 46.00000381469727 1.500005602836609 C 52.00812530517578 1.500005602836609 57.83573532104492 2.676365613937378 63.32094955444336 4.996418952941895 C 68.61980438232422 7.237632274627686 73.37897491455078 10.44645881652832 77.46625518798828 14.53373908996582 C 81.55355072021484 18.62101936340332 84.76236724853516 23.38017845153809 87.00359344482422 28.67901802062988 C 89.32364654541016 34.16421890258789 90.5 39.99181747436523 90.5 45.99993896484375 C 90.5 52.00806045532227 89.32364654541016 57.83565902709961 87.00359344482422 63.32085800170898 C 84.76236724853516 68.61971282958984 81.55355072021484 73.37887573242188 77.46625518798828 77.46615600585938 C 73.37897491455078 81.55342864990234 68.61980438232422 84.76226043701172 63.32094955444336 87.00347137451172 C 57.83573532104492 89.32352447509766 52.00812530517578 90.49988555908203 46.00000381469727 90.49988555908203 Z" stroke="none"/>
                                  <path d="M 46.00000381469727 2.999992370605469 C 40.19371795654297 2.999992370605469 34.56270217895508 4.136497497558594 29.26338958740234 6.377906799316406 C 24.14333343505859 8.543510437011719 19.54441833496094 11.64437866210938 15.59440612792969 15.59439849853516 C 11.64440155029297 19.54439544677734 8.54351806640625 24.14329528808594 6.377914428710938 29.26335144042969 C 4.136505126953125 34.56266784667969 3.000007629394531 40.19366836547852 3.000007629394531 45.99993896484375 C 3.000007629394531 51.80620956420898 4.136505126953125 57.43722534179688 6.377914428710938 62.73654174804688 C 8.54351806640625 67.85658264160156 11.64440155029297 72.45548248291016 15.59440612792969 76.40549468994141 C 19.54441833496094 80.35549926757812 24.14333343505859 83.45636749267578 29.26337432861328 85.62196350097656 C 34.56270217895508 87.86338043212891 40.19371795654297 88.9998779296875 46.00000381469727 88.9998779296875 C 51.80628967285156 88.9998779296875 57.43730545043945 87.86338043212891 62.73663330078125 85.62196350097656 C 67.85667419433594 83.45636749267578 72.45558929443359 80.35549926757812 76.40560150146484 76.40549468994141 C 80.35560607910156 72.45548248291016 83.45648956298828 67.85658264160156 85.62208557128906 62.73654174804688 C 87.86350250244141 57.43722534179688 89 51.80620956420898 89 45.99993896484375 C 89 40.19366836547852 87.86350250244141 34.56266784667969 85.62208557128906 29.26335144042969 C 83.45648956298828 24.14329528808594 80.35560607910156 19.54439544677734 76.40560150146484 15.59439849853516 C 72.45558929443359 11.64437866210938 67.85667419433594 8.543510437011719 62.73661804199219 6.377906799316406 C 57.43730545043945 4.136497497558594 51.80628967285156 2.999992370605469 46.00000381469727 2.999992370605469 M 46.00000381469727 -7.62939453125e-06 C 71.40510559082031 -7.62939453125e-06 92 20.59487915039062 92 45.99993896484375 C 92 71.40501403808594 71.40510559082031 91.99988555908203 46.00000381469727 91.99988555908203 C 20.59490203857422 91.99988555908203 7.62939453125e-06 71.40501403808594 7.62939453125e-06 45.99993896484375 C 7.62939453125e-06 20.59487915039062 20.59490203857422 -7.62939453125e-06 46.00000381469727 -7.62939453125e-06 Z" stroke="none" fill="#36ceef"/>
                                </g>
                              </g>
                            </g>
                          </g>
                        </g>
                      </g>
                    </g>
                  </g>
                </g>
              </g>
            </g>
          </g>
        </g>
      </g>
    </g>
    <g id="conversation_4311148" transform="translate(-393.774 1615.097)">
      <path id="Trazado_1025992" data-name="Trazado 1025992" d="M30.8,55.209H57.7V36H30.8v6.723L26,45.6l4.8,2.881Z" transform="translate(-0.989 -1.384)" fill="#bce4f8"/>
      <path id="Trazado_1025993" data-name="Trazado 1025993" d="M30.8,36v6.723L26,45.6l4.8,2.881v2.881h20.17a2.881,2.881,0,0,0,2.881-2.881V36Z" transform="translate(-0.989 -1.384)" fill="#e4f5fd"/>
      <path id="Trazado_1025994" data-name="Trazado 1025994" d="M31.893,26.209H5V7H31.893v6.723L36.7,16.6l-4.8,2.881Z" transform="translate(-0.158 -0.237)" fill="#bce4f8"/>
      <path id="Trazado_1025995" data-name="Trazado 1025995" d="M5,7V21.407H24.209a2.881,2.881,0,0,0,2.881-2.881V7Z" transform="translate(-0.158 -0.237)" fill="#e4f5fd"/>
      <path id="Trazado_1025996" data-name="Trazado 1025996" d="M13,12.881h.378A6.471,6.471,0,0,0,18.763,10a6.471,6.471,0,0,0,5.384,2.882h.378A12.305,12.305,0,0,1,20.1,22.333l-1.336,1.114-1.336-1.113A12.305,12.305,0,0,1,13,12.881Z" transform="translate(-0.475 -0.356)" fill="#f3a845"/>
      <path id="Trazado_1025997" data-name="Trazado 1025997" d="M20.684,16.723v-4.86A6.454,6.454,0,0,1,18.763,10a6.472,6.472,0,0,1-5.384,2.881H13A12.285,12.285,0,0,0,15.017,19.6H17.8A2.881,2.881,0,0,0,20.684,16.723Z" transform="translate(-0.475 -0.356)" fill="#eecc61"/>
      <path id="Trazado_1025998" data-name="Trazado 1025998" d="M13.6,39.842a3.842,3.842,0,0,0,3.842,3.842v-.96A6.723,6.723,0,0,0,4,42.723v.96H9.763A3.842,3.842,0,0,0,13.6,39.842Z" transform="translate(-0.119 -1.384)" fill="#594139"/>
      <g id="Grupo_1172080" data-name="Grupo 1172080" transform="translate(1.96 38.458)">
        <path id="Trazado_1025999" data-name="Trazado 1025999" d="M13.684,40a3.842,3.842,0,0,1-3.842,3.842H6v2.881a4.8,4.8,0,0,0,9.6,0V43.309A3.825,3.825,0,0,1,13.684,40Z" transform="translate(-2.158 -40)" fill="#fadcb5"/>
        <path id="Trazado_1026000" data-name="Trazado 1026000" d="M5.842,46.881V44H3.921a1.921,1.921,0,1,0,0,3.842H5.938a4.791,4.791,0,0,1-.1-.96Z" transform="translate(-2 -40.158)" fill="#fadcb5"/>
        <path id="Trazado_1026001" data-name="Trazado 1026001" d="M17.917,44H16v2.881a4.791,4.791,0,0,1-.1.96h2.017a1.921,1.921,0,1,0,0-3.842Z" transform="translate(-2.55 -40.158)" fill="#fadcb5"/>
      </g>
      <path id="Trazado_1026002" data-name="Trazado 1026002" d="M9.842,43.842H6v2.881a4.782,4.782,0,0,0,.405,1.921h4.4a2.881,2.881,0,0,0,2.881-2.881V40A3.842,3.842,0,0,1,9.842,43.842Z" transform="translate(-0.198 -1.542)" fill="#fcead3"/>
      <path id="Trazado_1026003" data-name="Trazado 1026003" d="M57.288,9.684v-.96a6.723,6.723,0,1,0-13.446,0v.96A3.842,3.842,0,0,1,40,13.525a6.472,6.472,0,0,0,5.384,2.881H55.746a6.472,6.472,0,0,0,5.384-2.881,3.842,3.842,0,0,1-3.842-3.842Z" transform="translate(-1.542 -0.04)" fill="#594139"/>
      <path id="Trazado_1026004" data-name="Trazado 1026004" d="M50.8,6a3.842,3.842,0,0,0,3.842,3.842h.96v2.881a4.8,4.8,0,0,1-9.6,0V9.842h.96A3.842,3.842,0,0,0,50.8,6Z" transform="translate(-1.78 -0.198)" fill="#fadcb5"/>
      <path id="Trazado_1026005" data-name="Trazado 1026005" d="M47.763,18h5.763a5.763,5.763,0,0,1,5.763,5.763V27.6H42V23.763A5.763,5.763,0,0,1,47.763,18Z" transform="translate(-1.621 -0.672)" fill="#f3a845"/>
      <path id="Trazado_1026006" data-name="Trazado 1026006" d="M48.889,21.842l1.921-1.921,1.921,1.921,2.689-3.579A5.747,5.747,0,0,0,53.692,18H47.929a5.747,5.747,0,0,0-1.729.263Z" transform="translate(-1.787 -0.672)" fill="#eecc61"/>
      <path id="Trazado_1026007" data-name="Trazado 1026007" d="M50.8,6A3.842,3.842,0,0,1,46.96,9.842H46v2.881a4.782,4.782,0,0,0,.405,1.921h3.437a2.881,2.881,0,0,0,2.881-2.881V9.309A3.825,3.825,0,0,1,50.8,6Z" transform="translate(-1.78 -0.198)" fill="#fcead3"/>
      <path id="Trazado_1026008" data-name="Trazado 1026008" d="M7.763,52h5.763a5.763,5.763,0,0,1,5.763,5.763V61.6H2V57.763A5.763,5.763,0,0,1,7.763,52Z" transform="translate(-0.04 -2.017)" fill="#2763bb"/>
      <path id="Trazado_1026009" data-name="Trazado 1026009" d="M8.889,55.842l1.921-1.921,1.921,1.921,2.689-3.579A5.747,5.747,0,0,0,13.692,52H7.929a5.748,5.748,0,0,0-1.724.263Z" transform="translate(-0.206 -2.017)" fill="#3079e6"/>
      <path id="Trazado_1026010" data-name="Trazado 1026010" d="M17.328,48.446a2.875,2.875,0,0,0,.96-5.586v-.177a7.684,7.684,0,1,0-15.367,0v.177a2.875,2.875,0,0,0,.96,5.586h1.3a5.763,5.763,0,0,0,1.258,2.048A6.733,6.733,0,0,0,1,57.09v3.842a.96.96,0,0,0,.96.96H19.249a.96.96,0,0,0,.96-.96V57.09a6.733,6.733,0,0,0-5.436-6.6,5.763,5.763,0,0,0,1.258-2.048Zm0-1.921h-.96V44.6h.96a.96.96,0,1,1,0,1.921ZM10.6,50.367a3.842,3.842,0,0,1-3.842-3.842V44.6H9.644a4.8,4.8,0,0,0,3.842-1.921,4.844,4.844,0,0,0,.96.951v2.891A3.842,3.842,0,0,1,10.6,50.367Zm2.881,1.921-1.064,1.42L11.284,52.57a.96.96,0,0,0-1.358,0L8.787,53.708l-1.064-1.42ZM10.6,36.921a5.77,5.77,0,0,1,5.763,5.6A2.887,2.887,0,0,1,14.446,39.8a.96.96,0,1,0-1.921,0,2.881,2.881,0,0,1-2.881,2.881h-4.8A5.768,5.768,0,0,1,10.6,36.921Zm-6.723,9.6a.96.96,0,1,1,0-1.921h.96v1.921ZM18.288,57.09v2.881H16.367V56.13H14.446v3.842H6.763V56.13H4.842v3.842H2.921V57.09a4.8,4.8,0,0,1,2.757-4.328l2.237,2.983a.96.96,0,0,0,.7.384.948.948,0,0,0,.747-.279L10.6,54.607l1.242,1.242a.96.96,0,0,0,.679.281h.068a.96.96,0,0,0,.7-.384l2.237-2.983a4.8,4.8,0,0,1,2.757,4.328Z" transform="translate(0 -1.345)"/>
      <path id="Trazado_1026011" data-name="Trazado 1026011" d="M61.938,13.033a.96.96,0,0,0-.847-.507,2.881,2.881,0,0,1-2.881-2.881v-.96a7.684,7.684,0,1,0-15.367,0v.96a2.881,2.881,0,0,1-2.881,2.881.96.96,0,0,0-.8,1.494,7.409,7.409,0,0,0,5.161,3.233,6.723,6.723,0,0,0-3.4,5.839v3.842a.96.96,0,0,0,.96.96H59.17a.96.96,0,0,0,.96-.96V23.09a6.723,6.723,0,0,0-3.4-5.839,7.409,7.409,0,0,0,5.161-3.233A.96.96,0,0,0,61.938,13.033ZM47.644,18.288h5.763l-1.064,1.42L51.2,18.57a.96.96,0,0,0-1.358,0l-1.138,1.138Zm6.723-5.763a3.842,3.842,0,1,1-7.684,0V10.6a4.8,4.8,0,0,0,3.842-1.921A4.8,4.8,0,0,0,54.367,10.6ZM58.209,23.09v2.881H56.288V22.13H54.367v3.842H46.684V22.13H44.763v3.842H42.842V23.09A4.8,4.8,0,0,1,45.6,18.763l2.237,2.983a.96.96,0,0,0,.7.384.941.941,0,0,0,.747-.279l1.242-1.245,1.242,1.242a.96.96,0,0,0,.679.281h.068a.96.96,0,0,0,.7-.384l2.237-2.983a4.8,4.8,0,0,1,2.757,4.328Zm-2.5-7.684h-.2a5.722,5.722,0,0,0,.775-2.881V9.644a.96.96,0,0,0-.96-.96h-.96A2.881,2.881,0,0,1,51.486,5.8a.96.96,0,1,0-1.921,0,2.881,2.881,0,0,1-2.881,2.881h-.96a.96.96,0,0,0-.96.96v2.881a5.722,5.722,0,0,0,.78,2.881h-.2a5.5,5.5,0,0,1-3.573-1.315,4.809,4.809,0,0,0,2.992-4.448v-.96a5.763,5.763,0,1,1,11.525,0v.96a4.809,4.809,0,0,0,2.992,4.448A5.5,5.5,0,0,1,55.712,15.407Z" transform="translate(-1.503)"/>
      <path id="Trazado_1026012" data-name="Trazado 1026012" d="M4.96,27.13H31.853a.96.96,0,0,0,.96-.96V19.99l4.336-2.6a.96.96,0,0,0,0-1.646l-4.336-2.6V6.96a.96.96,0,0,0-.96-.96H4.96A.96.96,0,0,0,4,6.96V26.17A.96.96,0,0,0,4.96,27.13Zm.96-19.209H30.893v5.763a.96.96,0,0,0,.466.823l3.43,2.058-3.43,2.058a.96.96,0,0,0-.466.823v5.763H5.921Z" transform="translate(-0.119 -0.198)"/>
      <path id="Trazado_1026013" data-name="Trazado 1026013" d="M24.486,11.882h-.379a5.5,5.5,0,0,1-4.584-2.454,1,1,0,0,0-1.6,0,5.5,5.5,0,0,1-4.579,2.454H12.96a.96.96,0,0,0-.96.96,13.226,13.226,0,0,0,4.773,10.189l1.336,1.114a.96.96,0,0,0,1.229,0l1.336-1.114a13.226,13.226,0,0,0,4.773-10.189.96.96,0,0,0-.96-.96Zm-5.042,9.674-.72.6-.72-.6a11.3,11.3,0,0,1-4.044-7.78,7.42,7.42,0,0,0,4.764-2.28,7.42,7.42,0,0,0,4.764,2.283A11.3,11.3,0,0,1,19.444,21.556Z" transform="translate(-0.435 -0.317)"/>
      <path id="Trazado_1026014" data-name="Trazado 1026014" d="M17.651,16.188l-1.358,1.358,1.921,1.921a.96.96,0,0,0,.679.281.941.941,0,0,0,.192-.02.96.96,0,0,0,.7-.584l1.921-4.8-1.785-.713-1.379,3.45Z" transform="translate(-0.605 -0.499)"/>
      <path id="Trazado_1026015" data-name="Trazado 1026015" d="M57.655,35H30.763a.96.96,0,0,0-.96.96v6.18l-4.336,2.6a.96.96,0,0,0,0,1.646l4.336,2.6v6.18a.96.96,0,0,0,.96.96H57.655a.96.96,0,0,0,.96-.96V35.96A.96.96,0,0,0,57.655,35ZM56.7,54.209H31.723V48.446a.96.96,0,0,0-.466-.823l-3.43-2.058,3.43-2.058a.96.96,0,0,0,.466-.823V36.921H56.7Z" transform="translate(-0.949 -1.345)"/>
      <path id="Trazado_1026016" data-name="Trazado 1026016" d="M44.842,50.486a1.921,1.921,0,0,1-1.921-1.921H41a3.842,3.842,0,0,0,2.881,3.705v1.1H45.8v-1.1a3.834,3.834,0,0,0-.96-7.547A1.921,1.921,0,1,1,46.763,42.8h1.921A3.842,3.842,0,0,0,45.8,39.1V38H43.881v1.1a3.834,3.834,0,0,0,.96,7.547,1.921,1.921,0,1,1,0,3.842Z" transform="translate(-1.582 -1.463)"/>
      <path id="Trazado_1026017" data-name="Trazado 1026017" d="M51,43h3.842v1.921H51Z" transform="translate(-1.977 -1.661)"/>
      <path id="Trazado_1026018" data-name="Trazado 1026018" d="M51,47h3.842v1.921H51Z" transform="translate(-1.977 -1.819)"/>
      <path id="Trazado_1026019" data-name="Trazado 1026019" d="M35,43h3.842v1.921H35Z" transform="translate(-1.345 -1.661)"/>
      <path id="Trazado_1026020" data-name="Trazado 1026020" d="M35,47h3.842v1.921H35Z" transform="translate(-1.345 -1.819)"/>
    </g>
  </g>
</svg>
