<svg xmlns="http://www.w3.org/2000/svg" xmlns:xlink="http://www.w3.org/1999/xlink" width="110" height="110" viewBox="0 0 110 110">
  <defs>
    <filter id="Trazado_982547" x="0" y="0" width="110" height="110" filterUnits="userSpaceOnUse">
      <feOffset dy="3" input="SourceAlpha"/>
      <feGaussianBlur stdDeviation="3" result="blur"/>
      <feFlood flood-opacity="0.161"/>
      <feComposite operator="in" in2="blur"/>
      <feComposite in="SourceGraphic"/>
    </filter>
  </defs>
  <g id="Grupo_1172089" data-name="Grupo 1172089" transform="translate(734 -1995.129)">
    <g id="Grupo_1171909" data-name="Grupo 1171909" transform="translate(-1846 35.129)">
      <g id="Grupo_1164700" data-name="Grupo 1164700" transform="translate(1121 1966)">
        <g id="Grupo_1160931" data-name="Grupo 1160931" transform="translate(0)">
          <g id="Grupo_1160749" data-name="Grupo 1160749" transform="translate(0)">
            <g id="Grupo_1158891" data-name="Grupo 1158891" transform="translate(0 0)">
              <g id="Grupo_1157406" data-name="Grupo 1157406" transform="translate(0)">
                <g id="Grupo_1155793" data-name="Grupo 1155793" transform="translate(0)">
                  <g id="Grupo_1154704" data-name="Grupo 1154704" transform="translate(0)">
                    <g id="Grupo_1150790" data-name="Grupo 1150790" transform="translate(0)">
                      <g id="Grupo_1154214" data-name="Grupo 1154214" transform="translate(0)">
                        <g id="Grupo_1152583" data-name="Grupo 1152583" transform="translate(0 0)">
                          <g id="Grupo_1146973" data-name="Grupo 1146973" transform="translate(0 0)">
                            <g id="Grupo_1146954" data-name="Grupo 1146954">
                              <g transform="matrix(1, 0, 0, 1, -9, -6)" filter="url(#Trazado_982547)">
                                <g id="Trazado_982547-2" data-name="Trazado 982547" transform="translate(9 6)" fill="#e9f9fd">
                                  <path d="M 46.00000381469727 90.49988555908203 C 39.99188232421875 90.49988555908203 34.16427230834961 89.32352447509766 28.67905807495117 87.00347137451172 C 23.38020324707031 84.76226043701172 18.62104415893555 81.55342864990234 14.53375053405762 77.46615600585938 C 10.44647026062012 73.37887573242188 7.237643718719482 68.61971282958984 4.996417045593262 63.32085800170898 C 2.676363706588745 57.83565902709961 1.500003814697266 52.00806045532227 1.500003814697266 45.99993896484375 C 1.500003814697266 39.99181747436523 2.676363706588745 34.16421890258789 4.996417045593262 28.67901802062988 C 7.237643718719482 23.38017845153809 10.44647026062012 18.62101936340332 14.53375053405762 14.53373908996582 C 18.62104415893555 10.44645881652832 23.38020324707031 7.237632274627686 28.67905807495117 4.996418952941895 C 34.16427230834961 2.676365613937378 39.99188232421875 1.500005602836609 46.00000381469727 1.500005602836609 C 52.00812530517578 1.500005602836609 57.83573532104492 2.676365613937378 63.32094955444336 4.996418952941895 C 68.61980438232422 7.237632274627686 73.37897491455078 10.44645881652832 77.46625518798828 14.53373908996582 C 81.55355072021484 18.62101936340332 84.76236724853516 23.38017845153809 87.00359344482422 28.67901802062988 C 89.32364654541016 34.16421890258789 90.5 39.99181747436523 90.5 45.99993896484375 C 90.5 52.00806045532227 89.32364654541016 57.83565902709961 87.00359344482422 63.32085800170898 C 84.76236724853516 68.61971282958984 81.55355072021484 73.37887573242188 77.46625518798828 77.46615600585938 C 73.37897491455078 81.55342864990234 68.61980438232422 84.76226043701172 63.32094955444336 87.00347137451172 C 57.83573532104492 89.32352447509766 52.00812530517578 90.49988555908203 46.00000381469727 90.49988555908203 Z" stroke="none"/>
                                  <path d="M 46.00000381469727 2.999992370605469 C 40.19371795654297 2.999992370605469 34.56270217895508 4.136497497558594 29.26338958740234 6.377906799316406 C 24.14333343505859 8.543510437011719 19.54441833496094 11.64437866210938 15.59440612792969 15.59439849853516 C 11.64440155029297 19.54439544677734 8.54351806640625 24.14329528808594 6.377914428710938 29.26335144042969 C 4.136505126953125 34.56266784667969 3.000007629394531 40.19366836547852 3.000007629394531 45.99993896484375 C 3.000007629394531 51.80620956420898 4.136505126953125 57.43722534179688 6.377914428710938 62.73654174804688 C 8.54351806640625 67.85658264160156 11.64440155029297 72.45548248291016 15.59440612792969 76.40549468994141 C 19.54441833496094 80.35549926757812 24.14333343505859 83.45636749267578 29.26337432861328 85.62196350097656 C 34.56270217895508 87.86338043212891 40.19371795654297 88.9998779296875 46.00000381469727 88.9998779296875 C 51.80628967285156 88.9998779296875 57.43730545043945 87.86338043212891 62.73663330078125 85.62196350097656 C 67.85667419433594 83.45636749267578 72.45558929443359 80.35549926757812 76.40560150146484 76.40549468994141 C 80.35560607910156 72.45548248291016 83.45648956298828 67.85658264160156 85.62208557128906 62.73654174804688 C 87.86350250244141 57.43722534179688 89 51.80620956420898 89 45.99993896484375 C 89 40.19366836547852 87.86350250244141 34.56266784667969 85.62208557128906 29.26335144042969 C 83.45648956298828 24.14329528808594 80.35560607910156 19.54439544677734 76.40560150146484 15.59439849853516 C 72.45558929443359 11.64437866210938 67.85667419433594 8.543510437011719 62.73661804199219 6.377906799316406 C 57.43730545043945 4.136497497558594 51.80628967285156 2.999992370605469 46.00000381469727 2.999992370605469 M 46.00000381469727 -7.62939453125e-06 C 71.40510559082031 -7.62939453125e-06 92 20.59487915039062 92 45.99993896484375 C 92 71.40501403808594 71.40510559082031 91.99988555908203 46.00000381469727 91.99988555908203 C 20.59490203857422 91.99988555908203 7.62939453125e-06 71.40501403808594 7.62939453125e-06 45.99993896484375 C 7.62939453125e-06 20.59487915039062 20.59490203857422 -7.62939453125e-06 46.00000381469727 -7.62939453125e-06 Z" stroke="none" fill="#36ceef"/>
                                </g>
                              </g>
                            </g>
                          </g>
                        </g>
                      </g>
                    </g>
                  </g>
                </g>
              </g>
            </g>
          </g>
        </g>
      </g>
    </g>
    <g id="custodian_17640318" transform="translate(-718.25 2007.858)">
      <g id="Grupo_1172087" data-name="Grupo 1172087" transform="translate(8.867 8.891)">
        <g id="Grupo_1172082" data-name="Grupo 1172082" transform="translate(0 16.43)">
          <path id="Trazado_1026021" data-name="Trazado 1026021" d="M24.413,144.817A9.412,9.412,0,1,1,15,154.23,9.413,9.413,0,0,1,24.413,144.817Z" transform="translate(-15 -144.817)" fill="#fdcd56" fill-rule="evenodd"/>
        </g>
        <g id="Grupo_1172083" data-name="Grupo 1172083" transform="translate(41.94 25.843)">
          <path id="Trazado_1026022" data-name="Trazado 1026022" d="M355.7,219.167a9.412,9.412,0,1,1-9.413,9.413A9.413,9.413,0,0,1,355.7,219.167Z" transform="translate(-346.291 -219.167)" fill="#fdcd56" fill-rule="evenodd"/>
        </g>
        <g id="Grupo_1172084" data-name="Grupo 1172084" transform="translate(16.434 16.43)">
          <path id="Trazado_1026023" data-name="Trazado 1026023" d="M158.761,144.817a13.949,13.949,0,1,1-13.948,13.95h0A13.95,13.95,0,0,1,158.761,144.817Z" transform="translate(-144.811 -144.817)" fill="#f4f6f8" fill-rule="evenodd"/>
          <path id="Trazado_1026024" data-name="Trazado 1026024" d="M186.937,281.438a10.724,10.724,0,0,0-9.865,6.516,13.953,13.953,0,0,0,19.731,0A10.722,10.722,0,0,0,186.937,281.438Z" transform="translate(-172.988 -264.142)" fill="#66d4f1" fill-rule="evenodd"/>
          <path id="Trazado_1026025" data-name="Trazado 1026025" d="M215.867,185.549a4.955,4.955,0,1,0,4.954-4.956A4.954,4.954,0,0,0,215.867,185.549Z" transform="translate(-206.872 -176.064)" fill="#d5a889" fill-rule="evenodd"/>
        </g>
        <g id="Grupo_1172085" data-name="Grupo 1172085" transform="translate(0 42.278)">
          <path id="Trazado_1026026" data-name="Trazado 1026026" d="M45.149,350.408c-2.944,1.444-5.919,2.829-8.881,4.231l4.182,10.022,6.152-3a3.7,3.7,0,0,1,2.746-.236l6.526,1.89c2.069.6,4.629-.5,6.555-1.246l12.24-4.726c3.223-1.246,4-7.716-3.613-5.48l-8.734,2.564a2.777,2.777,0,0,0-1.959-1.951L54.448,350.9C50.414,348.044,48.363,348.834,45.149,350.408Z" transform="translate(-33.576 -348.99)" fill="#efc7a4" fill-rule="evenodd"/>
          <path id="Trazado_1026027" data-name="Trazado 1026027" d="M150.212,379.016l-13.23-3.534a2.782,2.782,0,0,0,1.967,3.4l7.862,2.1A2.788,2.788,0,0,0,150.212,379.016Z" transform="translate(-121.457 -372.128)" fill="#d5a889" fill-rule="evenodd"/>
          <path id="Trazado_1026028" data-name="Trazado 1026028" d="M25.3,378.115l-3.139,1.3a1.342,1.342,0,0,1-1.749-.721q-2.654-6.377-5.311-12.755a1.331,1.331,0,0,1,.723-1.752l3.136-1.3a1.341,1.341,0,0,1,1.749.721q2.658,6.378,5.311,12.755A1.332,1.332,0,0,1,25.3,378.115Z" transform="translate(-15 -361.04)" fill="#e4e8eb"/>
        </g>
        <g id="Grupo_1172086" data-name="Grupo 1172086" transform="translate(17.344)">
          <path id="Trazado_1026029" data-name="Trazado 1026029" d="M183.849,51.48c2.944-1.444,5.919-2.829,8.881-4.231l-4.182-10.022-6.152,3a3.7,3.7,0,0,1-2.746.236l-6.526-1.89c-2.069-.6-4.629.5-6.555,1.246l-12.24,4.726c-3.223,1.246-4,7.716,3.613,5.48l8.734-2.564a2.777,2.777,0,0,0,1.959,1.951l5.916,1.582C178.585,53.844,180.636,53.054,183.849,51.48Z" transform="translate(-152 -34.417)" fill="#efc7a4" fill-rule="evenodd"/>
          <path id="Trazado_1026030" data-name="Trazado 1026030" d="M267.867,92.393l13.23,3.534a2.782,2.782,0,0,0-1.967-3.4l-7.862-2.1A2.788,2.788,0,0,0,267.867,92.393Z" transform="translate(-253.199 -80.8)" fill="#d5a889" fill-rule="evenodd"/>
          <path id="Trazado_1026031" data-name="Trazado 1026031" d="M407.913,16.436l3.139-1.3a1.342,1.342,0,0,1,1.749.721q2.654,6.377,5.311,12.755a1.331,1.331,0,0,1-.723,1.751l-3.136,1.3a1.341,1.341,0,0,1-1.749-.721q-2.658-6.378-5.311-12.755A1.332,1.332,0,0,1,407.913,16.436Z" transform="translate(-374.794 -15.031)" fill="#e4e8eb"/>
        </g>
      </g>
      <path id="Trazado_1026032" data-name="Trazado 1026032" d="M20.448,65.524l.265.636h0a2.166,2.166,0,0,1,0,1.7l0,0a2.169,2.169,0,0,1-1.2,1.2h0l-3.136,1.3a2.228,2.228,0,0,1-2.907-1.2q-2.654-6.376-5.308-12.749a2.223,2.223,0,0,1,1.2-2.913l3.139-1.3A2.23,2.23,0,0,1,15.4,53.4h0l.213.511q2.226-1.053,4.442-2.131c2.111-1.033,3.778-1.71,5.717-1.448a10.018,10.018,0,0,1,4.35,1.926l5.764,1.544a3.654,3.654,0,0,1,2.238,1.74l7.976-2.34c3.594-1.054,5.576-.251,6.45.93A3.516,3.516,0,0,1,53.08,57a4.751,4.751,0,0,1-2.8,3.365L38.034,65.085c-2.088.8-4.879,1.913-7.12,1.263L24.39,64.455h0a2.838,2.838,0,0,0-2.113.179Zm-1.373,1.314L13.765,54.086a.454.454,0,0,0-.591-.244l-3.138,1.3a.44.44,0,0,0-.245.246.425.425,0,0,0,0,.341v0Q12.447,62.112,15.1,68.49h0a.451.451,0,0,0,.589.242l3.134-1.3h0a.45.45,0,0,0,.245-.594Zm.691-2.953L21.5,63.04a4.547,4.547,0,0,1,3.384-.288l6.524,1.892a5.513,5.513,0,0,0,2.863-.124A28.474,28.474,0,0,0,37.4,63.431l12.244-4.718a2.924,2.924,0,0,0,1.706-2.086,1.757,1.757,0,0,0-.222-1.435,1.9,1.9,0,0,0-1.3-.665,7.672,7.672,0,0,0-3.224.381l-8,2.347a3.627,3.627,0,0,1-.123,1.038,3.671,3.671,0,0,1-4.486,2.589l-7.862-2.105a.886.886,0,0,1,.459-1.712l7.862,2.105h0a1.889,1.889,0,1,0,.976-3.65l-5.916-1.585a.884.884,0,0,1-.284-.133,8.523,8.523,0,0,0-3.693-1.707c-1.6-.216-2.956.43-4.7,1.283q-2.261,1.106-4.538,2.177ZM62.886,24.626q-2.226,1.053-4.442,2.131c-2.111,1.033-3.778,1.71-5.717,1.448a10.018,10.018,0,0,1-4.35-1.926l-5.764-1.544a3.654,3.654,0,0,1-2.238-1.74L32.4,25.334c-3.594,1.054-5.576.251-6.45-.93a3.516,3.516,0,0,1-.53-2.864,4.751,4.751,0,0,1,2.8-3.365l12.245-4.719c2.088-.8,4.879-1.913,7.12-1.263l6.524,1.892h0a2.838,2.838,0,0,0,2.113-.179l1.829-.89-.265-.636h0a2.166,2.166,0,0,1,0-1.7l0,0a2.169,2.169,0,0,1,1.2-1.2h0l3.136-1.3a2.228,2.228,0,0,1,2.907,1.2q2.654,6.376,5.308,12.749a2.223,2.223,0,0,1-1.2,2.913l-3.139,1.3a2.23,2.23,0,0,1-2.907-1.2h0l-.213-.511Zm-4.152-9.97L57,15.5a4.547,4.547,0,0,1-3.384.288L47.092,13.9a5.513,5.513,0,0,0-2.863.124A28.473,28.473,0,0,0,41.1,15.11L28.859,19.828a2.924,2.924,0,0,0-1.706,2.086,1.757,1.757,0,0,0,.222,1.435,1.9,1.9,0,0,0,1.3.665,7.672,7.672,0,0,0,3.224-.381l8-2.347a3.627,3.627,0,0,1,.123-1.038,3.671,3.671,0,0,1,4.486-2.589l7.862,2.105a.886.886,0,0,1-.459,1.712L44.05,19.373h0a1.889,1.889,0,1,0-.976,3.65l5.916,1.585a.884.884,0,0,1,.284.133,8.523,8.523,0,0,0,3.693,1.707c1.6.216,2.956-.43,4.7-1.283q2.261-1.106,4.538-2.177l-3.47-8.332Zm.691-2.954,5.309,12.752a.454.454,0,0,0,.591.244l3.138-1.3a.44.44,0,0,0,.245-.246.425.425,0,0,0,0-.341v0Q66.053,16.429,63.4,10.051h0a.451.451,0,0,0-.589-.242l-3.134,1.3h0a.45.45,0,0,0-.245.594ZM24.813,42.7a10.3,10.3,0,1,1,2.709-12.511,14.839,14.839,0,0,1,26.231,5.946,10.3,10.3,0,1,1-2.876,12.355A14.839,14.839,0,0,1,24.813,42.7Zm1.53-10.744a8.529,8.529,0,1,0-1.869,8.642q-.055-.626-.058-1.267c0-.018,0-.037,0-.056A14.768,14.768,0,0,1,26.342,31.952ZM54.052,38.26q.034.5.034,1.011a14.765,14.765,0,0,1-2,7.443,8.53,8.53,0,1,0,1.966-8.454ZM26.186,39.271h0a13.008,13.008,0,0,0,2.982,8.308,11.612,11.612,0,0,1,20.161,0,13.063,13.063,0,1,0-23.144-8.308ZM32.916,50.7A13.072,13.072,0,0,0,48.045,48.93a9.84,9.84,0,0,0-17.589,0,13.1,13.1,0,0,0,2.46,1.768Zm.494-15.891a5.841,5.841,0,1,1,5.84,5.84,5.841,5.841,0,0,1-5.84-5.84Zm1.772,0a4.069,4.069,0,1,0,4.068-4.07A4.067,4.067,0,0,0,35.182,34.806Zm24.136,4.477-.012-.485a.886.886,0,1,1,1.772-.043l.013.548a4.655,4.655,0,0,1,.9.357,2.8,2.8,0,0,1,1.022.859.886.886,0,1,1-1.481.974,1,1,0,0,0-.369-.265,2.31,2.31,0,0,0-.944-.29,1.2,1.2,0,1,0,0,2.361,3.086,3.086,0,0,1,3.2,2.953,3.005,3.005,0,0,1-2.3,2.834l.01.409a.886.886,0,0,1-1.772.043l-.011-.429a3.688,3.688,0,0,1-1.676-1.033.886.886,0,1,1,1.215-1.29,1.76,1.76,0,0,0,1.329.647,1.2,1.2,0,1,0,0-2.361,3.086,3.086,0,0,1-3.2-2.953A3,3,0,0,1,59.318,39.284Zm-41.94-9.412-.012-.485a.886.886,0,1,1,1.772-.043l.013.548a4.655,4.655,0,0,1,.9.357,2.8,2.8,0,0,1,1.022.859.886.886,0,1,1-1.481.974,1,1,0,0,0-.369-.265,2.31,2.31,0,0,0-.944-.29,1.2,1.2,0,1,0,0,2.361,3.086,3.086,0,0,1,3.2,2.953,3.006,3.006,0,0,1-2.3,2.834l.01.409a.886.886,0,1,1-1.772.043l-.011-.429a3.688,3.688,0,0,1-1.676-1.033.886.886,0,0,1,1.215-1.29,1.76,1.76,0,0,0,1.329.647,1.2,1.2,0,1,0,0-2.361,3.086,3.086,0,0,1-3.2-2.953,3,3,0,0,1,2.3-2.834Z" transform="translate(0)" fill-rule="evenodd"/>
    </g>
  </g>
</svg>
