<svg xmlns="http://www.w3.org/2000/svg" xmlns:xlink="http://www.w3.org/1999/xlink" width="113" height="113" viewBox="0 0 113 113">
  <defs>
    <filter id="Trazado_982547" x="0" y="0" width="113" height="113" filterUnits="userSpaceOnUse">
      <feOffset dy="3" input="SourceAlpha"/>
      <feGaussianBlur stdDeviation="3" result="blur"/>
      <feFlood flood-opacity="0.161"/>
      <feComposite operator="in" in2="blur"/>
      <feComposite in="SourceGraphic"/>
    </filter>
  </defs>
  <g id="Grupo_1172015" data-name="Grupo 1172015" transform="translate(-325 -4575)">
    <g id="Grupo_1167343" data-name="Grupo 1167343" transform="translate(0 2228)">
      <g id="Grupo_1166777" data-name="Grupo 1166777" transform="translate(0.105 -910)">
        <g id="Grupo_1164305" data-name="Grupo 1164305" transform="translate(333.895 3263)">
          <g id="Grupo_1163948" data-name="Grupo 1163948" transform="translate(0)">
            <g id="Grupo_1158168" data-name="Grupo 1158168" transform="translate(0)">
              <g id="Grupo_1152576" data-name="Grupo 1152576">
                <g id="Grupo_1148633" data-name="Grupo 1148633">
                  <g id="Grupo_1148525" data-name="Grupo 1148525">
                    <g transform="matrix(1, 0, 0, 1, -9, -6)" filter="url(#Trazado_982547)">
                      <g id="Trazado_982547-2" data-name="Trazado 982547" transform="translate(9 6)" fill="#f2f7e5">
                        <path d="M 47.5 93.5 C 41.28937149047852 93.5 35.26533508300781 92.28397369384766 29.59518623352051 89.88570404052734 C 24.11771965026855 87.56893157958984 19.19813346862793 84.25196075439453 14.97309303283691 80.02691650390625 C 10.74804019927979 75.80186462402344 7.431066513061523 70.88229370117188 5.114293098449707 65.40481567382812 C 2.716026782989502 59.73468017578125 1.5 53.71062850952148 1.5 47.5 C 1.5 41.28937149047852 2.716026782989502 35.26533508300781 5.114293098449707 29.59518623352051 C 7.431066513061523 24.11771965026855 10.74804019927979 19.19813346862793 14.97309303283691 14.97309303283691 C 19.19813346862793 10.74804019927979 24.11771965026855 7.431066513061523 29.59518623352051 5.114293098449707 C 35.26533508300781 2.716026782989502 41.28937149047852 1.5 47.5 1.5 C 53.71062850952148 1.5 59.73468017578125 2.716026782989502 65.40481567382812 5.114293098449707 C 70.88229370117188 7.431066513061523 75.80186462402344 10.74804019927979 80.02691650390625 14.97309303283691 C 84.25196075439453 19.19813346862793 87.56893157958984 24.11771965026855 89.88570404052734 29.59518623352051 C 92.28397369384766 35.26533508300781 93.5 41.28937149047852 93.5 47.5 C 93.5 53.71062850952148 92.28397369384766 59.73468017578125 89.88570404052734 65.40481567382812 C 87.56893157958984 70.88229370117188 84.25196075439453 75.80186462402344 80.02691650390625 80.02691650390625 C 75.80186462402344 84.25196075439453 70.88229370117188 87.56893157958984 65.40481567382812 89.88570404052734 C 59.73468017578125 92.28397369384766 53.71062850952148 93.5 47.5 93.5 Z" stroke="none"/>
                        <path d="M 47.5 3 C 41.49121475219727 3 35.66376876831055 4.176155090332031 30.17950439453125 6.495796203613281 C 24.88084411621094 8.736953735351562 20.12152099609375 11.94598388671875 16.03375244140625 16.03375244140625 C 11.94598388671875 20.12152099609375 8.736953735351562 24.88084411621094 6.495796203613281 30.17950439453125 C 4.176155090332031 35.66376876831055 3 41.49121475219727 3 47.5 C 3 53.50878524780273 4.176155090332031 59.33623123168945 6.495796203613281 64.82049560546875 C 8.736953735351562 70.11915588378906 11.94598388671875 74.87847900390625 16.03375244140625 78.96624755859375 C 20.12152099609375 83.05401611328125 24.88084411621094 86.26304626464844 30.17950439453125 88.50419616699219 C 35.66376876831055 90.82384490966797 41.49121475219727 92 47.5 92 C 53.50878524780273 92 59.33623123168945 90.82384490966797 64.82049560546875 88.50419616699219 C 70.11915588378906 86.26304626464844 74.87847900390625 83.05401611328125 78.96624755859375 78.96624755859375 C 83.05401611328125 74.87847900390625 86.26304626464844 70.11915588378906 88.50419616699219 64.82049560546875 C 90.82384490966797 59.33623123168945 92 53.50878524780273 92 47.5 C 92 41.49121475219727 90.82384490966797 35.66376876831055 88.50419616699219 30.17950439453125 C 86.26304626464844 24.88084411621094 83.05401611328125 20.12152099609375 78.96624755859375 16.03375244140625 C 74.87847900390625 11.94598388671875 70.11915588378906 8.736953735351562 64.82049560546875 6.495796203613281 C 59.33623123168945 4.176155090332031 53.50878524780273 3 47.5 3 M 47.5 0 C 73.7335205078125 0 95 21.2664794921875 95 47.5 C 95 73.7335205078125 73.7335205078125 95 47.5 95 C 21.2664794921875 95 0 73.7335205078125 0 47.5 C 0 21.2664794921875 21.2664794921875 0 47.5 0 Z" stroke="none" fill="#86b60c"/>
                      </g>
                    </g>
                  </g>
                </g>
              </g>
            </g>
          </g>
        </g>
      </g>
    </g>
    <g id="authoritative_15552397" transform="translate(336.729 4594.299)">
      <path id="Trazado_1026918" data-name="Trazado 1026918" d="M123.4,16.749v30.53H101.784A5.7,5.7,0,0,1,96.1,41.6V15.514a4.461,4.461,0,0,0-4.447-4.447h26.066a5.7,5.7,0,0,1,5.682,5.682Z" transform="translate(-67.058 -6.222)" fill="#f7f1ef" fill-rule="evenodd"/>
      <path id="Trazado_1026919" data-name="Trazado 1026919" d="M317.708,16.852v30.53h-1V16.742a5.746,5.746,0,0,0-4.292-5.558,5.7,5.7,0,0,1,5.288,5.668Z" transform="translate(-261.364 -6.325)" fill="#f0e3df" fill-rule="evenodd"/>
      <path id="Trazado_1026920" data-name="Trazado 1026920" d="M206.777,265.794a5.7,5.7,0,0,1-5.682,5.682H176.17a5.7,5.7,0,0,0,5.682-5.682Z" transform="translate(-141.444 -230.419)" fill="#d9c5bf" fill-rule="evenodd"/>
      <path id="Trazado_1026921" data-name="Trazado 1026921" d="M380.883,265.794a5.7,5.7,0,0,1-5.682,5.682h-1.217a5.7,5.7,0,0,0,5.682-5.682Z" transform="translate(-315.549 -230.419)" fill="#c2a9a1" fill-rule="evenodd"/>
      <path id="Trazado_1026922" data-name="Trazado 1026922" d="M58.994,11.067a4.461,4.461,0,0,0-4.447,4.447v1.33h8.895v-1.33A4.461,4.461,0,0,0,58.994,11.067Z" transform="translate(-34.397 -6.222)" fill="#c2a9a1" fill-rule="evenodd"/>
      <path id="Trazado_1026923" data-name="Trazado 1026923" d="M58.386,11.418a4.463,4.463,0,0,0-3.839,4.405v1.33h7.678v-1.33A4.463,4.463,0,0,0,58.386,11.418Z" transform="translate(-34.397 -6.531)" fill="#d9c5bf" fill-rule="evenodd"/>
      <path id="Trazado_1026924" data-name="Trazado 1026924" d="M84.1,241.081c-2.459-3.562-1.7-9.688,4.187-9.688s6.646,6.126,4.187,9.688a4.817,4.817,0,0,1-8.373,0Z" transform="translate(-59.249 -200.141)" fill="#fdb0a0" fill-rule="evenodd"/>
      <path id="Trazado_1026925" data-name="Trazado 1026925" d="M84.1,241.9c-2.264-3.28-1.8-8.732,2.882-9.577,4.684.844,5.146,6.3,2.882,9.577a5.532,5.532,0,0,1-2.882,2.237A5.533,5.533,0,0,1,84.1,241.9Z" transform="translate(-59.249 -200.961)" fill="#ffcec0" fill-rule="evenodd"/>
      <path id="Trazado_1026926" data-name="Trazado 1026926" d="M32.645,332.837l-3.974.977a19.643,19.643,0,0,0-4.384,1.471c-1.316.772-1.786,1.56-1.947,3.657-.2,3.7-.136,7.148.013,10.687a3.278,3.278,0,0,0,3.275,3.14h18.7a3.277,3.277,0,0,0,3.275-3.14c.149-3.539.217-6.982.013-10.687-.161-2.1-.63-2.885-1.947-3.657a19.643,19.643,0,0,0-4.384-1.471l-3.974-.977a9.34,9.34,0,0,0-4.664,0Z" transform="translate(-5.938 -289.167)" fill="#4eb1fc" fill-rule="evenodd"/>
      <path id="Trazado_1026927" data-name="Trazado 1026927" d="M32.645,333.483l-3.974.977a19.641,19.641,0,0,0-4.384,1.471c-1.316.772-1.786,1.56-1.947,3.657-.2,3.7-.136,7.148.013,10.687a3.278,3.278,0,0,0,3.275,3.14H41.81a3.278,3.278,0,0,0,3.275-3.14c.149-3.539.217-6.982.013-10.687-.161-2.1-.63-2.885-1.947-3.657a19.643,19.643,0,0,0-4.384-1.471l-3.974-.977a10.55,10.55,0,0,0-1.074-.208,10.577,10.577,0,0,0-1.075.208Z" transform="translate(-5.938 -289.813)" fill="#85caff" fill-rule="evenodd"/>
      <path id="Trazado_1026928" data-name="Trazado 1026928" d="M266.381,365.324l2.128,2.128-12.753,13.719a1.283,1.283,0,0,1-1.847.034l-1.281-1.281a1.283,1.283,0,0,1,.034-1.847l13.719-12.753Z" transform="translate(-208.407 -318.02)" fill="#a34f41" fill-rule="evenodd"/>
      <path id="Trazado_1026929" data-name="Trazado 1026929" d="M275.121,374.064l1.081,1.08-12.753,13.719a1.283,1.283,0,0,1-1.835.046l-.012-.012-.234-.234a1.283,1.283,0,0,1,.034-1.847l13.719-12.753Z" transform="translate(-216.1 -325.713)" fill="#c86f5c" fill-rule="evenodd"/>
      <path id="Trazado_1026930" data-name="Trazado 1026930" d="M345.424,326.557l4.788-4.789a19.188,19.188,0,0,1-7.262-7.262l-4.789,4.789a19.188,19.188,0,0,1,7.262,7.262Z" transform="translate(-284.021 -273.293)" fill="#f29988" fill-rule="evenodd"/>
      <path id="Trazado_1026931" data-name="Trazado 1026931" d="M345.425,336.382l3.451-3.451a19.189,19.189,0,0,1-7.262-7.262l-3.451,3.451a19.188,19.188,0,0,1,7.262,7.262Z" transform="translate(-284.021 -283.118)" fill="#fdb0a0" fill-rule="evenodd"/>
      <path id="Trazado_1026932" data-name="Trazado 1026932" d="M327.439,298.3l1.06,1.06a.622.622,0,0,1,0,.877l-4.609,4.609a.622.622,0,0,1-.877,0l-1.06-1.06a1.155,1.155,0,0,1,0-1.629l3.857-3.857A1.155,1.155,0,0,1,327.439,298.3Z" transform="translate(-269.458 -258.731)" fill="#453530" fill-rule="evenodd"/>
      <path id="Trazado_1026933" data-name="Trazado 1026933" d="M327.164,311.4h0l-3.271,3.271a.622.622,0,0,1-.877,0l-1.06-1.06a1.155,1.155,0,0,1,0-1.629h0l2.519-2.519a1.155,1.155,0,0,1,1.629,0l1.06,1.06a.622.622,0,0,1,0,.876Z" transform="translate(-269.46 -268.556)" fill="#6e5a54" fill-rule="evenodd"/>
      <path id="Trazado_1026934" data-name="Trazado 1026934" d="M403.048,373.906l-1.06-1.06a.622.622,0,0,0-.877,0l-4.609,4.609a.622.622,0,0,0,0,.877l1.06,1.06a1.155,1.155,0,0,0,1.629,0l3.857-3.857A1.155,1.155,0,0,0,403.048,373.906Z" transform="translate(-335.209 -324.482)" fill="#453530" fill-rule="evenodd"/>
      <path id="Trazado_1026935" data-name="Trazado 1026935" d="M399.773,384.01l-3.271,3.271h0a.622.622,0,0,0,0,.876l1.06,1.06a1.155,1.155,0,0,0,1.629,0l2.519-2.519h0a1.155,1.155,0,0,0,0-1.628l-1.06-1.06a.622.622,0,0,0-.877,0Z" transform="translate(-335.209 -334.308)" fill="#6e5a54" fill-rule="evenodd"/>
      <path id="Trazado_1026936" data-name="Trazado 1026936" d="M350.474,469.467h-11.8a1.946,1.946,0,0,0-1.726,1l-1.6,2.779H353.8l-1.6-2.779A1.946,1.946,0,0,0,350.474,469.467Z" transform="translate(-281.543 -409.682)" fill="#6e5a54" fill-rule="evenodd"/>
      <path id="Trazado_1026937" data-name="Trazado 1026937" d="M363.651,469.467h-10a1.946,1.946,0,0,0-1.726,1l-1.6,2.779h16.663l-1.6-2.779a1.946,1.946,0,0,0-1.725-1Z" transform="translate(-294.72 -409.682)" fill="#836d66" fill-rule="evenodd"/>
      <path id="Trazado_1026938" data-name="Trazado 1026938" d="M23.929,52.641h4.985V50.963H23.929Zm46.9,10.084L69.948,61.2a1.123,1.123,0,0,0-1.005-.579H57.124a1.116,1.116,0,0,0-1.005.579l-.878,1.526Zm2.184,1.258a.84.84,0,0,1-.728.42h-18.5a.839.839,0,0,1-.728-1.259l1.612-2.784a2.77,2.77,0,0,1,2.455-1.418h11.82A2.77,2.77,0,0,1,71.4,60.361l1.612,2.784A.837.837,0,0,1,73.01,63.984ZM58.187,50.265,46.731,62.584a.407.407,0,0,1-.318.142.4.4,0,0,1-.323-.129l-1.282-1.281a.421.421,0,0,1-.127-.322.382.382,0,0,1,.144-.318L57.141,49.222c.364.333.711.681,1.046,1.043Zm-5.1-5.808.907.906,4.3-4.3-.907-.906a.317.317,0,0,0-.445,0l-3.859,3.858a.327.327,0,0,0,0,.444ZM54.5,40.226H39.088a6.516,6.516,0,0,0,2.1-4.007H64.431a4.85,4.85,0,0,1-4.633,4,2.188,2.188,0,0,0-.162-.194l-1.063-1.061a1.99,1.99,0,0,0-2.813,0L54.5,40.226ZM39.568,35.38a4.848,4.848,0,0,1-4.841,4.846.766.766,0,0,0-.139.012,7.86,7.86,0,0,0,.04-6.727,5.736,5.736,0,0,0-4.749-3.018V9.287a5.276,5.276,0,0,0-1.427-3.611H50.665a4.85,4.85,0,0,1,4.847,4.846V34.541H40.405a.839.839,0,0,0-.838.839Zm-6.424-1.091a4.287,4.287,0,0,0-4.1-2.161,4.3,4.3,0,0,0-4.107,2.161,6.36,6.36,0,0,0,.618,6.189,4.292,4.292,0,0,0,3.426,2.065q.061,0,.121,0a4.3,4.3,0,0,0,3.426-2.065,6.361,6.361,0,0,0,.618-6.189Zm-4.055,9.932a8.9,8.9,0,0,1,2.08.272l3.957.973a20.011,20.011,0,0,1,4.154,1.378c1.022.6,1.386,1.114,1.531,2.981.214,3.919.116,7.542-.012,10.571a2.431,2.431,0,0,1-2.432,2.329h-.387V51.8a.838.838,0,1,0-1.675,0V62.726H21.775V51.8a.838.838,0,1,0-1.675,0V62.726h-.387A2.422,2.422,0,0,1,17.286,60.4c-.133-3.029-.231-6.653-.017-10.571.144-1.867.508-2.382,1.531-2.981a19.823,19.823,0,0,1,4.148-1.375l3.969-.976a8.76,8.76,0,0,1,2.068-.272h.1ZM28.2,9.778V9.287a3.611,3.611,0,1,0-7.221,0v.492ZM58.926,42.8l-3.195,3.191a19.977,19.977,0,0,1,5.679,5.678L64.6,48.48A20.127,20.127,0,0,1,58.926,42.8Zm8.325,7.214a.314.314,0,0,1,0,.445l-3.859,3.858a.3.3,0,0,1-.22.09.316.316,0,0,1-.225-.09l-.9-.906,4.3-4.3.907.9Zm-7.978,1.54L47.961,63.726a2.09,2.09,0,0,1-1.519.678H46.4a2.079,2.079,0,0,1-1.5-.621L43.623,62.5a2.128,2.128,0,0,1,.058-3.056L55.847,48.134c-.485-.373-.994-.722-1.514-1.044a1.556,1.556,0,0,1-.341.04,1.467,1.467,0,0,1-1.034-.426L51.9,45.643a1.992,1.992,0,0,1,0-2.817l.924-.923h-18.1a.834.834,0,0,1-.78-.529.289.289,0,0,0-.04.056,7.014,7.014,0,0,1-1.542,1.63l3.166.778a19.8,19.8,0,0,1,4.6,1.559c1.606.94,2.178,1.987,2.357,4.308v.018c.22,3.995.116,7.673-.012,10.743A4.1,4.1,0,0,1,38.366,64.4H19.712A4.1,4.1,0,0,1,15.6,60.467c-.127-3.07-.231-6.749-.012-10.743v-.018c.179-2.321.751-3.368,2.357-4.308a19.773,19.773,0,0,1,4.587-1.557l3.177-.78a7.016,7.016,0,0,1-1.542-1.63,7.989,7.989,0,0,1-.722-7.921A5.744,5.744,0,0,1,28.2,30.493V11.457H20.14a.839.839,0,0,1-.838-.839V9.287A5.292,5.292,0,0,1,24.588,4H50.665a6.534,6.534,0,0,1,6.528,6.524V34.541h8.151a.839.839,0,0,1,.838.839,6.529,6.529,0,0,1-5.858,6.49A18.435,18.435,0,0,0,66,47.384a1.464,1.464,0,0,1,1.375.386l1.057,1.061a1.987,1.987,0,0,1,0,2.816l-3.853,3.859a2,2,0,0,1-2.819,0L60.7,54.445a1.458,1.458,0,0,1-.422-1.032,1.32,1.32,0,0,1,.04-.339,17.838,17.838,0,0,0-1.046-1.518ZM52.941,30.533a.839.839,0,0,0-.843-.839H33.288a.839.839,0,0,0,0,1.678H52.1A.84.84,0,0,0,52.941,30.533Zm-19.653-4.1H52.1a.839.839,0,1,0,0-1.678H33.288a.839.839,0,0,0,0,1.678Zm0-4.938H52.1a.839.839,0,1,0,0-1.678H33.288a.839.839,0,0,0,0,1.678Zm0-4.938H52.1a.839.839,0,1,0,0-1.678H33.288a.839.839,0,0,0,0,1.678Zm-.838-5.777a.838.838,0,0,0,.838.839H52.1a.839.839,0,1,0,0-1.678H33.288a.838.838,0,0,0-.838.839Z" transform="translate(0 0)" fill-rule="evenodd"/>
    </g>
  </g>
</svg>
