<svg xmlns="http://www.w3.org/2000/svg" xmlns:xlink="http://www.w3.org/1999/xlink" width="106" height="106" viewBox="0 0 106 106">
  <defs>
    <filter id="Trazado_982547" x="0" y="0" width="106" height="106" filterUnits="userSpaceOnUse">
      <feOffset dy="3" input="SourceAlpha"/>
      <feGaussianBlur stdDeviation="3" result="blur"/>
      <feFlood flood-opacity="0.161"/>
      <feComposite operator="in" in2="blur"/>
      <feComposite in="SourceGraphic"/>
    </filter>
  </defs>
  <g id="Grupo_1171957" data-name="Grupo 1171957" transform="translate(-171 -1057)">
    <g id="Grupo_1167337" data-name="Grupo 1167337" transform="translate(180 1063)">
      <g id="Grupo_1166720" data-name="Grupo 1166720" transform="translate(0)">
        <g id="Grupo_1164305" data-name="Grupo 1164305">
          <g id="Grupo_1163948" data-name="Grupo 1163948">
            <g id="Grupo_1158168" data-name="Grupo 1158168">
              <g id="Grupo_1152576" data-name="Grupo 1152576">
                <g id="Grupo_1148633" data-name="Grupo 1148633">
                  <g id="Grupo_1148525" data-name="Grupo 1148525">
                    <g transform="matrix(1, 0, 0, 1, -9, -6)" filter="url(#Trazado_982547)">
                      <g id="Trazado_982547-2" data-name="Trazado 982547" transform="translate(9 6)" fill="#e9f9fd">
                        <path d="M 44 86.5 C 38.26187515258789 86.5 32.69618606567383 85.37651062011719 27.45755004882812 83.16075897216797 C 22.3968505859375 81.020263671875 17.85157585144043 77.95565032958984 13.94796276092529 74.05204010009766 C 10.04434967041016 70.1484375 6.979737281799316 65.6031494140625 4.839250087738037 60.54246139526367 C 2.62348747253418 55.30381393432617 1.5 49.73812484741211 1.5 44 C 1.5 38.26187515258789 2.62348747253418 32.69618606567383 4.839250087738037 27.45755004882812 C 6.979737281799316 22.3968505859375 10.04434967041016 17.85157585144043 13.94796276092529 13.94796276092529 C 17.85157585144043 10.04434967041016 22.3968505859375 6.979737281799316 27.45755004882812 4.839250087738037 C 32.69618606567383 2.62348747253418 38.26187515258789 1.5 44 1.5 C 49.73812484741211 1.5 55.30381393432617 2.62348747253418 60.54246139526367 4.839250087738037 C 65.6031494140625 6.979737281799316 70.1484375 10.04434967041016 74.05204010009766 13.94796276092529 C 77.95565032958984 17.85157585144043 81.020263671875 22.3968505859375 83.16075897216797 27.45755004882812 C 85.37651062011719 32.69618606567383 86.5 38.26187515258789 86.5 44 C 86.5 49.73812484741211 85.37651062011719 55.30381393432617 83.16075897216797 60.54246139526367 C 81.020263671875 65.6031494140625 77.95565032958984 70.1484375 74.05204010009766 74.05204010009766 C 70.1484375 77.95565032958984 65.6031494140625 81.020263671875 60.54246139526367 83.16075897216797 C 55.30381393432617 85.37651062011719 49.73812484741211 86.5 44 86.5 Z" stroke="none"/>
                        <path d="M 44 3 C 38.46371459960938 3 33.09462738037109 4.083610534667969 28.0418701171875 6.220756530761719 C 23.15997314453125 8.285614013671875 18.77495574951172 11.24228668212891 15.00862884521484 15.00862884521484 C 11.24228668212891 18.77495574951172 8.285614013671875 23.15997314453125 6.220756530761719 28.0418701171875 C 4.083610534667969 33.09462738037109 3 38.46371459960938 3 44 C 3 49.53628540039062 4.083610534667969 54.9053840637207 6.220756530761719 59.9581298828125 C 8.285614013671875 64.84002685546875 11.24228668212891 69.22504425048828 15.00862884521484 72.99138641357422 C 18.77495574951172 76.75771331787109 23.15997314453125 79.71438598632812 28.0418701171875 81.77925872802734 C 33.09462738037109 83.9163818359375 38.46371459960938 85 44 85 C 49.53628540039062 85 54.9053840637207 83.9163818359375 59.95814514160156 81.77925872802734 C 64.84002685546875 79.71438598632812 69.22504425048828 76.75771331787109 72.99138641357422 72.99138641357422 C 76.75771331787109 69.22504425048828 79.71438598632812 64.84002685546875 81.77925872802734 59.95814514160156 C 83.9163818359375 54.9053840637207 85 49.53628540039062 85 44 C 85 38.46371459960938 83.9163818359375 33.09462738037109 81.77925872802734 28.0418701171875 C 79.71438598632812 23.15997314453125 76.75771331787109 18.77495574951172 72.99138641357422 15.00862884521484 C 69.22504425048828 11.24228668212891 64.84002685546875 8.285614013671875 59.9581298828125 6.220756530761719 C 54.9053840637207 4.083610534667969 49.53628540039062 3 44 3 M 44 0 C 68.30054473876953 0 88 19.69947052001953 88 44 C 88 68.30054473876953 68.30054473876953 88 44 88 C 19.69947052001953 88 0 68.30054473876953 0 44 C 0 19.69947052001953 19.69947052001953 0 44 0 Z" stroke="none" fill="#1d7083"/>
                      </g>
                    </g>
                  </g>
                </g>
              </g>
            </g>
          </g>
        </g>
      </g>
    </g>
    <g id="finance-money-pay-transfer-dolla" transform="translate(191.025 1079.016)">
      <path id="Trazado_1026672" data-name="Trazado 1026672" d="M3,20H35.848V39.323H3Z" transform="translate(-0.034 -0.61)" fill="#91dc5a"/>
      <path id="Trazado_1026673" data-name="Trazado 1026673" d="M42.932,15v3.065a1.932,1.932,0,0,1-.566,1.366l-.8.8A1.932,1.932,0,0,0,41,21.6V32.39a1.932,1.932,0,0,0,1.932,1.932h1.932v-5.8a3.865,3.865,0,0,0,3.865-3.865,3.865,3.865,0,0,1-3.865,3.865v12.56a1.932,1.932,0,1,0,3.865,0v1.932a1.932,1.932,0,1,0,3.865,0V41.085a1.932,1.932,0,0,0,3.865,0v-.966a1.932,1.932,0,0,0,3.865,0V21.6a1.932,1.932,0,0,0-.566-1.366l-.8-.8a1.932,1.932,0,0,1-.566-1.366V15Z" transform="translate(-1.321 -0.44)" fill="#ffbcab"/>
      <path id="Trazado_1026674" data-name="Trazado 1026674" d="M13.865,34.865V32.932a1.932,1.932,0,0,0-3.865,0V36.8h5.617a1.921,1.921,0,0,0-.386-.566Z" transform="translate(-0.271 -0.982)" fill="none"/>
      <path id="Trazado_1026675" data-name="Trazado 1026675" d="M33.052,33.627V25.9a2.9,2.9,0,0,1-2.9-2.9H8.9A2.9,2.9,0,0,1,6,25.9v7.729a2.9,2.9,0,0,1,2.9,2.9H30.153A2.9,2.9,0,0,1,33.052,33.627ZM19.526,29.763c1.6,0,2.9.865,2.9,1.932s-1.3,1.932-2.9,1.932-2.9-.87-2.9-1.932c0,1.063,1.3,1.932,2.9,1.932s2.9-.87,2.9-1.932-1.3-1.932-2.9-1.932-2.9-.865-2.9-1.932,1.3-1.932,2.9-1.932,2.9.865,2.9,1.932c0-1.068-1.3-1.932-2.9-1.932s-2.9.865-2.9,1.932S17.925,29.763,19.526,29.763Z" transform="translate(-0.135 -0.711)" fill="#5eac24"/>
      <path id="Trazado_1026676" data-name="Trazado 1026676" d="M17.865,17.932a1.932,1.932,0,1,0-3.865,0v1.932h3.865Z" transform="translate(-0.406 -0.474)" fill="#ffbcab"/>
      <path id="Trazado_1026677" data-name="Trazado 1026677" d="M21.865,19.8V15.932a1.932,1.932,0,0,0-3.865,0V19.8Z" transform="translate(-0.542 -0.406)" fill="#ffbcab"/>
      <path id="Trazado_1026678" data-name="Trazado 1026678" d="M25.865,19.865V17.932a1.932,1.932,0,1,0-3.865,0v1.932Z" transform="translate(-0.677 -0.474)" fill="#ffbcab"/>
      <path id="Trazado_1026679" data-name="Trazado 1026679" d="M29.865,19.9v-.966a1.932,1.932,0,0,0-3.865,0V19.9Z" transform="translate(-0.813 -0.508)" fill="#ffbcab"/>
      <path id="Trazado_1026680" data-name="Trazado 1026680" d="M10,49v5.8H29.323V49H10Z" transform="translate(-0.271 -1.592)" fill="#006df0"/>
      <path id="Trazado_1026681" data-name="Trazado 1026681" d="M60.323,14.8V9H41v5.8H60.323Z" transform="translate(-1.321 -0.237)" fill="#006df0"/>
      <path id="Trazado_1026682" data-name="Trazado 1026682" d="M12,55H27.458v5.8H12Z" transform="translate(-0.339 -1.795)" fill="#57a4ff"/>
      <path id="Trazado_1026683" data-name="Trazado 1026683" d="M43,3H58.458V8.8H43Z" transform="translate(-1.389 -0.034)" fill="#57a4ff"/>
      <ellipse id="Elipse_11804" data-name="Elipse 11804" cx="6.5" cy="7" rx="6.5" ry="7" transform="translate(12.975 21.984)" fill="#e6e7e8"/>
      <path id="Trazado_1026684" data-name="Trazado 1026684" d="M15.8,37.6a1.932,1.932,0,0,0-.566-1.366l-1.366-1.366V32.932a1.932,1.932,0,0,0-3.865,0v8.861a1.932,1.932,0,0,0,.566,1.366l.8.8a1.932,1.932,0,0,1,.566,1.366V48.39H27.39V45.326a1.932,1.932,0,0,1,.566-1.366l.8-.8a1.932,1.932,0,0,0,.566-1.366V39.7H15.8Z" transform="translate(-0.271 -0.982)" fill="#ffbcab"/>
      <path id="Trazado_1026685" data-name="Trazado 1026685" d="M12,55H27.458v1.932H12Z" transform="translate(-0.339 -1.795)" fill="#2488ff"/>
      <path id="Trazado_1026686" data-name="Trazado 1026686" d="M43,7H58.458V8.932H43Z" transform="translate(-1.389 -0.169)" fill="#2488ff"/>
      <g id="Grupo_1172948" data-name="Grupo 1172948" transform="translate(2 2)">
        <path id="Trazado_1026687" data-name="Trazado 1026687" d="M28.9,29H26.966a.966.966,0,0,0,0,1.932H28.9A.966.966,0,1,0,28.9,29Z" transform="translate(-2.813 -2.915)" fill="#231f20"/>
        <path id="Trazado_1026688" data-name="Trazado 1026688" d="M35.815,18.8h-5.8a2.907,2.907,0,0,0-2.9-2.9,2.842,2.842,0,0,0-1.42.386,2.882,2.882,0,0,0-2.444-1.353,2.918,2.918,0,0,0-1.082.213,2.877,2.877,0,0,0-5.565,0,2.893,2.893,0,0,0-3.98,2.686V18.8H2.966A.966.966,0,0,0,2,19.763V39.085a.966.966,0,0,0,.966.966h5.8v1.13a2.856,2.856,0,0,0,.85,2.048l.8.8a.956.956,0,0,1,.28.686v2.1H9.729a.966.966,0,0,0-.966.966v5.8a.966.966,0,0,0,.966.966H10.7v4.831a.966.966,0,0,0,.966.966H27.119a.966.966,0,0,0,.966-.966V54.544h.966a.966.966,0,0,0,.966-.966v-5.8a.966.966,0,0,0-.966-.966h-.966v-2.1a.956.956,0,0,1,.28-.686l.8-.8a2.856,2.856,0,0,0,.85-2.048v-1.13h5.8a.966.966,0,0,0,.966-.966V19.763a.966.966,0,0,0-.966-.966Zm-8.7-.966a.966.966,0,0,1,.966.966H26.153A.966.966,0,0,1,27.119,17.831Zm-4.831,0a.966.966,0,1,1,1.932,0V18.8H22.289ZM18.424,15.9a.966.966,0,0,1,1.932,0v2.9H18.424ZM14.56,17.831a.966.966,0,0,1,1.932,0V18.8H14.56Zm-5.8,14.492v1.324a3.85,3.85,0,0,0-1.932-1.2V26.4A3.873,3.873,0,0,0,9.6,23.627h8.821V24.69c-1.681.319-2.9,1.43-2.9,2.8,0,1.623,1.7,2.9,3.865,2.9,1.179,0,1.932.57,1.932.966s-.754.966-1.932.966-1.932-.57-1.932-.966a.966.966,0,0,0-1.932,0c0,1.372,1.217,2.483,2.9,2.8v1.063H15.874a3.243,3.243,0,0,0-.232-.28L14.56,33.859V32.323a2.9,2.9,0,0,0-5.8,0ZM20.356,24.69V23.627h8.821A3.873,3.873,0,0,0,31.95,26.4v6.048a3.873,3.873,0,0,0-2.773,2.773H20.356V34.158c1.681-.319,2.9-1.43,2.9-2.8,0-1.623-1.7-2.9-3.865-2.9-1.179,0-1.932-.57-1.932-.966s.754-.966,1.932-.966,1.932.57,1.932.966a.966.966,0,1,0,1.932,0c0-1.372-1.217-2.483-2.9-2.8Zm5.8,33.718H12.627V54.544H26.153Zm1.932-5.8H10.7V48.747h17.39Zm0-11.429a.956.956,0,0,1-.28.686l-.8.8a2.856,2.856,0,0,0-.85,2.048v2.1H12.627v-2.1a2.856,2.856,0,0,0-.85-2.048l-.8-.8a.956.956,0,0,1-.28-.686V32.323a.966.966,0,0,1,1.932,0v1.932a1,1,0,0,0,.28.686L14.28,36.3a.956.956,0,0,1,.28.686v2.1a.966.966,0,0,0,.966.966h12.56Zm6.763-3.063H16.492v-.966H30.018a.966.966,0,0,0,.966-.966,1.938,1.938,0,0,1,1.932-1.932.966.966,0,0,0,.966-.966V25.56a.966.966,0,0,0-.966-.966,1.938,1.938,0,0,1-1.932-1.932.966.966,0,0,0-.966-.966H8.763a.966.966,0,0,0-.966.966,1.938,1.938,0,0,1-1.932,1.932.966.966,0,0,0-.966.966v7.729a.966.966,0,0,0,.966.966A1.938,1.938,0,0,1,7.8,36.187a.966.966,0,0,0,.966.966v.966H3.932V20.729H34.848Z" transform="translate(-2 -2.373)" fill="#231f20"/>
        <path id="Trazado_1026689" data-name="Trazado 1026689" d="M60.289,15.526a.966.966,0,0,0,.966-.966v-5.8a.966.966,0,0,0-.966-.966h-.966V2.966A.966.966,0,0,0,58.356,2H42.9a.966.966,0,0,0-.966.966V7.8h-.966A.966.966,0,0,0,40,8.763v5.8a.966.966,0,0,0,.966.966h.966v2.1a.957.957,0,0,1-.28.686l-.8.8A2.856,2.856,0,0,0,40,21.158V31.95a2.907,2.907,0,0,0,2.9,2.9h.966v5.8a2.893,2.893,0,0,0,3.98,2.686,2.877,2.877,0,0,0,5.565,0,2.918,2.918,0,0,0,1.082.213,2.882,2.882,0,0,0,2.444-1.353,2.842,2.842,0,0,0,1.42.386,2.907,2.907,0,0,0,2.9-2.9V21.158a2.856,2.856,0,0,0-.85-2.048l-.8-.8a.956.956,0,0,1-.28-.686v-2.1ZM43.865,3.932H57.39V7.8H43.865ZM59.323,39.679a.966.966,0,0,1-1.932,0V32.916a.966.966,0,0,0-1.932,0v7.729a.966.966,0,0,1-1.932,0V32.916a.966.966,0,0,0-1.932,0v9.661a.966.966,0,1,1-1.932,0V32.916a.966.966,0,1,0-1.932,0v7.729a.966.966,0,0,1-1.932,0V28.955a4.839,4.839,0,0,0,3.865-4.734v-.966a.966.966,0,0,0-1.932,0v.966a2.907,2.907,0,0,1-2.9,2.9.966.966,0,0,0-.966.966v4.831H42.9a.966.966,0,0,1-.966-.966V21.158a.956.956,0,0,1,.28-.686l.8-.8a2.856,2.856,0,0,0,.85-2.048v-2.1H57.39v2.1a2.856,2.856,0,0,0,.85,2.048l.8.8a.957.957,0,0,1,.28.686ZM41.932,13.594V9.729h17.39v3.865Z" transform="translate(-3.287 -2)" fill="#231f20"/>
        <path id="Trazado_1026690" data-name="Trazado 1026690" d="M19.966,8.865a.966.966,0,0,0,.966-.966V5.966a.966.966,0,0,0-1.932,0V7.9A.966.966,0,0,0,19.966,8.865Z" transform="translate(-2.576 -2.102)" fill="#231f20"/>
        <path id="Trazado_1026691" data-name="Trazado 1026691" d="M14.6,9.6a.966.966,0,1,0,1.673-.966L15.3,6.957a.966.966,0,1,0-1.673.966Z" transform="translate(-2.39 -2.152)" fill="#231f20"/>
        <path id="Trazado_1026692" data-name="Trazado 1026692" d="M9.957,12.3l1.673.966A.966.966,0,1,0,12.6,11.6l-1.673-.966A.966.966,0,1,0,9.957,12.3Z" transform="translate(-2.253 -2.288)" fill="#231f20"/>
        <path id="Trazado_1026693" data-name="Trazado 1026693" d="M23.983,9.95A.966.966,0,0,0,25.3,9.6l.966-1.673A.966.966,0,1,0,24.6,6.957L23.629,8.63a.966.966,0,0,0,.354,1.32Z" transform="translate(-2.728 -2.152)" fill="#231f20"/>
        <path id="Trazado_1026694" data-name="Trazado 1026694" d="M27.766,13.4a.958.958,0,0,0,.483-.129l1.673-.966a.966.966,0,1,0-.966-1.673l-1.673.966a.966.966,0,0,0,.483,1.8Z" transform="translate(-2.84 -2.288)" fill="#231f20"/>
        <path id="Trazado_1026695" data-name="Trazado 1026695" d="M51.966,51a.966.966,0,0,0-.966.966V53.9a.966.966,0,0,0,1.932,0V51.966A.966.966,0,0,0,51.966,51Z" transform="translate(-3.66 -3.66)" fill="#231f20"/>
        <path id="Trazado_1026696" data-name="Trazado 1026696" d="M47.915,49.923a.966.966,0,0,0-1.32.354l-.966,1.673a.966.966,0,1,0,1.673.966l.966-1.673a.966.966,0,0,0-.354-1.32Z" transform="translate(-3.473 -3.619)" fill="#231f20"/>
        <path id="Trazado_1026697" data-name="Trazado 1026697" d="M43.63,46.629l-1.673.966a.966.966,0,1,0,.966,1.673L44.6,48.3a.966.966,0,1,0-.966-1.673Z" transform="translate(-3.337 -3.507)" fill="#231f20"/>
        <path id="Trazado_1026698" data-name="Trazado 1026698" d="M57.3,50.277a.966.966,0,1,0-1.673.966l.966,1.673a.966.966,0,1,0,1.673-.966Z" transform="translate(-3.812 -3.619)" fill="#231f20"/>
        <path id="Trazado_1026699" data-name="Trazado 1026699" d="M61.917,47.6l-1.673-.966a.966.966,0,1,0-.966,1.673l1.673.966a.966.966,0,1,0,.966-1.673Z" transform="translate(-3.924 -3.507)" fill="#231f20"/>
      </g>
    </g>
  </g>
</svg>
