<svg xmlns="http://www.w3.org/2000/svg" xmlns:xlink="http://www.w3.org/1999/xlink" width="108" height="108" viewBox="0 0 108 108">
  <defs>
    <filter id="Trazado_904820" x="0" y="0" width="108" height="108" filterUnits="userSpaceOnUse">
      <feOffset dy="3" input="SourceAlpha"/>
      <feGaussianBlur stdDeviation="3" result="blur"/>
      <feFlood flood-opacity="0.161"/>
      <feComposite operator="in" in2="blur"/>
      <feComposite in="SourceGraphic"/>
    </filter>
  </defs>
  <g id="Grupo_1173059" data-name="Grupo 1173059" transform="translate(-200 -524)">
    <g id="Grupo_1171993" data-name="Grupo 1171993" transform="translate(209 530)">
      <g id="Grupo_1167341" data-name="Grupo 1167341" transform="translate(0)">
        <g id="Grupo_1166792" data-name="Grupo 1166792">
          <g transform="matrix(1, 0, 0, 1, -9, -6)" filter="url(#Trazado_904820)">
            <g id="Trazado_904820-2" data-name="Trazado 904820" transform="translate(9 6)" fill="#fff4e6">
              <path d="M 44.99999618530273 88.50003051757812 C 39.12687301635742 88.50003051757812 33.43022155761719 87.35010528564453 28.06829643249512 85.08219909667969 C 22.88852119445801 82.89134216308594 18.23629570007324 79.75461578369141 14.24084663391113 75.75916290283203 C 10.24540901184082 71.76371765136719 7.108683586120605 67.11150360107422 4.917821407318115 61.93172836303711 C 2.649921178817749 56.56978988647461 1.499996185302734 50.87313842773438 1.499996185302734 45.00001525878906 C 1.499996185302734 39.12689208984375 2.649921178817749 33.43024063110352 4.917821407318115 28.06830215454102 C 7.108683586120605 22.88852691650391 10.24540901184082 18.23631477355957 14.24084663391113 14.24086570739746 C 18.23629570007324 10.24541568756104 22.88852119445801 7.10869026184082 28.06829643249512 4.917827606201172 C 33.43022155761719 2.649927854537964 39.12687301635742 1.50000274181366 44.99999618530273 1.50000274181366 C 50.87311935424805 1.50000274181366 56.56977081298828 2.649927854537964 61.93169784545898 4.917827606201172 C 67.11147308349609 7.10869026184082 71.76369476318359 10.24541568756104 75.75914764404297 14.24086570739746 C 79.75458526611328 18.23631477355957 82.89131164550781 22.88852691650391 85.08216857910156 28.06830215454102 C 87.35007476806641 33.43024063110352 88.5 39.12689208984375 88.5 45.00001525878906 C 88.5 50.87313842773438 87.35007476806641 56.56978988647461 85.08216857910156 61.93172836303711 C 82.89131164550781 67.11150360107422 79.75458526611328 71.76371765136719 75.75914764404297 75.75916290283203 C 71.76369476318359 79.75461578369141 67.11147308349609 82.89134216308594 61.93169784545898 85.08219909667969 C 56.56977081298828 87.35010528564453 50.87311935424805 88.50003051757812 44.99999618530273 88.50003051757812 Z" stroke="none"/>
              <path d="M 44.99999618530273 3 C 39.32870864868164 3 33.82865142822266 4.110061645507812 28.65262603759766 6.299346923828125 C 23.65165710449219 8.414573669433594 19.15968322753906 11.44334411621094 15.301513671875 15.301513671875 C 11.44333648681641 19.15968322753906 8.414566040039062 23.65165710449219 6.299339294433594 28.65262985229492 C 4.110054016113281 33.82867050170898 2.999992370605469 39.32872772216797 2.999992370605469 45.00001525878906 C 2.999992370605469 50.67130279541016 4.110054016113281 56.17136001586914 6.299339294433594 61.34738922119141 C 8.414566040039062 66.34837341308594 11.44333648681641 70.84033203125 15.301513671875 74.69850158691406 C 19.15968322753906 78.55668640136719 23.65165710449219 81.58545684814453 28.65262603759766 83.70068359375 C 33.82865142822266 85.88996887207031 39.32870864868164 87.00003051757812 44.99999618530273 87.00003051757812 C 50.67128372192383 87.00003051757812 56.17134094238281 85.88996887207031 61.34736633300781 83.70068359375 C 66.34834289550781 81.58545684814453 70.84030914306641 78.55668640136719 74.69847869873047 74.69850158691406 C 78.55665588378906 70.84033203125 81.58542633056641 66.34837341308594 83.70065307617188 61.34738922119141 C 85.88993835449219 56.17136001586914 87 50.67130279541016 87 45.00001525878906 C 87 39.32872772216797 85.88993835449219 33.82867050170898 83.70065307617188 28.65262985229492 C 81.58542633056641 23.65165710449219 78.55665588378906 19.15968322753906 74.69847869873047 15.301513671875 C 70.84030914306641 11.44334411621094 66.34834289550781 8.414573669433594 61.34736633300781 6.299346923828125 C 56.17134094238281 4.110061645507812 50.67128372192383 3 44.99999618530273 3 M 44.99999618530273 0 C 69.85281372070312 0 90 20.14718627929688 90 45.00001525878906 C 90 69.85282897949219 69.85281372070312 90.00003051757812 44.99999618530273 90.00003051757812 C 20.14717864990234 90.00003051757812 -7.62939453125e-06 69.85282897949219 -7.62939453125e-06 45.00001525878906 C -7.62939453125e-06 20.14718627929688 20.14717864990234 0 44.99999618530273 0 Z" stroke="none" fill="#ff9d1c"/>
            </g>
          </g>
        </g>
      </g>
    </g>
    <g id="custodian_17640318_1_" data-name="custodian_17640318 (1)" transform="translate(216.654 537.634)">
      <g id="Grupo_1173058" data-name="Grupo 1173058" transform="translate(8.813 8.837)">
        <g id="Grupo_1173053" data-name="Grupo 1173053" transform="translate(0 15.43)">
          <path id="Trazado_1026887" data-name="Trazado 1026887" d="M23.84,144.817a8.839,8.839,0,1,1-8.84,8.84A8.84,8.84,0,0,1,23.84,144.817Z" transform="translate(-15 -144.817)" fill="#fdcd56" fill-rule="evenodd"/>
        </g>
        <g id="Grupo_1173054" data-name="Grupo 1173054" transform="translate(39.386 24.269)">
          <path id="Trazado_1026888" data-name="Trazado 1026888" d="M355.131,219.167a8.839,8.839,0,1,1-8.84,8.84A8.84,8.84,0,0,1,355.131,219.167Z" transform="translate(-346.291 -219.167)" fill="#fdcd56" fill-rule="evenodd"/>
        </g>
        <g id="Grupo_1173055" data-name="Grupo 1173055" transform="translate(15.433 15.43)">
          <path id="Trazado_1026889" data-name="Trazado 1026889" d="M157.911,144.817a13.1,13.1,0,1,1-13.1,13.1h0A13.1,13.1,0,0,1,157.911,144.817Z" transform="translate(-144.811 -144.817)" fill="#f4f6f8" fill-rule="evenodd"/>
          <path id="Trazado_1026890" data-name="Trazado 1026890" d="M186.337,281.438a10.071,10.071,0,0,0-9.265,6.119,13.1,13.1,0,0,0,18.529,0A10.069,10.069,0,0,0,186.337,281.438Z" transform="translate(-173.237 -265.195)" fill="#66d4f1" fill-rule="evenodd"/>
          <path id="Trazado_1026891" data-name="Trazado 1026891" d="M215.867,185.247a4.653,4.653,0,1,0,4.652-4.654A4.652,4.652,0,0,0,215.867,185.247Z" transform="translate(-207.419 -176.34)" fill="#d5a889" fill-rule="evenodd"/>
        </g>
        <g id="Grupo_1173056" data-name="Grupo 1173056" transform="translate(0 39.704)">
          <path id="Trazado_1026892" data-name="Trazado 1026892" d="M44.609,350.322c-2.765,1.356-5.558,2.656-8.34,3.974l3.928,9.411,5.777-2.813a3.473,3.473,0,0,1,2.579-.222l6.129,1.775c1.943.561,4.347-.472,6.155-1.17l11.494-4.438c3.027-1.17,3.757-7.246-3.393-5.146l-8.2,2.408a2.608,2.608,0,0,0-1.84-1.833l-5.556-1.486C49.553,348.1,47.626,348.843,44.609,350.322Z" transform="translate(-33.74 -348.99)" fill="#efc7a4" fill-rule="evenodd"/>
          <path id="Trazado_1026893" data-name="Trazado 1026893" d="M149.4,378.8l-12.424-3.319a2.612,2.612,0,0,0,1.847,3.191l7.383,1.975A2.619,2.619,0,0,0,149.4,378.8Z" transform="translate(-122.397 -372.332)" fill="#d5a889" fill-rule="evenodd"/>
          <path id="Trazado_1026894" data-name="Trazado 1026894" d="M24.676,377.182l-2.948,1.223a1.26,1.26,0,0,1-1.642-.677Q17.594,371.74,15.1,365.75a1.25,1.25,0,0,1,.679-1.645l2.945-1.223a1.26,1.26,0,0,1,1.642.677q2.5,5.989,4.987,11.978A1.251,1.251,0,0,1,24.676,377.182Z" transform="translate(-15 -361.146)" fill="#e4e8eb"/>
        </g>
        <g id="Grupo_1173057" data-name="Grupo 1173057" transform="translate(16.288 0)">
          <path id="Trazado_1026895" data-name="Trazado 1026895" d="M181.91,50.612c2.765-1.356,5.558-2.656,8.34-3.974l-3.928-9.411-5.777,2.813a3.473,3.473,0,0,1-2.579.222l-6.129-1.775c-1.943-.561-4.347.472-6.155,1.17L154.187,44.1c-3.027,1.17-3.757,7.246,3.393,5.146l8.2-2.408a2.608,2.608,0,0,0,1.84,1.833l5.556,1.486C176.966,52.832,178.892,52.09,181.91,50.612Z" transform="translate(-152 -34.588)" fill="#efc7a4" fill-rule="evenodd"/>
          <path id="Trazado_1026896" data-name="Trazado 1026896" d="M267.867,92.267l12.424,3.319a2.612,2.612,0,0,0-1.847-3.191L271.06,90.42A2.618,2.618,0,0,0,267.867,92.267Z" transform="translate(-254.092 -81.38)" fill="#d5a889" fill-rule="evenodd"/>
          <path id="Trazado_1026897" data-name="Trazado 1026897" d="M407.863,16.35l2.948-1.223a1.26,1.26,0,0,1,1.642.677q2.492,5.989,4.987,11.978a1.25,1.25,0,0,1-.679,1.645l-2.945,1.223a1.26,1.26,0,0,1-1.642-.677q-2.5-5.989-4.987-11.978a1.251,1.251,0,0,1,.677-1.645Z" transform="translate(-376.761 -15.031)" fill="#e4e8eb"/>
        </g>
      </g>
      <path id="Trazado_1026898" data-name="Trazado 1026898" d="M19.688,62.021l.248.6h0a2.034,2.034,0,0,1,0,1.6v0a2.037,2.037,0,0,1-1.129,1.129h0l-2.945,1.221a2.092,2.092,0,0,1-2.73-1.126q-2.492-5.988-4.985-11.973a2.087,2.087,0,0,1,1.123-2.736l2.948-1.224a2.094,2.094,0,0,1,2.73,1.125h0l.2.48q2.091-.989,4.171-2c1.983-.97,3.548-1.606,5.369-1.359a9.408,9.408,0,0,1,4.085,1.809l5.413,1.45a3.431,3.431,0,0,1,2.1,1.634l7.49-2.2c3.375-.99,5.237-.236,6.057.873a3.3,3.3,0,0,1,.5,2.69,4.461,4.461,0,0,1-2.63,3.16L36.2,61.609c-1.96.754-4.582,1.8-6.686,1.186l-6.126-1.777h0a2.665,2.665,0,0,0-1.984.168ZM18.4,63.255,13.413,51.28a.426.426,0,0,0-.555-.229L9.911,52.274a.413.413,0,0,0-.23.231.4.4,0,0,0,0,.32v0q2.493,5.989,4.987,11.978h0a.423.423,0,0,0,.553.227l2.943-1.22h0a.423.423,0,0,0,.23-.558Zm.649-2.774,1.629-.793a4.27,4.27,0,0,1,3.178-.27L29.981,61.2a5.177,5.177,0,0,0,2.689-.116A26.741,26.741,0,0,0,35.6,60.055l11.5-4.431a2.746,2.746,0,0,0,1.6-1.959,1.65,1.65,0,0,0-.209-1.348,1.785,1.785,0,0,0-1.223-.624,7.2,7.2,0,0,0-3.028.358l-7.512,2.2a3.406,3.406,0,0,1-.115.974,3.448,3.448,0,0,1-4.213,2.431l-7.383-1.977a.832.832,0,0,1,.431-1.608l7.383,1.977h0a1.774,1.774,0,1,0,.917-3.428L28.2,51.136a.831.831,0,0,1-.266-.125,8,8,0,0,0-3.468-1.6c-1.5-.2-2.776.4-4.414,1.205q-2.124,1.039-4.262,2.044l3.258,7.824ZM59.542,23.614q-2.091.989-4.171,2c-1.983.97-3.548,1.606-5.369,1.359a9.408,9.408,0,0,1-4.085-1.809l-5.413-1.45a3.431,3.431,0,0,1-2.1-1.634l-7.49,2.2c-3.375.99-5.237.236-6.057-.873a3.3,3.3,0,0,1-.5-2.69,4.461,4.461,0,0,1,2.63-3.16l11.5-4.431c1.96-.754,4.582-1.8,6.686-1.186L51.3,13.715h0a2.665,2.665,0,0,0,1.984-.168L55,12.711l-.248-.6h0a2.034,2.034,0,0,1,0-1.6v0a2.037,2.037,0,0,1,1.129-1.129h0l2.945-1.221a2.092,2.092,0,0,1,2.73,1.126q2.492,5.988,4.985,11.973A2.087,2.087,0,0,1,65.42,24l-2.948,1.224a2.094,2.094,0,0,1-2.73-1.125h0l-.2-.48Zm-3.9-9.363-1.629.793a4.27,4.27,0,0,1-3.178.27L44.71,13.536a5.177,5.177,0,0,0-2.689.116,26.74,26.74,0,0,0-2.935,1.024l-11.5,4.431a2.746,2.746,0,0,0-1.6,1.959,1.65,1.65,0,0,0,.209,1.348,1.785,1.785,0,0,0,1.223.624,7.2,7.2,0,0,0,3.028-.358l7.512-2.2a3.406,3.406,0,0,1,.115-.974,3.448,3.448,0,0,1,4.213-2.431l7.383,1.977a.832.832,0,0,1-.431,1.608L41.854,18.68h0a1.774,1.774,0,1,0-.917,3.428L46.491,23.6a.83.83,0,0,1,.266.125,8,8,0,0,0,3.468,1.6c1.5.2,2.776-.4,4.414-1.205q2.124-1.039,4.262-2.044l-3.258-7.824Zm.649-2.774,4.986,11.975a.426.426,0,0,0,.555.229l2.947-1.223a.413.413,0,0,0,.23-.231.4.4,0,0,0,0-.32v0q-2.493-5.989-4.987-11.978h0a.423.423,0,0,0-.553-.227l-2.943,1.22h0a.423.423,0,0,0-.23.558Zm-32.5,29.106a9.671,9.671,0,1,1,2.544-11.749,13.935,13.935,0,0,1,24.634,5.584,9.67,9.67,0,1,1-2.7,11.6,13.935,13.935,0,0,1-24.477-5.437Zm1.436-10.09a8.009,8.009,0,1,0-1.755,8.116q-.052-.588-.054-1.189c0-.017,0-.035,0-.053A13.868,13.868,0,0,1,25.224,30.493Zm26.022,5.924q.032.471.032.95A13.865,13.865,0,0,1,49.4,44.356a8.01,8.01,0,1,0,1.846-7.939Zm-26.168.95h0a12.216,12.216,0,0,0,2.8,7.8,10.9,10.9,0,0,1,18.933,0,12.268,12.268,0,1,0-21.735-7.8ZM31.4,48.1A12.276,12.276,0,0,0,45.6,46.437a9.241,9.241,0,0,0-16.518,0A12.3,12.3,0,0,0,31.4,48.1Zm.464-14.923a5.485,5.485,0,1,1,5.485,5.485,5.485,5.485,0,0,1-5.485-5.485Zm1.664,0a3.821,3.821,0,1,0,3.82-3.822,3.82,3.82,0,0,0-3.82,3.822Zm22.666,4.2-.011-.455a.832.832,0,0,1,1.664-.04l.012.515a4.372,4.372,0,0,1,.846.335,2.631,2.631,0,0,1,.959.806.832.832,0,1,1-1.391.914.94.94,0,0,0-.346-.249,2.169,2.169,0,0,0-.887-.273,1.129,1.129,0,1,0,0,2.217,2.9,2.9,0,0,1,3.006,2.773,2.822,2.822,0,0,1-2.157,2.661l.009.384a.832.832,0,1,1-1.664.041l-.01-.4a3.464,3.464,0,0,1-1.574-.97.832.832,0,1,1,1.141-1.211,1.653,1.653,0,0,0,1.248.608,1.129,1.129,0,1,0,0-2.217,2.9,2.9,0,0,1-3.006-2.773A2.821,2.821,0,0,1,56.192,37.379ZM16.805,28.539l-.011-.455a.832.832,0,0,1,1.664-.04l.012.515a4.372,4.372,0,0,1,.846.335,2.631,2.631,0,0,1,.959.806.832.832,0,1,1-1.391.914.94.94,0,0,0-.346-.249,2.169,2.169,0,0,0-.887-.273,1.129,1.129,0,1,0,0,2.217,2.9,2.9,0,0,1,3.006,2.773A2.823,2.823,0,0,1,18.5,37.744l.009.384a.832.832,0,1,1-1.664.041l-.01-.4a3.464,3.464,0,0,1-1.574-.97A.832.832,0,0,1,16.4,35.584a1.653,1.653,0,0,0,1.248.608,1.129,1.129,0,1,0,0-2.217A2.9,2.9,0,0,1,14.646,31.2a2.821,2.821,0,0,1,2.159-2.662Z" transform="translate(0)" fill-rule="evenodd"/>
    </g>
  </g>
</svg>
