<svg xmlns="http://www.w3.org/2000/svg" xmlns:xlink="http://www.w3.org/1999/xlink" width="108" height="108" viewBox="0 0 108 108">
  <defs>
    <filter id="Trazado_904820" x="0" y="0" width="108" height="108" filterUnits="userSpaceOnUse">
      <feOffset dy="3" input="SourceAlpha"/>
      <feGaussianBlur stdDeviation="3" result="blur"/>
      <feFlood flood-opacity="0.161"/>
      <feComposite operator="in" in2="blur"/>
      <feComposite in="SourceGraphic"/>
    </filter>
  </defs>
  <g id="Grupo_1172952" data-name="Grupo 1172952" transform="translate(-201 -7581.052)">
    <g id="Grupo_1171958" data-name="Grupo 1171958" transform="translate(210 7587.052)">
      <g id="Grupo_1167341" data-name="Grupo 1167341" transform="translate(0 0)">
        <g id="Grupo_1166792" data-name="Grupo 1166792">
          <g transform="matrix(1, 0, 0, 1, -9, -6)" filter="url(#Trazado_904820)">
            <g id="Trazado_904820-2" data-name="Trazado 904820" transform="translate(9 6)" fill="#f2f7e5">
              <path d="M 44.99999618530273 88.49999237060547 C 39.12687301635742 88.49999237060547 33.43022155761719 87.35006713867188 28.06829643249512 85.08216857910156 C 22.88852119445801 82.89130401611328 18.23629570007324 79.75457763671875 14.24084663391113 75.75914001464844 C 10.24540901184082 71.76369476318359 7.108683586120605 67.11146545410156 4.917821407318115 61.93169403076172 C 2.649921178817749 56.56976699829102 1.499996185302734 50.87311553955078 1.499996185302734 44.99999237060547 C 1.499996185302734 39.12686920166016 2.649921178817749 33.43021774291992 4.917821407318115 28.06829261779785 C 7.108683586120605 22.88851737976074 10.24540901184082 18.23630523681641 14.24084663391113 14.24085521697998 C 18.23629570007324 10.24540519714355 22.88852119445801 7.108692169189453 28.06829643249512 4.917829990386963 C 33.43022155761719 2.649929761886597 39.12687301635742 1.500004887580872 44.99999618530273 1.500004887580872 C 50.87311935424805 1.500004887580872 56.56977081298828 2.649929761886597 61.93169784545898 4.917829990386963 C 67.11147308349609 7.108692169189453 71.76369476318359 10.24540519714355 75.75914764404297 14.24085521697998 C 79.75458526611328 18.23630523681641 82.89131164550781 22.88851737976074 85.08216857910156 28.06829261779785 C 87.35007476806641 33.43021774291992 88.5 39.12686920166016 88.5 44.99999237060547 C 88.5 50.87311553955078 87.35007476806641 56.56976699829102 85.08216857910156 61.93169403076172 C 82.89131164550781 67.11146545410156 79.75458526611328 71.76369476318359 75.75914764404297 75.75914001464844 C 71.76369476318359 79.75457763671875 67.11147308349609 82.89130401611328 61.93169784545898 85.08216857910156 C 56.56977081298828 87.35006713867188 50.87311935424805 88.49999237060547 44.99999618530273 88.49999237060547 Z" stroke="none"/>
              <path d="M 44.99999618530273 2.999992370605469 C 39.32870864868164 2.999992370605469 33.82865142822266 4.11004638671875 28.65262603759766 6.299331665039062 C 23.65165710449219 8.414566040039062 19.15968322753906 11.44333648681641 15.301513671875 15.30150604248047 C 11.44333648681641 19.15967559814453 8.414566040039062 23.65164947509766 6.299339294433594 28.65262222290039 C 4.110054016113281 33.82864761352539 2.999992370605469 39.32870483398438 2.999992370605469 44.99999237060547 C 2.999992370605469 50.67127990722656 4.110054016113281 56.17132186889648 6.299339294433594 61.34736633300781 C 8.414566040039062 66.34833526611328 11.44333648681641 70.84029388427734 15.301513671875 74.69846343994141 C 19.15968322753906 78.55663299560547 23.65165710449219 81.58540344238281 28.65262603759766 83.70063781738281 C 33.82865142822266 85.88992309570312 39.32870864868164 86.99997711181641 44.99999618530273 86.99997711181641 C 50.67128372192383 86.99997711181641 56.17134094238281 85.88992309570312 61.34736633300781 83.70063781738281 C 66.34834289550781 81.58540344238281 70.84030914306641 78.55663299560547 74.69847869873047 74.69846343994141 C 78.55665588378906 70.84029388427734 81.58542633056641 66.34833526611328 83.70065307617188 61.34736633300781 C 85.88993835449219 56.17132186889648 87 50.67127990722656 87 44.99999237060547 C 87 39.32870483398438 85.88993835449219 33.82864761352539 83.70065307617188 28.65262222290039 C 81.58542633056641 23.65164947509766 78.55665588378906 19.15967559814453 74.69847869873047 15.30150604248047 C 70.84030914306641 11.44333648681641 66.34834289550781 8.414566040039062 61.34736633300781 6.299331665039062 C 56.17134094238281 4.11004638671875 50.67128372192383 2.999992370605469 44.99999618530273 2.999992370605469 M 44.99999618530273 -7.62939453125e-06 C 69.85281372070312 -7.62939453125e-06 90 20.14717864990234 90 44.99999237060547 C 90 69.85279083251953 69.85281372070312 89.99997711181641 44.99999618530273 89.99997711181641 C 20.14717864990234 89.99997711181641 -7.62939453125e-06 69.85279083251953 -7.62939453125e-06 44.99999237060547 C -7.62939453125e-06 20.14717864990234 20.14717864990234 -7.62939453125e-06 44.99999618530273 -7.62939453125e-06 Z" stroke="none" fill="#86b60c"/>
            </g>
          </g>
        </g>
      </g>
    </g>
    <g id="money_7078306" transform="translate(220.144 7569.702)">
      <g id="Grupo_1172960" data-name="Grupo 1172960" transform="translate(7.5 42.75)">
        <g id="Grupo_1172955" data-name="Grupo 1172955" transform="translate(0 0)">
          <path id="Trazado_1026715" data-name="Trazado 1026715" d="M63.113,45.915l-1.7-3.165H22.335c0,1.1-.768,1.654-1.376,2.477-.669.906-1.232,2.039-2.355,2.325V61.176L20.958,63.5l1.376,2.477H65.267a1.1,1.1,0,0,0,1.1-1.1V47.7Z" transform="translate(-17.381 -42.75)" fill="#98db7c"/>
          <path id="Trazado_1026716" data-name="Trazado 1026716" d="M12.454,213.7H9.7l-.826-.344a1.1,1.1,0,0,1-1.1-1.1L7.5,208.75A4.954,4.954,0,0,1,12.454,213.7Z" transform="translate(-7.5 -190.476)" fill="#b8eb7c"/>
          <g id="Grupo_1172954" data-name="Grupo 1172954" transform="translate(3.578 3.477)">
            <path id="Trazado_1026717" data-name="Trazado 1026717" d="M81.771,78.27a8.289,8.289,0,0,1-3.82-3.874.109.109,0,0,0-.1-.063H43.98a.109.109,0,0,0-.1.063,8.289,8.289,0,0,1-3.82,3.874.109.109,0,0,0-.061.1v8.206a.109.109,0,0,0,.061.1,8.288,8.288,0,0,1,3.82,3.874.109.109,0,0,0,.1.063H77.852a.109.109,0,0,0,.1-.063,8.289,8.289,0,0,1,3.82-3.874.109.109,0,0,0,.061-.1V78.368A.109.109,0,0,0,81.771,78.27Z" transform="translate(-40 -74.334)" fill="#8dce6f"/>
          </g>
          <path id="Trazado_1026718" data-name="Trazado 1026718" d="M12.454,42.75A4.954,4.954,0,0,1,7.5,47.7l.352-3.644a1.1,1.1,0,0,1,1.1-1.1L9.7,42.75Z" transform="translate(-7.5 -42.75)" fill="#b8eb7c"/>
          <path id="Trazado_1026719" data-name="Trazado 1026719" d="M412.454,43.851V47.7A4.954,4.954,0,0,1,407.5,42.75h3.853A1.1,1.1,0,0,1,412.454,43.851Z" transform="translate(-363.466 -42.75)" fill="#b8eb7c"/>
          <ellipse id="Elipse_11805" data-name="Elipse 11805" cx="8.256" cy="11.614" rx="8.256" ry="11.614" transform="translate(16.237)" fill="#b8eb7c"/>
          <path id="Trazado_1026720" data-name="Trazado 1026720" d="M9.7,79.974V94.324c-.31-.154-1.1.321-1.1.321l-1.1-.836V80.489l.974-.9Z" transform="translate(-7.5 -75.535)" fill="#8dce6f"/>
          <path id="Trazado_1026721" data-name="Trazado 1026721" d="M9.7,209.265V213.7H8.6a1.1,1.1,0,0,1-1.1-1.1V208.75A4.928,4.928,0,0,1,9.7,209.265Z" transform="translate(-7.5 -190.476)" fill="#98db7c"/>
          <path id="Trazado_1026722" data-name="Trazado 1026722" d="M9.7,42.75v4.439a4.928,4.928,0,0,1-2.2.515V43.851a1.1,1.1,0,0,1,1.1-1.1Z" transform="translate(-7.5 -42.75)" fill="#98db7c"/>
        </g>
        <g id="Grupo_1172957" data-name="Grupo 1172957" transform="translate(3.578 7.486)">
          <path id="Trazado_1026723" data-name="Trazado 1026723" d="M95.613,113.915l-1.7-3.165H54.835c0,1.1-.768,1.654-1.376,2.477-.669.906-1.232,2.039-2.355,2.325v13.625l2.355,2.325,1.376,2.477H97.767a1.1,1.1,0,0,0,1.1-1.1V115.7Z" transform="translate(-49.881 -110.75)" fill="#98db7c"/>
          <path id="Trazado_1026724" data-name="Trazado 1026724" d="M44.954,281.7H42.2l-.826-.344a1.1,1.1,0,0,1-1.1-1.1L40,276.75A4.954,4.954,0,0,1,44.954,281.7Z" transform="translate(-40 -258.476)" fill="#b8eb7c"/>
          <g id="Grupo_1172956" data-name="Grupo 1172956" transform="translate(3.578 3.477)">
            <path id="Trazado_1026725" data-name="Trazado 1026725" d="M114.271,146.27a8.289,8.289,0,0,1-3.82-3.874.109.109,0,0,0-.1-.063H76.48a.109.109,0,0,0-.1.063,8.289,8.289,0,0,1-3.82,3.874.109.109,0,0,0-.061.1v8.206a.109.109,0,0,0,.061.1,8.288,8.288,0,0,1,3.82,3.874.109.109,0,0,0,.1.063h33.872a.109.109,0,0,0,.1-.063,8.289,8.289,0,0,1,3.82-3.874.109.109,0,0,0,.061-.1v-8.206A.109.109,0,0,0,114.271,146.27Z" transform="translate(-72.5 -142.334)" fill="#8dce6f"/>
          </g>
          <path id="Trazado_1026726" data-name="Trazado 1026726" d="M44.954,110.75A4.954,4.954,0,0,1,40,115.7l.352-3.644a1.1,1.1,0,0,1,1.1-1.1l.749-.209Z" transform="translate(-40 -110.75)" fill="#b8eb7c"/>
          <path id="Trazado_1026727" data-name="Trazado 1026727" d="M444.954,111.851V115.7A4.954,4.954,0,0,1,440,110.75h3.853A1.1,1.1,0,0,1,444.954,111.851Z" transform="translate(-395.966 -110.75)" fill="#b8eb7c"/>
          <circle id="Elipse_11806" data-name="Elipse 11806" cx="1.651" cy="1.651" r="1.651" transform="translate(36.493 9.963)" fill="#98db7c"/>
          <circle id="Elipse_11807" data-name="Elipse 11807" cx="1.651" cy="1.651" r="1.651" transform="translate(9.192 9.963)" fill="#98db7c"/>
          <ellipse id="Elipse_11808" data-name="Elipse 11808" cx="8.256" cy="11.614" rx="8.256" ry="11.614" transform="translate(16.237)" fill="#b8eb7c"/>
          <path id="Trazado_1026728" data-name="Trazado 1026728" d="M42.2,147.974v14.351c-.31-.154-1.1.321-1.1.321l-1.1-.836v-13.32l.974-.9Z" transform="translate(-40 -143.535)" fill="#8dce6f"/>
          <path id="Trazado_1026729" data-name="Trazado 1026729" d="M42.2,277.265V281.7H41.1a1.1,1.1,0,0,1-1.1-1.1V276.75A4.928,4.928,0,0,1,42.2,277.265Z" transform="translate(-40 -258.476)" fill="#98db7c"/>
          <path id="Trazado_1026730" data-name="Trazado 1026730" d="M42.2,110.75v4.439a4.928,4.928,0,0,1-2.2.515v-3.853a1.1,1.1,0,0,1,1.1-1.1Z" transform="translate(-40 -110.75)" fill="#98db7c"/>
        </g>
        <g id="Grupo_1172958" data-name="Grupo 1172958" transform="translate(33.796 23.833)">
          <path id="Trazado_1026731" data-name="Trazado 1026731" d="M339.662,269.708a10.418,10.418,0,0,1-.941,4.339s-1.364,1.6-1.365,1.6a10.105,10.105,0,1,1-14.7-13.741c.009-.008.128-.17.138-.177.181-.149.151-.395.342-.531a10.458,10.458,0,0,1,16.53,8.514Z" transform="translate(-318.746 -259.25)" fill="#fee45a"/>
          <path id="Trazado_1026732" data-name="Trazado 1026732" d="M334.475,289.767a10.4,10.4,0,0,1-1.063,1.817,0,0,0,0,1,0,0,10.458,10.458,0,1,1-15.113-14.22l.028-.024c.182-.149.368-.292.559-.427a10.46,10.46,0,0,0,15.589,12.853Z" transform="translate(-314.5 -274.97)" fill="#f9d938"/>
          <path id="Trazado_1026733" data-name="Trazado 1026733" d="M349.041,280.794l-.028.024.006-.007Z" transform="translate(-345.214 -278.422)" fill="#fec165"/>
          <path id="Trazado_1026734" data-name="Trazado 1026734" d="M360.368,295.72A7.237,7.237,0,0,1,356.735,302a7.987,7.987,0,0,1-3.554.56,6.656,6.656,0,0,1-6.939-6.839,7.065,7.065,0,1,1,14.126,0Z" transform="translate(-342.67 -285.262)" fill="#f9d938"/>
        </g>
        <g id="Grupo_1172959" data-name="Grupo 1172959" transform="translate(25.484 26.035)">
          <path id="Trazado_1026735" data-name="Trazado 1026735" d="M264.162,289.708a10.418,10.418,0,0,1-.941,4.339s-1.364,1.6-1.365,1.6a10.105,10.105,0,1,1-14.7-13.741c.009-.008.128-.17.138-.177.181-.149.151-.395.342-.531a10.458,10.458,0,0,1,16.53,8.514Z" transform="translate(-243.246 -279.25)" fill="#ffef92"/>
          <path id="Trazado_1026736" data-name="Trazado 1026736" d="M258.975,309.768a10.4,10.4,0,0,1-1.062,1.817h0A10.458,10.458,0,1,1,242.8,297.366l.028-.024c.182-.149.368-.292.559-.427a10.46,10.46,0,0,0,15.589,12.853Z" transform="translate(-239 -294.97)" fill="#fee45a"/>
          <path id="Trazado_1026737" data-name="Trazado 1026737" d="M273.541,300.794l-.028.024.006-.007Z" transform="translate(-269.714 -298.422)" fill="#fec165"/>
          <path id="Trazado_1026738" data-name="Trazado 1026738" d="M284.868,315.72A7.237,7.237,0,0,1,281.235,322a7.987,7.987,0,0,1-3.554.56,6.656,6.656,0,0,1-6.939-6.839,7.065,7.065,0,1,1,14.126,0Z" transform="translate(-267.17 -305.262)" fill="#fee45a"/>
          <path id="Trazado_1026739" data-name="Trazado 1026739" d="M279.076,361.575a7.243,7.243,0,0,1-10.459-8.623,10.461,10.461,0,0,0,10.3,8.625C278.969,361.577,279.023,361.577,279.076,361.575Z" transform="translate(-265.011 -344.839)" fill="#f9d938"/>
        </g>
      </g>
      <g id="Grupo_1172968" data-name="Grupo 1172968" transform="translate(7.5 42.75)">
        <g id="Grupo_1172961" data-name="Grupo 1172961" transform="translate(0 0)">
          <path id="Trazado_1026740" data-name="Trazado 1026740" d="M367.149,42.75h8.295a1.1,1.1,0,0,1,1.1,1.1v6.367" transform="translate(-327.557 -42.75)" fill="none" stroke="#000" stroke-linecap="round" stroke-linejoin="round" stroke-miterlimit="10" stroke-width="1.2"/>
          <path id="Trazado_1026741" data-name="Trazado 1026741" d="M11.057,65.978H8.6a1.1,1.1,0,0,1-1.1-1.1V43.851a1.1,1.1,0,0,1,1.1-1.1H43.239" transform="translate(-7.5 -42.75)" fill="none" stroke="#000" stroke-linecap="round" stroke-linejoin="round" stroke-miterlimit="10" stroke-width="1.2"/>
          <path id="Trazado_1026742" data-name="Trazado 1026742" d="M12.454,42.75A4.954,4.954,0,0,1,7.5,47.7" transform="translate(-7.5 -42.75)" fill="none" stroke="#000" stroke-linecap="round" stroke-linejoin="round" stroke-miterlimit="10" stroke-width="1.2"/>
          <path id="Trazado_1026743" data-name="Trazado 1026743" d="M412.454,47.7A4.954,4.954,0,0,1,407.5,42.75" transform="translate(-363.466 -42.75)" fill="none" stroke="#000" stroke-linecap="round" stroke-linejoin="round" stroke-miterlimit="10" stroke-width="1.2"/>
          <path id="Trazado_1026744" data-name="Trazado 1026744" d="M7.5,208.75a4.939,4.939,0,0,1,3.566,1.515" transform="translate(-7.5 -190.476)" fill="none" stroke="#000" stroke-linecap="round" stroke-linejoin="round" stroke-miterlimit="10" stroke-width="1.2"/>
          <path id="Trazado_1026745" data-name="Trazado 1026745" d="M159.982,50.193c1.191-4.354,4.193-7.443,7.708-7.443s6.517,3.089,7.708,7.443" transform="translate(-143.196 -42.75)" fill="none" stroke="#000" stroke-linecap="round" stroke-linejoin="round" stroke-miterlimit="10" stroke-width="1.2"/>
        </g>
        <g id="Grupo_1172964" data-name="Grupo 1172964" transform="translate(3.578 7.486)">
          <path id="Trazado_1026746" data-name="Trazado 1026746" d="M50.532,133.978H41.1a1.1,1.1,0,0,1-1.1-1.1V111.851a1.1,1.1,0,0,1,1.1-1.1H87.886a1.1,1.1,0,0,1,1.1,1.1v19.257" transform="translate(-40 -110.75)" fill="none" stroke="#000" stroke-linecap="round" stroke-linejoin="round" stroke-miterlimit="10" stroke-width="1.2"/>
          <line id="Línea_681" data-name="Línea 681" x1="9.238" transform="translate(14.385 23.228)" fill="none" stroke="#000" stroke-linecap="round" stroke-linejoin="round" stroke-miterlimit="10" stroke-width="1.2"/>
          <g id="Grupo_1172962" data-name="Grupo 1172962" transform="translate(3.578 3.477)">
            <path id="Trazado_1026747" data-name="Trazado 1026747" d="M329.765,155.671a8.247,8.247,0,0,1,1.56-1,.109.109,0,0,0,.061-.1v-8.206a.109.109,0,0,0-.061-.1,8.289,8.289,0,0,1-3.82-3.874.109.109,0,0,0-.1-.063h-11" transform="translate(-289.554 -142.334)" fill="none" stroke="#000" stroke-linecap="round" stroke-linejoin="round" stroke-miterlimit="10" stroke-width="1.2"/>
            <path id="Trazado_1026748" data-name="Trazado 1026748" d="M87.484,142.333h-11a.109.109,0,0,0-.1.063,8.289,8.289,0,0,1-3.82,3.874.109.109,0,0,0-.061.1v8.206a.109.109,0,0,0,.061.1,8.288,8.288,0,0,1,3.82,3.874.109.109,0,0,0,.1.063H87.51" transform="translate(-72.5 -142.333)" fill="none" stroke="#000" stroke-linecap="round" stroke-linejoin="round" stroke-miterlimit="10" stroke-width="1.2"/>
          </g>
          <path id="Trazado_1026749" data-name="Trazado 1026749" d="M44.954,110.75A4.954,4.954,0,0,1,40,115.7" transform="translate(-40 -110.75)" fill="none" stroke="#000" stroke-linecap="round" stroke-linejoin="round" stroke-miterlimit="10" stroke-width="1.2"/>
          <path id="Trazado_1026750" data-name="Trazado 1026750" d="M444.954,115.7A4.954,4.954,0,0,1,440,110.75" transform="translate(-395.966 -110.75)" fill="none" stroke="#000" stroke-linecap="round" stroke-linejoin="round" stroke-miterlimit="10" stroke-width="1.2"/>
          <path id="Trazado_1026751" data-name="Trazado 1026751" d="M40,276.75a4.954,4.954,0,0,1,4.954,4.954" transform="translate(-40 -258.476)" fill="none" stroke="#000" stroke-linecap="round" stroke-linejoin="round" stroke-miterlimit="10" stroke-width="1.2"/>
          <circle id="Elipse_11809" data-name="Elipse 11809" cx="1.651" cy="1.651" r="1.651" transform="translate(36.493 9.963)" fill="none" stroke="#000" stroke-linecap="round" stroke-linejoin="round" stroke-miterlimit="10" stroke-width="1.2"/>
          <circle id="Elipse_11810" data-name="Elipse 11810" cx="1.651" cy="1.651" r="1.651" transform="translate(9.192 9.963)" fill="none" stroke="#000" stroke-linecap="round" stroke-linejoin="round" stroke-miterlimit="10" stroke-width="1.2"/>
          <line id="Línea_682" data-name="Línea 682" x1="2.064" transform="translate(3.633 11.614)" fill="none" stroke="#000" stroke-linecap="round" stroke-linejoin="round" stroke-miterlimit="10" stroke-width="1.2"/>
          <line id="Línea_683" data-name="Línea 683" x1="2.064" transform="translate(43.29 11.614)" fill="none" stroke="#000" stroke-linecap="round" stroke-linejoin="round" stroke-miterlimit="10" stroke-width="1.2"/>
          <path id="Trazado_1026752" data-name="Trazado 1026752" d="M188.653,120.324c.685-5.442,4.064-9.574,8.129-9.574,4.56,0,8.256,5.2,8.256,11.614a14.874,14.874,0,0,1-1.657,6.98" transform="translate(-172.289 -110.75)" fill="none" stroke="#000" stroke-linecap="round" stroke-linejoin="round" stroke-miterlimit="10" stroke-width="1.2"/>
          <path id="Trazado_1026753" data-name="Trazado 1026753" d="M195.737,242.529C192,242,189,237.964,188.417,232.8" transform="translate(-172.079 -219.36)" fill="none" stroke="#000" stroke-linecap="round" stroke-linejoin="round" stroke-miterlimit="10" stroke-width="1.2"/>
          <g id="Grupo_1172963" data-name="Grupo 1172963" transform="translate(22.436 6.484)">
            <path id="Trazado_1026754" data-name="Trazado 1026754" d="M247.41,181.639a2.271,2.271,0,0,0-2.209-.4,1.659,1.659,0,0,0-.7,2.71,7.127,7.127,0,0,0,2.176,1.03,2.006,2.006,0,0,1-.843,3.857,3.547,3.547,0,0,1-2.029-.546" transform="translate(-243.805 -179.853)" fill="none" stroke="#000" stroke-linecap="round" stroke-linejoin="round" stroke-miterlimit="10" stroke-width="1.2"/>
            <line id="Línea_684" data-name="Línea 684" y2="1.225" transform="translate(2.029 9.035)" fill="none" stroke="#000" stroke-linecap="round" stroke-linejoin="round" stroke-miterlimit="10" stroke-width="1.2"/>
            <line id="Línea_685" data-name="Línea 685" y2="1.225" transform="translate(2.029)" fill="none" stroke="#000" stroke-linecap="round" stroke-linejoin="round" stroke-miterlimit="10" stroke-width="1.2"/>
          </g>
        </g>
        <g id="Grupo_1172965" data-name="Grupo 1172965" transform="translate(37.679 23.833)">
          <path id="Trazado_1026755" data-name="Trazado 1026755" d="M349.773,261.575a10.458,10.458,0,1,1,6.575,18.591,10.532,10.532,0,0,1-1.689-.136" transform="translate(-349.773 -259.25)" fill="none" stroke="#000" stroke-linecap="round" stroke-linejoin="round" stroke-miterlimit="10" stroke-width="1.2"/>
          <path id="Trazado_1026756" data-name="Trazado 1026756" d="M423.557,333.867a7.328,7.328,0,0,1-6.094,9.512" transform="translate(-410.011 -325.653)" fill="none" stroke="#000" stroke-linecap="round" stroke-linejoin="round" stroke-miterlimit="10" stroke-width="1.2"/>
          <path id="Trazado_1026757" data-name="Trazado 1026757" d="M383.569,288.327a7.329,7.329,0,0,1,7.766,1.315" transform="translate(-379.849 -284.613)" fill="none" stroke="#000" stroke-linecap="round" stroke-linejoin="round" stroke-miterlimit="10" stroke-width="1.2"/>
        </g>
        <g id="Grupo_1172967" data-name="Grupo 1172967" transform="translate(25.484 26.035)">
          <circle id="Elipse_11811" data-name="Elipse 11811" cx="10.458" cy="10.458" r="10.458" fill="none" stroke="#000" stroke-linecap="round" stroke-linejoin="round" stroke-miterlimit="10" stroke-width="1.2"/>
          <circle id="Elipse_11812" data-name="Elipse 11812" cx="7.321" cy="7.321" r="7.321" transform="translate(3.137 3.137)" fill="none" stroke="#000" stroke-linecap="round" stroke-linejoin="round" stroke-miterlimit="10" stroke-width="1.2"/>
          <g id="Grupo_1172966" data-name="Grupo 1172966" transform="translate(8.697 6.067)">
            <path id="Trazado_1026758" data-name="Trazado 1026758" d="M321.086,344.628a1.944,1.944,0,0,0-1.891-.341,1.42,1.42,0,0,0-.6,2.319,6.1,6.1,0,0,0,1.862.882,1.717,1.717,0,0,1-.721,3.3,3.036,3.036,0,0,1-1.736-.467" transform="translate(-318.001 -343.099)" fill="none" stroke="#000" stroke-linecap="round" stroke-linejoin="round" stroke-miterlimit="10" stroke-width="1.2"/>
            <line id="Línea_686" data-name="Línea 686" y2="1.049" transform="translate(1.736 7.733)" fill="none" stroke="#000" stroke-linecap="round" stroke-linejoin="round" stroke-miterlimit="10" stroke-width="1.2"/>
            <line id="Línea_687" data-name="Línea 687" y2="1.049" transform="translate(1.736)" fill="none" stroke="#000" stroke-linecap="round" stroke-linejoin="round" stroke-miterlimit="10" stroke-width="1.2"/>
          </g>
        </g>
        <path id="Trazado_1026759" data-name="Trazado 1026759" d="M55,74.333H43.98a.109.109,0,0,0-.1.063A8.288,8.288,0,0,1,40,78.3v1.144" transform="translate(-36.422 -70.856)" fill="none" stroke="#000" stroke-linecap="round" stroke-linejoin="round" stroke-miterlimit="10" stroke-width="1.2"/>
        <path id="Trazado_1026760" data-name="Trazado 1026760" d="M298.649,78.3a8.288,8.288,0,0,1-3.881-3.9.109.109,0,0,0-.1-.063H283.638" transform="translate(-253.24 -70.857)" fill="none" stroke="#000" stroke-linecap="round" stroke-linejoin="round" stroke-miterlimit="10" stroke-width="1.2"/>
      </g>
    </g>
  </g>
</svg>
