<svg xmlns="http://www.w3.org/2000/svg" xmlns:xlink="http://www.w3.org/1999/xlink" width="106" height="106" viewBox="0 0 106 106">
  <defs>
    <filter id="Trazado_982547" x="0" y="0" width="106" height="106" filterUnits="userSpaceOnUse">
      <feOffset dy="3" input="SourceAlpha"/>
      <feGaussianBlur stdDeviation="3" result="blur"/>
      <feFlood flood-opacity="0.161"/>
      <feComposite operator="in" in2="blur"/>
      <feComposite in="SourceGraphic"/>
    </filter>
  </defs>
  <g id="Grupo_1172132" data-name="Grupo 1172132" transform="translate(-171 -3978)">
    <g id="Grupo_1171932" data-name="Grupo 1171932" transform="translate(0 2921)">
      <g id="Grupo_1167337" data-name="Grupo 1167337" transform="translate(180 1063)">
        <g id="Grupo_1166720" data-name="Grupo 1166720" transform="translate(0)">
          <g id="Grupo_1164305" data-name="Grupo 1164305">
            <g id="Grupo_1163948" data-name="Grupo 1163948">
              <g id="Grupo_1158168" data-name="Grupo 1158168">
                <g id="Grupo_1152576" data-name="Grupo 1152576">
                  <g id="Grupo_1148633" data-name="Grupo 1148633">
                    <g id="Grupo_1148525" data-name="Grupo 1148525">
                      <g transform="matrix(1, 0, 0, 1, -9, -6)" filter="url(#Trazado_982547)">
                        <g id="Trazado_982547-2" data-name="Trazado 982547" transform="translate(9 6)" fill="#e9f9fd">
                          <path d="M 44 86.5 C 38.26187515258789 86.5 32.69618606567383 85.37651062011719 27.45755004882812 83.16075897216797 C 22.3968505859375 81.020263671875 17.85157585144043 77.95565032958984 13.94796276092529 74.05204010009766 C 10.04434967041016 70.1484375 6.979737281799316 65.6031494140625 4.839250087738037 60.54246139526367 C 2.62348747253418 55.30381393432617 1.5 49.73812484741211 1.5 44 C 1.5 38.26187515258789 2.62348747253418 32.69618606567383 4.839250087738037 27.45755004882812 C 6.979737281799316 22.3968505859375 10.04434967041016 17.85157585144043 13.94796276092529 13.94796276092529 C 17.85157585144043 10.04434967041016 22.3968505859375 6.979737281799316 27.45755004882812 4.839250087738037 C 32.69618606567383 2.62348747253418 38.26187515258789 1.5 44 1.5 C 49.73812484741211 1.5 55.30381393432617 2.62348747253418 60.54246139526367 4.839250087738037 C 65.6031494140625 6.979737281799316 70.1484375 10.04434967041016 74.05204010009766 13.94796276092529 C 77.95565032958984 17.85157585144043 81.020263671875 22.3968505859375 83.16075897216797 27.45755004882812 C 85.37651062011719 32.69618606567383 86.5 38.26187515258789 86.5 44 C 86.5 49.73812484741211 85.37651062011719 55.30381393432617 83.16075897216797 60.54246139526367 C 81.020263671875 65.6031494140625 77.95565032958984 70.1484375 74.05204010009766 74.05204010009766 C 70.1484375 77.95565032958984 65.6031494140625 81.020263671875 60.54246139526367 83.16075897216797 C 55.30381393432617 85.37651062011719 49.73812484741211 86.5 44 86.5 Z" stroke="none"/>
                          <path d="M 44 3 C 38.46371459960938 3 33.09462738037109 4.083610534667969 28.0418701171875 6.220756530761719 C 23.15997314453125 8.285614013671875 18.77495574951172 11.24228668212891 15.00862884521484 15.00862884521484 C 11.24228668212891 18.77495574951172 8.285614013671875 23.15997314453125 6.220756530761719 28.0418701171875 C 4.083610534667969 33.09462738037109 3 38.46371459960938 3 44 C 3 49.53628540039062 4.083610534667969 54.9053840637207 6.220756530761719 59.9581298828125 C 8.285614013671875 64.84002685546875 11.24228668212891 69.22504425048828 15.00862884521484 72.99138641357422 C 18.77495574951172 76.75771331787109 23.15997314453125 79.71438598632812 28.0418701171875 81.77925872802734 C 33.09462738037109 83.9163818359375 38.46371459960938 85 44 85 C 49.53628540039062 85 54.9053840637207 83.9163818359375 59.95814514160156 81.77925872802734 C 64.84002685546875 79.71438598632812 69.22504425048828 76.75771331787109 72.99138641357422 72.99138641357422 C 76.75771331787109 69.22504425048828 79.71438598632812 64.84002685546875 81.77925872802734 59.95814514160156 C 83.9163818359375 54.9053840637207 85 49.53628540039062 85 44 C 85 38.46371459960938 83.9163818359375 33.09462738037109 81.77925872802734 28.0418701171875 C 79.71438598632812 23.15997314453125 76.75771331787109 18.77495574951172 72.99138641357422 15.00862884521484 C 69.22504425048828 11.24228668212891 64.84002685546875 8.285614013671875 59.9581298828125 6.220756530761719 C 54.9053840637207 4.083610534667969 49.53628540039062 3 44 3 M 44 0 C 68.30054473876953 0 88 19.69947052001953 88 44 C 88 68.30054473876953 68.30054473876953 88 44 88 C 19.69947052001953 88 0 68.30054473876953 0 44 C 0 19.69947052001953 19.69947052001953 0 44 0 Z" stroke="none" fill="#1d7083"/>
                        </g>
                      </g>
                    </g>
                  </g>
                </g>
              </g>
            </g>
          </g>
        </g>
      </g>
    </g>
    <g id="compliant_4252360" transform="translate(184.613 4002.169)">
      <g id="Grupo_1172108" data-name="Grupo 1172108" transform="translate(25.293 0.757)">
        <path id="Trazado_1026125" data-name="Trazado 1026125" d="M148.952,7.5H116.82a.5.5,0,0,0-.5.5V21.992h3.309a2.473,2.473,0,0,1,.173,4.939V30h0a1.008,1.008,0,0,1,.856,1v6.263a1.008,1.008,0,0,1-.856,1h0v3.068a2.473,2.473,0,0,1-.173,4.939h-3.309V50.4h6.963a1.009,1.009,0,0,1,1.009,1.009v2.01h.769a1.009,1.009,0,0,1,1.009,1.009v3.218h23.391V8A.5.5,0,0,0,148.952,7.5Z" transform="translate(-116.315 -7.5)" fill="#fff3de"/>
      </g>
      <g id="Grupo_1172109" data-name="Grupo 1172109" transform="translate(25.293 0.757)">
        <path id="Trazado_1026126" data-name="Trazado 1026126" d="M119.624,21.992l.09,0V8a.5.5,0,0,1,.5-.5h-3.4a.5.5,0,0,0-.5.5V21.992Z" transform="translate(-116.315 -7.5)" fill="#ffe5c2"/>
        <path id="Trazado_1026127" data-name="Trazado 1026127" d="M119.624,391.629h-3.309v4.141h3.4v-4.143Z" transform="translate(-116.315 -352.868)" fill="#ffe5c2"/>
      </g>
      <g id="Grupo_1172127" data-name="Grupo 1172127" transform="translate(15.835 15.249)">
        <g id="Grupo_1172110" data-name="Grupo 1172110" transform="translate(13.795 10.409)">
          <path id="Trazado_1026128" data-name="Trazado 1026128" d="M159.3,254.29h4.671v3.451H159.3Z" transform="translate(-159.296 -254.29)" fill="#883f2e"/>
          <path id="Trazado_1026129" data-name="Trazado 1026129" d="M237.5,254.29h6.671v3.451H237.5Z" transform="translate(-229.611 -254.29)" fill="#883f2e"/>
        </g>
        <g id="Grupo_1172111" data-name="Grupo 1172111" transform="translate(13.795 12.196)">
          <path id="Trazado_1026130" data-name="Trazado 1026130" d="M159.3,272h4.671v1.664H159.3Z" transform="translate(-159.296 -272)" fill="#6d3326"/>
          <path id="Trazado_1026131" data-name="Trazado 1026131" d="M237.5,272h6.671v1.664H237.5Z" transform="translate(-229.611 -272)" fill="#6d3326"/>
        </g>
        <g id="Grupo_1172112" data-name="Grupo 1172112" transform="translate(28.357 9.604)">
          <path id="Trazado_1026132" data-name="Trazado 1026132" d="M322.364,248.841a2.53,2.53,0,0,1-2.53,2.53H304.191a.575.575,0,0,1-.575-.575v-3.911a.575.575,0,0,1,.575-.575h15.643A2.531,2.531,0,0,1,322.364,248.841Z" transform="translate(-303.616 -246.31)" fill="#ca6e59"/>
        </g>
        <g id="Grupo_1172113" data-name="Grupo 1172113" transform="translate(28.357 9.604)">
          <path id="Trazado_1026133" data-name="Trazado 1026133" d="M307.055,249.2a.575.575,0,0,1-.575-.575v-2.32h-2.289a.575.575,0,0,0-.575.575V250.8a.575.575,0,0,0,.575.575h15.643a2.531,2.531,0,0,0,2.5-2.166Z" transform="translate(-303.616 -246.31)" fill="#bb5d4c"/>
        </g>
        <g id="Grupo_1172114" data-name="Grupo 1172114" transform="translate(18.466 9.604)">
          <path id="Trazado_1026134" data-name="Trazado 1026134" d="M208.805,246.816v4.052a.5.5,0,0,1-.5.5h-2.211a.5.5,0,0,1-.5-.5v-4.052a.5.5,0,0,1,.5-.5H208.3a.5.5,0,0,1,.5.5Z" transform="translate(-205.585 -246.311)" fill="#ca6e59"/>
        </g>
        <g id="Grupo_1172115" data-name="Grupo 1172115" transform="translate(18.466 9.604)">
          <path id="Trazado_1026135" data-name="Trazado 1026135" d="M207.048,250.867v-4.052a.5.5,0,0,1,.5-.5h-1.463a.5.5,0,0,0-.5.5v4.052a.5.5,0,0,0,.5.5h1.463A.5.5,0,0,1,207.048,250.867Z" transform="translate(-205.585 -246.311)" fill="#bb5d4c"/>
        </g>
        <g id="Grupo_1172116" data-name="Grupo 1172116" transform="translate(6.269 4.939)">
          <path id="Trazado_1026136" data-name="Trazado 1026136" d="M91.221,312.31H84.857a1.011,1.011,0,0,1-.154-.013v3.068c.057,0,.114-.007.173-.007H91.2c.058,0,.115,0,.173.007V312.3A1,1,0,0,1,91.221,312.31Z" transform="translate(-84.703 -300.974)" fill="#883f2e"/>
          <path id="Trazado_1026137" data-name="Trazado 1026137" d="M84.857,312.31a1.011,1.011,0,0,1-.154-.013v3.068c.057,0,.114-.007.173-.007h2.368V312.31H84.857Z" transform="translate(-84.703 -300.974)" fill="#6d3326"/>
          <path id="Trazado_1026138" data-name="Trazado 1026138" d="M84.857,203.134h6.364a1.015,1.015,0,0,1,.154.013v-3.068c-.057,0-.115.007-.173.007H84.876c-.058,0-.115,0-.173-.007v3.068A1.015,1.015,0,0,1,84.857,203.134Z" transform="translate(-84.703 -200.079)" fill="#883f2e"/>
          <path id="Trazado_1026139" data-name="Trazado 1026139" d="M84.857,203.133h2.387v-3.048H84.876c-.058,0-.115,0-.173-.007v3.068A1.027,1.027,0,0,1,84.857,203.133Z" transform="translate(-84.703 -200.078)" fill="#6d3326"/>
        </g>
        <g id="Grupo_1172117" data-name="Grupo 1172117" transform="translate(5.413 7.994)">
          <path id="Trazado_1026140" data-name="Trazado 1026140" d="M84.607,231.361v6.263a1.009,1.009,0,0,1-1.009,1.009H77.234a1.009,1.009,0,0,1-1.009-1.009v-6.263a1.009,1.009,0,0,1,1.009-1.009H83.6A1.009,1.009,0,0,1,84.607,231.361Z" transform="translate(-76.225 -230.352)" fill="#ca6e59"/>
        </g>
        <g id="Grupo_1172118" data-name="Grupo 1172118" transform="translate(5.413 7.994)">
          <path id="Trazado_1026141" data-name="Trazado 1026141" d="M79.633,237.624v-6.263a1.009,1.009,0,0,1,1.009-1.009H77.234a1.009,1.009,0,0,0-1.009,1.009v6.263a1.009,1.009,0,0,0,1.009,1.009h3.408A1.009,1.009,0,0,1,79.633,237.624Z" transform="translate(-76.225 -230.352)" fill="#bb5d4c"/>
        </g>
        <g id="Grupo_1172121" data-name="Grupo 1172121" transform="translate(0 28.41)">
          <path id="Trazado_1026142" data-name="Trazado 1026142" d="M55.843,435.805a1.031,1.031,0,0,0,.005-.1v-2.008a1.009,1.009,0,0,0-1.009-1.009H41.2a1.009,1.009,0,0,0-1.009,1.009V435.7a1.032,1.032,0,0,0,.005.1Z" transform="translate(-38.417 -432.685)" fill="#ca6e59"/>
          <path id="Trazado_1026143" data-name="Trazado 1026143" d="M43.611,435.805a1.033,1.033,0,0,1-.005-.1v-2.008a1.009,1.009,0,0,1,1.009-1.009H41.2a1.009,1.009,0,0,0-1.009,1.009V435.7a1.032,1.032,0,0,0,.005.1Z" transform="translate(-38.417 -432.685)" fill="#bb5d4c"/>
          <g id="Grupo_1172119" data-name="Grupo 1172119" transform="translate(0 3.019)">
            <path id="Trazado_1026144" data-name="Trazado 1026144" d="M41.786,466.835h-18.7a.5.5,0,0,1-.5-.5v-2.713a1.009,1.009,0,0,1,1.009-1.009h17.19a1.009,1.009,0,0,1,1.009,1.009Z" transform="translate(-22.578 -462.608)" fill="#883f2e"/>
          </g>
          <g id="Grupo_1172120" data-name="Grupo 1172120" transform="translate(0 3.019)">
            <path id="Trazado_1026145" data-name="Trazado 1026145" d="M25.95,466.33v-2.713a1.009,1.009,0,0,1,1.009-1.009H23.587a1.009,1.009,0,0,0-1.009,1.009v2.713a.5.5,0,0,0,.5.5h3.372A.5.5,0,0,1,25.95,466.33Z" transform="translate(-22.578 -462.608)" fill="#6d3326"/>
          </g>
        </g>
        <g id="Grupo_1172126" data-name="Grupo 1172126" transform="translate(3.968)">
          <g id="Grupo_1172122" data-name="Grupo 1172122" transform="translate(0 19.323)">
            <path id="Trazado_1026146" data-name="Trazado 1026146" d="M73.177,345.106a2.473,2.473,0,0,1-2.473,2.473H64.378a2.473,2.473,0,1,1,0-4.946H70.7A2.473,2.473,0,0,1,73.177,345.106Z" transform="translate(-61.905 -342.633)" fill="#ca6e59"/>
          </g>
          <g id="Grupo_1172123" data-name="Grupo 1172123" transform="translate(0 19.323)">
            <path id="Trazado_1026147" data-name="Trazado 1026147" d="M65.274,345.106a2.473,2.473,0,0,1,2.473-2.473H64.378a2.473,2.473,0,1,0,0,4.946h3.368A2.473,2.473,0,0,1,65.274,345.106Z" transform="translate(-61.905 -342.633)" fill="#bb5d4c"/>
          </g>
          <g id="Grupo_1172124" data-name="Grupo 1172124" transform="translate(0)">
            <path id="Trazado_1026148" data-name="Trazado 1026148" d="M73.177,153.6a2.473,2.473,0,0,1-2.473,2.473H64.378a2.473,2.473,0,1,1,0-4.946H70.7A2.473,2.473,0,0,1,73.177,153.6Z" transform="translate(-61.905 -151.128)" fill="#ca6e59"/>
          </g>
          <g id="Grupo_1172125" data-name="Grupo 1172125">
            <path id="Trazado_1026149" data-name="Trazado 1026149" d="M65.274,153.6a2.473,2.473,0,0,1,2.473-2.473H64.378a2.473,2.473,0,1,0,0,4.946h3.368A2.473,2.473,0,0,1,65.274,153.6Z" transform="translate(-61.905 -151.128)" fill="#bb5d4c"/>
          </g>
        </g>
      </g>
      <g id="Grupo_1172130" data-name="Grupo 1172130" transform="translate(34.783 5.46)">
        <g id="Grupo_1172128" data-name="Grupo 1172128" transform="translate(0)">
          <circle id="Elipse_11791" data-name="Elipse 11791" cx="7.08" cy="7.08" r="7.08" fill="#4fc123"/>
        </g>
        <g id="Grupo_1172129" data-name="Grupo 1172129" transform="translate(0)">
          <path id="Trazado_1026150" data-name="Trazado 1026150" d="M213.765,61.187a7.082,7.082,0,0,1,5.384-6.874,7.08,7.08,0,1,0,0,13.748A7.082,7.082,0,0,1,213.765,61.187Z" transform="translate(-210.372 -54.107)" fill="#47a920"/>
        </g>
      </g>
      <g id="Grupo_1172131" data-name="Grupo 1172131" transform="translate(15.078 0)">
        <path id="Trazado_1026151" data-name="Trazado 1026151" d="M60.41,24.1H59.191V11a.757.757,0,0,0-.78-.756.778.778,0,0,0-.734.788V24.1H52.606a.757.757,0,1,0,0,1.514h7.8a1.774,1.774,0,1,1,0,3.547H44.949V25.61h4.125a.757.757,0,1,0,0-1.514H44.767a1.333,1.333,0,0,0-1.223.805H38.191a1.262,1.262,0,0,0-1.175-.805H34.8a1.262,1.262,0,0,0-1.175.805H30.387v-.65a1.765,1.765,0,0,0-.856-1.51V20.815a3.23,3.23,0,0,0-.929-6.322H26.05V1.514H57.678V7.467a.757.757,0,0,0,.78.756.778.778,0,0,0,.734-.788V1.261A1.261,1.261,0,0,0,57.93,0H25.8a1.261,1.261,0,0,0-1.261,1.261V14.492h-2.26a3.229,3.229,0,0,0-.929,6.322v1.927a1.765,1.765,0,0,0-.856,1.51v6.263a1.765,1.765,0,0,0,.856,1.51v1.927a3.23,3.23,0,0,0,.929,6.322h2.26V42.9H18.621a1.768,1.768,0,0,0-1.766,1.766v1.254h-.012a1.768,1.768,0,0,0-1.766,1.766V50.4a1.263,1.263,0,0,0,1.261,1.261H57.93A1.261,1.261,0,0,0,59.191,50.4V30.671H60.41a3.287,3.287,0,0,0,0-6.574ZM38.278,26.415h5.158v1.937H38.278Zm-3.22-.805h1.707v3.547H35.057Zm-4.671.805h3.157v1.937H30.387ZM20.56,17.722a1.718,1.718,0,0,1,1.716-1.716H28.6a1.716,1.716,0,0,1,0,3.432H22.276A1.718,1.718,0,0,1,20.56,17.722Zm1.7,13.045A.253.253,0,0,1,22,30.515V24.252A.253.253,0,0,1,22.257,24h6.364a.253.253,0,0,1,.252.252v6.263a.253.253,0,0,1-.252.252Zm5.761,1.514v1.535H22.86V32.281ZM22.86,22.486V20.952h5.157v1.535Zm-.584,16.275a1.716,1.716,0,0,1,0-3.432H28.6a1.716,1.716,0,0,1,0,3.432Zm12.01,11.387H16.592V47.687a.253.253,0,0,1,.252-.252h4.684a.757.757,0,1,0,0-1.514H18.369V44.668a.253.253,0,0,1,.252-.252H32.256a.253.253,0,0,1,.252.252v1.254H25.059a.757.757,0,1,0,0,1.514h8.974a.253.253,0,0,1,.252.252Zm23.392,0H35.8V47.687a1.768,1.768,0,0,0-1.766-1.766h-.012V44.668A1.768,1.768,0,0,0,32.256,42.9H26.05V40.275H28.6a3.23,3.23,0,0,0,.929-6.322V32.025a1.765,1.765,0,0,0,.856-1.51v-.65H33.63a1.262,1.262,0,0,0,1.175.805h2.211a1.262,1.262,0,0,0,1.175-.805h5.353a1.333,1.333,0,0,0,1.223.805h12.91V50.148Z" transform="translate(-15.078 0)"/>
        <path id="Trazado_1026152" data-name="Trazado 1026152" d="M202.872,54.444a7.837,7.837,0,1,0,7.837-7.837A7.846,7.846,0,0,0,202.872,54.444Zm14.16,0a6.323,6.323,0,1,1-6.323-6.323A6.331,6.331,0,0,1,217.032,54.444Z" transform="translate(-183.923 -41.904)"/>
        <path id="Trazado_1026153" data-name="Trazado 1026153" d="M247.635,102.661a.757.757,0,0,0-1.07,1.07l2.328,2.328a.757.757,0,0,0,1.07,0l3.608-3.608a.757.757,0,1,0-1.07-1.07l-3.073,3.073Z" transform="translate(-223.008 -90.952)"/>
        <path id="Trazado_1026154" data-name="Trazado 1026154" d="M243.681,327.826a.757.757,0,0,0,.757.757h13.917a.757.757,0,0,0,0-1.514H244.438A.757.757,0,0,0,243.681,327.826Z" transform="translate(-220.615 -294.067)"/>
        <path id="Trazado_1026155" data-name="Trazado 1026155" d="M318.432,363.546h-7.175a.757.757,0,0,0,0,1.514h7.175a.757.757,0,0,0,0-1.514Z" transform="translate(-280.691 -326.864)"/>
        <path id="Trazado_1026156" data-name="Trazado 1026156" d="M244.438,365.06h4.119a.757.757,0,1,0,0-1.514h-4.119a.757.757,0,1,0,0,1.514Z" transform="translate(-220.615 -326.864)"/>
        <path id="Trazado_1026157" data-name="Trazado 1026157" d="M258.354,400.023H244.437a.757.757,0,0,0,0,1.514h13.917a.757.757,0,0,0,0-1.514Z" transform="translate(-220.614 -359.66)"/>
        <path id="Trazado_1026158" data-name="Trazado 1026158" d="M349.9,436.5h-3.644a.757.757,0,0,0,0,1.514H349.9a.757.757,0,0,0,0-1.514Z" transform="translate(-312.16 -392.456)"/>
        <path id="Trazado_1026159" data-name="Trazado 1026159" d="M252.391,436.5h-7.953a.757.757,0,0,0,0,1.514h7.953a.757.757,0,0,0,0-1.514Z" transform="translate(-220.615 -392.456)"/>
      </g>
    </g>
  </g>
</svg>
