<svg xmlns="http://www.w3.org/2000/svg" xmlns:xlink="http://www.w3.org/1999/xlink" width="93.934" height="93.934" viewBox="0 0 93.934 93.934">
  <defs>
    <filter id="Trazado_982547" x="0" y="0" width="93.934" height="93.934" filterUnits="userSpaceOnUse">
      <feOffset dy="3" input="SourceAlpha"/>
      <feGaussianBlur stdDeviation="3" result="blur"/>
      <feFlood flood-opacity="0.161"/>
      <feComposite operator="in" in2="blur"/>
      <feComposite in="SourceGraphic"/>
    </filter>
    <clipPath id="clip-path">
      <path id="path6329" d="M0-682.665H44.112v44.112H0Z" transform="translate(0 682.665)"/>
    </clipPath>
  </defs>
  <g id="Grupo_1172986" data-name="Grupo 1172986" transform="translate(-610.033 -11153)">
    <g id="Grupo_1171979" data-name="Grupo 1171979" transform="translate(619.033 11159)">
      <g id="Grupo_1167337" data-name="Grupo 1167337" transform="translate(0)">
        <g id="Grupo_1166720" data-name="Grupo 1166720">
          <g id="Grupo_1164305" data-name="Grupo 1164305">
            <g id="Grupo_1163948" data-name="Grupo 1163948">
              <g id="Grupo_1158168" data-name="Grupo 1158168">
                <g id="Grupo_1152576" data-name="Grupo 1152576">
                  <g id="Grupo_1148633" data-name="Grupo 1148633">
                    <g id="Grupo_1148525" data-name="Grupo 1148525">
                      <g transform="matrix(1, 0, 0, 1, -9, -6)" filter="url(#Trazado_982547)">
                        <g id="Trazado_982547-2" data-name="Trazado 982547" transform="translate(9 6)" fill="#e9f9fd">
                          <path d="M 37.966796875 74.43359375 C 33.04315185546875 74.43359375 28.26757431030273 73.46962738037109 23.77274131774902 71.56847381591797 C 19.43047523498535 69.73184967041016 15.53040790557861 67.10224914550781 12.18087482452393 63.75271987915039 C 8.831341743469238 60.4031867980957 6.201741218566895 56.50312042236328 4.365118980407715 52.16086196899414 C 2.463963508605957 47.66601943969727 1.499996900558472 42.89044189453125 1.499996900558472 37.966796875 C 1.499996900558472 33.04315185546875 2.463963508605957 28.26757431030273 4.365118980407715 23.77274131774902 C 6.201741218566895 19.43047523498535 8.831341743469238 15.53040790557861 12.18087482452393 12.18087482452393 C 15.53040790557861 8.831341743469238 19.43047523498535 6.201741218566895 23.77274131774902 4.365118980407715 C 28.26757431030273 2.463963508605957 33.04315185546875 1.499996900558472 37.966796875 1.499996900558472 C 42.89044189453125 1.499996900558472 47.66601943969727 2.463963508605957 52.16086196899414 4.365118980407715 C 56.50312042236328 6.201741218566895 60.4031867980957 8.831341743469238 63.75271987915039 12.18087482452393 C 67.10224914550781 15.53040790557861 69.73184967041016 19.43047523498535 71.56847381591797 23.77274131774902 C 73.46962738037109 28.26757431030273 74.43359375 33.04315185546875 74.43359375 37.966796875 C 74.43359375 42.89044189453125 73.46962738037109 47.66601943969727 71.56847381591797 52.16086196899414 C 69.73184967041016 56.50313186645508 67.10224914550781 60.4031867980957 63.75271987915039 63.75271987915039 C 60.4031867980957 67.10224914550781 56.50313186645508 69.73184967041016 52.16086196899414 71.56847381591797 C 47.66601943969727 73.46962738037109 42.89044189453125 74.43359375 37.966796875 74.43359375 Z" stroke="none"/>
                          <path d="M 37.966796875 3 C 33.2449836730957 3 28.66600799560547 3.924095153808594 24.35705947875977 5.746635437011719 C 20.19359588623047 7.507637023925781 16.45379638671875 10.02928161621094 13.24153518676758 13.24153518676758 C 10.02927398681641 16.45379638671875 7.507621765136719 20.19359588623047 5.746635437011719 24.35705947875977 C 3.924095153808594 28.66600799560547 3 33.2449836730957 3 37.966796875 C 3 42.6886100769043 3.924095153808594 47.26758575439453 5.746635437011719 51.57653427124023 C 7.507621765136719 55.73999786376953 10.02927398681641 59.47979736328125 13.24153518676758 62.69205856323242 C 16.45379638671875 65.90431976318359 20.19359588623047 68.42597198486328 24.35705947875977 70.18695831298828 C 28.66600799560547 72.00949859619141 33.2449836730957 72.93359375 37.966796875 72.93359375 C 42.6886100769043 72.93359375 47.26758575439453 72.00949859619141 51.57653427124023 70.18695831298828 C 55.73999786376953 68.42597198486328 59.47979736328125 65.90431976318359 62.69205856323242 62.69205856323242 C 65.90431976318359 59.47979736328125 68.42597198486328 55.73999786376953 70.18695831298828 51.57653427124023 C 72.00949859619141 47.26758575439453 72.93359375 42.6886100769043 72.93359375 37.966796875 C 72.93359375 33.2449836730957 72.00949859619141 28.66600799560547 70.18695831298828 24.35705947875977 C 68.42597198486328 20.19359588623047 65.90431976318359 16.45379638671875 62.69205856323242 13.24153518676758 C 59.47979736328125 10.02928161621094 55.73999786376953 7.507637023925781 51.57653427124023 5.746635437011719 C 47.26758575439453 3.924095153808594 42.6886100769043 3 37.966796875 3 M 37.966796875 0 C 58.93528366088867 0 75.93359375 16.99832153320312 75.93359375 37.966796875 C 75.93359375 58.93528366088867 58.93528366088867 75.93359375 37.966796875 75.93359375 C 16.99831008911133 75.93359375 0 58.93528366088867 0 37.966796875 C 0 16.99832153320312 16.99831008911133 0 37.966796875 0 Z" stroke="none" fill="#1d7083"/>
                        </g>
                      </g>
                    </g>
                  </g>
                </g>
              </g>
            </g>
          </g>
        </g>
      </g>
    </g>
    <g id="g6321" transform="translate(635.944 11855.108)">
      <path id="path6323" d="M76.259-137.2H48v-4.136h28.26Z" transform="translate(-44.898 -506.352)" fill="#98a1b3"/>
      <g id="g6325" transform="translate(0 -682.665)">
        <g id="g6327" clip-path="url(#clip-path)">
          <g id="g6333" transform="translate(5.514 0.862)">
            <path id="path6335" d="M-169.616,0h0a11.717,11.717,0,0,0-11.717,11.717v22.4H-157.9v-22.4A11.717,11.717,0,0,0-169.616,0" transform="translate(181.333)" fill="#e1e3e9"/>
          </g>
          <path id="path6337" d="M46.073-73.2H13.333v-4.136h32.74Z" transform="translate(-12.472 116.449)" fill="#e1e3e9"/>
          <g id="g6339" transform="translate(3.102 34.98)">
            <path id="path6341" d="M-336.113-59.864h-23.219V-64h21.109" transform="translate(359.332 64)" fill="none" stroke="#000" stroke-linecap="round" stroke-linejoin="round" stroke-miterlimit="10" stroke-width="1.5"/>
          </g>
          <g id="g6343" transform="translate(11.028 8.499)">
            <path id="path6345" d="M-179.593-65.293h-4.235V-69.8h-3.791v4.511H-192V-61.5h4.381v7.551h3.791V-61.5h4.235Z" transform="translate(192 69.804)" fill="#98a1b3"/>
          </g>
          <g id="g6347" transform="translate(11.028 8.499)">
            <path id="path6349" d="M-179.593-65.293h-4.235V-69.8h-3.791v4.511H-192V-61.5h4.381v7.551h3.791V-61.5h4.235Z" transform="translate(192 69.804)" fill="none" stroke="#000" stroke-linecap="round" stroke-linejoin="round" stroke-miterlimit="10" stroke-width="1.5"/>
          </g>
          <g id="g6351" transform="translate(5.514 0.862)">
            <path id="path6353" d="M-339.231-305.383v-9.379a11.717,11.717,0,0,0-11.717-11.717h0a11.717,11.717,0,0,0-11.717,11.717v6.491" transform="translate(362.666 326.479)" fill="none" stroke="#000" stroke-linecap="round" stroke-linejoin="round" stroke-miterlimit="10" stroke-width="1.5"/>
          </g>
          <g id="g6355" transform="translate(5.514 26.824)">
            <path id="path6357" d="M0,0V8.156H18.762" fill="none" stroke="#000" stroke-linecap="round" stroke-linejoin="round" stroke-miterlimit="10" stroke-width="1.5"/>
          </g>
          <g id="g6359" transform="translate(0.862 39.115)">
            <path id="path6361" d="M-473.926-59.864h-32.74V-64h25.589" transform="translate(506.665 64)" fill="none" stroke="#000" stroke-linecap="round" stroke-linejoin="round" stroke-miterlimit="10" stroke-width="1.5"/>
          </g>
          <g id="g6363" transform="translate(23.952 20.505)">
            <path id="path6365" d="M-139.678,0l9.65,3.013v8.058a11.887,11.887,0,0,1-9.65,11.674h0a11.887,11.887,0,0,1-9.65-11.674V3.013L-139.678,0" transform="translate(149.328)" fill="#79b2ff"/>
          </g>
          <g id="g6367" transform="translate(27.398 24.116)">
            <path id="path6369" d="M0-28.035v5.524a8.453,8.453,0,0,0,6.2,8.139,8.453,8.453,0,0,0,6.2-8.139v-5.524L6.2-29.972Z" transform="translate(0 29.972)" fill="#fff"/>
          </g>
          <g id="g6371" transform="translate(23.952 20.505)">
            <path id="path6373" d="M-139.678,0l9.65,3.013v8.058a11.887,11.887,0,0,1-9.65,11.674h0a11.887,11.887,0,0,1-9.65-11.674V3.013L-139.678,0" transform="translate(149.328)" fill="none" stroke="#000" stroke-linecap="round" stroke-linejoin="round" stroke-miterlimit="10" stroke-width="1.5"/>
          </g>
          <g id="g6375" transform="translate(27.398 24.116)">
            <path id="path6377" d="M0-28.035v5.524a8.453,8.453,0,0,0,6.2,8.139,8.453,8.453,0,0,0,6.2-8.139v-5.524L6.2-29.972Z" transform="translate(0 29.972)" fill="none" stroke="#000" stroke-linecap="round" stroke-linejoin="round" stroke-miterlimit="10" stroke-width="1.5"/>
          </g>
          <g id="g6379" transform="translate(30.844 29.939)">
            <path id="path6381" d="M0-22.349l1.985,1.985,3.529-3.529" transform="translate(0 23.893)" fill="none" stroke="#000" stroke-linecap="round" stroke-linejoin="round" stroke-miterlimit="10" stroke-width="1.5"/>
          </g>
          <g id="g6383" transform="translate(10.511 29.552)">
            <path id="path6385" d="M0,0H13.441" fill="none" stroke="#000" stroke-linecap="round" stroke-linejoin="round" stroke-miterlimit="10" stroke-width="1.5"/>
          </g>
          <g id="g6387" transform="translate(5.514 22.947)">
            <path id="path6389" d="M0,0H0" fill="none" stroke="#000" stroke-linecap="round" stroke-linejoin="round" stroke-miterlimit="10" stroke-width="1.5"/>
          </g>
        </g>
      </g>
    </g>
  </g>
</svg>
