<svg xmlns="http://www.w3.org/2000/svg" xmlns:xlink="http://www.w3.org/1999/xlink" width="93.934" height="93.934" viewBox="0 0 93.934 93.934">
  <defs>
    <filter id="Trazado_982547" x="0" y="0" width="93.934" height="93.934" filterUnits="userSpaceOnUse">
      <feOffset dy="3" input="SourceAlpha"/>
      <feGaussianBlur stdDeviation="3" result="blur"/>
      <feFlood flood-opacity="0.161"/>
      <feComposite operator="in" in2="blur"/>
      <feComposite in="SourceGraphic"/>
    </filter>
  </defs>
  <g id="Grupo_1173002" data-name="Grupo 1173002" transform="translate(-190.033 -13916)">
    <g id="Grupo_1171989" data-name="Grupo 1171989" transform="translate(199.033 13922)">
      <g id="Grupo_1167337" data-name="Grupo 1167337" transform="translate(0)">
        <g id="Grupo_1166720" data-name="Grupo 1166720">
          <g id="Grupo_1164305" data-name="Grupo 1164305">
            <g id="Grupo_1163948" data-name="Grupo 1163948">
              <g id="Grupo_1158168" data-name="Grupo 1158168">
                <g id="Grupo_1152576" data-name="Grupo 1152576">
                  <g id="Grupo_1148633" data-name="Grupo 1148633">
                    <g id="Grupo_1148525" data-name="Grupo 1148525">
                      <g transform="matrix(1, 0, 0, 1, -9, -6)" filter="url(#Trazado_982547)">
                        <g id="Trazado_982547-2" data-name="Trazado 982547" transform="translate(9 6)" fill="#e9f9fd">
                          <path d="M 37.966796875 74.43359375 C 33.04315185546875 74.43359375 28.26757431030273 73.46962738037109 23.77274131774902 71.56847381591797 C 19.43047523498535 69.73184967041016 15.53040790557861 67.10224914550781 12.18087482452393 63.75271987915039 C 8.831341743469238 60.4031867980957 6.201741218566895 56.50312042236328 4.365118980407715 52.16086196899414 C 2.463963508605957 47.66601943969727 1.499996900558472 42.89044189453125 1.499996900558472 37.966796875 C 1.499996900558472 33.04315185546875 2.463963508605957 28.26757431030273 4.365118980407715 23.77274131774902 C 6.201741218566895 19.43047523498535 8.831341743469238 15.53040790557861 12.18087482452393 12.18087482452393 C 15.53040790557861 8.831341743469238 19.43047523498535 6.201741218566895 23.77274131774902 4.365118980407715 C 28.26757431030273 2.463963508605957 33.04315185546875 1.499996900558472 37.966796875 1.499996900558472 C 42.89044189453125 1.499996900558472 47.66601943969727 2.463963508605957 52.16086196899414 4.365118980407715 C 56.50312042236328 6.201741218566895 60.4031867980957 8.831341743469238 63.75271987915039 12.18087482452393 C 67.10224914550781 15.53040790557861 69.73184967041016 19.43047523498535 71.56847381591797 23.77274131774902 C 73.46962738037109 28.26757431030273 74.43359375 33.04315185546875 74.43359375 37.966796875 C 74.43359375 42.89044189453125 73.46962738037109 47.66601943969727 71.56847381591797 52.16086196899414 C 69.73184967041016 56.50313186645508 67.10224914550781 60.4031867980957 63.75271987915039 63.75271987915039 C 60.4031867980957 67.10224914550781 56.50313186645508 69.73184967041016 52.16086196899414 71.56847381591797 C 47.66601943969727 73.46962738037109 42.89044189453125 74.43359375 37.966796875 74.43359375 Z" stroke="none"/>
                          <path d="M 37.966796875 3 C 33.2449836730957 3 28.66600799560547 3.924095153808594 24.35705947875977 5.746635437011719 C 20.19359588623047 7.507637023925781 16.45379638671875 10.02928161621094 13.24153518676758 13.24153518676758 C 10.02927398681641 16.45379638671875 7.507621765136719 20.19359588623047 5.746635437011719 24.35705947875977 C 3.924095153808594 28.66600799560547 3 33.2449836730957 3 37.966796875 C 3 42.6886100769043 3.924095153808594 47.26758575439453 5.746635437011719 51.57653427124023 C 7.507621765136719 55.73999786376953 10.02927398681641 59.47979736328125 13.24153518676758 62.69205856323242 C 16.45379638671875 65.90431976318359 20.19359588623047 68.42597198486328 24.35705947875977 70.18695831298828 C 28.66600799560547 72.00949859619141 33.2449836730957 72.93359375 37.966796875 72.93359375 C 42.6886100769043 72.93359375 47.26758575439453 72.00949859619141 51.57653427124023 70.18695831298828 C 55.73999786376953 68.42597198486328 59.47979736328125 65.90431976318359 62.69205856323242 62.69205856323242 C 65.90431976318359 59.47979736328125 68.42597198486328 55.73999786376953 70.18695831298828 51.57653427124023 C 72.00949859619141 47.26758575439453 72.93359375 42.6886100769043 72.93359375 37.966796875 C 72.93359375 33.2449836730957 72.00949859619141 28.66600799560547 70.18695831298828 24.35705947875977 C 68.42597198486328 20.19359588623047 65.90431976318359 16.45379638671875 62.69205856323242 13.24153518676758 C 59.47979736328125 10.02928161621094 55.73999786376953 7.507637023925781 51.57653427124023 5.746635437011719 C 47.26758575439453 3.924095153808594 42.6886100769043 3 37.966796875 3 M 37.966796875 0 C 58.93528366088867 0 75.93359375 16.99832153320312 75.93359375 37.966796875 C 75.93359375 58.93528366088867 58.93528366088867 75.93359375 37.966796875 75.93359375 C 16.99831008911133 75.93359375 0 58.93528366088867 0 37.966796875 C 0 16.99832153320312 16.99831008911133 0 37.966796875 0 Z" stroke="none" fill="#1d7083"/>
                        </g>
                      </g>
                    </g>
                  </g>
                </g>
              </g>
            </g>
          </g>
        </g>
      </g>
    </g>
    <g id="medical-checkup_8216739" transform="translate(189.903 13921.996)">
      <path id="Trazado_1026830" data-name="Trazado 1026830" d="M32,120H76.6v31.858H32Z" transform="translate(-7.204 -93.646)" fill="#e6dbd4"/>
      <path id="Trazado_1026831" data-name="Trazado 1026831" d="M33.394,56H75.207A1.394,1.394,0,0,1,76.6,57.394v4.978H32V57.394A1.394,1.394,0,0,1,33.394,56Z" transform="translate(-7.204 -36.018)" fill="#e97b82"/>
      <g id="Grupo_1173001" data-name="Grupo 1173001" transform="translate(30.802 16.765)">
        <rect id="Rectángulo_414742" data-name="Rectángulo 414742" width="3.703" height="6.666" rx="1.852" transform="translate(0 0)" fill="#e6dbd4"/>
        <rect id="Rectángulo_414743" data-name="Rectángulo 414743" width="3.703" height="6.666" rx="1.852" transform="translate(9.629 0)" fill="#e6dbd4"/>
        <rect id="Rectángulo_414744" data-name="Rectángulo 414744" width="3.703" height="6.666" rx="1.852" transform="translate(19.257 0)" fill="#e6dbd4"/>
        <rect id="Rectángulo_414745" data-name="Rectángulo 414745" width="3.703" height="6.666" rx="1.852" transform="translate(28.886 0)" fill="#e6dbd4"/>
      </g>
      <ellipse id="Elipse_11823" data-name="Elipse 11823" cx="4.814" cy="4.444" rx="4.814" ry="4.444" transform="translate(53.763 33.06)" fill="#e94a41"/>
      <path id="Trazado_1026832" data-name="Trazado 1026832" d="M185,264h9.557a1.593,1.593,0,1,1,0,3.186H185Z" transform="translate(-144.971 -223.31)" fill="#e94a41"/>
      <ellipse id="Elipse_11824" data-name="Elipse 11824" cx="1.852" cy="1.481" rx="1.852" ry="1.481" transform="translate(47.837 50.095)" fill="#e97b82"/>
      <ellipse id="Elipse_11825" data-name="Elipse 11825" cx="1.852" cy="1.481" rx="1.852" ry="1.481" transform="translate(38.949 45.651)" fill="#e6dbd4"/>
      <path id="Trazado_1026833" data-name="Trazado 1026833" d="M68,19.186H63.822v-.8a2.389,2.389,0,1,0-4.779,0v.8H54.265v-.8a2.389,2.389,0,0,0-4.779,0v.8H44.707v-.8a2.389,2.389,0,0,0-4.779,0v.8H35.15v-.8a2.389,2.389,0,1,0-4.779,0v.8H26.19A2.193,2.193,0,0,0,24,21.376V58.211a.8.8,0,0,0,.8.8H69.4a.8.8,0,0,0,.8-.8V21.376A2.193,2.193,0,0,0,68,19.186Zm-7.367-.8a.8.8,0,1,1,1.593,0v3.186a.8.8,0,1,1-1.593,0Zm-9.557,0a.8.8,0,0,1,1.593,0v3.186a.8.8,0,0,1-1.593,0Zm-9.557,0a.8.8,0,0,1,1.593,0v3.186a.8.8,0,1,1-1.593,0Zm-9.557,0a.8.8,0,0,1,1.593,0v3.186a.8.8,0,1,1-1.593,0Zm-6.372,2.987a.6.6,0,0,1,.6-.6h4.181v.8a2.389,2.389,0,1,0,4.779,0v-.8h4.779v.8a2.389,2.389,0,0,0,4.779,0v-.8h4.779v.8a2.389,2.389,0,0,0,4.779,0v-.8h4.779v.8a2.389,2.389,0,1,0,4.779,0v-.8H68a.6.6,0,0,1,.6.6v4.181H25.593ZM68.6,57.415H25.593V27.15H68.6Z" fill="#0b0a0a"/>
      <path id="Trazado_1026834" data-name="Trazado 1026834" d="M129,191.132a6.371,6.371,0,0,0,12.692.8h1.644v.9a2.39,2.39,0,1,0,1.593.071v-.971h.466a1.2,1.2,0,0,1,1.024.58l1.809,3.016a.8.8,0,0,0,1.039.3l1.593-.8a.8.8,0,0,0-.712-1.425l-.933.467-1.43-2.383a2.8,2.8,0,0,0-2.39-1.353h-.466v-1.768a2.389,2.389,0,0,0-.9-4.6h-.7V183a2.219,2.219,0,0,0-2.217-2.217h-6.1l-.334-3.007A1.989,1.989,0,0,0,132.709,176h-1.32a.8.8,0,1,0,0,1.593h1.32a.4.4,0,0,1,.4.354l.777,6.991A6.382,6.382,0,0,0,129,191.132Zm15.033,4.779a.8.8,0,1,1,.8-.8A.8.8,0,0,1,144.033,195.911Zm-7.283-5.575a1.6,1.6,0,0,0-.739-.662l-.1-.931h3.6a4.743,4.743,0,0,1,.575,1.593Zm-1.107-3.974a4.748,4.748,0,0,1,2.366.788H135.73Zm6.049,3.974a6.319,6.319,0,0,0-.415-1.593h2.059v1.593Zm3.138-3.982a.8.8,0,0,1-.8.8H140.34a6.415,6.415,0,0,0-1.888-1.593h5.581A.8.8,0,0,1,144.829,186.354Zm-3.71-3.982a.625.625,0,0,1,.624.624v.969h-6.367l-.177-1.593Zm-7.059,4.167.165,1.489v0l.2,1.822a1.592,1.592,0,1,0,2.322,2.078h3.333a4.778,4.778,0,1,1-6.023-5.391Z" transform="translate(-94.547 -144.071)" fill="#002940"/>
      <path id="Trazado_1026835" data-name="Trazado 1026835" d="M317.575,187.15A5.575,5.575,0,1,0,312,181.575,5.581,5.581,0,0,0,317.575,187.15Zm0-9.557a3.982,3.982,0,1,1-3.982,3.982A3.987,3.987,0,0,1,317.575,177.593Z" transform="translate(-259.328 -144.071)" fill="#002940"/>
      <path id="Trazado_1026836" data-name="Trazado 1026836" d="M344.8,211.186h.8v.8a.8.8,0,0,0,1.593,0v-.8h.8a.8.8,0,0,0,0-1.593h-.8v-.8a.8.8,0,1,0-1.593,0v.8h-.8a.8.8,0,0,0,0,1.593Z" transform="translate(-288.142 -172.885)" fill="#002940"/>
    </g>
  </g>
</svg>
