<svg xmlns="http://www.w3.org/2000/svg" xmlns:xlink="http://www.w3.org/1999/xlink" width="93.934" height="93.934" viewBox="0 0 93.934 93.934">
  <defs>
    <filter id="Trazado_982547" x="0" y="0" width="93.934" height="93.934" filterUnits="userSpaceOnUse">
      <feOffset dy="3" input="SourceAlpha"/>
      <feGaussianBlur stdDeviation="3" result="blur"/>
      <feFlood flood-opacity="0.161"/>
      <feComposite operator="in" in2="blur"/>
      <feComposite in="SourceGraphic"/>
    </filter>
  </defs>
  <g id="Grupo_1173007" data-name="Grupo 1173007" transform="translate(-505.033 -13916)">
    <g id="Grupo_1171990" data-name="Grupo 1171990" transform="translate(514.033 13922)">
      <g id="Grupo_1167337" data-name="Grupo 1167337" transform="translate(0)">
        <g id="Grupo_1166720" data-name="Grupo 1166720">
          <g id="Grupo_1164305" data-name="Grupo 1164305">
            <g id="Grupo_1163948" data-name="Grupo 1163948">
              <g id="Grupo_1158168" data-name="Grupo 1158168">
                <g id="Grupo_1152576" data-name="Grupo 1152576">
                  <g id="Grupo_1148633" data-name="Grupo 1148633">
                    <g id="Grupo_1148525" data-name="Grupo 1148525">
                      <g transform="matrix(1, 0, 0, 1, -9, -6)" filter="url(#Trazado_982547)">
                        <g id="Trazado_982547-2" data-name="Trazado 982547" transform="translate(9 6)" fill="#e9f9fd">
                          <path d="M 37.966796875 74.43359375 C 33.04315185546875 74.43359375 28.26757431030273 73.46962738037109 23.77274131774902 71.56847381591797 C 19.43047523498535 69.73184967041016 15.53040790557861 67.10224914550781 12.18087482452393 63.75271987915039 C 8.831341743469238 60.4031867980957 6.201741218566895 56.50312042236328 4.365118980407715 52.16086196899414 C 2.463963508605957 47.66601943969727 1.499996900558472 42.89044189453125 1.499996900558472 37.966796875 C 1.499996900558472 33.04315185546875 2.463963508605957 28.26757431030273 4.365118980407715 23.77274131774902 C 6.201741218566895 19.43047523498535 8.831341743469238 15.53040790557861 12.18087482452393 12.18087482452393 C 15.53040790557861 8.831341743469238 19.43047523498535 6.201741218566895 23.77274131774902 4.365118980407715 C 28.26757431030273 2.463963508605957 33.04315185546875 1.499996900558472 37.966796875 1.499996900558472 C 42.89044189453125 1.499996900558472 47.66601943969727 2.463963508605957 52.16086196899414 4.365118980407715 C 56.50312042236328 6.201741218566895 60.4031867980957 8.831341743469238 63.75271987915039 12.18087482452393 C 67.10224914550781 15.53040790557861 69.73184967041016 19.43047523498535 71.56847381591797 23.77274131774902 C 73.46962738037109 28.26757431030273 74.43359375 33.04315185546875 74.43359375 37.966796875 C 74.43359375 42.89044189453125 73.46962738037109 47.66601943969727 71.56847381591797 52.16086196899414 C 69.73184967041016 56.50313186645508 67.10224914550781 60.4031867980957 63.75271987915039 63.75271987915039 C 60.4031867980957 67.10224914550781 56.50313186645508 69.73184967041016 52.16086196899414 71.56847381591797 C 47.66601943969727 73.46962738037109 42.89044189453125 74.43359375 37.966796875 74.43359375 Z" stroke="none"/>
                          <path d="M 37.966796875 3 C 33.2449836730957 3 28.66600799560547 3.924095153808594 24.35705947875977 5.746635437011719 C 20.19359588623047 7.507637023925781 16.45379638671875 10.02928161621094 13.24153518676758 13.24153518676758 C 10.02927398681641 16.45379638671875 7.507621765136719 20.19359588623047 5.746635437011719 24.35705947875977 C 3.924095153808594 28.66600799560547 3 33.2449836730957 3 37.966796875 C 3 42.6886100769043 3.924095153808594 47.26758575439453 5.746635437011719 51.57653427124023 C 7.507621765136719 55.73999786376953 10.02927398681641 59.47979736328125 13.24153518676758 62.69205856323242 C 16.45379638671875 65.90431976318359 20.19359588623047 68.42597198486328 24.35705947875977 70.18695831298828 C 28.66600799560547 72.00949859619141 33.2449836730957 72.93359375 37.966796875 72.93359375 C 42.6886100769043 72.93359375 47.26758575439453 72.00949859619141 51.57653427124023 70.18695831298828 C 55.73999786376953 68.42597198486328 59.47979736328125 65.90431976318359 62.69205856323242 62.69205856323242 C 65.90431976318359 59.47979736328125 68.42597198486328 55.73999786376953 70.18695831298828 51.57653427124023 C 72.00949859619141 47.26758575439453 72.93359375 42.6886100769043 72.93359375 37.966796875 C 72.93359375 33.2449836730957 72.00949859619141 28.66600799560547 70.18695831298828 24.35705947875977 C 68.42597198486328 20.19359588623047 65.90431976318359 16.45379638671875 62.69205856323242 13.24153518676758 C 59.47979736328125 10.02928161621094 55.73999786376953 7.507637023925781 51.57653427124023 5.746635437011719 C 47.26758575439453 3.924095153808594 42.6886100769043 3 37.966796875 3 M 37.966796875 0 C 58.93528366088867 0 75.93359375 16.99832153320312 75.93359375 37.966796875 C 75.93359375 58.93528366088867 58.93528366088867 75.93359375 37.966796875 75.93359375 C 16.99831008911133 75.93359375 0 58.93528366088867 0 37.966796875 C 0 16.99832153320312 16.99831008911133 0 37.966796875 0 Z" stroke="none" fill="#1d7083"/>
                        </g>
                      </g>
                    </g>
                  </g>
                </g>
              </g>
            </g>
          </g>
        </g>
      </g>
    </g>
    <g id="holiday_18544149" transform="translate(520.789 13929.913)">
      <g id="Grupo_1173006" data-name="Grupo 1173006" transform="translate(8.595 8.76)">
        <g id="Grupo_1173003" data-name="Grupo 1173003" transform="translate(11.059 0)">
          <path id="Trazado_1026837" data-name="Trazado 1026837" d="M164.4,50.712a2.815,2.815,0,0,1,2.807,2.807v24.2a2.816,2.816,0,0,1-2.807,2.807h-27.88a2.816,2.816,0,0,1-2.807-2.807v-24.2a2.815,2.815,0,0,1,2.807-2.807Z" transform="translate(-133.716 -47.513)" fill="#f4f6f8" fill-rule="evenodd"/>
          <path id="Trazado_1026838" data-name="Trazado 1026838" d="M133.716,57.894H167.21V54.48a2.815,2.815,0,0,0-2.807-2.807h-27.88a2.815,2.815,0,0,0-2.807,2.807Z" transform="translate(-133.716 -48.384)" fill="#c6ea94" fill-rule="evenodd"/>
          <path id="Trazado_1026839" data-name="Trazado 1026839" d="M213.552,16.665a.464.464,0,0,1,.464-.464H216.7a.464.464,0,0,1,.464.464v5.472a.464.464,0,0,1-.464.464h-2.681a.464.464,0,0,1-.464-.464Zm-14.908,0a.464.464,0,0,0-.464-.464H195.5a.464.464,0,0,0-.464.464v5.472a.464.464,0,0,0,.464.464h2.681a.464.464,0,0,0,.464-.464Zm5.649,0a.464.464,0,0,1,.464-.464h2.683a.464.464,0,0,1,.464.464v5.472a.464.464,0,0,1-.464.464h-2.683a.464.464,0,0,1-.464-.464Z" transform="translate(-189.351 -16.201)" fill="#a9b0bb" fill-rule="evenodd"/>
        </g>
        <g id="Grupo_1173004" data-name="Grupo 1173004" transform="translate(31.208 12.444)">
          <path id="Trazado_1026840" data-name="Trazado 1026840" d="M356.359,150.426a5.3,5.3,0,1,1-5.3,5.3A5.3,5.3,0,0,1,356.359,150.426Z" transform="translate(-351.055 -150.426)" fill="#fdcd56" fill-rule="evenodd"/>
        </g>
        <g id="Grupo_1173005" data-name="Grupo 1173005" transform="translate(0 12.444)">
          <path id="Trazado_1026841" data-name="Trazado 1026841" d="M24.478,367.629a2.287,2.287,0,0,0,1.142.306h16.69a.935.935,0,0,1,.935.935h0a.935.935,0,0,1-.935.935H25.123a2.285,2.285,0,0,1-1.144-.307c-1.575-.91-6.284-3.616-9.051-5.061a.935.935,0,0,1-.4-1.262h0a.935.935,0,0,1,1.262-.4c2.577,1.345,6.84,3.786,8.684,4.85Z" transform="translate(-14.426 -342.996)" fill="#b9835e" fill-rule="evenodd"/>
          <path id="Trazado_1026842" data-name="Trazado 1026842" d="M75.887,150.426l0,.818m0,0H75.9A12.118,12.118,0,0,1,87.96,162.218a.184.184,0,0,1-.329.128,3.359,3.359,0,0,0-2.654-1.126,3.22,3.22,0,0,0-2.83,1.378c-.127.226-.288.307-.4.084a2.144,2.144,0,0,0-.5-.648,3.567,3.567,0,0,0-2.36-.814,3.169,3.169,0,0,0-2.871,1.455c-.1.2-.251.232-.342.037A3.118,3.118,0,0,0,72.8,161.22a3.621,3.621,0,0,0-2.322.776,2.108,2.108,0,0,0-.618.838c-.072.187-.162.151-.223-.009a3.048,3.048,0,0,0-2.925-1.605,3.379,3.379,0,0,0-2.667,1.133c-.108.164-.366.3-.329-.072a12.241,12.241,0,0,1,12.171-11.038Z" transform="translate(-59.14 -150.426)" fill="#f76c82" fill-rule="evenodd"/>
        </g>
      </g>
      <path id="Trazado_1026843" data-name="Trazado 1026843" d="M36.819,47a.286.286,0,0,0-.286-.286H19.843a2.933,2.933,0,0,1-1.466-.393h0c-1.84-1.06-6.09-3.495-8.66-4.836a.286.286,0,1,0-.265.507c2.774,1.448,7.5,4.162,9.075,5.074h0a1.637,1.637,0,0,0,.819.22H36.533A.286.286,0,0,0,36.819,47m0,0h0m1.3,0a1.584,1.584,0,0,1-1.584,1.584H19.346a2.935,2.935,0,0,1-1.469-.394c-1.57-.907-6.267-3.607-9.026-5.048a1.584,1.584,0,0,1-.671-2.137h0a1.584,1.584,0,0,1,2.137-.671c2.584,1.349,6.858,3.8,8.708,4.863h0a1.637,1.637,0,0,0,.818.219H24.6l.012-3.076H22.461a3.467,3.467,0,0,1-3.456-3.456V34.782a.65.65,0,0,1-.455-.6q0-.061,0-.122a1.238,1.238,0,0,0-.419-.772,2.884,2.884,0,0,0-1.963-.681,2.881,2.881,0,0,0-2.006.715,1.2,1.2,0,0,0-.4.84.649.649,0,0,1-1.3-.005A12.884,12.884,0,0,1,19.005,23V14.686a3.466,3.466,0,0,1,3.456-3.456H24.69V8.649A.649.649,0,0,1,25.339,8h3.608a.649.649,0,0,1,.649.649V11.23h4.351V8.649A.649.649,0,0,1,34.6,8h3.61a.649.649,0,0,1,.649.649V11.23h4.351V8.649A.649.649,0,0,1,43.856,8h3.608a.649.649,0,0,1,.649.649V11.23h2.229A3.466,3.466,0,0,1,53.8,14.686v24.2a3.467,3.467,0,0,1-3.456,3.456H25.907l-.012,3.076H36.533A1.584,1.584,0,0,1,38.117,47ZM20.3,33.272v5.615a2.165,2.165,0,0,0,2.158,2.158h2.153l.027-6.883h0c0-.02,0-.038,0-.058h0a1.217,1.217,0,0,0-.419-.811,2.88,2.88,0,0,0-1.966-.684,2.966,2.966,0,0,0-1.9.622l-.047.041Zm0-10.914a12.8,12.8,0,0,1,4.389-1.008v-.187a.649.649,0,0,1,1.3.005v.182A12.766,12.766,0,0,1,38.117,34.161a.649.649,0,0,1-1.3,0,1.183,1.183,0,0,0-.392-.836,2.853,2.853,0,0,0-2-.713,2.909,2.909,0,0,0-1.973.684,1.25,1.25,0,0,0-.429.793c0,.009,0,.018,0,.027v.033c0,.008,0,.018,0,.027s0,.012,0,.018,0,0,0,0a.649.649,0,0,1-.676.616h0a.649.649,0,0,1-.617-.648s0-.025,0-.028a1.229,1.229,0,0,0-.458-.876,3.191,3.191,0,0,0-3.895.029,1.244,1.244,0,0,0-.435.809v.025l-.028,6.924h24.43A2.165,2.165,0,0,0,52.5,38.887V18.749H20.3Zm3.06.442A11.607,11.607,0,0,0,14,31.857a4.407,4.407,0,0,1,2.165-.546,4.3,4.3,0,0,1,2.453.729A14.323,14.323,0,0,1,23.364,22.8ZM24.69,12.528H22.461A2.164,2.164,0,0,0,20.3,14.686v2.765H52.5V14.686a2.164,2.164,0,0,0-2.158-2.158H48.113v2.52a.649.649,0,0,1-.649.649H43.856a.649.649,0,0,1-.649-.649v-2.52H38.855v2.52a.649.649,0,0,1-.649.649H34.6a.649.649,0,0,1-.649-.649v-2.52H29.6v2.52a.649.649,0,0,1-.649.649H25.339a.649.649,0,0,1-.649-.649ZM19.937,31.934a4.453,4.453,0,0,1,2.316-.623,4.317,4.317,0,0,1,2.4.691l.034-8.646a13.307,13.307,0,0,0-4.748,8.578Zm10.723,0a13.168,13.168,0,0,0-4.678-8.586L25.948,32a4.346,4.346,0,0,1,2.4-.686A4.429,4.429,0,0,1,30.66,31.936ZM27.3,22.8a14.192,14.192,0,0,1,4.673,9.24,4.323,4.323,0,0,1,2.455-.727,4.383,4.383,0,0,1,2.168.55A11.476,11.476,0,0,0,27.3,22.8ZM44.5,9.3v5.1h2.31V9.3Zm.53,11.219a5.952,5.952,0,1,1-5.953,5.953A5.953,5.953,0,0,1,45.035,20.517Zm0,1.3a4.654,4.654,0,1,0,4.655,4.655,4.655,4.655,0,0,0-4.655-4.655Zm-.661,1.8,0-.159a.649.649,0,1,1,1.3-.031l0,.2a2.722,2.722,0,0,1,.431.18,1.731,1.731,0,0,1,.631.534.649.649,0,0,1-1.084.713.417.417,0,0,0-.153-.1,1.141,1.141,0,0,0-.462-.146.53.53,0,1,0,0,1.031,1.888,1.888,0,0,1,1.953,1.813A1.834,1.834,0,0,1,45.7,29.362l0,.116a.649.649,0,1,1-1.3.032l0-.13a2.337,2.337,0,0,1-.9-.589.649.649,0,0,1,.89-.945.861.861,0,0,0,.646.324.53.53,0,1,0,0-1.031,1.888,1.888,0,0,1-1.953-1.813,1.833,1.833,0,0,1,1.293-1.707ZM35.245,9.3v5.1h2.312V9.3ZM28.3,9.3h-2.31v5.1H28.3ZM19,53.536a.649.649,0,1,1-1.043-.773l2.556-3.448a.649.649,0,0,1,.521-.263H32.909a.649.649,0,0,1,.522.263l2.552,3.448a.649.649,0,1,1-1.043.772L32.582,50.35H21.358Z" fill-rule="evenodd"/>
    </g>
  </g>
</svg>
