<svg xmlns="http://www.w3.org/2000/svg" xmlns:xlink="http://www.w3.org/1999/xlink" width="93.934" height="93.934" viewBox="0 0 93.934 93.934">
  <defs>
    <filter id="Trazado_982547" x="0" y="0" width="93.934" height="93.934" filterUnits="userSpaceOnUse">
      <feOffset dy="3" input="SourceAlpha"/>
      <feGaussianBlur stdDeviation="3" result="blur"/>
      <feFlood flood-opacity="0.161"/>
      <feComposite operator="in" in2="blur"/>
      <feComposite in="SourceGraphic"/>
    </filter>
  </defs>
  <g id="Grupo_1171991" data-name="Grupo 1171991" transform="translate(9 6)">
    <g id="Grupo_1167337" data-name="Grupo 1167337" transform="translate(0)">
      <g id="Grupo_1166720" data-name="Grupo 1166720">
        <g id="Grupo_1164305" data-name="Grupo 1164305">
          <g id="Grupo_1163948" data-name="Grupo 1163948">
            <g id="Grupo_1158168" data-name="Grupo 1158168">
              <g id="Grupo_1152576" data-name="Grupo 1152576">
                <g id="Grupo_1148633" data-name="Grupo 1148633">
                  <g id="Grupo_1148525" data-name="Grupo 1148525">
                    <g transform="matrix(1, 0, 0, 1, -9, -6)" filter="url(#Trazado_982547)">
                      <g id="Trazado_982547-2" data-name="Trazado 982547" transform="translate(9 6)" fill="#e9f9fd">
                        <path d="M 37.966796875 74.43359375 C 33.04315185546875 74.43359375 28.26757431030273 73.46962738037109 23.77274131774902 71.56847381591797 C 19.43047523498535 69.73184967041016 15.53040790557861 67.10224914550781 12.18087482452393 63.75271987915039 C 8.831341743469238 60.4031867980957 6.201741218566895 56.50312042236328 4.365118980407715 52.16086196899414 C 2.463963508605957 47.66601943969727 1.499996900558472 42.89044189453125 1.499996900558472 37.966796875 C 1.499996900558472 33.04315185546875 2.463963508605957 28.26757431030273 4.365118980407715 23.77274131774902 C 6.201741218566895 19.43047523498535 8.831341743469238 15.53040790557861 12.18087482452393 12.18087482452393 C 15.53040790557861 8.831341743469238 19.43047523498535 6.201741218566895 23.77274131774902 4.365118980407715 C 28.26757431030273 2.463963508605957 33.04315185546875 1.499996900558472 37.966796875 1.499996900558472 C 42.89044189453125 1.499996900558472 47.66601943969727 2.463963508605957 52.16086196899414 4.365118980407715 C 56.50312042236328 6.201741218566895 60.4031867980957 8.831341743469238 63.75271987915039 12.18087482452393 C 67.10224914550781 15.53040790557861 69.73184967041016 19.43047523498535 71.56847381591797 23.77274131774902 C 73.46962738037109 28.26757431030273 74.43359375 33.04315185546875 74.43359375 37.966796875 C 74.43359375 42.89044189453125 73.46962738037109 47.66601943969727 71.56847381591797 52.16086196899414 C 69.73184967041016 56.50313186645508 67.10224914550781 60.4031867980957 63.75271987915039 63.75271987915039 C 60.4031867980957 67.10224914550781 56.50313186645508 69.73184967041016 52.16086196899414 71.56847381591797 C 47.66601943969727 73.46962738037109 42.89044189453125 74.43359375 37.966796875 74.43359375 Z" stroke="none"/>
                        <path d="M 37.966796875 3 C 33.2449836730957 3 28.66600799560547 3.924095153808594 24.35705947875977 5.746635437011719 C 20.19359588623047 7.507637023925781 16.45379638671875 10.02928161621094 13.24153518676758 13.24153518676758 C 10.02927398681641 16.45379638671875 7.507621765136719 20.19359588623047 5.746635437011719 24.35705947875977 C 3.924095153808594 28.66600799560547 3 33.2449836730957 3 37.966796875 C 3 42.6886100769043 3.924095153808594 47.26758575439453 5.746635437011719 51.57653427124023 C 7.507621765136719 55.73999786376953 10.02927398681641 59.47979736328125 13.24153518676758 62.69205856323242 C 16.45379638671875 65.90431976318359 20.19359588623047 68.42597198486328 24.35705947875977 70.18695831298828 C 28.66600799560547 72.00949859619141 33.2449836730957 72.93359375 37.966796875 72.93359375 C 42.6886100769043 72.93359375 47.26758575439453 72.00949859619141 51.57653427124023 70.18695831298828 C 55.73999786376953 68.42597198486328 59.47979736328125 65.90431976318359 62.69205856323242 62.69205856323242 C 65.90431976318359 59.47979736328125 68.42597198486328 55.73999786376953 70.18695831298828 51.57653427124023 C 72.00949859619141 47.26758575439453 72.93359375 42.6886100769043 72.93359375 37.966796875 C 72.93359375 33.2449836730957 72.00949859619141 28.66600799560547 70.18695831298828 24.35705947875977 C 68.42597198486328 20.19359588623047 65.90431976318359 16.45379638671875 62.69205856323242 13.24153518676758 C 59.47979736328125 10.02928161621094 55.73999786376953 7.507637023925781 51.57653427124023 5.746635437011719 C 47.26758575439453 3.924095153808594 42.6886100769043 3 37.966796875 3 M 37.966796875 0 C 58.93528366088867 0 75.93359375 16.99832153320312 75.93359375 37.966796875 C 75.93359375 58.93528366088867 58.93528366088867 75.93359375 37.966796875 75.93359375 C 16.99831008911133 75.93359375 0 58.93528366088867 0 37.966796875 C 0 16.99832153320312 16.99831008911133 0 37.966796875 0 Z" stroke="none" fill="#1d7083"/>
                      </g>
                    </g>
                  </g>
                </g>
              </g>
            </g>
          </g>
        </g>
      </g>
    </g>
    <g id="car_2942079" transform="translate(13.701 14.701)">
      <g id="Grupo_1172928" data-name="Grupo 1172928" transform="translate(1.751 1.751)">
        <g id="Grupo_1172898" data-name="Grupo 1172898" transform="translate(0)">
          <path id="Trazado_1026640" data-name="Trazado 1026640" d="M40.254,10.436a2.956,2.956,0,0,1,1.193.608l-.008.008a2.482,2.482,0,0,0-.413-.045,3,3,0,1,0,1.5,5.591v3.415H36.269a4.527,4.527,0,0,0-2.747-2.747V11.006L32,6.953A2.985,2.985,0,0,0,29.191,5h-11.6a2.985,2.985,0,0,0-2.807,1.951l-.938,2.5-.585,1.554v6.612a4.4,4.4,0,0,0-2.252-.608,4.506,4.506,0,0,0-4.248,3H2v-3a3,3,0,0,0,1.141-5.779,2.937,2.937,0,0,1,1.4-.615l5.711-1.111,1.494-3.73A6,6,0,0,1,17.326,2H29.454A6,6,0,0,1,35.03,5.775l1.494,3.73Z" transform="translate(-2 -2)" fill="#b4dd7f"/>
        </g>
        <g id="Grupo_1172899" data-name="Grupo 1172899" transform="translate(11.258 9.006)">
          <path id="Trazado_1026641" data-name="Trazado 1026641" d="M26.006,14v9.006H19a4.516,4.516,0,0,0-2-2.394V15.5h2.252a2.246,2.246,0,0,0,1.591-.66A2.13,2.13,0,0,0,21.368,14h4.638Z" transform="translate(-17 -14)" fill="#a0d468"/>
        </g>
        <g id="Grupo_1172900" data-name="Grupo 1172900" transform="translate(20.264 9.006)">
          <path id="Trazado_1026642" data-name="Trazado 1026642" d="M40.258,14v6.259a4.513,4.513,0,0,0-5.749,2.747H29V14Z" transform="translate(-29 -14)" fill="#a0d468"/>
        </g>
        <g id="Grupo_1172901" data-name="Grupo 1172901" transform="translate(20.264 3.002)">
          <path id="Trazado_1026643" data-name="Trazado 1026643" d="M38.734,7.951,40.258,12H29V6h6.927A2.985,2.985,0,0,1,38.734,7.951Z" transform="translate(-29 -6)" fill="#69d6f4"/>
        </g>
        <g id="Grupo_1172902" data-name="Grupo 1172902" transform="translate(11.843 3.002)">
          <path id="Trazado_1026644" data-name="Trazado 1026644" d="M26.2,12H21.563a2.08,2.08,0,0,0,.135-.751.753.753,0,0,0-.751-.751H17.915l-.135-.053.938-2.5A2.985,2.985,0,0,1,21.525,6H26.2Z" transform="translate(-17.78 -6)" fill="#69d6f4"/>
        </g>
        <g id="Grupo_1172903" data-name="Grupo 1172903" transform="translate(11.258 7.453)">
          <path id="Trazado_1026645" data-name="Trazado 1026645" d="M17.72,11.983h3.032a.753.753,0,0,1,.751.751,2.08,2.08,0,0,1-.135.751,2.13,2.13,0,0,1-.525.841,2.246,2.246,0,0,1-1.591.66H17v-1.5l.585-1.554Z" transform="translate(-17 -11.93)" fill="#ccd1d9"/>
        </g>
        <g id="Grupo_1172904" data-name="Grupo 1172904" transform="translate(0 9.231)">
          <path id="Trazado_1026646" data-name="Trazado 1026646" d="M3.141,14.3A3,3,0,0,1,2,20.079v-3.43A2.986,2.986,0,0,1,3.141,14.3Z" transform="translate(-2 -14.3)" fill="#ff826e"/>
        </g>
        <g id="Grupo_1172905" data-name="Grupo 1172905" transform="translate(36.025 9.006)">
          <path id="Trazado_1026647" data-name="Trazado 1026647" d="M54.5,16.342v3.25A3,3,0,1,1,53,14a2.482,2.482,0,0,1,.413.045l.008-.008A3.014,3.014,0,0,1,54.5,16.342Z" transform="translate(-50 -14)" fill="#ff826e"/>
        </g>
        <g id="Grupo_1172906" data-name="Grupo 1172906" transform="translate(0 18.012)">
          <path id="Trazado_1026648" data-name="Trazado 1026648" d="M6.5,27.5A4.535,4.535,0,0,0,6.758,29H5a3,3,0,0,1-3-3H6.758A4.535,4.535,0,0,0,6.5,27.5Z" transform="translate(-2 -26)" fill="#aab2bd"/>
        </g>
        <g id="Grupo_1172907" data-name="Grupo 1172907" transform="translate(13.254 18.012)">
          <path id="Trazado_1026649" data-name="Trazado 1026649" d="M19.915,27.5A4.535,4.535,0,0,0,19.66,26H32.179a4.542,4.542,0,0,0,0,3H19.66A4.535,4.535,0,0,0,19.915,27.5Z" transform="translate(-19.66 -26)" fill="#aab2bd"/>
        </g>
        <g id="Grupo_1172908" data-name="Grupo 1172908" transform="translate(34.269 18.012)">
          <path id="Trazado_1026650" data-name="Trazado 1026650" d="M47.915,27.5A4.535,4.535,0,0,0,47.66,26h6.259a3,3,0,0,1-3,3H47.66A4.535,4.535,0,0,0,47.915,27.5Z" transform="translate(-47.66 -26)" fill="#aab2bd"/>
        </g>
        <g id="Grupo_1172909" data-name="Grupo 1172909" transform="translate(4.503 15.01)">
          <path id="Trazado_1026651" data-name="Trazado 1026651" d="M8.255,25A4.506,4.506,0,0,1,12.5,22a4.4,4.4,0,0,1,2.252.608A4.5,4.5,0,1,1,8.255,25Z" transform="translate(-8 -22)" fill="#838f9b"/>
        </g>
        <g id="Grupo_1172910" data-name="Grupo 1172910" transform="translate(25.518 15.01)">
          <path id="Trazado_1026652" data-name="Trazado 1026652" d="M44.751,25a4.542,4.542,0,0,1,0,3c-.053.135-.105.27-.165.4a6.022,6.022,0,0,0-2.146-.4H40.5A1.5,1.5,0,1,0,39,26.5,1.505,1.505,0,0,0,40.5,28H36.255a4.505,4.505,0,1,1,8.5-3Z" transform="translate(-36 -22)" fill="#838f9b"/>
        </g>
        <g id="Grupo_1172911" data-name="Grupo 1172911" transform="translate(27.814 18.302)">
          <ellipse id="Elipse_11800" data-name="Elipse 11800" cx="1.427" cy="0.951" rx="1.427" ry="0.951" transform="translate(0 0)" fill="#ccd1d9"/>
        </g>
        <g id="Grupo_1172912" data-name="Grupo 1172912" transform="translate(6.889 18.302)">
          <ellipse id="Elipse_11801" data-name="Elipse 11801" cx="2.378" cy="0.951" rx="2.378" ry="0.951" transform="translate(0 0)" fill="#ccd1d9"/>
        </g>
        <g id="Grupo_1172913" data-name="Grupo 1172913" transform="translate(4.503 30.246)">
          <path id="Trazado_1026653" data-name="Trazado 1026653" d="M9.141,42.3A3,3,0,0,1,8,48.079v-3.43A2.986,2.986,0,0,1,9.141,42.3Z" transform="translate(-8 -42.3)" fill="#fcd770"/>
        </g>
        <g id="Grupo_1172914" data-name="Grupo 1172914" transform="translate(40.528 30.021)">
          <path id="Trazado_1026654" data-name="Trazado 1026654" d="M60.5,44.342v3.25A3,3,0,1,1,59,42a2.481,2.481,0,0,1,.413.045l.008-.008a3.014,3.014,0,0,1,1.081,2.3Z" transform="translate(-56 -42)" fill="#fcd770"/>
        </g>
        <g id="Grupo_1172915" data-name="Grupo 1172915" transform="translate(4.503 21.014)">
          <path id="Trazado_1026655" data-name="Trazado 1026655" d="M46.254,38.436a2.956,2.956,0,0,1,1.193.608l-.007.008a2.482,2.482,0,0,0-.413-.045,3,3,0,1,0,1.5,5.591v3.415H42.269a4.527,4.527,0,0,0-2.747-2.747V39.006L38,34.953A2.985,2.985,0,0,0,35.191,33h-11.6a2.985,2.985,0,0,0-2.807,1.951l-.938,2.5-.585,1.554v6.612a4.4,4.4,0,0,0-2.252-.608,4.506,4.506,0,0,0-4.248,3H8v-3a3,3,0,0,0,1.141-5.779,2.937,2.937,0,0,1,1.4-.615l5.711-1.111,1.494-3.73A6,6,0,0,1,23.326,30H35.454a6.012,6.012,0,0,1,5.576,3.775l1.494,3.73Z" transform="translate(-8 -30)" fill="#ff826e"/>
        </g>
        <g id="Grupo_1172916" data-name="Grupo 1172916" transform="translate(15.761 28.467)">
          <path id="Trazado_1026656" data-name="Trazado 1026656" d="M23.72,39.983h3.032a.753.753,0,0,1,.751.751,2.08,2.08,0,0,1-.135.751,2.13,2.13,0,0,1-.525.841,2.246,2.246,0,0,1-1.591.66H23v-1.5l.585-1.554Z" transform="translate(-23 -39.93)" fill="#ccd1d9"/>
        </g>
        <g id="Grupo_1172917" data-name="Grupo 1172917" transform="translate(24.767 24.017)">
          <path id="Trazado_1026657" data-name="Trazado 1026657" d="M44.734,35.951,46.258,40H35V34h6.927A2.985,2.985,0,0,1,44.734,35.951Z" transform="translate(-35 -34)" fill="#69d6f4"/>
        </g>
        <g id="Grupo_1172918" data-name="Grupo 1172918" transform="translate(16.346 24.017)">
          <path id="Trazado_1026658" data-name="Trazado 1026658" d="M32.2,40H27.563a2.08,2.08,0,0,0,.135-.751.753.753,0,0,0-.751-.751H23.915l-.135-.053.938-2.5A2.985,2.985,0,0,1,27.525,34H32.2Z" transform="translate(-23.78 -34)" fill="#69d6f4"/>
        </g>
        <g id="Grupo_1172919" data-name="Grupo 1172919" transform="translate(15.761 30.021)">
          <path id="Trazado_1026659" data-name="Trazado 1026659" d="M32.006,42v9.006H25a4.516,4.516,0,0,0-2-2.394V43.5h2.252a2.246,2.246,0,0,0,1.591-.66A2.13,2.13,0,0,0,27.368,42h4.638Z" transform="translate(-23 -42)" fill="#fc6e51"/>
        </g>
        <g id="Grupo_1172920" data-name="Grupo 1172920" transform="translate(24.767 30.021)">
          <path id="Trazado_1026660" data-name="Trazado 1026660" d="M46.258,42v6.259a4.513,4.513,0,0,0-5.749,2.747H35V42Z" transform="translate(-35 -42)" fill="#fc6e51"/>
        </g>
        <g id="Grupo_1172921" data-name="Grupo 1172921" transform="translate(4.503 39.027)">
          <path id="Trazado_1026661" data-name="Trazado 1026661" d="M11,57a3,3,0,0,1-3-3h4.758a4.542,4.542,0,0,0,0,3Z" transform="translate(-8 -54)" fill="#aab2bd"/>
        </g>
        <g id="Grupo_1172922" data-name="Grupo 1172922" transform="translate(17.757 39.027)">
          <path id="Trazado_1026662" data-name="Trazado 1026662" d="M37.923,55.5a4.535,4.535,0,0,0,.255,1.5H25.66a4.542,4.542,0,0,0,0-3H38.179A4.535,4.535,0,0,0,37.923,55.5Z" transform="translate(-25.66 -54)" fill="#aab2bd"/>
        </g>
        <g id="Grupo_1172923" data-name="Grupo 1172923" transform="translate(38.772 39.027)">
          <path id="Trazado_1026663" data-name="Trazado 1026663" d="M53.915,55.5A4.535,4.535,0,0,0,53.66,54h6.259a3,3,0,0,1-3,3H53.66A4.535,4.535,0,0,0,53.915,55.5Z" transform="translate(-53.66 -54)" fill="#aab2bd"/>
        </g>
        <g id="Grupo_1172924" data-name="Grupo 1172924" transform="translate(9.006 36.025)">
          <path id="Trazado_1026664" data-name="Trazado 1026664" d="M20.755,50.608A4.5,4.5,0,1,1,18.5,50,4.4,4.4,0,0,1,20.755,50.608Z" transform="translate(-14 -50)" fill="#838f9b"/>
        </g>
        <g id="Grupo_1172925" data-name="Grupo 1172925" transform="translate(30.021 36.025)">
          <path id="Trazado_1026665" data-name="Trazado 1026665" d="M50.751,53A4.5,4.5,0,1,1,48,50.255,4.535,4.535,0,0,1,50.751,53Z" transform="translate(-42 -50)" fill="#838f9b"/>
        </g>
        <g id="Grupo_1172926" data-name="Grupo 1172926" transform="translate(12.596 39.228)">
          <circle id="Elipse_11802" data-name="Elipse 11802" cx="1.427" cy="1.427" r="1.427" transform="translate(0 0)" fill="#ccd1d9"/>
        </g>
        <g id="Grupo_1172927" data-name="Grupo 1172927" transform="translate(32.57 39.228)">
          <circle id="Elipse_11803" data-name="Elipse 11803" cx="1.427" cy="1.427" r="1.427" transform="translate(0 0)" fill="#ccd1d9"/>
        </g>
      </g>
      <g id="Grupo_1172932" data-name="Grupo 1172932" transform="translate(1 1)">
        <g id="Grupo_1172929" data-name="Grupo 1172929" transform="translate(40.528 30.021)">
          <path id="Trazado_1026666" data-name="Trazado 1026666" d="M58.753,48.505a3.753,3.753,0,1,1,0-7.505,3.263,3.263,0,0,1,.456.04l-.145,1.5L59,42.527a1.777,1.777,0,0,0-.245-.026,2.252,2.252,0,1,0,0,4.5,2.211,2.211,0,0,0,1.124-.314l.756,1.3a3.7,3.7,0,0,1-1.879.518Z" transform="translate(-55 -41)"/>
        </g>
        <g id="Grupo_1172930" data-name="Grupo 1172930" transform="translate(36.025 9.006)">
          <path id="Trazado_1026667" data-name="Trazado 1026667" d="M52.753,20.505a3.753,3.753,0,0,1,0-7.505,3.164,3.164,0,0,1,.457.041l-.147,1.5L53,14.527a1.776,1.776,0,0,0-.246-.026,2.252,2.252,0,0,0,0,4.5,2.211,2.211,0,0,0,1.124-.314l.756,1.3A3.7,3.7,0,0,1,52.753,20.505Z" transform="translate(-49 -13)"/>
        </g>
        <g id="Grupo_1172931" data-name="Grupo 1172931">
          <path id="Trazado_1026668" data-name="Trazado 1026668" d="M47.252,53A2.252,2.252,0,1,0,49.5,55.252,2.254,2.254,0,0,0,47.252,53Zm0,3A.751.751,0,1,1,48,55.252.752.752,0,0,1,47.252,56Z" transform="translate(-11.977 -13.973)"/>
          <path id="Trazado_1026669" data-name="Trazado 1026669" d="M19.252,53A2.252,2.252,0,1,0,21.5,55.252,2.254,2.254,0,0,0,19.252,53Zm0,3A.751.751,0,1,1,20,55.252.752.752,0,0,1,19.252,56Z" transform="translate(-4.992 -13.973)"/>
          <path id="Trazado_1026670" data-name="Trazado 1026670" d="M44.69,30.474l-3.358-.84-1.349-3.375a6.74,6.74,0,0,0-2.044-2.745h1.338a3.757,3.757,0,0,0,3.753-3.753V13.1a3.748,3.748,0,0,0-2.842-3.641l-3.358-.84-1.35-3.374A6.722,6.722,0,0,0,29.207,1H17.074A6.723,6.723,0,0,0,10.8,5.246L9.461,8.6,4.181,9.623A3.732,3.732,0,0,0,1,13.332v6.43a3.757,3.757,0,0,0,3.753,3.753H6.017a5.242,5.242,0,0,0,9.479,0h1.852A6.74,6.74,0,0,0,15.3,26.26l-1.34,3.351-5.28,1.026A3.734,3.734,0,0,0,5.5,34.347v6.43A3.757,3.757,0,0,0,9.256,44.53H10.52a5.242,5.242,0,0,0,9.479,0H31.535a5.242,5.242,0,0,0,9.479,0h2.766a3.757,3.757,0,0,0,3.753-3.753V34.115a3.748,3.748,0,0,0-2.842-3.641Zm-13.669-9.21a.751.751,0,1,1,.751.751A.752.752,0,0,1,31.021,21.264Zm.751-2.252a2.254,2.254,0,0,0-2.252,2.252,2.226,2.226,0,0,0,.138.751H28.1a3.751,3.751,0,1,1,7.288.226,6.76,6.76,0,0,0-1.51-.213,2.223,2.223,0,0,0,.143-.763A2.254,2.254,0,0,0,31.771,19.012ZM13.759,16.959V13.008h1.5a2.992,2.992,0,0,0,2.585-1.5h3.419v7.505H15.5A5.281,5.281,0,0,0,13.759,16.959ZM28.94,5.5a2.261,2.261,0,0,1,2.108,1.461l1.141,3.042H22.765V5.5Zm-7.676,4.5h-3a1.5,1.5,0,0,0-1.5-1.5H14.654l.578-1.541A2.261,2.261,0,0,1,17.34,5.5h3.924Zm-7.505.886.332-.886h2.67a1.5,1.5,0,0,1-1.5,1.5h-1.5Zm9.006.615h9.757V16.07a5.184,5.184,0,0,0-5.49,2.942H22.765ZM39.276,22.014H36.965a4.75,4.75,0,0,0,0-1.5H41.39A2.248,2.248,0,0,1,39.276,22.014ZM10.551,9.914,12.2,5.8a5.228,5.228,0,0,1,4.878-3.3H29.207a5.228,5.228,0,0,1,4.878,3.3L35.72,9.891l4.1,1.026A2.248,2.248,0,0,1,41.528,13.1v5.912H36.511a5.28,5.28,0,0,0-2.488-2.488v-5.9L32.454,6.437A3.77,3.77,0,0,0,28.94,4H17.34a3.77,3.77,0,0,0-3.514,2.435l-1.569,4.183v5.611a5.234,5.234,0,0,0-6.241,2.781H2.5V17.436a3.76,3.76,0,0,0,3-3.677,3.728,3.728,0,0,0-1.1-2.647c.014,0,.027-.008.041-.01ZM3.014,11.9A2.237,2.237,0,0,1,2.5,15.872v-2.54A2.229,2.229,0,0,1,3.014,11.9Zm1.738,10.11a2.248,2.248,0,0,1-2.113-1.5H5.563a4.721,4.721,0,0,0,0,1.5Zm6,3a3.753,3.753,0,1,1,3.753-3.753A3.757,3.757,0,0,1,10.757,25.017Zm5.194-3a4.721,4.721,0,0,0,0-1.5H26.578a4.607,4.607,0,0,0,0,1.5H15.95Zm-.9,8.914L16.7,26.818a5.228,5.228,0,0,1,4.878-3.3H33.71a5.229,5.229,0,0,1,4.878,3.3l1.635,4.087,4.1,1.026a2.248,2.248,0,0,1,1.705,2.184v5.912H41.014a5.28,5.28,0,0,0-2.488-2.488v-5.9l-1.569-4.183a3.77,3.77,0,0,0-3.514-2.435h-11.6a3.77,3.77,0,0,0-3.514,2.435l-1.569,4.183v5.611a5.234,5.234,0,0,0-6.241,2.781H7V38.45a3.743,3.743,0,0,0,1.9-6.324c.014,0,.027-.008.041-.01Zm3.208,7.045V34.023h1.5a2.992,2.992,0,0,0,2.585-1.5h3.419v7.505H20a5.282,5.282,0,0,0-1.737-2.053ZM33.443,26.518a2.261,2.261,0,0,1,2.108,1.461l1.141,3.042H27.268v-4.5Zm-7.676,4.5h-3a1.5,1.5,0,0,0-1.5-1.5H19.157l.578-1.541a2.261,2.261,0,0,1,2.108-1.461h3.924Zm-7.505.886.332-.886h2.67a1.5,1.5,0,0,1-1.5,1.5h-1.5Zm9.006.615h9.757v4.563a5.184,5.184,0,0,0-5.49,2.942H27.268Zm-19.751.4A2.237,2.237,0,0,1,7,36.887v-2.54a2.229,2.229,0,0,1,.513-1.428Zm1.738,10.11a2.248,2.248,0,0,1-2.113-1.5h2.924a4.721,4.721,0,0,0,0,1.5Zm6,3a3.753,3.753,0,1,1,3.753-3.753A3.757,3.757,0,0,1,15.26,46.031Zm5.194-3a4.721,4.721,0,0,0,0-1.5H31.081a4.721,4.721,0,0,0,0,1.5Zm15.821,3a3.753,3.753,0,1,1,3.753-3.753A3.757,3.757,0,0,1,36.274,46.031Zm7.505-3H41.468a4.721,4.721,0,0,0,0-1.5h4.425A2.248,2.248,0,0,1,43.779,43.029Z" transform="translate(-1 -1)"/>
          <path id="Trazado_1026671" data-name="Trazado 1026671" d="M13.252,25A2.252,2.252,0,1,0,15.5,27.252,2.254,2.254,0,0,0,13.252,25Zm0,3A.751.751,0,1,1,14,27.252.752.752,0,0,1,13.252,28Z" transform="translate(-3.495 -6.988)"/>
        </g>
      </g>
    </g>
  </g>
</svg>
