<svg xmlns="http://www.w3.org/2000/svg" xmlns:xlink="http://www.w3.org/1999/xlink" width="110" height="110" viewBox="0 0 110 110">
  <defs>
    <filter id="Trazado_982547" x="0" y="0" width="110" height="110" filterUnits="userSpaceOnUse">
      <feOffset dy="3" input="SourceAlpha"/>
      <feGaussianBlur stdDeviation="3" result="blur"/>
      <feFlood flood-opacity="0.161"/>
      <feComposite operator="in" in2="blur"/>
      <feComposite in="SourceGraphic"/>
    </filter>
  </defs>
  <g id="Grupo_1172060" data-name="Grupo 1172060" transform="translate(-797 -1190.662)">
    <g id="Grupo_1171898" data-name="Grupo 1171898" transform="translate(-315 -769.338)">
      <g id="Grupo_1164700" data-name="Grupo 1164700" transform="translate(1121 1966)">
        <g id="Grupo_1160931" data-name="Grupo 1160931" transform="translate(0)">
          <g id="Grupo_1160749" data-name="Grupo 1160749" transform="translate(0)">
            <g id="Grupo_1158891" data-name="Grupo 1158891" transform="translate(0 0)">
              <g id="Grupo_1157406" data-name="Grupo 1157406" transform="translate(0)">
                <g id="Grupo_1155793" data-name="Grupo 1155793" transform="translate(0)">
                  <g id="Grupo_1154704" data-name="Grupo 1154704" transform="translate(0)">
                    <g id="Grupo_1150790" data-name="Grupo 1150790" transform="translate(0)">
                      <g id="Grupo_1154214" data-name="Grupo 1154214" transform="translate(0)">
                        <g id="Grupo_1152583" data-name="Grupo 1152583" transform="translate(0 0)">
                          <g id="Grupo_1146973" data-name="Grupo 1146973" transform="translate(0 0)">
                            <g id="Grupo_1146954" data-name="Grupo 1146954">
                              <g transform="matrix(1, 0, 0, 1, -9, -6)" filter="url(#Trazado_982547)">
                                <g id="Trazado_982547-2" data-name="Trazado 982547" transform="translate(9 6)" fill="#e9f9fd">
                                  <path d="M 46.00000381469727 90.49988555908203 C 39.99188232421875 90.49988555908203 34.16427230834961 89.32352447509766 28.67905807495117 87.00347137451172 C 23.38020324707031 84.76226043701172 18.62104415893555 81.55342864990234 14.53375053405762 77.46615600585938 C 10.44647026062012 73.37887573242188 7.237643718719482 68.61971282958984 4.996417045593262 63.32085800170898 C 2.676363706588745 57.83565902709961 1.500003814697266 52.00806045532227 1.500003814697266 45.99993896484375 C 1.500003814697266 39.99181747436523 2.676363706588745 34.16421890258789 4.996417045593262 28.67901802062988 C 7.237643718719482 23.38017845153809 10.44647026062012 18.62101936340332 14.53375053405762 14.53373908996582 C 18.62104415893555 10.44645881652832 23.38020324707031 7.237632274627686 28.67905807495117 4.996418952941895 C 34.16427230834961 2.676365613937378 39.99188232421875 1.500005602836609 46.00000381469727 1.500005602836609 C 52.00812530517578 1.500005602836609 57.83573532104492 2.676365613937378 63.32094955444336 4.996418952941895 C 68.61980438232422 7.237632274627686 73.37897491455078 10.44645881652832 77.46625518798828 14.53373908996582 C 81.55355072021484 18.62101936340332 84.76236724853516 23.38017845153809 87.00359344482422 28.67901802062988 C 89.32364654541016 34.16421890258789 90.5 39.99181747436523 90.5 45.99993896484375 C 90.5 52.00806045532227 89.32364654541016 57.83565902709961 87.00359344482422 63.32085800170898 C 84.76236724853516 68.61971282958984 81.55355072021484 73.37887573242188 77.46625518798828 77.46615600585938 C 73.37897491455078 81.55342864990234 68.61980438232422 84.76226043701172 63.32094955444336 87.00347137451172 C 57.83573532104492 89.32352447509766 52.00812530517578 90.49988555908203 46.00000381469727 90.49988555908203 Z" stroke="none"/>
                                  <path d="M 46.00000381469727 2.999992370605469 C 40.19371795654297 2.999992370605469 34.56270217895508 4.136497497558594 29.26338958740234 6.377906799316406 C 24.14333343505859 8.543510437011719 19.54441833496094 11.64437866210938 15.59440612792969 15.59439849853516 C 11.64440155029297 19.54439544677734 8.54351806640625 24.14329528808594 6.377914428710938 29.26335144042969 C 4.136505126953125 34.56266784667969 3.000007629394531 40.19366836547852 3.000007629394531 45.99993896484375 C 3.000007629394531 51.80620956420898 4.136505126953125 57.43722534179688 6.377914428710938 62.73654174804688 C 8.54351806640625 67.85658264160156 11.64440155029297 72.45548248291016 15.59440612792969 76.40549468994141 C 19.54441833496094 80.35549926757812 24.14333343505859 83.45636749267578 29.26337432861328 85.62196350097656 C 34.56270217895508 87.86338043212891 40.19371795654297 88.9998779296875 46.00000381469727 88.9998779296875 C 51.80628967285156 88.9998779296875 57.43730545043945 87.86338043212891 62.73663330078125 85.62196350097656 C 67.85667419433594 83.45636749267578 72.45558929443359 80.35549926757812 76.40560150146484 76.40549468994141 C 80.35560607910156 72.45548248291016 83.45648956298828 67.85658264160156 85.62208557128906 62.73654174804688 C 87.86350250244141 57.43722534179688 89 51.80620956420898 89 45.99993896484375 C 89 40.19366836547852 87.86350250244141 34.56266784667969 85.62208557128906 29.26335144042969 C 83.45648956298828 24.14329528808594 80.35560607910156 19.54439544677734 76.40560150146484 15.59439849853516 C 72.45558929443359 11.64437866210938 67.85667419433594 8.543510437011719 62.73661804199219 6.377906799316406 C 57.43730545043945 4.136497497558594 51.80628967285156 2.999992370605469 46.00000381469727 2.999992370605469 M 46.00000381469727 -7.62939453125e-06 C 71.40510559082031 -7.62939453125e-06 92 20.59487915039062 92 45.99993896484375 C 92 71.40501403808594 71.40510559082031 91.99988555908203 46.00000381469727 91.99988555908203 C 20.59490203857422 91.99988555908203 7.62939453125e-06 71.40501403808594 7.62939453125e-06 45.99993896484375 C 7.62939453125e-06 20.59487915039062 20.59490203857422 -7.62939453125e-06 46.00000381469727 -7.62939453125e-06 Z" stroke="none" fill="#36ceef"/>
                                </g>
                              </g>
                            </g>
                          </g>
                        </g>
                      </g>
                    </g>
                  </g>
                </g>
              </g>
            </g>
          </g>
        </g>
      </g>
    </g>
    <g id="paycheck_7029165" transform="translate(825.433 1215.311)">
      <g id="Grupo_1172058" data-name="Grupo 1172058" transform="translate(0.986 0.882)">
        <g id="Grupo_1172036" data-name="Grupo 1172036" transform="translate(2.647 10.588)">
          <path id="Trazado_1025881" data-name="Trazado 1025881" d="M78.817,104v18.6a4.533,4.533,0,0,0-2.79-.955H71.02a4.555,4.555,0,0,0-4.321,6l.362,1.086a1.765,1.765,0,0,0,.287,3.506h1.768a3.872,3.872,0,0,0,2.644,3.529v1.765a5.851,5.851,0,0,0-5.371,3.529h-20.9a4.733,4.733,0,0,0-.589-1.21,5.06,5.06,0,0,0,1.274-3.357v-8.667A6.176,6.176,0,0,0,40,121.646H36.467a6.145,6.145,0,0,0-3.529,1.107V104Z" transform="translate(-32.938 -104)" fill="#e6e9ed"/>
        </g>
        <g id="Grupo_1172037" data-name="Grupo 1172037" transform="translate(2.647 3.529)">
          <path id="Trazado_1025882" data-name="Trazado 1025882" d="M77.053,40H34.7a1.764,1.764,0,0,0-1.765,1.765v5.294h45.88V41.765A1.764,1.764,0,0,0,77.053,40Z" transform="translate(-32.938 -40)" fill="#ff826e"/>
        </g>
        <g id="Grupo_1172038" data-name="Grupo 1172038" transform="translate(6.176)">
          <path id="Trazado_1025883" data-name="Trazado 1025883" d="M68.467,11.529v2.647a.882.882,0,0,1-.882.882H65.82a.882.882,0,0,1-.882-.882V8.882A.882.882,0,0,1,65.82,8h1.765a.882.882,0,0,1,.882.882Z" transform="translate(-64.938 -8)" fill="#aab2bd"/>
        </g>
        <g id="Grupo_1172039" data-name="Grupo 1172039" transform="translate(32.645)">
          <path id="Trazado_1025884" data-name="Trazado 1025884" d="M308.467,11.529v2.647a.882.882,0,0,1-.882.882H305.82a.882.882,0,0,1-.882-.882V8.882A.882.882,0,0,1,305.82,8h1.765a.882.882,0,0,1,.882.882Z" transform="translate(-304.938 -8)" fill="#aab2bd"/>
        </g>
        <g id="Grupo_1172040" data-name="Grupo 1172040" transform="translate(14.999)">
          <path id="Trazado_1025885" data-name="Trazado 1025885" d="M148.467,11.529v2.647a.882.882,0,0,1-.882.882H145.82a.882.882,0,0,1-.882-.882V8.882A.882.882,0,0,1,145.82,8h1.765a.882.882,0,0,1,.882.882Z" transform="translate(-144.938 -8)" fill="#aab2bd"/>
        </g>
        <g id="Grupo_1172041" data-name="Grupo 1172041" transform="translate(41.468)">
          <path id="Trazado_1025886" data-name="Trazado 1025886" d="M388.467,11.529v2.647a.882.882,0,0,1-.882.882H385.82a.882.882,0,0,1-.882-.882V8.882A.882.882,0,0,1,385.82,8h1.765a.882.882,0,0,1,.882.882Z" transform="translate(-384.938 -8)" fill="#aab2bd"/>
        </g>
        <g id="Grupo_1172042" data-name="Grupo 1172042" transform="translate(23.822)">
          <path id="Trazado_1025887" data-name="Trazado 1025887" d="M228.467,11.529v2.647a.882.882,0,0,1-.882.882H225.82a.882.882,0,0,1-.882-.882V8.882A.882.882,0,0,1,225.82,8h1.765a.882.882,0,0,1,.882.882Z" transform="translate(-224.938 -8)" fill="#aab2bd"/>
        </g>
        <g id="Grupo_1172043" data-name="Grupo 1172043" transform="translate(14.999 14.117)">
          <circle id="Elipse_11779" data-name="Elipse 11779" cx="10.588" cy="10.588" r="10.588" fill="#fcd770"/>
        </g>
        <g id="Grupo_1172044" data-name="Grupo 1172044" transform="translate(36.174 28.234)">
          <path id="Trazado_1025888" data-name="Trazado 1025888" d="M349.29,264.955a4.554,4.554,0,0,1,1.531,5.04l-.362,1.086a1.766,1.766,0,0,0-.287-.023h-1.765v-.882a.881.881,0,0,0-.882-.882,4.261,4.261,0,0,1-3.012-1.247l-.017-.017a1.709,1.709,0,0,0-2.737.444l-.41.819a1.764,1.764,0,0,0-1.765,1.765H337.82a1.765,1.765,0,0,0-.287.023L337.172,270a4.556,4.556,0,0,1,4.321-6H346.5A4.532,4.532,0,0,1,349.29,264.955Z" transform="translate(-336.938 -264)" fill="#656d78"/>
        </g>
        <g id="Grupo_1172045" data-name="Grupo 1172045" transform="translate(41.468 45.88)">
          <path id="Trazado_1025889" data-name="Trazado 1025889" d="M387.585,424l.882,7.058h-3.529L385.82,424Z" transform="translate(-384.938 -424)" fill="#ffeaa7"/>
        </g>
        <g id="Grupo_1172046" data-name="Grupo 1172046" transform="translate(44.115 44.115)">
          <path id="Trazado_1025890" data-name="Trazado 1025890" d="M415.641,413.267l.355,3.556H409.82l-.882-7.058L409.82,408a5.85,5.85,0,0,1,5.821,5.267Z" transform="translate(-408.938 -408)" fill="#b4dd7f"/>
        </g>
        <g id="Grupo_1172047" data-name="Grupo 1172047" transform="translate(35.292 44.115)">
          <path id="Trazado_1025891" data-name="Trazado 1025891" d="M335.114,408l.882,1.765-.882,7.058h-6.176l.355-3.556A5.846,5.846,0,0,1,335.114,408Z" transform="translate(-328.938 -408)" fill="#b4dd7f"/>
        </g>
        <g id="Grupo_1172048" data-name="Grupo 1172048" transform="translate(0 44.396)">
          <path id="Trazado_1025892" data-name="Trazado 1025892" d="M24.335,414.731l.484,4.361H8.938l.484-4.361a4.766,4.766,0,0,1,3.952-4.172l.046-.009.17.68a3.39,3.39,0,0,0,6.578,0l.17-.68.046.009a4.769,4.769,0,0,1,3.952,4.172Z" transform="translate(-8.938 -410.55)" fill="#fcd770"/>
        </g>
        <g id="Grupo_1172049" data-name="Grupo 1172049" transform="translate(9.705 37.057)">
          <path id="Trazado_1025893" data-name="Trazado 1025893" d="M103.114,344v6.021a5.06,5.06,0,0,1-1.274,3.357,4.767,4.767,0,0,0-3.162-2.029l-.046-.009a2.083,2.083,0,0,1-1.694-2.046,3.869,3.869,0,0,0,2.644-3.529h1.768A1.762,1.762,0,0,0,103.114,344Z" transform="translate(-96.938 -344)" fill="#b27946"/>
        </g>
        <g id="Grupo_1172050" data-name="Grupo 1172050" transform="translate(0 37.057)">
          <path id="Trazado_1025894" data-name="Trazado 1025894" d="M15.114,349.294a2.083,2.083,0,0,1-1.694,2.046l-.046.009a4.762,4.762,0,0,0-3.162,2.029,5.06,5.06,0,0,1-1.274-3.357V344a1.762,1.762,0,0,0,1.765,1.765h1.768a3.873,3.873,0,0,0,2.644,3.529Z" transform="translate(-8.938 -344)" fill="#b27946"/>
        </g>
        <g id="Grupo_1172051" data-name="Grupo 1172051" transform="translate(0 28.234)">
          <path id="Trazado_1025895" data-name="Trazado 1025895" d="M24.819,270.176v2.647a1.764,1.764,0,0,0-1.765-1.765H21.29v-.882a.892.892,0,0,0-.847-.881l-.174-.007a4.324,4.324,0,0,1-2.9-1.268,1.679,1.679,0,0,0-1.192-.491h-.034a1.671,1.671,0,0,0-1.5.926l-.417.838a1.764,1.764,0,0,0-1.765,1.765H10.7a1.764,1.764,0,0,0-1.765,1.765v-2.647A6.175,6.175,0,0,1,15.114,264h3.529A6.176,6.176,0,0,1,24.819,270.176Z" transform="translate(-8.938 -264)" fill="#b27946"/>
        </g>
        <g id="Grupo_1172052" data-name="Grupo 1172052" transform="translate(47.641 35.292)">
          <path id="Trazado_1025896" data-name="Trazado 1025896" d="M440.911,331.529h0c0-.047,0-.095,0-.143V328h1.765a1.765,1.765,0,1,1,0,3.529Z" transform="translate(-440.908 -328)" fill="#f0d0b4"/>
        </g>
        <g id="Grupo_1172053" data-name="Grupo 1172053" transform="translate(38.821 31.763)">
          <path id="Trazado_1025897" data-name="Trazado 1025897" d="M369.761,299.529v3.386c0,.049,0,.1,0,.143a3.869,3.869,0,0,1-2.644,3.529v1.765l-.882,1.765h-1.765l-.882-1.765v-1.765a3.873,3.873,0,0,1-2.644-3.529c0-.047,0-.095,0-.143v-3.386a1.764,1.764,0,0,1,1.765-1.765l.41-.819a1.709,1.709,0,0,1,2.737-.444l.017.017a4.261,4.261,0,0,0,3.012,1.247.881.881,0,0,1,.882.882Z" transform="translate(-360.938 -296)" fill="#f0d0b4"/>
        </g>
        <g id="Grupo_1172054" data-name="Grupo 1172054" transform="translate(35.292 35.292)">
          <path id="Trazado_1025898" data-name="Trazado 1025898" d="M332.467,331.529H330.7a1.765,1.765,0,1,1,0-3.529h1.765v3.386c0,.049,0,.1,0,.143Z" transform="translate(-328.938 -328)" fill="#f0d0b4"/>
        </g>
        <g id="Grupo_1172055" data-name="Grupo 1172055" transform="translate(12.349 35.292)">
          <path id="Trazado_1025899" data-name="Trazado 1025899" d="M120.911,331.386V328h1.765a1.765,1.765,0,1,1,0,3.529h-1.768C120.91,331.482,120.911,331.434,120.911,331.386Z" transform="translate(-120.908 -328)" fill="#f0d0b4"/>
        </g>
        <g id="Grupo_1172056" data-name="Grupo 1172056" transform="translate(3.529 31.763)">
          <path id="Trazado_1025900" data-name="Trazado 1025900" d="M49.761,299.529v3.386c0,.049,0,.1,0,.143a3.869,3.869,0,0,1-2.644,3.529,2.083,2.083,0,0,0,1.694,2.046l-.17.68a3.39,3.39,0,0,1-6.578,0l-.17-.68a2.083,2.083,0,0,0,1.694-2.046,3.873,3.873,0,0,1-2.644-3.529c0-.047,0-.095,0-.143v-3.386a1.764,1.764,0,0,1,1.765-1.765l.417-.838a1.67,1.67,0,0,1,1.5-.926h.034a1.679,1.679,0,0,1,1.192.491,4.324,4.324,0,0,0,2.9,1.268l.174.007a.892.892,0,0,1,.847.881Z" transform="translate(-40.938 -296)" fill="#f0d0b4"/>
        </g>
        <g id="Grupo_1172057" data-name="Grupo 1172057" transform="translate(0 35.292)">
          <path id="Trazado_1025901" data-name="Trazado 1025901" d="M12.467,331.386c0,.049,0,.1,0,.143H10.7a1.765,1.765,0,1,1,0-3.529h1.765Z" transform="translate(-8.938 -328)" fill="#f0d0b4"/>
        </g>
      </g>
      <g id="Grupo_1172059" data-name="Grupo 1172059" transform="translate(0 0)">
        <path id="Trazado_1025902" data-name="Trazado 1025902" d="M35.3,54.7H53.134l-.453-4.526a6.708,6.708,0,0,0-5.816-6.005v-.35A4.746,4.746,0,0,0,49.4,40.586h.994a2.646,2.646,0,0,0,1.387-4.9l.1-.3a5.43,5.43,0,0,0-1.486-5.724V6.176a2.65,2.65,0,0,0-2.647-2.647h-.882V1.765A1.767,1.767,0,0,0,45.1,0H43.336a1.767,1.767,0,0,0-1.765,1.765V3.529H38.042V1.765A1.767,1.767,0,0,0,36.278,0H34.513a1.767,1.767,0,0,0-1.765,1.765V3.529H29.219V1.765A1.767,1.767,0,0,0,27.455,0H25.69a1.767,1.767,0,0,0-1.765,1.765V3.529H20.4V1.765A1.767,1.767,0,0,0,18.632,0H16.867A1.767,1.767,0,0,0,15.1,1.765V3.529H11.573V1.765A1.767,1.767,0,0,0,9.809,0H8.044A1.767,1.767,0,0,0,6.28,1.765V3.529H5.4A2.65,2.65,0,0,0,2.75,6.176V29.788A7.047,7.047,0,0,0,.1,35.292V43.96a5.938,5.938,0,0,0,1.091,3.43,5.6,5.6,0,0,0-.6,1.973L0,54.7H17.853l-.588-5.294H35.878a6.861,6.861,0,0,0-.122.768Zm9.019-7.058.662,5.294h-1.53l.662-5.294Zm-2.4-1.736.5,1.009-.753,6.02H37.253l.259-2.585A4.95,4.95,0,0,1,41.923,45.908Zm9,4.444.259,2.585H46.762l-.753-6.02.5-1.009A4.95,4.95,0,0,1,50.926,50.353ZM47.748,35.292V39.56A2.985,2.985,0,0,1,45.7,42.4l-.6.2v2.192l-.545,1.091h-.674l-.545-1.091V42.6l-.6-.2a2.985,2.985,0,0,1-2.044-2.835V36.174a.883.883,0,0,1,.882-.882h.545l.654-1.307A.827.827,0,0,1,44.1,33.77l.016.016a5.1,5.1,0,0,0,3.632,1.5h0s0,0,0,0Zm0-1.765a3.355,3.355,0,0,1-2.388-.989l-.016-.016a2.592,2.592,0,0,0-4.151.674l-.2.4a2.657,2.657,0,0,0-1.918,1.7h-.692l-.153-.46A3.672,3.672,0,0,1,41.715,30h5.007a3.672,3.672,0,0,1,3.484,4.834l-.153.46h-.54A1.767,1.767,0,0,0,47.748,33.527Zm-8.823,5.294h-.882a.882.882,0,0,1,0-1.765h.882Zm11.47,0h-.882V37.057h.882a.882.882,0,1,1,0,1.765ZM43.336,1.765H45.1V7.058H43.336Zm-8.823,0h1.765V7.058H34.513Zm-8.823,0h1.765V7.058H25.69Zm-8.823,0h1.765V7.058H16.867Zm-8.823,0H9.809V7.058H8.044ZM5.4,5.294H6.28V7.058A1.767,1.767,0,0,0,8.044,8.823H9.809a1.767,1.767,0,0,0,1.765-1.765V5.294H15.1V7.058a1.767,1.767,0,0,0,1.765,1.765h1.765A1.767,1.767,0,0,0,20.4,7.058V5.294h3.529V7.058A1.767,1.767,0,0,0,25.69,8.823h1.765a1.767,1.767,0,0,0,1.765-1.765V5.294h3.529V7.058a1.767,1.767,0,0,0,1.765,1.765h1.765a1.767,1.767,0,0,0,1.765-1.765V5.294h3.529V7.058a1.767,1.767,0,0,0,1.765,1.765H45.1a1.767,1.767,0,0,0,1.765-1.765V5.294h.882a.883.883,0,0,1,.882.882v4.411H4.515V6.176A.883.883,0,0,1,5.4,5.294ZM7.162,30h3.529a5.3,5.3,0,0,1,5.294,5.294v.152a2.635,2.635,0,0,0-.882-.152H14.22a1.78,1.78,0,0,0-1.7-1.762l-.174-.007a3.442,3.442,0,0,1-2.309-1.01,2.547,2.547,0,0,0-1.816-.75H8.192a2.538,2.538,0,0,0-2.285,1.415l-.205.413a2.656,2.656,0,0,0-1.917,1.7H2.75a2.635,2.635,0,0,0-.882.152v-.152A5.3,5.3,0,0,1,7.162,30Zm8.354,15.883a5.629,5.629,0,0,0-2.939-1.464,1.2,1.2,0,0,1-.882-.657,4.744,4.744,0,0,0,2.413-3.174H15.1a2.635,2.635,0,0,0,.882-.152v3.525a4.177,4.177,0,0,1-.469,1.922Zm-13.179,0a4.176,4.176,0,0,1-.469-1.922V40.434a2.635,2.635,0,0,0,.882.152h.995A4.744,4.744,0,0,0,6.159,43.76a1.2,1.2,0,0,1-.882.657,5.629,5.629,0,0,0-2.939,1.465Zm1.3-7.06H2.75a.882.882,0,1,1,0-1.765h.882ZM7.441,42.4A2.985,2.985,0,0,1,5.4,39.56V36.174a.883.883,0,0,1,.882-.882h.546l.661-1.328a.784.784,0,0,1,.706-.437h.034a.794.794,0,0,1,.567.232,5.2,5.2,0,0,0,3.489,1.527l.166.005a.023.023,0,0,1,.007.007V39.56A2.985,2.985,0,0,1,10.412,42.4l-.6.2v.636a2.954,2.954,0,0,0,1.527,2.593,2.5,2.5,0,0,1-4.818,0,2.954,2.954,0,0,0,1.527-2.593V42.6Zm6.779-5.339H15.1a.882.882,0,0,1,0,1.765H14.22ZM1.972,52.938l.376-3.381a3.9,3.9,0,0,1,2.485-3.2,4.272,4.272,0,0,0,8.188,0,3.9,3.9,0,0,1,2.485,3.2l.376,3.381Zm14.81-5.294c-.039-.086-.08-.171-.124-.255a5.938,5.938,0,0,0,1.091-3.43V35.292a7.066,7.066,0,0,0-7.058-7.058H7.162a7.016,7.016,0,0,0-2.647.517v-16.4H48.63V28.58a5.409,5.409,0,0,0-1.908-.346H41.715a5.437,5.437,0,0,0-5.158,7.156l.1.3a2.646,2.646,0,0,0,1.387,4.9h.994a4.746,4.746,0,0,0,2.535,3.236v.35a6.7,6.7,0,0,0-5.044,3.472Z" transform="translate(0 0)"/>
        <path id="Trazado_1025903" data-name="Trazado 1025903" d="M382.552,354.6a1.248,1.248,0,0,1-1.765,0l-.258-.258-1.248,1.248.258.258a3.012,3.012,0,0,0,4.26,0l.258-.258-1.248-1.248Z" transform="translate(-337.451 -315.263)"/>
        <path id="Trazado_1025904" data-name="Trazado 1025904" d="M63.8,355.849l.258-.258-1.248-1.248-.258.258a1.248,1.248,0,0,1-1.765,0l-.258-.258-1.248,1.248.258.258a3.012,3.012,0,0,0,4.26,0Z" transform="translate(-52.744 -315.263)"/>
        <path id="Trazado_1025905" data-name="Trazado 1025905" d="M184.938,384H186.7v1.765h-1.765Z" transform="translate(-164.542 -341.65)"/>
        <path id="Trazado_1025906" data-name="Trazado 1025906" d="M232.938,384H234.7v1.765h-1.765Z" transform="translate(-207.248 -341.65)"/>
        <path id="Trazado_1025907" data-name="Trazado 1025907" d="M280.938,384H282.7v1.765h-1.765Z" transform="translate(-249.954 -341.65)"/>
        <path id="Trazado_1025908" data-name="Trazado 1025908" d="M148.408,128a11.47,11.47,0,1,0,11.47,11.47A11.483,11.483,0,0,0,148.408,128Zm0,21.175a9.705,9.705,0,1,1,9.705-9.705A9.716,9.716,0,0,1,148.408,149.175Z" transform="translate(-121.835 -113.883)"/>
        <path id="Trazado_1025909" data-name="Trazado 1025909" d="M206.232,163.529A1.767,1.767,0,0,1,208,165.294h1.765a3.533,3.533,0,0,0-3.529-3.529V160h-1.765v1.765h-3.529v3.529a3.533,3.533,0,0,0,3.529,3.529h1.765A1.767,1.767,0,0,1,208,170.588v1.765h-3.529a1.767,1.767,0,0,1-1.765-1.765h-1.765a3.533,3.533,0,0,0,3.529,3.529v1.765h1.765v-1.765h3.529v-3.529a3.533,3.533,0,0,0-3.529-3.529h-1.765a1.767,1.767,0,0,1-1.765-1.765v-1.765Z" transform="translate(-178.777 -142.354)"/>
      </g>
    </g>
  </g>
</svg>
