<svg xmlns="http://www.w3.org/2000/svg" xmlns:xlink="http://www.w3.org/1999/xlink" width="93.934" height="93.934" viewBox="0 0 93.934 93.934">
  <defs>
    <filter id="Trazado_982547" x="0" y="0" width="93.934" height="93.934" filterUnits="userSpaceOnUse">
      <feOffset dy="3" input="SourceAlpha"/>
      <feGaussianBlur stdDeviation="3" result="blur"/>
      <feFlood flood-opacity="0.161"/>
      <feComposite operator="in" in2="blur"/>
      <feComposite in="SourceGraphic"/>
    </filter>
  </defs>
  <g id="Grupo_1173060" data-name="Grupo 1173060" transform="translate(9 6)">
    <g id="Grupo_1167337" data-name="Grupo 1167337" transform="translate(0)">
      <g id="Grupo_1166720" data-name="Grupo 1166720">
        <g id="Grupo_1164305" data-name="Grupo 1164305">
          <g id="Grupo_1163948" data-name="Grupo 1163948">
            <g id="Grupo_1158168" data-name="Grupo 1158168">
              <g id="Grupo_1152576" data-name="Grupo 1152576">
                <g id="Grupo_1148633" data-name="Grupo 1148633">
                  <g id="Grupo_1148525" data-name="Grupo 1148525">
                    <g transform="matrix(1, 0, 0, 1, -9, -6)" filter="url(#Trazado_982547)">
                      <g id="Trazado_982547-2" data-name="Trazado 982547" transform="translate(9 6)" fill="#e9f9fd">
                        <path d="M 37.966796875 74.43359375 C 33.04315185546875 74.43359375 28.26757431030273 73.46962738037109 23.77274131774902 71.56847381591797 C 19.43047523498535 69.73184967041016 15.53040790557861 67.10224914550781 12.18087482452393 63.75271987915039 C 8.831341743469238 60.4031867980957 6.201741218566895 56.50312042236328 4.365118980407715 52.16086196899414 C 2.463963508605957 47.66601943969727 1.499996900558472 42.89044189453125 1.499996900558472 37.966796875 C 1.499996900558472 33.04315185546875 2.463963508605957 28.26757431030273 4.365118980407715 23.77274131774902 C 6.201741218566895 19.43047523498535 8.831341743469238 15.53040790557861 12.18087482452393 12.18087482452393 C 15.53040790557861 8.831341743469238 19.43047523498535 6.201741218566895 23.77274131774902 4.365118980407715 C 28.26757431030273 2.463963508605957 33.04315185546875 1.499996900558472 37.966796875 1.499996900558472 C 42.89044189453125 1.499996900558472 47.66601943969727 2.463963508605957 52.16086196899414 4.365118980407715 C 56.50312042236328 6.201741218566895 60.4031867980957 8.831341743469238 63.75271987915039 12.18087482452393 C 67.10224914550781 15.53040790557861 69.73184967041016 19.43047523498535 71.56847381591797 23.77274131774902 C 73.46962738037109 28.26757431030273 74.43359375 33.04315185546875 74.43359375 37.966796875 C 74.43359375 42.89044189453125 73.46962738037109 47.66601943969727 71.56847381591797 52.16086196899414 C 69.73184967041016 56.50313186645508 67.10224914550781 60.4031867980957 63.75271987915039 63.75271987915039 C 60.4031867980957 67.10224914550781 56.50313186645508 69.73184967041016 52.16086196899414 71.56847381591797 C 47.66601943969727 73.46962738037109 42.89044189453125 74.43359375 37.966796875 74.43359375 Z" stroke="none"/>
                        <path d="M 37.966796875 3 C 33.2449836730957 3 28.66600799560547 3.924095153808594 24.35705947875977 5.746635437011719 C 20.19359588623047 7.507637023925781 16.45379638671875 10.02928161621094 13.24153518676758 13.24153518676758 C 10.02927398681641 16.45379638671875 7.507621765136719 20.19359588623047 5.746635437011719 24.35705947875977 C 3.924095153808594 28.66600799560547 3 33.2449836730957 3 37.966796875 C 3 42.6886100769043 3.924095153808594 47.26758575439453 5.746635437011719 51.57653427124023 C 7.507621765136719 55.73999786376953 10.02927398681641 59.47979736328125 13.24153518676758 62.69205856323242 C 16.45379638671875 65.90431976318359 20.19359588623047 68.42597198486328 24.35705947875977 70.18695831298828 C 28.66600799560547 72.00949859619141 33.2449836730957 72.93359375 37.966796875 72.93359375 C 42.6886100769043 72.93359375 47.26758575439453 72.00949859619141 51.57653427124023 70.18695831298828 C 55.73999786376953 68.42597198486328 59.47979736328125 65.90431976318359 62.69205856323242 62.69205856323242 C 65.90431976318359 59.47979736328125 68.42597198486328 55.73999786376953 70.18695831298828 51.57653427124023 C 72.00949859619141 47.26758575439453 72.93359375 42.6886100769043 72.93359375 37.966796875 C 72.93359375 33.2449836730957 72.00949859619141 28.66600799560547 70.18695831298828 24.35705947875977 C 68.42597198486328 20.19359588623047 65.90431976318359 16.45379638671875 62.69205856323242 13.24153518676758 C 59.47979736328125 10.02928161621094 55.73999786376953 7.507637023925781 51.57653427124023 5.746635437011719 C 47.26758575439453 3.924095153808594 42.6886100769043 3 37.966796875 3 M 37.966796875 0 C 58.93528366088867 0 75.93359375 16.99832153320312 75.93359375 37.966796875 C 75.93359375 58.93528366088867 58.93528366088867 75.93359375 37.966796875 75.93359375 C 16.99831008911133 75.93359375 0 58.93528366088867 0 37.966796875 C 0 16.99832153320312 16.99831008911133 0 37.966796875 0 Z" stroke="none" fill="#1d7083"/>
                      </g>
                    </g>
                  </g>
                </g>
              </g>
            </g>
          </g>
        </g>
      </g>
    </g>
    <g id="finance-money-pay-transfer-dolla" transform="translate(10.869 12.087)">
      <path id="Trazado_1026672" data-name="Trazado 1026672" d="M3,20H31.2V36.586H3Z" transform="translate(-0.171 -3.072)" fill="#91dc5a"/>
      <path id="Trazado_1026673" data-name="Trazado 1026673" d="M42.659,15v2.631a1.658,1.658,0,0,1-.486,1.172l-.687.687A1.659,1.659,0,0,0,41,20.663v9.265a1.659,1.659,0,0,0,1.659,1.659h1.659V26.611a3.317,3.317,0,0,0,3.317-3.317,3.317,3.317,0,0,1-3.317,3.317V37.392a1.659,1.659,0,1,0,3.317,0V39.05a1.659,1.659,0,1,0,3.317,0V37.392a1.659,1.659,0,0,0,3.317,0v-.829a1.659,1.659,0,1,0,3.317,0v-15.9A1.658,1.658,0,0,0,57.1,19.49l-.687-.687a1.659,1.659,0,0,1-.486-1.173V15Z" transform="translate(-6.656 -2.219)" fill="#ffbcab"/>
      <path id="Trazado_1026674" data-name="Trazado 1026674" d="M13.317,34.317V32.659a1.659,1.659,0,1,0-3.317,0v3.317h4.822a1.649,1.649,0,0,0-.332-.486Z" transform="translate(-1.365 -4.95)" fill="none"/>
      <path id="Trazado_1026675" data-name="Trazado 1026675" d="M29.221,32.123V25.488A2.488,2.488,0,0,1,26.733,23H8.488A2.488,2.488,0,0,1,6,25.488v6.635a2.488,2.488,0,0,1,2.488,2.488H26.733A2.488,2.488,0,0,1,29.221,32.123ZM17.611,28.805c1.374,0,2.488.742,2.488,1.659s-1.114,1.659-2.488,1.659-2.488-.746-2.488-1.659c0,.912,1.114,1.659,2.488,1.659s2.488-.746,2.488-1.659-1.114-1.659-2.488-1.659-2.488-.742-2.488-1.659,1.114-1.659,2.488-1.659,2.488.742,2.488,1.659c0-.916-1.114-1.659-2.488-1.659s-2.488.742-2.488,1.659S16.236,28.805,17.611,28.805Z" transform="translate(-0.683 -3.584)" fill="#5eac24"/>
      <path id="Trazado_1026676" data-name="Trazado 1026676" d="M17.317,17.659a1.659,1.659,0,1,0-3.317,0v1.659h3.317Z" transform="translate(-2.048 -2.389)" fill="#ffbcab"/>
      <path id="Trazado_1026677" data-name="Trazado 1026677" d="M21.317,18.976V15.659a1.659,1.659,0,0,0-3.317,0v3.317Z" transform="translate(-2.731 -2.048)" fill="#ffbcab"/>
      <path id="Trazado_1026678" data-name="Trazado 1026678" d="M25.317,19.317V17.659a1.659,1.659,0,1,0-3.317,0v1.659Z" transform="translate(-3.414 -2.389)" fill="#ffbcab"/>
      <path id="Trazado_1026679" data-name="Trazado 1026679" d="M29.317,19.488v-.829a1.659,1.659,0,1,0-3.317,0v.829Z" transform="translate(-4.096 -2.56)" fill="#ffbcab"/>
      <path id="Trazado_1026680" data-name="Trazado 1026680" d="M10,49v4.976H26.586V49H10Z" transform="translate(-1.365 -8.022)" fill="#006df0"/>
      <path id="Trazado_1026681" data-name="Trazado 1026681" d="M57.586,13.976V9H41v4.976H57.586Z" transform="translate(-6.656 -1.195)" fill="#006df0"/>
      <path id="Trazado_1026682" data-name="Trazado 1026682" d="M12,55H25.269v4.976H12Z" transform="translate(-1.707 -9.046)" fill="#57a4ff"/>
      <path id="Trazado_1026683" data-name="Trazado 1026683" d="M43,3H56.269V7.976H43Z" transform="translate(-6.998 -0.171)" fill="#57a4ff"/>
      <ellipse id="Elipse_11804" data-name="Elipse 11804" cx="5.58" cy="6.009" rx="5.58" ry="6.009" transform="translate(11.421 19.154)" fill="#e6e7e8"/>
      <path id="Trazado_1026684" data-name="Trazado 1026684" d="M14.976,36.663a1.658,1.658,0,0,0-.486-1.172l-1.173-1.173V32.659a1.659,1.659,0,1,0-3.317,0v7.607a1.658,1.658,0,0,0,.486,1.172l.687.687a1.659,1.659,0,0,1,.486,1.173v2.631H24.928V43.3a1.658,1.658,0,0,1,.486-1.172l.687-.687a1.659,1.659,0,0,0,.486-1.173v-1.8H14.976Z" transform="translate(-1.365 -4.95)" fill="#ffbcab"/>
      <path id="Trazado_1026685" data-name="Trazado 1026685" d="M12,55H25.269v1.659H12Z" transform="translate(-1.707 -9.046)" fill="#2488ff"/>
      <path id="Trazado_1026686" data-name="Trazado 1026686" d="M43,7H56.269V8.659H43Z" transform="translate(-6.998 -0.853)" fill="#2488ff"/>
      <g id="Grupo_1172948" data-name="Grupo 1172948" transform="translate(2 2)">
        <path id="Trazado_1026687" data-name="Trazado 1026687" d="M28.488,29H26.829a.829.829,0,1,0,0,1.659h1.659a.829.829,0,0,0,0-1.659Z" transform="translate(-6.096 -6.608)" fill="#231f20"/>
        <path id="Trazado_1026688" data-name="Trazado 1026688" d="M31.026,17.976H26.05a2.5,2.5,0,0,0-2.488-2.488,2.44,2.44,0,0,0-1.219.332,2.474,2.474,0,0,0-2.1-1.161,2.5,2.5,0,0,0-.929.182,2.47,2.47,0,0,0-4.777,0,2.483,2.483,0,0,0-3.417,2.306v.829H2.829A.829.829,0,0,0,2,18.805V35.392a.829.829,0,0,0,.829.829H7.805v.97a2.451,2.451,0,0,0,.73,1.758l.688.688a.821.821,0,0,1,.241.589v1.8H8.635a.829.829,0,0,0-.829.829v4.976a.829.829,0,0,0,.829.829h.829v4.147a.829.829,0,0,0,.829.829H23.562a.829.829,0,0,0,.829-.829V48.661h.829a.829.829,0,0,0,.829-.829V42.856a.829.829,0,0,0-.829-.829h-.829v-1.8a.821.821,0,0,1,.24-.589l.688-.688a2.451,2.451,0,0,0,.73-1.758v-.97h4.976a.829.829,0,0,0,.829-.829V18.805a.829.829,0,0,0-.829-.829Zm-7.464-.829a.829.829,0,0,1,.829.829H22.733A.829.829,0,0,1,23.562,17.147Zm-4.147,0a.829.829,0,0,1,1.659,0v.829H19.416ZM16.1,15.488a.829.829,0,0,1,1.659,0v2.488H16.1Zm-3.317,1.659a.829.829,0,1,1,1.659,0v.829H12.781ZM7.805,29.586v1.136a3.3,3.3,0,0,0-1.659-1.028V24.5a3.325,3.325,0,0,0,2.38-2.38H16.1v.912a2.71,2.71,0,0,0-2.488,2.405c0,1.393,1.46,2.488,3.317,2.488,1.012,0,1.659.489,1.659.829s-.647.829-1.659.829-1.659-.489-1.659-.829a.829.829,0,0,0-1.659,0A2.71,2.71,0,0,0,16.1,31.162v.912H13.909a2.784,2.784,0,0,0-.2-.241l-.929-.929V29.586a2.488,2.488,0,0,0-4.976,0Zm9.952-6.552v-.912h7.572a3.325,3.325,0,0,0,2.38,2.38v5.192a3.325,3.325,0,0,0-2.38,2.38H17.757v-.912a2.71,2.71,0,0,0,2.488-2.405c0-1.393-1.46-2.488-3.317-2.488-1.012,0-1.659-.489-1.659-.829s.647-.829,1.659-.829,1.659.489,1.659.829a.829.829,0,0,0,1.659,0,2.71,2.71,0,0,0-2.488-2.405Zm4.976,28.943H11.123V48.661H22.733ZM24.392,47H9.464V43.685H24.392Zm0-9.811a.821.821,0,0,1-.241.589l-.688.688a2.451,2.451,0,0,0-.73,1.758v1.8H11.123v-1.8a2.451,2.451,0,0,0-.73-1.758L9.7,37.78a.821.821,0,0,1-.241-.589v-7.6a.829.829,0,0,1,1.659,0v1.659a.857.857,0,0,0,.241.589L12.541,33a.821.821,0,0,1,.241.589v1.8a.829.829,0,0,0,.829.829H24.392ZM30.2,34.562H14.44v-.829H26.05a.829.829,0,0,0,.829-.829,1.664,1.664,0,0,1,1.659-1.659.829.829,0,0,0,.829-.829V23.781a.829.829,0,0,0-.829-.829,1.664,1.664,0,0,1-1.659-1.659.829.829,0,0,0-.829-.829H7.805a.829.829,0,0,0-.829.829,1.664,1.664,0,0,1-1.659,1.659.829.829,0,0,0-.829.829v6.635a.829.829,0,0,0,.829.829A1.664,1.664,0,0,1,6.976,32.9a.829.829,0,0,0,.829.829v.829H3.659V19.635H30.2Z" transform="translate(-2 -3.877)" fill="#231f20"/>
        <path id="Trazado_1026689" data-name="Trazado 1026689" d="M57.416,13.611a.829.829,0,0,0,.829-.829V7.805a.829.829,0,0,0-.829-.829h-.829V2.829A.829.829,0,0,0,55.757,2H42.488a.829.829,0,0,0-.829.829V6.976h-.829A.829.829,0,0,0,40,7.805v4.976a.829.829,0,0,0,.829.829h.829v1.8a.821.821,0,0,1-.241.589l-.688.688A2.452,2.452,0,0,0,40,18.446v9.264A2.5,2.5,0,0,0,42.488,30.2h.829v4.976a2.483,2.483,0,0,0,3.417,2.306,2.47,2.47,0,0,0,4.777,0,2.5,2.5,0,0,0,.929.182,2.474,2.474,0,0,0,2.1-1.161,2.44,2.44,0,0,0,1.219.332,2.5,2.5,0,0,0,2.488-2.488v-15.9a2.451,2.451,0,0,0-.73-1.758L56.827,16a.821.821,0,0,1-.241-.589v-1.8Zm-14.1-9.952H54.928V6.976H43.317ZM56.586,34.344a.829.829,0,1,1-1.659,0V28.538a.829.829,0,0,0-1.659,0v6.635a.829.829,0,0,1-1.659,0V28.538a.829.829,0,0,0-1.659,0v8.293a.829.829,0,1,1-1.659,0V28.538a.829.829,0,0,0-1.659,0v6.635a.829.829,0,0,1-1.659,0V25.138a4.154,4.154,0,0,0,3.317-4.064v-.829a.829.829,0,1,0-1.659,0v.829a2.5,2.5,0,0,1-2.488,2.488.829.829,0,0,0-.829.829v4.147h-.829a.829.829,0,0,1-.829-.829V18.446a.821.821,0,0,1,.241-.589l.688-.688a2.452,2.452,0,0,0,.73-1.758v-1.8H54.928v1.8a2.452,2.452,0,0,0,.73,1.758l.688.688a.821.821,0,0,1,.241.589ZM41.659,11.952V8.635H56.586v3.317Z" transform="translate(-8.486 -2)" fill="#231f20"/>
        <path id="Trazado_1026690" data-name="Trazado 1026690" d="M19.829,8.317a.829.829,0,0,0,.829-.829V5.829a.829.829,0,0,0-1.659,0V7.488A.829.829,0,0,0,19.829,8.317Z" transform="translate(-4.901 -2.512)" fill="#231f20"/>
        <path id="Trazado_1026691" data-name="Trazado 1026691" d="M14.44,9.154a.829.829,0,1,0,1.436-.829l-.829-1.436a.829.829,0,1,0-1.436.829Z" transform="translate(-3.963 -2.764)" fill="#231f20"/>
        <path id="Trazado_1026692" data-name="Trazado 1026692" d="M9.889,12.047l1.436.829a.829.829,0,1,0,.829-1.436l-1.436-.829a.829.829,0,1,0-.829,1.436Z" transform="translate(-3.276 -3.451)" fill="#231f20"/>
        <path id="Trazado_1026693" data-name="Trazado 1026693" d="M23.915,9.458a.829.829,0,0,0,1.133-.3l.829-1.436a.829.829,0,1,0-1.436-.829l-.829,1.436a.829.829,0,0,0,.3,1.133Z" transform="translate(-5.669 -2.764)" fill="#231f20"/>
        <path id="Trazado_1026694" data-name="Trazado 1026694" d="M27.629,12.988a.823.823,0,0,0,.415-.111l1.436-.829a.829.829,0,1,0-.829-1.436l-1.436.829a.829.829,0,0,0,.415,1.548Z" transform="translate(-6.233 -3.451)" fill="#231f20"/>
        <path id="Trazado_1026695" data-name="Trazado 1026695" d="M51.829,51a.829.829,0,0,0-.829.829v1.659a.829.829,0,1,0,1.659,0V51.829A.829.829,0,0,0,51.829,51Z" transform="translate(-10.363 -10.363)" fill="#231f20"/>
        <path id="Trazado_1026696" data-name="Trazado 1026696" d="M47.573,49.905a.829.829,0,0,0-1.133.3l-.829,1.436a.829.829,0,1,0,1.436.829l.829-1.436a.829.829,0,0,0-.3-1.133Z" transform="translate(-9.424 -10.157)" fill="#231f20"/>
        <path id="Trazado_1026697" data-name="Trazado 1026697" d="M43.325,46.611l-1.436.829a.829.829,0,1,0,.829,1.436l1.436-.829a.829.829,0,1,0-.829-1.436Z" transform="translate(-8.737 -9.595)" fill="#231f20"/>
        <path id="Trazado_1026698" data-name="Trazado 1026698" d="M57.047,50.209a.829.829,0,1,0-1.436.829l.829,1.436a.829.829,0,1,0,1.436-.829Z" transform="translate(-11.131 -10.157)" fill="#231f20"/>
        <path id="Trazado_1026699" data-name="Trazado 1026699" d="M61.474,47.44l-1.436-.829a.829.829,0,1,0-.829,1.436l1.436.829a.829.829,0,1,0,.829-1.436Z" transform="translate(-11.693 -9.595)" fill="#231f20"/>
      </g>
    </g>
  </g>
</svg>
