<svg xmlns="http://www.w3.org/2000/svg" xmlns:xlink="http://www.w3.org/1999/xlink" width="110" height="110" viewBox="0 0 110 110">
  <defs>
    <filter id="Trazado_982547" x="0" y="0" width="110" height="110" filterUnits="userSpaceOnUse">
      <feOffset dy="3" input="SourceAlpha"/>
      <feGaussianBlur stdDeviation="3" result="blur"/>
      <feFlood flood-opacity="0.161"/>
      <feComposite operator="in" in2="blur"/>
      <feComposite in="SourceGraphic"/>
    </filter>
  </defs>
  <g id="Grupo_1172075" data-name="Grupo 1172075" transform="translate(734 -1195.662)">
    <g id="Grupo_1171902" data-name="Grupo 1171902" transform="translate(-1846 -764.338)">
      <g id="Grupo_1164700" data-name="Grupo 1164700" transform="translate(1121 1966)">
        <g id="Grupo_1160931" data-name="Grupo 1160931" transform="translate(0)">
          <g id="Grupo_1160749" data-name="Grupo 1160749" transform="translate(0)">
            <g id="Grupo_1158891" data-name="Grupo 1158891" transform="translate(0 0)">
              <g id="Grupo_1157406" data-name="Grupo 1157406" transform="translate(0)">
                <g id="Grupo_1155793" data-name="Grupo 1155793" transform="translate(0)">
                  <g id="Grupo_1154704" data-name="Grupo 1154704" transform="translate(0)">
                    <g id="Grupo_1150790" data-name="Grupo 1150790" transform="translate(0)">
                      <g id="Grupo_1154214" data-name="Grupo 1154214" transform="translate(0)">
                        <g id="Grupo_1152583" data-name="Grupo 1152583" transform="translate(0 0)">
                          <g id="Grupo_1146973" data-name="Grupo 1146973" transform="translate(0 0)">
                            <g id="Grupo_1146954" data-name="Grupo 1146954">
                              <g transform="matrix(1, 0, 0, 1, -9, -6)" filter="url(#Trazado_982547)">
                                <g id="Trazado_982547-2" data-name="Trazado 982547" transform="translate(9 6)" fill="#e9f9fd">
                                  <path d="M 46.00000381469727 90.49988555908203 C 39.99188232421875 90.49988555908203 34.16427230834961 89.32352447509766 28.67905807495117 87.00347137451172 C 23.38020324707031 84.76226043701172 18.62104415893555 81.55342864990234 14.53375053405762 77.46615600585938 C 10.44647026062012 73.37887573242188 7.237643718719482 68.61971282958984 4.996417045593262 63.32085800170898 C 2.676363706588745 57.83565902709961 1.500003814697266 52.00806045532227 1.500003814697266 45.99993896484375 C 1.500003814697266 39.99181747436523 2.676363706588745 34.16421890258789 4.996417045593262 28.67901802062988 C 7.237643718719482 23.38017845153809 10.44647026062012 18.62101936340332 14.53375053405762 14.53373908996582 C 18.62104415893555 10.44645881652832 23.38020324707031 7.237632274627686 28.67905807495117 4.996418952941895 C 34.16427230834961 2.676365613937378 39.99188232421875 1.500005602836609 46.00000381469727 1.500005602836609 C 52.00812530517578 1.500005602836609 57.83573532104492 2.676365613937378 63.32094955444336 4.996418952941895 C 68.61980438232422 7.237632274627686 73.37897491455078 10.44645881652832 77.46625518798828 14.53373908996582 C 81.55355072021484 18.62101936340332 84.76236724853516 23.38017845153809 87.00359344482422 28.67901802062988 C 89.32364654541016 34.16421890258789 90.5 39.99181747436523 90.5 45.99993896484375 C 90.5 52.00806045532227 89.32364654541016 57.83565902709961 87.00359344482422 63.32085800170898 C 84.76236724853516 68.61971282958984 81.55355072021484 73.37887573242188 77.46625518798828 77.46615600585938 C 73.37897491455078 81.55342864990234 68.61980438232422 84.76226043701172 63.32094955444336 87.00347137451172 C 57.83573532104492 89.32352447509766 52.00812530517578 90.49988555908203 46.00000381469727 90.49988555908203 Z" stroke="none"/>
                                  <path d="M 46.00000381469727 2.999992370605469 C 40.19371795654297 2.999992370605469 34.56270217895508 4.136497497558594 29.26338958740234 6.377906799316406 C 24.14333343505859 8.543510437011719 19.54441833496094 11.64437866210938 15.59440612792969 15.59439849853516 C 11.64440155029297 19.54439544677734 8.54351806640625 24.14329528808594 6.377914428710938 29.26335144042969 C 4.136505126953125 34.56266784667969 3.000007629394531 40.19366836547852 3.000007629394531 45.99993896484375 C 3.000007629394531 51.80620956420898 4.136505126953125 57.43722534179688 6.377914428710938 62.73654174804688 C 8.54351806640625 67.85658264160156 11.64440155029297 72.45548248291016 15.59440612792969 76.40549468994141 C 19.54441833496094 80.35549926757812 24.14333343505859 83.45636749267578 29.26337432861328 85.62196350097656 C 34.56270217895508 87.86338043212891 40.19371795654297 88.9998779296875 46.00000381469727 88.9998779296875 C 51.80628967285156 88.9998779296875 57.43730545043945 87.86338043212891 62.73663330078125 85.62196350097656 C 67.85667419433594 83.45636749267578 72.45558929443359 80.35549926757812 76.40560150146484 76.40549468994141 C 80.35560607910156 72.45548248291016 83.45648956298828 67.85658264160156 85.62208557128906 62.73654174804688 C 87.86350250244141 57.43722534179688 89 51.80620956420898 89 45.99993896484375 C 89 40.19366836547852 87.86350250244141 34.56266784667969 85.62208557128906 29.26335144042969 C 83.45648956298828 24.14329528808594 80.35560607910156 19.54439544677734 76.40560150146484 15.59439849853516 C 72.45558929443359 11.64437866210938 67.85667419433594 8.543510437011719 62.73661804199219 6.377906799316406 C 57.43730545043945 4.136497497558594 51.80628967285156 2.999992370605469 46.00000381469727 2.999992370605469 M 46.00000381469727 -7.62939453125e-06 C 71.40510559082031 -7.62939453125e-06 92 20.59487915039062 92 45.99993896484375 C 92 71.40501403808594 71.40510559082031 91.99988555908203 46.00000381469727 91.99988555908203 C 20.59490203857422 91.99988555908203 7.62939453125e-06 71.40501403808594 7.62939453125e-06 45.99993896484375 C 7.62939453125e-06 20.59487915039062 20.59490203857422 -7.62939453125e-06 46.00000381469727 -7.62939453125e-06 Z" stroke="none" fill="#36ceef"/>
                                </g>
                              </g>
                            </g>
                          </g>
                        </g>
                      </g>
                    </g>
                  </g>
                </g>
              </g>
            </g>
          </g>
        </g>
      </g>
    </g>
    <g id="scholarship_12663163" transform="translate(-717.663 1209)">
      <g id="Grupo_1172068" data-name="Grupo 1172068" transform="translate(7.5 7.5)">
        <circle id="Elipse_11783" data-name="Elipse 11783" cx="28.382" cy="28.382" r="28.382" transform="translate(2.781 2.781)" fill="#f2fbff"/>
        <path id="Trazado_1025933" data-name="Trazado 1025933" d="M164.68,125.111a30.94,30.94,0,0,1,1.408,6.056,31.49,31.49,0,0,1,.257,4.017,31.162,31.162,0,0,1-31.162,31.162,31.739,31.739,0,0,1-4.017-.257,30.786,30.786,0,0,1-6.055-1.408,28.384,28.384,0,0,0,39.57-39.57Z" transform="translate(-110.361 -110.362)" fill="#dff6fd"/>
        <path id="Trazado_1025934" data-name="Trazado 1025934" d="M38.662,7.5A31.165,31.165,0,0,0,13.685,57.3C19.367,64.9,28.44,68.44,38.662,68.44c17.211,0,30.01-12.567,30.01-29.778,0-10.223-3.77-19.3-11.374-24.978A31.024,31.024,0,0,0,38.662,7.5Zm.021,59.283c-3.678,0-7.184-2.2-10.375-3.555a26.708,26.708,0,0,1-6.4-3.844.5.5,0,0,1-.041-.747l9.185-9.185a2.25,2.25,0,0,0,0-3.182h0a2.25,2.25,0,0,0-3.182,0l-9.185,9.185a.5.5,0,0,1-.747-.041A26.645,26.645,0,0,1,55.414,17.94a.5.5,0,0,1,.041.747L45.222,28.92a2.25,2.25,0,0,0,0,3.182h0a2.25,2.25,0,0,0,3.182,0L58.638,21.869a.5.5,0,0,1,.747.041,26.708,26.708,0,0,1,3.844,6.4c1.35,3.191,3.348,6.7,3.345,10.375C66.563,53.338,53.338,66.772,38.684,66.783Z" transform="translate(-7.5 -7.5)" fill="#fe7ab6"/>
        <g id="Grupo_1172067" data-name="Grupo 1172067" transform="translate(12.455 13.421)">
          <g id="Grupo_1172064" data-name="Grupo 1172064" transform="translate(7.792 0)">
            <g id="Grupo_1172063" data-name="Grupo 1172063">
              <g id="Grupo_1172062" data-name="Grupo 1172062">
                <path id="Trazado_1025935" data-name="Trazado 1025935" d="M189.9,125.462c0,6.041-3.969,10.195-10.009,10.195-3.823,0-7.188-1.219-9.143-4.191a10.938,10.938,0,0,1,15.138-15.151C188.866,118.269,189.9,121.635,189.9,125.462Z" transform="translate(-168.958 -114.524)" fill="#72d3c1"/>
                <path id="Trazado_1025936" data-name="Trazado 1025936" d="M198.287,128.834a10.983,10.983,0,0,1-5.6,16.4,11.017,11.017,0,0,1-3.538.543,10.887,10.887,0,0,1-6-1.79,10.938,10.938,0,1,0,15.139-15.152Z" transform="translate(-181.369 -127.039)" fill="#5bc1ad"/>
              </g>
            </g>
          </g>
          <g id="Grupo_1172066" data-name="Grupo 1172066" transform="translate(0 15.379)">
            <g id="Grupo_1172065" data-name="Grupo 1172065">
              <path id="Trazado_1025937" data-name="Trazado 1025937" d="M373.189,330.47h0c-.395,0-.765-.127-1.084.056a2.187,2.187,0,0,0-1.1,1.9v3.125a.516.516,0,0,0,.516.516H372.9l1.754-.1a.516.516,0,0,0,.516-.516v-3.022A1.833,1.833,0,0,0,373.189,330.47Z" transform="translate(-337.873 -318.732)" fill="#ffe177"/>
              <path id="Trazado_1025938" data-name="Trazado 1025938" d="M380.894,328.925h0a2.175,2.175,0,0,0-1.083.289,2.186,2.186,0,0,1,1.1,1.9v3.125a.516.516,0,0,1-.516.516h2.166a.516.516,0,0,0,.516-.516v-3.125A2.188,2.188,0,0,0,380.894,328.925Z" transform="translate(-345.578 -317.418)" fill="#ffd15b"/>
              <path id="Trazado_1025939" data-name="Trazado 1025939" d="M184.258,259.411v11.544a.431.431,0,0,1-.423.431,23.6,23.6,0,0,0-3.938.6,26.046,26.046,0,0,0-6.768,2.093,1.446,1.446,0,0,1-1.255,0,26.911,26.911,0,0,0-10.922-2.479.431.431,0,0,1-.423-.431v-11.76Z" transform="translate(-153.794 -256.621)" fill="#7a6d79"/>
              <path id="Trazado_1025940" data-name="Trazado 1025940" d="M315.234,259.411V271.56a.52.52,0,0,1-.261.427,27.366,27.366,0,0,1,4.154-.385.431.431,0,0,0,.423-.431v-11.76Z" transform="translate(-288.871 -256.621)" fill="#685e68"/>
              <path id="Trazado_1025941" data-name="Trazado 1025941" d="M107.658,242.161a.837.837,0,0,1-.835-.838V238a.837.837,0,0,1,.835-.838h31.473l4.193.222a.837.837,0,0,1,.835.838V241.1a.837.837,0,0,1-.835.838l-4.409.222Z" transform="translate(-106.823 -237.162)" fill="#918291"/>
              <path id="Trazado_1025942" data-name="Trazado 1025942" d="M365.861,237.163H361.02a.837.837,0,0,1,.835.838v3.322a.837.837,0,0,1-.835.838h4.841a.837.837,0,0,0,.835-.838V238A.837.837,0,0,0,365.861,237.163Z" transform="translate(-329.143 -237.163)" fill="#7a6d79"/>
            </g>
          </g>
        </g>
        <path id="Trazado_1025943" data-name="Trazado 1025943" d="M100.434,56.819a30.985,30.985,0,0,1,5.928,14.62,26.658,26.658,0,0,1-34.923,34.922,30.98,30.98,0,0,1-14.619-5.928,31.164,31.164,0,1,0,43.614-43.614Z" transform="translate(-50.635 -50.634)" fill="#fe5ca7"/>
      </g>
      <g id="Grupo_1172074" data-name="Grupo 1172074" transform="translate(7.5 7.5)">
        <path id="Trazado_1025944" data-name="Trazado 1025944" d="M19.25,14.283a31.19,31.19,0,1,1-3.234,2.973M26.861,47.281l-.424.424L18.3,55.846A26.644,26.644,0,0,1,55.846,18.3L48.2,25.942M28.952,51.555l-7.474,7.473A26.577,26.577,0,0,0,49.5,63.008m.162-32.166,2.124-2.124,7.239-7.239a26.607,26.607,0,0,1-5.682,39.41" transform="translate(-7.5 -7.5)" fill="none" stroke="#000" stroke-linecap="round" stroke-linejoin="round" stroke-miterlimit="10" stroke-width="1.5"/>
        <g id="Grupo_1172073" data-name="Grupo 1172073" transform="translate(12.455 13.616)">
          <g id="Grupo_1172071" data-name="Grupo 1172071" transform="translate(7.776 0)">
            <g id="Grupo_1172070" data-name="Grupo 1172070">
              <path id="Trazado_1025945" data-name="Trazado 1025945" d="M169.7,131.486a10.952,10.952,0,0,1,7.732-14.986" transform="translate(-168.83 -116.447)" fill="none" stroke="#000" stroke-linecap="round" stroke-linejoin="round" stroke-miterlimit="10" stroke-width="1.5"/>
              <path id="Trazado_1025946" data-name="Trazado 1025946" d="M272.46,116.08a10.952,10.952,0,0,1,8.008,15" transform="translate(-259.465 -116.08)" fill="none" stroke="#000" stroke-linecap="round" stroke-linejoin="round" stroke-miterlimit="10" stroke-width="1.5"/>
              <g id="Grupo_1172069" data-name="Grupo 1172069" transform="translate(8.655 4.672)">
                <path id="Trazado_1025947" data-name="Trazado 1025947" d="M241.752,166.877a2.459,2.459,0,0,0-2.493-.607,2.007,2.007,0,0,0-.864,3.3,5.87,5.87,0,0,0,2.521,1.195c2.524.893,1.591,4.456-.977,4.473" transform="translate(-237.851 -164.546)" fill="none" stroke="#000" stroke-linecap="round" stroke-linejoin="round" stroke-miterlimit="10" stroke-width="1.5"/>
                <line id="Línea_635" data-name="Línea 635" y2="1.458" transform="translate(2.146)" fill="none" stroke="#000" stroke-linecap="round" stroke-linejoin="round" stroke-miterlimit="10" stroke-width="1.5"/>
              </g>
            </g>
          </g>
          <g id="Grupo_1172072" data-name="Grupo 1172072" transform="translate(0 15.365)">
            <line id="Línea_636" data-name="Línea 636" y2="6.445" transform="translate(35.383 4.971)" fill="none" stroke="#000" stroke-linecap="round" stroke-linejoin="round" stroke-miterlimit="10" stroke-width="1.5"/>
            <path id="Trazado_1025948" data-name="Trazado 1025948" d="M375.578,331.779h0a1.921,1.921,0,0,0-1.921,1.921v3.2H377.5v-3.2A1.921,1.921,0,0,0,375.578,331.779Z" transform="translate(-340.195 -320.095)" fill="none" stroke="#000" stroke-linecap="round" stroke-linejoin="round" stroke-miterlimit="10" stroke-width="1.5"/>
            <path id="Trazado_1025949" data-name="Trazado 1025949" d="M185.962,276.368v10.116a26.389,26.389,0,0,0-11.108,2.43,1.418,1.418,0,0,1-1.23,0,26.39,26.39,0,0,0-11.108-2.43V276.368" transform="translate(-155.532 -271.633)" fill="none" stroke="#000" stroke-linecap="round" stroke-linejoin="round" stroke-miterlimit="10" stroke-width="1.5"/>
            <path id="Trazado_1025950" data-name="Trazado 1025950" d="M122.355,243.244h21.027a.83.83,0,0,0,.853-.806v-3.02a.831.831,0,0,0-.853-.808H107.673a.831.831,0,0,0-.853.808v3.02a.83.83,0,0,0,.853.806h10.293" transform="translate(-106.82 -238.61)" fill="none" stroke="#000" stroke-linecap="round" stroke-linejoin="round" stroke-miterlimit="10" stroke-width="1.5"/>
          </g>
        </g>
      </g>
    </g>
  </g>
</svg>
