<svg xmlns="http://www.w3.org/2000/svg" xmlns:xlink="http://www.w3.org/1999/xlink" width="110" height="110" viewBox="0 0 110 110">
  <defs>
    <filter id="Trazado_982547" x="0" y="0" width="110" height="110" filterUnits="userSpaceOnUse">
      <feOffset dy="3" input="SourceAlpha"/>
      <feGaussianBlur stdDeviation="3" result="blur"/>
      <feFlood flood-opacity="0.161"/>
      <feComposite operator="in" in2="blur"/>
      <feComposite in="SourceGraphic"/>
    </filter>
  </defs>
  <g id="Grupo_1172078" data-name="Grupo 1172078" transform="translate(102 -1195.662)">
    <g id="Grupo_1171905" data-name="Grupo 1171905" transform="translate(-1214 -764.338)">
      <g id="Grupo_1164700" data-name="Grupo 1164700" transform="translate(1121 1966)">
        <g id="Grupo_1160931" data-name="Grupo 1160931" transform="translate(0)">
          <g id="Grupo_1160749" data-name="Grupo 1160749" transform="translate(0)">
            <g id="Grupo_1158891" data-name="Grupo 1158891" transform="translate(0 0)">
              <g id="Grupo_1157406" data-name="Grupo 1157406" transform="translate(0)">
                <g id="Grupo_1155793" data-name="Grupo 1155793" transform="translate(0)">
                  <g id="Grupo_1154704" data-name="Grupo 1154704" transform="translate(0)">
                    <g id="Grupo_1150790" data-name="Grupo 1150790" transform="translate(0)">
                      <g id="Grupo_1154214" data-name="Grupo 1154214" transform="translate(0)">
                        <g id="Grupo_1152583" data-name="Grupo 1152583" transform="translate(0 0)">
                          <g id="Grupo_1146973" data-name="Grupo 1146973" transform="translate(0 0)">
                            <g id="Grupo_1146954" data-name="Grupo 1146954">
                              <g transform="matrix(1, 0, 0, 1, -9, -6)" filter="url(#Trazado_982547)">
                                <g id="Trazado_982547-2" data-name="Trazado 982547" transform="translate(9 6)" fill="#e9f9fd">
                                  <path d="M 46.00000381469727 90.49988555908203 C 39.99188232421875 90.49988555908203 34.16427230834961 89.32352447509766 28.67905807495117 87.00347137451172 C 23.38020324707031 84.76226043701172 18.62104415893555 81.55342864990234 14.53375053405762 77.46615600585938 C 10.44647026062012 73.37887573242188 7.237643718719482 68.61971282958984 4.996417045593262 63.32085800170898 C 2.676363706588745 57.83565902709961 1.500003814697266 52.00806045532227 1.500003814697266 45.99993896484375 C 1.500003814697266 39.99181747436523 2.676363706588745 34.16421890258789 4.996417045593262 28.67901802062988 C 7.237643718719482 23.38017845153809 10.44647026062012 18.62101936340332 14.53375053405762 14.53373908996582 C 18.62104415893555 10.44645881652832 23.38020324707031 7.237632274627686 28.67905807495117 4.996418952941895 C 34.16427230834961 2.676365613937378 39.99188232421875 1.500005602836609 46.00000381469727 1.500005602836609 C 52.00812530517578 1.500005602836609 57.83573532104492 2.676365613937378 63.32094955444336 4.996418952941895 C 68.61980438232422 7.237632274627686 73.37897491455078 10.44645881652832 77.46625518798828 14.53373908996582 C 81.55355072021484 18.62101936340332 84.76236724853516 23.38017845153809 87.00359344482422 28.67901802062988 C 89.32364654541016 34.16421890258789 90.5 39.99181747436523 90.5 45.99993896484375 C 90.5 52.00806045532227 89.32364654541016 57.83565902709961 87.00359344482422 63.32085800170898 C 84.76236724853516 68.61971282958984 81.55355072021484 73.37887573242188 77.46625518798828 77.46615600585938 C 73.37897491455078 81.55342864990234 68.61980438232422 84.76226043701172 63.32094955444336 87.00347137451172 C 57.83573532104492 89.32352447509766 52.00812530517578 90.49988555908203 46.00000381469727 90.49988555908203 Z" stroke="none"/>
                                  <path d="M 46.00000381469727 2.999992370605469 C 40.19371795654297 2.999992370605469 34.56270217895508 4.136497497558594 29.26338958740234 6.377906799316406 C 24.14333343505859 8.543510437011719 19.54441833496094 11.64437866210938 15.59440612792969 15.59439849853516 C 11.64440155029297 19.54439544677734 8.54351806640625 24.14329528808594 6.377914428710938 29.26335144042969 C 4.136505126953125 34.56266784667969 3.000007629394531 40.19366836547852 3.000007629394531 45.99993896484375 C 3.000007629394531 51.80620956420898 4.136505126953125 57.43722534179688 6.377914428710938 62.73654174804688 C 8.54351806640625 67.85658264160156 11.64440155029297 72.45548248291016 15.59440612792969 76.40549468994141 C 19.54441833496094 80.35549926757812 24.14333343505859 83.45636749267578 29.26337432861328 85.62196350097656 C 34.56270217895508 87.86338043212891 40.19371795654297 88.9998779296875 46.00000381469727 88.9998779296875 C 51.80628967285156 88.9998779296875 57.43730545043945 87.86338043212891 62.73663330078125 85.62196350097656 C 67.85667419433594 83.45636749267578 72.45558929443359 80.35549926757812 76.40560150146484 76.40549468994141 C 80.35560607910156 72.45548248291016 83.45648956298828 67.85658264160156 85.62208557128906 62.73654174804688 C 87.86350250244141 57.43722534179688 89 51.80620956420898 89 45.99993896484375 C 89 40.19366836547852 87.86350250244141 34.56266784667969 85.62208557128906 29.26335144042969 C 83.45648956298828 24.14329528808594 80.35560607910156 19.54439544677734 76.40560150146484 15.59439849853516 C 72.45558929443359 11.64437866210938 67.85667419433594 8.543510437011719 62.73661804199219 6.377906799316406 C 57.43730545043945 4.136497497558594 51.80628967285156 2.999992370605469 46.00000381469727 2.999992370605469 M 46.00000381469727 -7.62939453125e-06 C 71.40510559082031 -7.62939453125e-06 92 20.59487915039062 92 45.99993896484375 C 92 71.40501403808594 71.40510559082031 91.99988555908203 46.00000381469727 91.99988555908203 C 20.59490203857422 91.99988555908203 7.62939453125e-06 71.40501403808594 7.62939453125e-06 45.99993896484375 C 7.62939453125e-06 20.59487915039062 20.59490203857422 -7.62939453125e-06 46.00000381469727 -7.62939453125e-06 Z" stroke="none" fill="#36ceef"/>
                                </g>
                              </g>
                            </g>
                          </g>
                        </g>
                      </g>
                    </g>
                  </g>
                </g>
              </g>
            </g>
          </g>
        </g>
      </g>
    </g>
    <g id="calendar_7506118" transform="translate(-77 1220)">
      <g id="Icons">
        <path id="Trazado_1025959" data-name="Trazado 1025959" d="M49,9v4H1V9A4,4,0,0,1,5,5H45A4,4,0,0,1,49,9Z" fill="#f44335"/>
        <path id="Trazado_1025960" data-name="Trazado 1025960" d="M45,5H42a4,4,0,0,1,4,4v4h3V9A4,4,0,0,0,45,5Z" fill="#c81e1e"/>
        <path id="Trazado_1025961" data-name="Trazado 1025961" d="M49,13V33.35A13,13,0,0,0,33.63,50H5a4,4,0,0,1-4-4V13Z" fill="#f5f5f5"/>
        <path id="Trazado_1025962" data-name="Trazado 1025962" d="M46,13V33a12.9,12.9,0,0,1,3,.35V13Z" fill="#cfd8dc"/>
        <g id="Grupo_1172077" data-name="Grupo 1172077">
          <rect id="Rectángulo_414473" data-name="Rectángulo 414473" width="4" height="8" rx="2" transform="translate(28 1)" fill="#7f8e94"/>
          <rect id="Rectángulo_414474" data-name="Rectángulo 414474" width="4" height="8" rx="2" transform="translate(18 1)" fill="#7f8e94"/>
          <rect id="Rectángulo_414475" data-name="Rectángulo 414475" width="4" height="8" rx="2" transform="translate(8 1)" fill="#7f8e94"/>
          <rect id="Rectángulo_414476" data-name="Rectángulo 414476" width="4" height="8" rx="2" transform="translate(38 1)" fill="#7f8e94"/>
        </g>
        <path id="Trazado_1025963" data-name="Trazado 1025963" d="M59,46A13,13,0,1,1,49,33.35,13,13,0,0,1,59,46Z" fill="#ffdf00"/>
        <path id="Trazado_1025964" data-name="Trazado 1025964" d="M49,33.35A12.9,12.9,0,0,0,46,33a13.124,13.124,0,0,0-1.5.087A12.781,12.781,0,0,1,46,33.35a13,13,0,0,1-1.49,25.555A13,13,0,0,0,49,33.35Z" fill="#fec108"/>
        <path id="Trazado_1025965" data-name="Trazado 1025965" d="M35.99,37.71a13.047,13.047,0,0,0-2.22,3.87A3.944,3.944,0,0,1,32,42a4,4,0,1,1,3.99-4.29Z" fill="#9d27b0"/>
        <circle id="Elipse_11784" data-name="Elipse 11784" cx="4" cy="4" r="4" transform="translate(14 20)" fill="#9d27b0"/>
      </g>
      <g id="Icons_copy" data-name="Icons copy">
        <path id="Trazado_1025966" data-name="Trazado 1025966" d="M50,32.59V9a5.006,5.006,0,0,0-5-5H43V3a3,3,0,1,0-6,0V4H33V3a3,3,0,1,0-6,0V4H23V3a3,3,0,1,0-6,0V4H13V3A3,3,0,1,0,7,3V4H5A5.006,5.006,0,0,0,0,9V46a5.006,5.006,0,0,0,5,5H32.939A13.992,13.992,0,1,0,50,32.59ZM39,3a1,1,0,0,1,2,0V7a1,1,0,0,1-2,0ZM29,3a1,1,0,0,1,2,0V7a1,1,0,0,1-2,0ZM19,3a1,1,0,0,1,2,0V7a1,1,0,0,1-2,0ZM9,3a1,1,0,0,1,2,0V7A1,1,0,0,1,9,7ZM5,6H7V7a3,3,0,0,0,6,0V6h4V7a3,3,0,0,0,6,0V6h4V7a3,3,0,0,0,6,0V6h4V7a3,3,0,0,0,6,0V6h2a3,3,0,0,1,3,3v3H2V9A3,3,0,0,1,5,6ZM5,49a3,3,0,0,1-3-3V14H48V32.16a13.7,13.7,0,0,0-11.53,3.614A5,5,0,1,0,32,43c.113,0,.225-.012.337-.019A13.706,13.706,0,0,0,32.332,49Zm28.013-8.2A2.914,2.914,0,0,1,32,41a3,3,0,1,1,2.936-3.547A14,14,0,0,0,33.013,40.8ZM46,58A12,12,0,1,1,58,46,12,12,0,0,1,46,58Z"/>
        <path id="Trazado_1025967" data-name="Trazado 1025967" d="M46,41a2,2,0,0,1,2,2,1,1,0,0,0,2,0,4,4,0,0,0-3-3.858V38a1,1,0,0,0-2,0v1.142A3.992,3.992,0,0,0,46,47a2,2,0,1,1-2,2,1,1,0,0,0-2,0,4,4,0,0,0,3,3.858V54a1,1,0,0,0,2,0V52.858A3.992,3.992,0,0,0,46,45a2,2,0,1,1,0-4Z"/>
        <path id="Trazado_1025968" data-name="Trazado 1025968" d="M35.707,20.293a1,1,0,0,0-1.414,0l-20,20a1,1,0,1,0,1.414,1.414l20-20a1,1,0,0,0,0-1.414Z"/>
        <path id="Trazado_1025969" data-name="Trazado 1025969" d="M18,29a5,5,0,1,0-5-5,5,5,0,0,0,5,5Zm0-8a3,3,0,1,1-3,3A3,3,0,0,1,18,21Z"/>
      </g>
    </g>
  </g>
</svg>
